G04 #@! TF.FileFunction,Copper,L2,Bot,Signal*
%FSLAX46Y46*%
G04 Gerber Fmt 4.6, Leading zero omitted, Abs format (unit mm)*
G04 Created by KiCad (PCBNEW 4.0.7) date 06/05/18 18:44:41*
%MOMM*%
%LPD*%
G01*
G04 APERTURE LIST*
%ADD10C,0.100000*%
%ADD11C,0.200000*%
%ADD12C,0.250000*%
%ADD13C,0.150000*%
%ADD14C,4.800000*%
%ADD15R,4.800000X4.800000*%
%ADD16R,1.700000X1.700000*%
%ADD17O,1.700000X1.700000*%
%ADD18C,3.000000*%
%ADD19C,1.800000*%
%ADD20C,1.500000*%
%ADD21C,0.500000*%
%ADD22C,0.254000*%
G04 APERTURE END LIST*
D10*
D11*
X96071430Y-102785714D02*
X96071430Y-103642857D01*
X96119049Y-103738095D01*
X96214287Y-103785714D01*
X96261906Y-103785714D01*
X96071430Y-102452381D02*
X96119049Y-102500000D01*
X96071430Y-102547619D01*
X96023811Y-102500000D01*
X96071430Y-102452381D01*
X96071430Y-102547619D01*
X95214287Y-103404762D02*
X95309525Y-103452381D01*
X95500002Y-103452381D01*
X95595240Y-103404762D01*
X95642859Y-103309524D01*
X95642859Y-102928571D01*
X95595240Y-102833333D01*
X95500002Y-102785714D01*
X95309525Y-102785714D01*
X95214287Y-102833333D01*
X95166668Y-102928571D01*
X95166668Y-103023810D01*
X95642859Y-103119048D01*
X94738097Y-103452381D02*
X94738097Y-102785714D01*
X94738097Y-102976190D02*
X94690478Y-102880952D01*
X94642859Y-102833333D01*
X94547621Y-102785714D01*
X94452382Y-102785714D01*
X94119049Y-103452381D02*
X94119049Y-102452381D01*
X94023811Y-103071429D02*
X93738096Y-103452381D01*
X93738096Y-102785714D02*
X94119049Y-103166667D01*
X92880953Y-102785714D02*
X92880953Y-103452381D01*
X93309525Y-102785714D02*
X93309525Y-103309524D01*
X93261906Y-103404762D01*
X93166668Y-103452381D01*
X93023810Y-103452381D01*
X92928572Y-103404762D01*
X92880953Y-103357143D01*
X92261906Y-103452381D02*
X92357144Y-103404762D01*
X92404763Y-103309524D01*
X92404763Y-102452381D01*
X91452381Y-103452381D02*
X91452381Y-102928571D01*
X91500000Y-102833333D01*
X91595238Y-102785714D01*
X91785715Y-102785714D01*
X91880953Y-102833333D01*
X91452381Y-103404762D02*
X91547619Y-103452381D01*
X91785715Y-103452381D01*
X91880953Y-103404762D01*
X91928572Y-103309524D01*
X91928572Y-103214286D01*
X91880953Y-103119048D01*
X91785715Y-103071429D01*
X91547619Y-103071429D01*
X91452381Y-103023810D01*
X91119048Y-102785714D02*
X90738096Y-102785714D01*
X90976191Y-102452381D02*
X90976191Y-103309524D01*
X90928572Y-103404762D01*
X90833334Y-103452381D01*
X90738096Y-103452381D01*
X90261905Y-103452381D02*
X90357143Y-103404762D01*
X90404762Y-103357143D01*
X90452381Y-103261905D01*
X90452381Y-102976190D01*
X90404762Y-102880952D01*
X90357143Y-102833333D01*
X90261905Y-102785714D01*
X90119047Y-102785714D01*
X90023809Y-102833333D01*
X89976190Y-102880952D01*
X89928571Y-102976190D01*
X89928571Y-103261905D01*
X89976190Y-103357143D01*
X90023809Y-103404762D01*
X90119047Y-103452381D01*
X90261905Y-103452381D01*
X89500000Y-103452381D02*
X89500000Y-102785714D01*
X89500000Y-102976190D02*
X89452381Y-102880952D01*
X89404762Y-102833333D01*
X89309524Y-102785714D01*
X89214285Y-102785714D01*
X88214285Y-102785714D02*
X87976190Y-103452381D01*
X87738094Y-102785714D01*
X87166666Y-102452381D02*
X87071427Y-102452381D01*
X86976189Y-102500000D01*
X86928570Y-102547619D01*
X86880951Y-102642857D01*
X86833332Y-102833333D01*
X86833332Y-103071429D01*
X86880951Y-103261905D01*
X86928570Y-103357143D01*
X86976189Y-103404762D01*
X87071427Y-103452381D01*
X87166666Y-103452381D01*
X87261904Y-103404762D01*
X87309523Y-103357143D01*
X87357142Y-103261905D01*
X87404761Y-103071429D01*
X87404761Y-102833333D01*
X87357142Y-102642857D01*
X87309523Y-102547619D01*
X87261904Y-102500000D01*
X87166666Y-102452381D01*
X86499999Y-102452381D02*
X85880951Y-102452381D01*
X86214285Y-102833333D01*
X86071427Y-102833333D01*
X85976189Y-102880952D01*
X85928570Y-102928571D01*
X85880951Y-103023810D01*
X85880951Y-103261905D01*
X85928570Y-103357143D01*
X85976189Y-103404762D01*
X86071427Y-103452381D01*
X86357142Y-103452381D01*
X86452380Y-103404762D01*
X86499999Y-103357143D01*
X96214286Y-101952381D02*
X96214286Y-100952381D01*
X95785714Y-101952381D02*
X95785714Y-101428571D01*
X95833333Y-101333333D01*
X95928571Y-101285714D01*
X96071429Y-101285714D01*
X96166667Y-101333333D01*
X96214286Y-101380952D01*
X94880952Y-101952381D02*
X94880952Y-101428571D01*
X94928571Y-101333333D01*
X95023809Y-101285714D01*
X95214286Y-101285714D01*
X95309524Y-101333333D01*
X94880952Y-101904762D02*
X94976190Y-101952381D01*
X95214286Y-101952381D01*
X95309524Y-101904762D01*
X95357143Y-101809524D01*
X95357143Y-101714286D01*
X95309524Y-101619048D01*
X95214286Y-101571429D01*
X94976190Y-101571429D01*
X94880952Y-101523810D01*
X94404762Y-101952381D02*
X94404762Y-101285714D01*
X94404762Y-101476190D02*
X94357143Y-101380952D01*
X94309524Y-101333333D01*
X94214286Y-101285714D01*
X94119047Y-101285714D01*
X93785714Y-101952381D02*
X93785714Y-101285714D01*
X93785714Y-101380952D02*
X93738095Y-101333333D01*
X93642857Y-101285714D01*
X93499999Y-101285714D01*
X93404761Y-101333333D01*
X93357142Y-101428571D01*
X93357142Y-101952381D01*
X93357142Y-101428571D02*
X93309523Y-101333333D01*
X93214285Y-101285714D01*
X93071428Y-101285714D01*
X92976190Y-101333333D01*
X92928571Y-101428571D01*
X92928571Y-101952381D01*
X92309524Y-101952381D02*
X92404762Y-101904762D01*
X92452381Y-101857143D01*
X92500000Y-101761905D01*
X92500000Y-101476190D01*
X92452381Y-101380952D01*
X92404762Y-101333333D01*
X92309524Y-101285714D01*
X92166666Y-101285714D01*
X92071428Y-101333333D01*
X92023809Y-101380952D01*
X91976190Y-101476190D01*
X91976190Y-101761905D01*
X92023809Y-101857143D01*
X92071428Y-101904762D01*
X92166666Y-101952381D01*
X92309524Y-101952381D01*
X91547619Y-101285714D02*
X91547619Y-101952381D01*
X91547619Y-101380952D02*
X91500000Y-101333333D01*
X91404762Y-101285714D01*
X91261904Y-101285714D01*
X91166666Y-101333333D01*
X91119047Y-101428571D01*
X91119047Y-101952381D01*
X90642857Y-101952381D02*
X90642857Y-101285714D01*
X90642857Y-100952381D02*
X90690476Y-101000000D01*
X90642857Y-101047619D01*
X90595238Y-101000000D01*
X90642857Y-100952381D01*
X90642857Y-101047619D01*
X89738095Y-101904762D02*
X89833333Y-101952381D01*
X90023810Y-101952381D01*
X90119048Y-101904762D01*
X90166667Y-101857143D01*
X90214286Y-101761905D01*
X90214286Y-101476190D01*
X90166667Y-101380952D01*
X90119048Y-101333333D01*
X90023810Y-101285714D01*
X89833333Y-101285714D01*
X89738095Y-101333333D01*
X95690476Y-100565229D02*
X96023810Y-100089038D01*
X96261905Y-100565229D02*
X96261905Y-99565229D01*
X95880952Y-99565229D01*
X95785714Y-99612848D01*
X95738095Y-99660467D01*
X95690476Y-99755705D01*
X95690476Y-99898562D01*
X95738095Y-99993800D01*
X95785714Y-100041419D01*
X95880952Y-100089038D01*
X96261905Y-100089038D01*
X95309524Y-100279515D02*
X94833333Y-100279515D01*
X95404762Y-100565229D02*
X95071429Y-99565229D01*
X94738095Y-100565229D01*
X94404762Y-100565229D02*
X94404762Y-99565229D01*
X93833333Y-100565229D01*
X93833333Y-99565229D01*
X93357143Y-100565229D02*
X93357143Y-99565229D01*
X93119048Y-99565229D01*
X92976190Y-99612848D01*
X92880952Y-99708086D01*
X92833333Y-99803324D01*
X92785714Y-99993800D01*
X92785714Y-100136658D01*
X92833333Y-100327134D01*
X92880952Y-100422372D01*
X92976190Y-100517610D01*
X93119048Y-100565229D01*
X93357143Y-100565229D01*
X92404762Y-100279515D02*
X91928571Y-100279515D01*
X92500000Y-100565229D02*
X92166667Y-99565229D01*
X91833333Y-100565229D01*
X90976190Y-99612848D02*
X91071428Y-99565229D01*
X91214285Y-99565229D01*
X91357143Y-99612848D01*
X91452381Y-99708086D01*
X91500000Y-99803324D01*
X91547619Y-99993800D01*
X91547619Y-100136658D01*
X91500000Y-100327134D01*
X91452381Y-100422372D01*
X91357143Y-100517610D01*
X91214285Y-100565229D01*
X91119047Y-100565229D01*
X90976190Y-100517610D01*
X90928571Y-100469991D01*
X90928571Y-100136658D01*
X91119047Y-100136658D01*
X90309524Y-99565229D02*
X90119047Y-99565229D01*
X90023809Y-99612848D01*
X89928571Y-99708086D01*
X89880952Y-99898562D01*
X89880952Y-100231896D01*
X89928571Y-100422372D01*
X90023809Y-100517610D01*
X90119047Y-100565229D01*
X90309524Y-100565229D01*
X90404762Y-100517610D01*
X90500000Y-100422372D01*
X90547619Y-100231896D01*
X90547619Y-99898562D01*
X90500000Y-99708086D01*
X90404762Y-99612848D01*
X90309524Y-99565229D01*
X89452381Y-100565229D02*
X89452381Y-99565229D01*
X89214286Y-99565229D01*
X89071428Y-99612848D01*
X88976190Y-99708086D01*
X88928571Y-99803324D01*
X88880952Y-99993800D01*
X88880952Y-100136658D01*
X88928571Y-100327134D01*
X88976190Y-100422372D01*
X89071428Y-100517610D01*
X89214286Y-100565229D01*
X89452381Y-100565229D01*
X87880952Y-100565229D02*
X88214286Y-100089038D01*
X88452381Y-100565229D02*
X88452381Y-99565229D01*
X88071428Y-99565229D01*
X87976190Y-99612848D01*
X87928571Y-99660467D01*
X87880952Y-99755705D01*
X87880952Y-99898562D01*
X87928571Y-99993800D01*
X87976190Y-100041419D01*
X88071428Y-100089038D01*
X88452381Y-100089038D01*
X87261905Y-99565229D02*
X87071428Y-99565229D01*
X86976190Y-99612848D01*
X86880952Y-99708086D01*
X86833333Y-99898562D01*
X86833333Y-100231896D01*
X86880952Y-100422372D01*
X86976190Y-100517610D01*
X87071428Y-100565229D01*
X87261905Y-100565229D01*
X87357143Y-100517610D01*
X87452381Y-100422372D01*
X87500000Y-100231896D01*
X87500000Y-99898562D01*
X87452381Y-99708086D01*
X87357143Y-99612848D01*
X87261905Y-99565229D01*
X86404762Y-100565229D02*
X86404762Y-99565229D01*
X85833333Y-100565229D01*
X85833333Y-99565229D01*
D12*
X151940476Y-105452381D02*
X152273810Y-104976190D01*
X152511905Y-105452381D02*
X152511905Y-104452381D01*
X152130952Y-104452381D01*
X152035714Y-104500000D01*
X151988095Y-104547619D01*
X151940476Y-104642857D01*
X151940476Y-104785714D01*
X151988095Y-104880952D01*
X152035714Y-104928571D01*
X152130952Y-104976190D01*
X152511905Y-104976190D01*
X151559524Y-105166667D02*
X151083333Y-105166667D01*
X151654762Y-105452381D02*
X151321429Y-104452381D01*
X150988095Y-105452381D01*
X150654762Y-105452381D02*
X150654762Y-104452381D01*
X150083333Y-105452381D01*
X150083333Y-104452381D01*
X149607143Y-105452381D02*
X149607143Y-104452381D01*
X149369048Y-104452381D01*
X149226190Y-104500000D01*
X149130952Y-104595238D01*
X149083333Y-104690476D01*
X149035714Y-104880952D01*
X149035714Y-105023810D01*
X149083333Y-105214286D01*
X149130952Y-105309524D01*
X149226190Y-105404762D01*
X149369048Y-105452381D01*
X149607143Y-105452381D01*
X148654762Y-105166667D02*
X148178571Y-105166667D01*
X148750000Y-105452381D02*
X148416667Y-104452381D01*
X148083333Y-105452381D01*
X147226190Y-104500000D02*
X147321428Y-104452381D01*
X147464285Y-104452381D01*
X147607143Y-104500000D01*
X147702381Y-104595238D01*
X147750000Y-104690476D01*
X147797619Y-104880952D01*
X147797619Y-105023810D01*
X147750000Y-105214286D01*
X147702381Y-105309524D01*
X147607143Y-105404762D01*
X147464285Y-105452381D01*
X147369047Y-105452381D01*
X147226190Y-105404762D01*
X147178571Y-105357143D01*
X147178571Y-105023810D01*
X147369047Y-105023810D01*
X146559524Y-104452381D02*
X146369047Y-104452381D01*
X146273809Y-104500000D01*
X146178571Y-104595238D01*
X146130952Y-104785714D01*
X146130952Y-105119048D01*
X146178571Y-105309524D01*
X146273809Y-105404762D01*
X146369047Y-105452381D01*
X146559524Y-105452381D01*
X146654762Y-105404762D01*
X146750000Y-105309524D01*
X146797619Y-105119048D01*
X146797619Y-104785714D01*
X146750000Y-104595238D01*
X146654762Y-104500000D01*
X146559524Y-104452381D01*
X145702381Y-105452381D02*
X145702381Y-104452381D01*
X145464286Y-104452381D01*
X145321428Y-104500000D01*
X145226190Y-104595238D01*
X145178571Y-104690476D01*
X145130952Y-104880952D01*
X145130952Y-105023810D01*
X145178571Y-105214286D01*
X145226190Y-105309524D01*
X145321428Y-105404762D01*
X145464286Y-105452381D01*
X145702381Y-105452381D01*
X144130952Y-105452381D02*
X144464286Y-104976190D01*
X144702381Y-105452381D02*
X144702381Y-104452381D01*
X144321428Y-104452381D01*
X144226190Y-104500000D01*
X144178571Y-104547619D01*
X144130952Y-104642857D01*
X144130952Y-104785714D01*
X144178571Y-104880952D01*
X144226190Y-104928571D01*
X144321428Y-104976190D01*
X144702381Y-104976190D01*
X143511905Y-104452381D02*
X143321428Y-104452381D01*
X143226190Y-104500000D01*
X143130952Y-104595238D01*
X143083333Y-104785714D01*
X143083333Y-105119048D01*
X143130952Y-105309524D01*
X143226190Y-105404762D01*
X143321428Y-105452381D01*
X143511905Y-105452381D01*
X143607143Y-105404762D01*
X143702381Y-105309524D01*
X143750000Y-105119048D01*
X143750000Y-104785714D01*
X143702381Y-104595238D01*
X143607143Y-104500000D01*
X143511905Y-104452381D01*
X142654762Y-105452381D02*
X142654762Y-104452381D01*
X142083333Y-105452381D01*
X142083333Y-104452381D01*
X152511905Y-107202381D02*
X152511905Y-106202381D01*
X152083333Y-107202381D02*
X152083333Y-106678571D01*
X152130952Y-106583333D01*
X152226190Y-106535714D01*
X152369048Y-106535714D01*
X152464286Y-106583333D01*
X152511905Y-106630952D01*
X151178571Y-107202381D02*
X151178571Y-106678571D01*
X151226190Y-106583333D01*
X151321428Y-106535714D01*
X151511905Y-106535714D01*
X151607143Y-106583333D01*
X151178571Y-107154762D02*
X151273809Y-107202381D01*
X151511905Y-107202381D01*
X151607143Y-107154762D01*
X151654762Y-107059524D01*
X151654762Y-106964286D01*
X151607143Y-106869048D01*
X151511905Y-106821429D01*
X151273809Y-106821429D01*
X151178571Y-106773810D01*
X150702381Y-107202381D02*
X150702381Y-106535714D01*
X150702381Y-106726190D02*
X150654762Y-106630952D01*
X150607143Y-106583333D01*
X150511905Y-106535714D01*
X150416666Y-106535714D01*
X150083333Y-107202381D02*
X150083333Y-106535714D01*
X150083333Y-106630952D02*
X150035714Y-106583333D01*
X149940476Y-106535714D01*
X149797618Y-106535714D01*
X149702380Y-106583333D01*
X149654761Y-106678571D01*
X149654761Y-107202381D01*
X149654761Y-106678571D02*
X149607142Y-106583333D01*
X149511904Y-106535714D01*
X149369047Y-106535714D01*
X149273809Y-106583333D01*
X149226190Y-106678571D01*
X149226190Y-107202381D01*
X148607143Y-107202381D02*
X148702381Y-107154762D01*
X148750000Y-107107143D01*
X148797619Y-107011905D01*
X148797619Y-106726190D01*
X148750000Y-106630952D01*
X148702381Y-106583333D01*
X148607143Y-106535714D01*
X148464285Y-106535714D01*
X148369047Y-106583333D01*
X148321428Y-106630952D01*
X148273809Y-106726190D01*
X148273809Y-107011905D01*
X148321428Y-107107143D01*
X148369047Y-107154762D01*
X148464285Y-107202381D01*
X148607143Y-107202381D01*
X147845238Y-106535714D02*
X147845238Y-107202381D01*
X147845238Y-106630952D02*
X147797619Y-106583333D01*
X147702381Y-106535714D01*
X147559523Y-106535714D01*
X147464285Y-106583333D01*
X147416666Y-106678571D01*
X147416666Y-107202381D01*
X146940476Y-107202381D02*
X146940476Y-106535714D01*
X146940476Y-106202381D02*
X146988095Y-106250000D01*
X146940476Y-106297619D01*
X146892857Y-106250000D01*
X146940476Y-106202381D01*
X146940476Y-106297619D01*
X146035714Y-107154762D02*
X146130952Y-107202381D01*
X146321429Y-107202381D01*
X146416667Y-107154762D01*
X146464286Y-107107143D01*
X146511905Y-107011905D01*
X146511905Y-106726190D01*
X146464286Y-106630952D01*
X146416667Y-106583333D01*
X146321429Y-106535714D01*
X146130952Y-106535714D01*
X146035714Y-106583333D01*
X152511905Y-108285714D02*
X152511905Y-109142857D01*
X152559524Y-109238095D01*
X152654762Y-109285714D01*
X152702381Y-109285714D01*
X152511905Y-107952381D02*
X152559524Y-108000000D01*
X152511905Y-108047619D01*
X152464286Y-108000000D01*
X152511905Y-107952381D01*
X152511905Y-108047619D01*
X151654762Y-108904762D02*
X151750000Y-108952381D01*
X151940477Y-108952381D01*
X152035715Y-108904762D01*
X152083334Y-108809524D01*
X152083334Y-108428571D01*
X152035715Y-108333333D01*
X151940477Y-108285714D01*
X151750000Y-108285714D01*
X151654762Y-108333333D01*
X151607143Y-108428571D01*
X151607143Y-108523810D01*
X152083334Y-108619048D01*
X151178572Y-108952381D02*
X151178572Y-108285714D01*
X151178572Y-108476190D02*
X151130953Y-108380952D01*
X151083334Y-108333333D01*
X150988096Y-108285714D01*
X150892857Y-108285714D01*
X150559524Y-108952381D02*
X150559524Y-107952381D01*
X150464286Y-108571429D02*
X150178571Y-108952381D01*
X150178571Y-108285714D02*
X150559524Y-108666667D01*
X149321428Y-108285714D02*
X149321428Y-108952381D01*
X149750000Y-108285714D02*
X149750000Y-108809524D01*
X149702381Y-108904762D01*
X149607143Y-108952381D01*
X149464285Y-108952381D01*
X149369047Y-108904762D01*
X149321428Y-108857143D01*
X148702381Y-108952381D02*
X148797619Y-108904762D01*
X148845238Y-108809524D01*
X148845238Y-107952381D01*
X147892856Y-108952381D02*
X147892856Y-108428571D01*
X147940475Y-108333333D01*
X148035713Y-108285714D01*
X148226190Y-108285714D01*
X148321428Y-108333333D01*
X147892856Y-108904762D02*
X147988094Y-108952381D01*
X148226190Y-108952381D01*
X148321428Y-108904762D01*
X148369047Y-108809524D01*
X148369047Y-108714286D01*
X148321428Y-108619048D01*
X148226190Y-108571429D01*
X147988094Y-108571429D01*
X147892856Y-108523810D01*
X147559523Y-108285714D02*
X147178571Y-108285714D01*
X147416666Y-107952381D02*
X147416666Y-108809524D01*
X147369047Y-108904762D01*
X147273809Y-108952381D01*
X147178571Y-108952381D01*
X146702380Y-108952381D02*
X146797618Y-108904762D01*
X146845237Y-108857143D01*
X146892856Y-108761905D01*
X146892856Y-108476190D01*
X146845237Y-108380952D01*
X146797618Y-108333333D01*
X146702380Y-108285714D01*
X146559522Y-108285714D01*
X146464284Y-108333333D01*
X146416665Y-108380952D01*
X146369046Y-108476190D01*
X146369046Y-108761905D01*
X146416665Y-108857143D01*
X146464284Y-108904762D01*
X146559522Y-108952381D01*
X146702380Y-108952381D01*
X145940475Y-108952381D02*
X145940475Y-108285714D01*
X145940475Y-108476190D02*
X145892856Y-108380952D01*
X145845237Y-108333333D01*
X145749999Y-108285714D01*
X145654760Y-108285714D01*
X144654760Y-108285714D02*
X144416665Y-108952381D01*
X144178569Y-108285714D01*
X143607141Y-107952381D02*
X143511902Y-107952381D01*
X143416664Y-108000000D01*
X143369045Y-108047619D01*
X143321426Y-108142857D01*
X143273807Y-108333333D01*
X143273807Y-108571429D01*
X143321426Y-108761905D01*
X143369045Y-108857143D01*
X143416664Y-108904762D01*
X143511902Y-108952381D01*
X143607141Y-108952381D01*
X143702379Y-108904762D01*
X143749998Y-108857143D01*
X143797617Y-108761905D01*
X143845236Y-108571429D01*
X143845236Y-108333333D01*
X143797617Y-108142857D01*
X143749998Y-108047619D01*
X143702379Y-108000000D01*
X143607141Y-107952381D01*
X142940474Y-107952381D02*
X142321426Y-107952381D01*
X142654760Y-108333333D01*
X142511902Y-108333333D01*
X142416664Y-108380952D01*
X142369045Y-108428571D01*
X142321426Y-108523810D01*
X142321426Y-108761905D01*
X142369045Y-108857143D01*
X142416664Y-108904762D01*
X142511902Y-108952381D01*
X142797617Y-108952381D01*
X142892855Y-108904762D01*
X142940474Y-108857143D01*
D13*
X126466666Y-129600000D02*
G75*
G03X126466666Y-129600000I-1666666J0D01*
G01*
X122300000Y-129600000D02*
X127300000Y-129600000D01*
X124800000Y-127100000D02*
X124800000Y-132100000D01*
X153666666Y-49200000D02*
G75*
G03X153666666Y-49200000I-1666666J0D01*
G01*
X149500000Y-49200000D02*
X154500000Y-49200000D01*
X152000000Y-46700000D02*
X152000000Y-51700000D01*
X68866666Y-129600000D02*
G75*
G03X68866666Y-129600000I-1666666J0D01*
G01*
X64700000Y-129600000D02*
X69700000Y-129600000D01*
X67200000Y-127100000D02*
X67200000Y-132100000D01*
X95266666Y-49200000D02*
G75*
G03X95266666Y-49200000I-1666666J0D01*
G01*
X91100000Y-49200000D02*
X96100000Y-49200000D01*
X93600000Y-46700000D02*
X93600000Y-51700000D01*
X122000000Y-110000000D02*
X155000000Y-110000000D01*
X64000000Y-110000000D02*
X97000000Y-110000000D01*
X148000000Y-53000000D02*
X155000000Y-53000000D01*
X155000000Y-53000000D02*
X155000000Y-126000000D01*
X129000000Y-46000000D02*
X148000000Y-46000000D01*
X129000000Y-53000000D02*
X129000000Y-46000000D01*
X148000000Y-46000000D02*
X148000000Y-53000000D01*
X122000000Y-126000000D02*
X122000000Y-53000000D01*
X122000000Y-53000000D02*
X129000000Y-53000000D01*
X148000000Y-126000000D02*
X148000000Y-133000000D01*
X155000000Y-126000000D02*
X148000000Y-126000000D01*
X148000000Y-133000000D02*
X129000000Y-133000000D01*
X129000000Y-133000000D02*
X129000000Y-126000000D01*
X129000000Y-126000000D02*
X122000000Y-126000000D01*
X71000000Y-53000000D02*
X71000000Y-46000000D01*
X64000000Y-53000000D02*
X71000000Y-53000000D01*
X64000000Y-126000000D02*
X64000000Y-53000000D01*
X71000000Y-126000000D02*
X64000000Y-126000000D01*
X71000000Y-133000000D02*
X71000000Y-126000000D01*
X90000000Y-133000000D02*
X71000000Y-133000000D01*
X90000000Y-126000000D02*
X90000000Y-133000000D01*
X97000000Y-126000000D02*
X90000000Y-126000000D01*
X97000000Y-53000000D02*
X97000000Y-126000000D01*
X90000000Y-53000000D02*
X97000000Y-53000000D01*
X90000000Y-46000000D02*
X90000000Y-53000000D01*
X71000000Y-46000000D02*
X90000000Y-46000000D01*
D14*
X85400000Y-52100000D03*
D15*
X85400000Y-58200000D03*
D14*
X80320000Y-54390000D03*
D16*
X128260000Y-93800000D03*
D17*
X130800000Y-93800000D03*
D18*
X66750000Y-107900000D03*
X73100000Y-107900000D03*
X79450000Y-96450000D03*
X79450000Y-107900000D03*
X66750000Y-96450000D03*
X73100000Y-96450000D03*
X94250000Y-80300000D03*
X87900000Y-80300000D03*
X81550000Y-91750000D03*
X81550000Y-80300000D03*
X94250000Y-91750000D03*
X87900000Y-91750000D03*
D16*
X127000000Y-72200000D03*
D17*
X127000000Y-74740000D03*
X127000000Y-77280000D03*
X127000000Y-79820000D03*
X127000000Y-82360000D03*
X127000000Y-84900000D03*
D16*
X69000000Y-72200000D03*
D17*
X69000000Y-74740000D03*
X69000000Y-77280000D03*
X69000000Y-79820000D03*
X69000000Y-82360000D03*
X69000000Y-84900000D03*
D16*
X136600000Y-49700000D03*
D17*
X139140000Y-49700000D03*
X141680000Y-49700000D03*
D19*
X126800000Y-67600000D03*
X129300000Y-67600000D03*
X131800000Y-67600000D03*
D18*
X124550000Y-60100000D03*
X134050000Y-60100000D03*
D19*
X145400000Y-67600000D03*
X147900000Y-67600000D03*
X150400000Y-67600000D03*
D18*
X143150000Y-60100000D03*
X152650000Y-60100000D03*
D16*
X128160000Y-89900000D03*
D17*
X130700000Y-89900000D03*
D16*
X73860000Y-76000000D03*
D17*
X76400000Y-76000000D03*
D16*
X147580000Y-76200000D03*
D17*
X145040000Y-76200000D03*
X142500000Y-76200000D03*
D16*
X135460000Y-71900000D03*
D17*
X138000000Y-71900000D03*
X140540000Y-71900000D03*
D16*
X138800000Y-58660000D03*
D17*
X138800000Y-61200000D03*
D20*
X146600000Y-71074990D03*
X140218870Y-74077879D03*
X149002249Y-78824437D03*
X143027908Y-69853898D03*
X150700000Y-78400000D03*
X132200000Y-70200000D03*
X135600000Y-73900000D03*
X139800000Y-76675010D03*
X135025010Y-69500000D03*
X131892686Y-80303463D03*
X124700000Y-77300000D03*
X131600000Y-82300000D03*
X127900000Y-87400000D03*
X130725000Y-79000000D03*
X81700000Y-61100000D03*
X68400000Y-61400000D03*
X72105000Y-73100000D03*
X132100000Y-84700000D03*
X138750000Y-55500000D03*
X140800000Y-55400000D03*
X82100000Y-69000000D03*
X76500000Y-80600000D03*
X86700000Y-62100000D03*
X78600000Y-59850000D03*
X80250000Y-68250000D03*
X72000000Y-80250000D03*
X80775000Y-74700000D03*
X81900000Y-76400000D03*
X72500000Y-78250000D03*
X124700000Y-79800000D03*
X129600000Y-82400000D03*
X126300000Y-69800000D03*
X124700000Y-74700000D03*
X139491833Y-68345574D03*
X130425000Y-70200000D03*
X76900000Y-73100000D03*
X79100000Y-50200000D03*
D12*
X94560132Y-109062848D02*
X93760132Y-108262848D01*
X95960132Y-107862848D02*
X95960132Y-109062848D01*
X95960132Y-109062848D02*
X94560132Y-109062848D01*
X95960132Y-105462848D02*
X95560132Y-105062848D01*
X95960132Y-106662848D02*
X94360132Y-105062848D01*
X95960132Y-107262848D02*
X93760132Y-105062848D01*
X95960132Y-106062848D02*
X94960132Y-105062848D01*
X93160132Y-105062848D02*
X95960132Y-107862848D01*
X91960132Y-109062848D02*
X91960132Y-108062848D01*
X92760132Y-107262848D02*
X91960132Y-106462848D01*
X92960132Y-109062848D02*
X91960132Y-109062848D01*
X93760132Y-108262848D02*
X92960132Y-109062848D01*
X91960132Y-106462848D02*
X91960132Y-105062848D01*
X91960132Y-108062848D02*
X92760132Y-107262848D01*
X91960132Y-105062848D02*
X93160132Y-105062848D01*
X91560132Y-104662848D02*
X96360132Y-104662848D01*
X91560132Y-109462848D02*
X91560132Y-104662848D01*
X96360132Y-109462848D02*
X91560132Y-109462848D01*
X96360132Y-104662848D02*
X96360132Y-109462848D01*
X137800000Y-108700000D02*
X136600000Y-108700000D01*
X138600000Y-107900000D02*
X137800000Y-108700000D01*
X136600000Y-108700000D02*
X136600000Y-107500000D01*
X136600000Y-107500000D02*
X137400000Y-106700000D01*
X137400000Y-106700000D02*
X136600000Y-105900000D01*
X136600000Y-105900000D02*
X136600000Y-104700000D01*
X136600000Y-104700000D02*
X138000000Y-104700000D01*
X140600000Y-107300000D02*
X140600000Y-108700000D01*
X139400000Y-108700000D02*
X138600000Y-107900000D01*
X140600000Y-108700000D02*
X139400000Y-108700000D01*
X138000000Y-104700000D02*
X140600000Y-107300000D01*
X140600000Y-106100000D02*
X139200000Y-104700000D01*
X140600000Y-105500000D02*
X139800000Y-104700000D01*
X140600000Y-104900000D02*
X140400000Y-104700000D01*
X140600000Y-106700000D02*
X138600000Y-104700000D01*
X136200000Y-109100000D02*
X136200000Y-104300000D01*
X136200000Y-104300000D02*
X141000000Y-104300000D01*
X141000000Y-104300000D02*
X141000000Y-109100000D01*
X141000000Y-109100000D02*
X136200000Y-109100000D01*
X147349999Y-70324991D02*
X146600000Y-71074990D01*
X147900000Y-69774990D02*
X147349999Y-70324991D01*
X147900000Y-67600000D02*
X147900000Y-69774990D01*
X147900000Y-69400000D02*
X147900000Y-67600000D01*
X138000000Y-71900000D02*
X140177879Y-74077879D01*
X140177879Y-74077879D02*
X140218870Y-74077879D01*
X149002249Y-78824437D02*
X146124437Y-78824437D01*
X146124437Y-78824437D02*
X145040000Y-77740000D01*
X145040000Y-77740000D02*
X145040000Y-76200000D01*
X143027908Y-69853898D02*
X140981806Y-71900000D01*
X140981806Y-71900000D02*
X140540000Y-71900000D01*
X150700000Y-78400000D02*
X150700000Y-77339340D01*
X149560660Y-76200000D02*
X148680000Y-76200000D01*
X150700000Y-77339340D02*
X149560660Y-76200000D01*
X148680000Y-76200000D02*
X147580000Y-76200000D01*
X136600000Y-49700000D02*
X136600000Y-51400000D01*
X136600000Y-51400000D02*
X135700010Y-52299990D01*
X135700010Y-52299990D02*
X134800010Y-52299990D01*
X134800010Y-52299990D02*
X130699989Y-56400011D01*
X130699989Y-56400011D02*
X130699989Y-61457102D01*
X130699989Y-61457102D02*
X133400000Y-64157113D01*
X133400000Y-64157113D02*
X133400000Y-69000000D01*
X133400000Y-69000000D02*
X132200000Y-70200000D01*
X136900000Y-75200000D02*
X135600000Y-73900000D01*
X142500000Y-76200000D02*
X141650001Y-75350001D01*
X141650001Y-75350001D02*
X137050001Y-75350001D01*
X137050001Y-75350001D02*
X136900000Y-75200000D01*
X135460000Y-71900000D02*
X135460000Y-73760000D01*
X135460000Y-73760000D02*
X135600000Y-73900000D01*
X131967696Y-76675010D02*
X138739340Y-76675010D01*
X131892686Y-76600000D02*
X131967696Y-76675010D01*
X138739340Y-76675010D02*
X139800000Y-76675010D01*
X131892686Y-80303463D02*
X131892686Y-76600000D01*
X131892686Y-76600000D02*
X131892686Y-73092312D01*
X135025010Y-69959988D02*
X135025010Y-69500000D01*
X131892686Y-73092312D02*
X135025010Y-69959988D01*
X130800000Y-93800000D02*
X132002081Y-93800000D01*
X132002081Y-93800000D02*
X134200000Y-91602081D01*
X134200000Y-91602081D02*
X134200000Y-84300000D01*
X123400000Y-69727208D02*
X123400000Y-76000000D01*
X123400000Y-76000000D02*
X124700000Y-77300000D01*
X126800000Y-67600000D02*
X125527208Y-67600000D01*
X125527208Y-67600000D02*
X123400000Y-69727208D01*
X127000000Y-77280000D02*
X124720000Y-77280000D01*
X124720000Y-77280000D02*
X124700000Y-77300000D01*
X134200000Y-84300000D02*
X132200000Y-82300000D01*
X132200000Y-82300000D02*
X131600000Y-82300000D01*
X133900000Y-63949991D02*
X133900000Y-70165002D01*
X139140000Y-51160000D02*
X138400000Y-51900000D01*
X131200000Y-61249991D02*
X133900000Y-63949991D01*
X135907120Y-52800000D02*
X135100000Y-52800000D01*
X135100000Y-52800000D02*
X131200000Y-56700000D01*
X139140000Y-49700000D02*
X139140000Y-51160000D01*
X138400000Y-51900000D02*
X136807120Y-51900000D01*
X136807120Y-51900000D02*
X135907120Y-52800000D01*
X133900000Y-70165002D02*
X130725000Y-73340002D01*
X131200000Y-56700000D02*
X131200000Y-61249991D01*
X130725000Y-73340002D02*
X130725000Y-79000000D01*
X128160000Y-89900000D02*
X128160000Y-93700000D01*
X128160000Y-93700000D02*
X128260000Y-93800000D01*
X128160000Y-89900000D02*
X128160000Y-87660000D01*
X128160000Y-87660000D02*
X127900000Y-87400000D01*
D21*
X81700000Y-61100000D02*
X68700000Y-61100000D01*
X68700000Y-61100000D02*
X68400000Y-61400000D01*
X68250000Y-70000000D02*
X68250000Y-61550000D01*
X68250000Y-61550000D02*
X68400000Y-61400000D01*
X71000000Y-72750000D02*
X71000000Y-73100000D01*
X71000000Y-73100000D02*
X71000000Y-74890000D01*
X72105000Y-73100000D02*
X71000000Y-73100000D01*
X69000000Y-72200000D02*
X70450000Y-72200000D01*
X70450000Y-72200000D02*
X71000000Y-72750000D01*
X71000000Y-74890000D02*
X72110000Y-76000000D01*
X72110000Y-76000000D02*
X73860000Y-76000000D01*
X69000000Y-70750000D02*
X68250000Y-70000000D01*
X69000000Y-72200000D02*
X69000000Y-70750000D01*
D12*
X132100000Y-84700000D02*
X132100000Y-87100000D01*
X132100000Y-87100000D02*
X130700000Y-88500000D01*
X130700000Y-88500000D02*
X130700000Y-89900000D01*
X138800000Y-55550000D02*
X138750000Y-55500000D01*
X138800000Y-58660000D02*
X138800000Y-55550000D01*
X138800000Y-61200000D02*
X139800000Y-61200000D01*
X140800000Y-60200000D02*
X140800000Y-55400000D01*
X139800000Y-61200000D02*
X140800000Y-60200000D01*
X81550000Y-80300000D02*
X84100000Y-77750000D01*
X84100000Y-77750000D02*
X84100000Y-71500000D01*
X82100000Y-69500000D02*
X82100000Y-69000000D01*
X84100000Y-71500000D02*
X82100000Y-69500000D01*
X79450000Y-101350000D02*
X76500000Y-98400000D01*
X79450000Y-107900000D02*
X79450000Y-101350000D01*
X76500000Y-81660660D02*
X76500000Y-80600000D01*
X76500000Y-98400000D02*
X76500000Y-81660660D01*
X66750000Y-89550000D02*
X69000000Y-87300000D01*
X69000000Y-87300000D02*
X69000000Y-84900000D01*
X66750000Y-96450000D02*
X66750000Y-89550000D01*
X66750000Y-107900000D02*
X66750000Y-96450000D01*
X94250000Y-80300000D02*
X92750001Y-78800001D01*
X92750001Y-78800001D02*
X92750001Y-67089341D01*
X92750001Y-67089341D02*
X87760660Y-62100000D01*
X87760660Y-62100000D02*
X86700000Y-62100000D01*
X94250000Y-91750000D02*
X94250000Y-80300000D01*
X85400000Y-60800000D02*
X84950000Y-61250000D01*
X84950000Y-61250000D02*
X84950000Y-62150000D01*
X84950000Y-62150000D02*
X80999999Y-66100001D01*
X80999999Y-66100001D02*
X80999999Y-67500001D01*
X80999999Y-67500001D02*
X80250000Y-68250000D01*
X78600000Y-59850000D02*
X80500000Y-59850000D01*
X85400000Y-58200000D02*
X82750000Y-58200000D01*
X82750000Y-58200000D02*
X81100000Y-59850000D01*
X81100000Y-59850000D02*
X80500000Y-59850000D01*
X86700000Y-62100000D02*
X85400000Y-60800000D01*
X85400000Y-60800000D02*
X85400000Y-58200000D01*
X85400000Y-58100000D02*
X85400000Y-60100000D01*
X67400000Y-84502081D02*
X67400000Y-78880000D01*
X67400000Y-78880000D02*
X69000000Y-77280000D01*
X69000000Y-84900000D02*
X67797919Y-84900000D01*
X67797919Y-84900000D02*
X67400000Y-84502081D01*
X69000000Y-77280000D02*
X71970000Y-80250000D01*
X71970000Y-80250000D02*
X72000000Y-80250000D01*
X79600000Y-76400000D02*
X80775000Y-75225000D01*
X80775000Y-75225000D02*
X80775000Y-74700000D01*
X78192880Y-76400000D02*
X79600000Y-76400000D01*
X69000000Y-79820000D02*
X70555001Y-81375001D01*
X70555001Y-81375001D02*
X73217879Y-81375001D01*
X73217879Y-81375001D02*
X78192880Y-76400000D01*
X81900000Y-76400000D02*
X80839340Y-76400000D01*
X80839340Y-76400000D02*
X80139340Y-77100000D01*
X80139340Y-77100000D02*
X78200000Y-77100000D01*
X78200000Y-77100000D02*
X73400000Y-81900000D01*
X73400000Y-81900000D02*
X69460000Y-81900000D01*
X69460000Y-81900000D02*
X69000000Y-82360000D01*
X69000000Y-74740000D02*
X72500000Y-78240000D01*
X72500000Y-78240000D02*
X72500000Y-78250000D01*
X150400000Y-67600000D02*
X148700000Y-69300000D01*
X150400000Y-75100000D02*
X152100000Y-76800000D01*
X148700000Y-69300000D02*
X148700000Y-71500000D01*
X148700000Y-71500000D02*
X150400000Y-73200000D01*
X150400000Y-73200000D02*
X150400000Y-75100000D01*
X152100000Y-76800000D02*
X152100000Y-79100000D01*
X124700000Y-79800000D02*
X124700000Y-95800000D01*
X124700000Y-95800000D02*
X126500000Y-97600000D01*
X126500000Y-97600000D02*
X133600000Y-97600000D01*
X133600000Y-97600000D02*
X152100000Y-79100000D01*
X152100000Y-79100000D02*
X150400000Y-80800000D01*
X130224990Y-77600000D02*
X130224990Y-73300000D01*
X129300000Y-67600000D02*
X129300000Y-72375010D01*
X129300000Y-72375010D02*
X130224990Y-73300000D01*
X129600000Y-82400000D02*
X129600000Y-78224990D01*
X129600000Y-78224990D02*
X130224990Y-77600000D01*
X124700000Y-74700000D02*
X124700000Y-71400000D01*
X124700000Y-71400000D02*
X126300000Y-69800000D01*
X124700000Y-74700000D02*
X124700000Y-73639340D01*
X145400000Y-67600000D02*
X140237407Y-67600000D01*
X140237407Y-67600000D02*
X139491833Y-68345574D01*
X131800000Y-67600000D02*
X130425000Y-68975000D01*
X130425000Y-68975000D02*
X130425000Y-70200000D01*
X76400000Y-74797919D02*
X76400000Y-73600000D01*
X76400000Y-73600000D02*
X76900000Y-73100000D01*
X76400000Y-76000000D02*
X76400000Y-74797919D01*
D21*
X80320000Y-54290000D02*
X82719999Y-51890001D01*
X82719999Y-51890001D02*
X85290001Y-51890001D01*
X85290001Y-51890001D02*
X85400000Y-52000000D01*
X79100000Y-50200000D02*
X79100000Y-53070000D01*
X79100000Y-53070000D02*
X80320000Y-54290000D01*
X80700000Y-55100000D02*
X80700000Y-52850000D01*
D22*
G36*
X147290000Y-53000000D02*
X147344046Y-53271705D01*
X147497954Y-53502046D01*
X147728295Y-53655954D01*
X148000000Y-53710000D01*
X154290000Y-53710000D01*
X154290000Y-58720881D01*
X153860959Y-58291091D01*
X153076541Y-57965372D01*
X152227185Y-57964630D01*
X151442200Y-58288980D01*
X150841091Y-58889041D01*
X150515372Y-59673459D01*
X150514630Y-60522815D01*
X150838980Y-61307800D01*
X151439041Y-61908909D01*
X152223459Y-62234628D01*
X153072815Y-62235370D01*
X153857800Y-61911020D01*
X154290000Y-61479574D01*
X154290000Y-109290000D01*
X153385000Y-109290000D01*
X153385000Y-103540000D01*
X141210238Y-103540000D01*
X141210238Y-103581819D01*
X141000000Y-103540000D01*
X136200000Y-103540000D01*
X135909161Y-103597852D01*
X135662599Y-103762599D01*
X135497852Y-104009161D01*
X135440000Y-104300000D01*
X135440000Y-109100000D01*
X135477794Y-109290000D01*
X122710000Y-109290000D01*
X122710000Y-80074285D01*
X123314760Y-80074285D01*
X123525169Y-80583515D01*
X123914436Y-80973461D01*
X123940000Y-80984076D01*
X123940000Y-95800000D01*
X123997852Y-96090839D01*
X124162599Y-96337401D01*
X125962599Y-98137401D01*
X126209160Y-98302148D01*
X126257414Y-98311746D01*
X126500000Y-98360000D01*
X133600000Y-98360000D01*
X133890839Y-98302148D01*
X134137401Y-98137401D01*
X152637401Y-79637401D01*
X152802148Y-79390839D01*
X152860000Y-79100000D01*
X152860000Y-76800000D01*
X152802148Y-76509161D01*
X152637401Y-76262599D01*
X151160000Y-74785198D01*
X151160000Y-73200000D01*
X151102148Y-72909161D01*
X150937401Y-72662599D01*
X149460000Y-71185198D01*
X149460000Y-69614802D01*
X149985036Y-69089766D01*
X150093330Y-69134733D01*
X150703991Y-69135265D01*
X151268371Y-68902068D01*
X151700551Y-68470643D01*
X151934733Y-67906670D01*
X151935265Y-67296009D01*
X151702068Y-66731629D01*
X151270643Y-66299449D01*
X150706670Y-66065267D01*
X150096009Y-66064735D01*
X149531629Y-66297932D01*
X149149712Y-66679182D01*
X148770643Y-66299449D01*
X148206670Y-66065267D01*
X147596009Y-66064735D01*
X147031629Y-66297932D01*
X146649712Y-66679182D01*
X146270643Y-66299449D01*
X145706670Y-66065267D01*
X145096009Y-66064735D01*
X144531629Y-66297932D01*
X144099449Y-66729357D01*
X144053506Y-66840000D01*
X140237407Y-66840000D01*
X139946568Y-66897852D01*
X139820218Y-66982276D01*
X139768535Y-66960815D01*
X139217548Y-66960334D01*
X138708318Y-67170743D01*
X138318372Y-67560010D01*
X138107074Y-68068872D01*
X138106593Y-68619859D01*
X138317002Y-69129089D01*
X138706269Y-69519035D01*
X139215131Y-69730333D01*
X139766118Y-69730814D01*
X140275348Y-69520405D01*
X140665294Y-69131138D01*
X140876592Y-68622276D01*
X140876821Y-68360000D01*
X144053154Y-68360000D01*
X144097932Y-68468371D01*
X144529357Y-68900551D01*
X145093330Y-69134733D01*
X145703991Y-69135265D01*
X146268371Y-68902068D01*
X146650288Y-68520818D01*
X147029357Y-68900551D01*
X147140000Y-68946494D01*
X147140000Y-69460188D01*
X146900200Y-69699988D01*
X146876702Y-69690231D01*
X146325715Y-69689750D01*
X145816485Y-69900159D01*
X145426539Y-70289426D01*
X145215241Y-70798288D01*
X145214760Y-71349275D01*
X145425169Y-71858505D01*
X145814436Y-72248451D01*
X146323298Y-72459749D01*
X146874285Y-72460230D01*
X147383515Y-72249821D01*
X147773461Y-71860554D01*
X147940000Y-71459484D01*
X147940000Y-71500000D01*
X147997852Y-71790839D01*
X148162599Y-72037401D01*
X149640000Y-73514802D01*
X149640000Y-75100000D01*
X149697852Y-75390839D01*
X149756764Y-75479008D01*
X149560660Y-75440000D01*
X149077440Y-75440000D01*
X149077440Y-75350000D01*
X149033162Y-75114683D01*
X148894090Y-74898559D01*
X148681890Y-74753569D01*
X148430000Y-74702560D01*
X146730000Y-74702560D01*
X146494683Y-74746838D01*
X146278559Y-74885910D01*
X146133569Y-75098110D01*
X146119914Y-75165541D01*
X146090054Y-75120853D01*
X145608285Y-74798946D01*
X145040000Y-74685907D01*
X144471715Y-74798946D01*
X143989946Y-75120853D01*
X143770000Y-75450026D01*
X143550054Y-75120853D01*
X143068285Y-74798946D01*
X142500000Y-74685907D01*
X142113000Y-74762886D01*
X141940840Y-74647853D01*
X141650001Y-74590001D01*
X141505874Y-74590001D01*
X141603629Y-74354581D01*
X141604110Y-73803594D01*
X141393701Y-73294364D01*
X141283505Y-73183976D01*
X141590054Y-72979147D01*
X141911961Y-72497378D01*
X142024376Y-71932232D01*
X142727708Y-71228900D01*
X142751206Y-71238657D01*
X143302193Y-71239138D01*
X143811423Y-71028729D01*
X144201369Y-70639462D01*
X144412667Y-70130600D01*
X144413148Y-69579613D01*
X144202739Y-69070383D01*
X143813472Y-68680437D01*
X143304610Y-68469139D01*
X142753623Y-68468658D01*
X142244393Y-68679067D01*
X141854447Y-69068334D01*
X141643149Y-69577196D01*
X141642668Y-70128183D01*
X141653238Y-70153766D01*
X141228040Y-70578964D01*
X141108285Y-70498946D01*
X140540000Y-70385907D01*
X139971715Y-70498946D01*
X139489946Y-70820853D01*
X139270000Y-71150026D01*
X139050054Y-70820853D01*
X138568285Y-70498946D01*
X138000000Y-70385907D01*
X137431715Y-70498946D01*
X136949946Y-70820853D01*
X136922150Y-70862452D01*
X136913162Y-70814683D01*
X136774090Y-70598559D01*
X136561890Y-70453569D01*
X136310000Y-70402560D01*
X134612746Y-70402560D01*
X134660000Y-70165002D01*
X134660000Y-63949991D01*
X134602148Y-63659152D01*
X134437401Y-63412590D01*
X133000951Y-61976140D01*
X133623459Y-62234628D01*
X134472815Y-62235370D01*
X135257800Y-61911020D01*
X135858909Y-61310959D01*
X135904983Y-61200000D01*
X137285907Y-61200000D01*
X137398946Y-61768285D01*
X137720853Y-62250054D01*
X138202622Y-62571961D01*
X138770907Y-62685000D01*
X138829093Y-62685000D01*
X139397378Y-62571961D01*
X139879147Y-62250054D01*
X140128363Y-61877076D01*
X140337401Y-61737401D01*
X141171744Y-60903058D01*
X141338980Y-61307800D01*
X141939041Y-61908909D01*
X142723459Y-62234628D01*
X143572815Y-62235370D01*
X144357800Y-61911020D01*
X144958909Y-61310959D01*
X145284628Y-60526541D01*
X145285370Y-59677185D01*
X144961020Y-58892200D01*
X144360959Y-58291091D01*
X143576541Y-57965372D01*
X142727185Y-57964630D01*
X141942200Y-58288980D01*
X141560000Y-58670514D01*
X141560000Y-56584547D01*
X141583515Y-56574831D01*
X141973461Y-56185564D01*
X142184759Y-55676702D01*
X142185240Y-55125715D01*
X141974831Y-54616485D01*
X141585564Y-54226539D01*
X141076702Y-54015241D01*
X140525715Y-54014760D01*
X140016485Y-54225169D01*
X139724921Y-54516226D01*
X139535564Y-54326539D01*
X139026702Y-54115241D01*
X138475715Y-54114760D01*
X137966485Y-54325169D01*
X137576539Y-54714436D01*
X137365241Y-55223298D01*
X137364760Y-55774285D01*
X137575169Y-56283515D01*
X137964436Y-56673461D01*
X138040000Y-56704838D01*
X138040000Y-57162560D01*
X137950000Y-57162560D01*
X137714683Y-57206838D01*
X137498559Y-57345910D01*
X137353569Y-57558110D01*
X137302560Y-57810000D01*
X137302560Y-59510000D01*
X137346838Y-59745317D01*
X137485910Y-59961441D01*
X137698110Y-60106431D01*
X137765541Y-60120086D01*
X137720853Y-60149946D01*
X137398946Y-60631715D01*
X137285907Y-61200000D01*
X135904983Y-61200000D01*
X136184628Y-60526541D01*
X136185370Y-59677185D01*
X135861020Y-58892200D01*
X135260959Y-58291091D01*
X134476541Y-57965372D01*
X133627185Y-57964630D01*
X132842200Y-58288980D01*
X132241091Y-58889041D01*
X131960000Y-59565983D01*
X131960000Y-57014802D01*
X135414802Y-53560000D01*
X135907120Y-53560000D01*
X136197959Y-53502148D01*
X136444521Y-53337401D01*
X137121922Y-52660000D01*
X138400000Y-52660000D01*
X138690839Y-52602148D01*
X138937401Y-52437401D01*
X139677401Y-51697401D01*
X139842148Y-51450839D01*
X139900000Y-51160000D01*
X139900000Y-50972954D01*
X140190054Y-50779147D01*
X140410000Y-50449974D01*
X140629946Y-50779147D01*
X141111715Y-51101054D01*
X141680000Y-51214093D01*
X142248285Y-51101054D01*
X142730054Y-50779147D01*
X143051961Y-50297378D01*
X143165000Y-49729093D01*
X143165000Y-49670907D01*
X143051961Y-49102622D01*
X142730054Y-48620853D01*
X142248285Y-48298946D01*
X141680000Y-48185907D01*
X141111715Y-48298946D01*
X140629946Y-48620853D01*
X140410000Y-48950026D01*
X140190054Y-48620853D01*
X139708285Y-48298946D01*
X139140000Y-48185907D01*
X138571715Y-48298946D01*
X138089946Y-48620853D01*
X138062150Y-48662452D01*
X138053162Y-48614683D01*
X137914090Y-48398559D01*
X137701890Y-48253569D01*
X137450000Y-48202560D01*
X135750000Y-48202560D01*
X135514683Y-48246838D01*
X135298559Y-48385910D01*
X135153569Y-48598110D01*
X135102560Y-48850000D01*
X135102560Y-50550000D01*
X135146838Y-50785317D01*
X135285910Y-51001441D01*
X135498110Y-51146431D01*
X135731504Y-51193694D01*
X135385208Y-51539990D01*
X134800010Y-51539990D01*
X134509170Y-51597842D01*
X134262609Y-51762589D01*
X130162588Y-55862610D01*
X129997841Y-56109172D01*
X129939989Y-56400011D01*
X129939989Y-61457102D01*
X129997841Y-61747941D01*
X130162588Y-61994503D01*
X132640000Y-64471915D01*
X132640000Y-66286725D01*
X132106670Y-66065267D01*
X131496009Y-66064735D01*
X130931629Y-66297932D01*
X130549712Y-66679182D01*
X130170643Y-66299449D01*
X129606670Y-66065267D01*
X128996009Y-66064735D01*
X128431629Y-66297932D01*
X127999449Y-66729357D01*
X127995706Y-66738372D01*
X127880159Y-66699446D01*
X126979605Y-67600000D01*
X127880159Y-68500554D01*
X127995214Y-68461793D01*
X127997932Y-68468371D01*
X128429357Y-68900551D01*
X128540000Y-68946494D01*
X128540000Y-72375010D01*
X128597852Y-72665849D01*
X128762599Y-72912411D01*
X129464990Y-73614802D01*
X129464990Y-77285198D01*
X129062599Y-77687589D01*
X128897852Y-77934151D01*
X128840000Y-78224990D01*
X128840000Y-81215453D01*
X128816485Y-81225169D01*
X128426539Y-81614436D01*
X128371372Y-81747293D01*
X128079147Y-81309946D01*
X127749974Y-81090000D01*
X128079147Y-80870054D01*
X128401054Y-80388285D01*
X128514093Y-79820000D01*
X128401054Y-79251715D01*
X128079147Y-78769946D01*
X127738447Y-78542298D01*
X127881358Y-78475183D01*
X128271645Y-78046924D01*
X128441476Y-77636890D01*
X128320155Y-77407000D01*
X127127000Y-77407000D01*
X127127000Y-77427000D01*
X126873000Y-77427000D01*
X126873000Y-77407000D01*
X125679845Y-77407000D01*
X125558524Y-77636890D01*
X125728355Y-78046924D01*
X126118642Y-78475183D01*
X126261553Y-78542298D01*
X125920853Y-78769946D01*
X125803719Y-78945249D01*
X125485564Y-78626539D01*
X124976702Y-78415241D01*
X124425715Y-78414760D01*
X123916485Y-78625169D01*
X123526539Y-79014436D01*
X123315241Y-79523298D01*
X123314760Y-80074285D01*
X122710000Y-80074285D01*
X122710000Y-74974285D01*
X123314760Y-74974285D01*
X123525169Y-75483515D01*
X123914436Y-75873461D01*
X124423298Y-76084759D01*
X124974285Y-76085240D01*
X125483515Y-75874831D01*
X125779844Y-75579018D01*
X125920853Y-75790054D01*
X126261553Y-76017702D01*
X126118642Y-76084817D01*
X125728355Y-76513076D01*
X125558524Y-76923110D01*
X125679845Y-77153000D01*
X126873000Y-77153000D01*
X126873000Y-77133000D01*
X127127000Y-77133000D01*
X127127000Y-77153000D01*
X128320155Y-77153000D01*
X128441476Y-76923110D01*
X128271645Y-76513076D01*
X127881358Y-76084817D01*
X127738447Y-76017702D01*
X128079147Y-75790054D01*
X128401054Y-75308285D01*
X128514093Y-74740000D01*
X128401054Y-74171715D01*
X128079147Y-73689946D01*
X128037548Y-73662150D01*
X128085317Y-73653162D01*
X128301441Y-73514090D01*
X128446431Y-73301890D01*
X128497440Y-73050000D01*
X128497440Y-71350000D01*
X128453162Y-71114683D01*
X128314090Y-70898559D01*
X128101890Y-70753569D01*
X127850000Y-70702560D01*
X127356261Y-70702560D01*
X127473461Y-70585564D01*
X127684759Y-70076702D01*
X127685240Y-69525715D01*
X127474831Y-69016485D01*
X127459199Y-69000825D01*
X127614148Y-68936643D01*
X127700554Y-68680159D01*
X126800000Y-67779605D01*
X126785858Y-67793748D01*
X126606253Y-67614143D01*
X126620395Y-67600000D01*
X125719841Y-66699446D01*
X125463357Y-66785852D01*
X125253542Y-67359336D01*
X125279161Y-67969460D01*
X125463357Y-68414148D01*
X125719839Y-68500553D01*
X125650665Y-68569727D01*
X125516485Y-68625169D01*
X125126539Y-69014436D01*
X124915241Y-69523298D01*
X124914760Y-70074285D01*
X124925330Y-70099868D01*
X124162599Y-70862599D01*
X123997852Y-71109161D01*
X123940000Y-71400000D01*
X123940000Y-73515453D01*
X123916485Y-73525169D01*
X123526539Y-73914436D01*
X123315241Y-74423298D01*
X123314760Y-74974285D01*
X122710000Y-74974285D01*
X122710000Y-66519841D01*
X125899446Y-66519841D01*
X126800000Y-67420395D01*
X127700554Y-66519841D01*
X127614148Y-66263357D01*
X127040664Y-66053542D01*
X126430540Y-66079161D01*
X125985852Y-66263357D01*
X125899446Y-66519841D01*
X122710000Y-66519841D01*
X122710000Y-61237663D01*
X122738980Y-61307800D01*
X123339041Y-61908909D01*
X124123459Y-62234628D01*
X124972815Y-62235370D01*
X125757800Y-61911020D01*
X126358909Y-61310959D01*
X126684628Y-60526541D01*
X126685370Y-59677185D01*
X126361020Y-58892200D01*
X125760959Y-58291091D01*
X124976541Y-57965372D01*
X124127185Y-57964630D01*
X123342200Y-58288980D01*
X122741091Y-58889041D01*
X122710000Y-58963916D01*
X122710000Y-53710000D01*
X129000000Y-53710000D01*
X129271705Y-53655954D01*
X129502046Y-53502046D01*
X129655954Y-53271705D01*
X129710000Y-53000000D01*
X129710000Y-46710000D01*
X147290000Y-46710000D01*
X147290000Y-53000000D01*
X147290000Y-53000000D01*
G37*
X147290000Y-53000000D02*
X147344046Y-53271705D01*
X147497954Y-53502046D01*
X147728295Y-53655954D01*
X148000000Y-53710000D01*
X154290000Y-53710000D01*
X154290000Y-58720881D01*
X153860959Y-58291091D01*
X153076541Y-57965372D01*
X152227185Y-57964630D01*
X151442200Y-58288980D01*
X150841091Y-58889041D01*
X150515372Y-59673459D01*
X150514630Y-60522815D01*
X150838980Y-61307800D01*
X151439041Y-61908909D01*
X152223459Y-62234628D01*
X153072815Y-62235370D01*
X153857800Y-61911020D01*
X154290000Y-61479574D01*
X154290000Y-109290000D01*
X153385000Y-109290000D01*
X153385000Y-103540000D01*
X141210238Y-103540000D01*
X141210238Y-103581819D01*
X141000000Y-103540000D01*
X136200000Y-103540000D01*
X135909161Y-103597852D01*
X135662599Y-103762599D01*
X135497852Y-104009161D01*
X135440000Y-104300000D01*
X135440000Y-109100000D01*
X135477794Y-109290000D01*
X122710000Y-109290000D01*
X122710000Y-80074285D01*
X123314760Y-80074285D01*
X123525169Y-80583515D01*
X123914436Y-80973461D01*
X123940000Y-80984076D01*
X123940000Y-95800000D01*
X123997852Y-96090839D01*
X124162599Y-96337401D01*
X125962599Y-98137401D01*
X126209160Y-98302148D01*
X126257414Y-98311746D01*
X126500000Y-98360000D01*
X133600000Y-98360000D01*
X133890839Y-98302148D01*
X134137401Y-98137401D01*
X152637401Y-79637401D01*
X152802148Y-79390839D01*
X152860000Y-79100000D01*
X152860000Y-76800000D01*
X152802148Y-76509161D01*
X152637401Y-76262599D01*
X151160000Y-74785198D01*
X151160000Y-73200000D01*
X151102148Y-72909161D01*
X150937401Y-72662599D01*
X149460000Y-71185198D01*
X149460000Y-69614802D01*
X149985036Y-69089766D01*
X150093330Y-69134733D01*
X150703991Y-69135265D01*
X151268371Y-68902068D01*
X151700551Y-68470643D01*
X151934733Y-67906670D01*
X151935265Y-67296009D01*
X151702068Y-66731629D01*
X151270643Y-66299449D01*
X150706670Y-66065267D01*
X150096009Y-66064735D01*
X149531629Y-66297932D01*
X149149712Y-66679182D01*
X148770643Y-66299449D01*
X148206670Y-66065267D01*
X147596009Y-66064735D01*
X147031629Y-66297932D01*
X146649712Y-66679182D01*
X146270643Y-66299449D01*
X145706670Y-66065267D01*
X145096009Y-66064735D01*
X144531629Y-66297932D01*
X144099449Y-66729357D01*
X144053506Y-66840000D01*
X140237407Y-66840000D01*
X139946568Y-66897852D01*
X139820218Y-66982276D01*
X139768535Y-66960815D01*
X139217548Y-66960334D01*
X138708318Y-67170743D01*
X138318372Y-67560010D01*
X138107074Y-68068872D01*
X138106593Y-68619859D01*
X138317002Y-69129089D01*
X138706269Y-69519035D01*
X139215131Y-69730333D01*
X139766118Y-69730814D01*
X140275348Y-69520405D01*
X140665294Y-69131138D01*
X140876592Y-68622276D01*
X140876821Y-68360000D01*
X144053154Y-68360000D01*
X144097932Y-68468371D01*
X144529357Y-68900551D01*
X145093330Y-69134733D01*
X145703991Y-69135265D01*
X146268371Y-68902068D01*
X146650288Y-68520818D01*
X147029357Y-68900551D01*
X147140000Y-68946494D01*
X147140000Y-69460188D01*
X146900200Y-69699988D01*
X146876702Y-69690231D01*
X146325715Y-69689750D01*
X145816485Y-69900159D01*
X145426539Y-70289426D01*
X145215241Y-70798288D01*
X145214760Y-71349275D01*
X145425169Y-71858505D01*
X145814436Y-72248451D01*
X146323298Y-72459749D01*
X146874285Y-72460230D01*
X147383515Y-72249821D01*
X147773461Y-71860554D01*
X147940000Y-71459484D01*
X147940000Y-71500000D01*
X147997852Y-71790839D01*
X148162599Y-72037401D01*
X149640000Y-73514802D01*
X149640000Y-75100000D01*
X149697852Y-75390839D01*
X149756764Y-75479008D01*
X149560660Y-75440000D01*
X149077440Y-75440000D01*
X149077440Y-75350000D01*
X149033162Y-75114683D01*
X148894090Y-74898559D01*
X148681890Y-74753569D01*
X148430000Y-74702560D01*
X146730000Y-74702560D01*
X146494683Y-74746838D01*
X146278559Y-74885910D01*
X146133569Y-75098110D01*
X146119914Y-75165541D01*
X146090054Y-75120853D01*
X145608285Y-74798946D01*
X145040000Y-74685907D01*
X144471715Y-74798946D01*
X143989946Y-75120853D01*
X143770000Y-75450026D01*
X143550054Y-75120853D01*
X143068285Y-74798946D01*
X142500000Y-74685907D01*
X142113000Y-74762886D01*
X141940840Y-74647853D01*
X141650001Y-74590001D01*
X141505874Y-74590001D01*
X141603629Y-74354581D01*
X141604110Y-73803594D01*
X141393701Y-73294364D01*
X141283505Y-73183976D01*
X141590054Y-72979147D01*
X141911961Y-72497378D01*
X142024376Y-71932232D01*
X142727708Y-71228900D01*
X142751206Y-71238657D01*
X143302193Y-71239138D01*
X143811423Y-71028729D01*
X144201369Y-70639462D01*
X144412667Y-70130600D01*
X144413148Y-69579613D01*
X144202739Y-69070383D01*
X143813472Y-68680437D01*
X143304610Y-68469139D01*
X142753623Y-68468658D01*
X142244393Y-68679067D01*
X141854447Y-69068334D01*
X141643149Y-69577196D01*
X141642668Y-70128183D01*
X141653238Y-70153766D01*
X141228040Y-70578964D01*
X141108285Y-70498946D01*
X140540000Y-70385907D01*
X139971715Y-70498946D01*
X139489946Y-70820853D01*
X139270000Y-71150026D01*
X139050054Y-70820853D01*
X138568285Y-70498946D01*
X138000000Y-70385907D01*
X137431715Y-70498946D01*
X136949946Y-70820853D01*
X136922150Y-70862452D01*
X136913162Y-70814683D01*
X136774090Y-70598559D01*
X136561890Y-70453569D01*
X136310000Y-70402560D01*
X134612746Y-70402560D01*
X134660000Y-70165002D01*
X134660000Y-63949991D01*
X134602148Y-63659152D01*
X134437401Y-63412590D01*
X133000951Y-61976140D01*
X133623459Y-62234628D01*
X134472815Y-62235370D01*
X135257800Y-61911020D01*
X135858909Y-61310959D01*
X135904983Y-61200000D01*
X137285907Y-61200000D01*
X137398946Y-61768285D01*
X137720853Y-62250054D01*
X138202622Y-62571961D01*
X138770907Y-62685000D01*
X138829093Y-62685000D01*
X139397378Y-62571961D01*
X139879147Y-62250054D01*
X140128363Y-61877076D01*
X140337401Y-61737401D01*
X141171744Y-60903058D01*
X141338980Y-61307800D01*
X141939041Y-61908909D01*
X142723459Y-62234628D01*
X143572815Y-62235370D01*
X144357800Y-61911020D01*
X144958909Y-61310959D01*
X145284628Y-60526541D01*
X145285370Y-59677185D01*
X144961020Y-58892200D01*
X144360959Y-58291091D01*
X143576541Y-57965372D01*
X142727185Y-57964630D01*
X141942200Y-58288980D01*
X141560000Y-58670514D01*
X141560000Y-56584547D01*
X141583515Y-56574831D01*
X141973461Y-56185564D01*
X142184759Y-55676702D01*
X142185240Y-55125715D01*
X141974831Y-54616485D01*
X141585564Y-54226539D01*
X141076702Y-54015241D01*
X140525715Y-54014760D01*
X140016485Y-54225169D01*
X139724921Y-54516226D01*
X139535564Y-54326539D01*
X139026702Y-54115241D01*
X138475715Y-54114760D01*
X137966485Y-54325169D01*
X137576539Y-54714436D01*
X137365241Y-55223298D01*
X137364760Y-55774285D01*
X137575169Y-56283515D01*
X137964436Y-56673461D01*
X138040000Y-56704838D01*
X138040000Y-57162560D01*
X137950000Y-57162560D01*
X137714683Y-57206838D01*
X137498559Y-57345910D01*
X137353569Y-57558110D01*
X137302560Y-57810000D01*
X137302560Y-59510000D01*
X137346838Y-59745317D01*
X137485910Y-59961441D01*
X137698110Y-60106431D01*
X137765541Y-60120086D01*
X137720853Y-60149946D01*
X137398946Y-60631715D01*
X137285907Y-61200000D01*
X135904983Y-61200000D01*
X136184628Y-60526541D01*
X136185370Y-59677185D01*
X135861020Y-58892200D01*
X135260959Y-58291091D01*
X134476541Y-57965372D01*
X133627185Y-57964630D01*
X132842200Y-58288980D01*
X132241091Y-58889041D01*
X131960000Y-59565983D01*
X131960000Y-57014802D01*
X135414802Y-53560000D01*
X135907120Y-53560000D01*
X136197959Y-53502148D01*
X136444521Y-53337401D01*
X137121922Y-52660000D01*
X138400000Y-52660000D01*
X138690839Y-52602148D01*
X138937401Y-52437401D01*
X139677401Y-51697401D01*
X139842148Y-51450839D01*
X139900000Y-51160000D01*
X139900000Y-50972954D01*
X140190054Y-50779147D01*
X140410000Y-50449974D01*
X140629946Y-50779147D01*
X141111715Y-51101054D01*
X141680000Y-51214093D01*
X142248285Y-51101054D01*
X142730054Y-50779147D01*
X143051961Y-50297378D01*
X143165000Y-49729093D01*
X143165000Y-49670907D01*
X143051961Y-49102622D01*
X142730054Y-48620853D01*
X142248285Y-48298946D01*
X141680000Y-48185907D01*
X141111715Y-48298946D01*
X140629946Y-48620853D01*
X140410000Y-48950026D01*
X140190054Y-48620853D01*
X139708285Y-48298946D01*
X139140000Y-48185907D01*
X138571715Y-48298946D01*
X138089946Y-48620853D01*
X138062150Y-48662452D01*
X138053162Y-48614683D01*
X137914090Y-48398559D01*
X137701890Y-48253569D01*
X137450000Y-48202560D01*
X135750000Y-48202560D01*
X135514683Y-48246838D01*
X135298559Y-48385910D01*
X135153569Y-48598110D01*
X135102560Y-48850000D01*
X135102560Y-50550000D01*
X135146838Y-50785317D01*
X135285910Y-51001441D01*
X135498110Y-51146431D01*
X135731504Y-51193694D01*
X135385208Y-51539990D01*
X134800010Y-51539990D01*
X134509170Y-51597842D01*
X134262609Y-51762589D01*
X130162588Y-55862610D01*
X129997841Y-56109172D01*
X129939989Y-56400011D01*
X129939989Y-61457102D01*
X129997841Y-61747941D01*
X130162588Y-61994503D01*
X132640000Y-64471915D01*
X132640000Y-66286725D01*
X132106670Y-66065267D01*
X131496009Y-66064735D01*
X130931629Y-66297932D01*
X130549712Y-66679182D01*
X130170643Y-66299449D01*
X129606670Y-66065267D01*
X128996009Y-66064735D01*
X128431629Y-66297932D01*
X127999449Y-66729357D01*
X127995706Y-66738372D01*
X127880159Y-66699446D01*
X126979605Y-67600000D01*
X127880159Y-68500554D01*
X127995214Y-68461793D01*
X127997932Y-68468371D01*
X128429357Y-68900551D01*
X128540000Y-68946494D01*
X128540000Y-72375010D01*
X128597852Y-72665849D01*
X128762599Y-72912411D01*
X129464990Y-73614802D01*
X129464990Y-77285198D01*
X129062599Y-77687589D01*
X128897852Y-77934151D01*
X128840000Y-78224990D01*
X128840000Y-81215453D01*
X128816485Y-81225169D01*
X128426539Y-81614436D01*
X128371372Y-81747293D01*
X128079147Y-81309946D01*
X127749974Y-81090000D01*
X128079147Y-80870054D01*
X128401054Y-80388285D01*
X128514093Y-79820000D01*
X128401054Y-79251715D01*
X128079147Y-78769946D01*
X127738447Y-78542298D01*
X127881358Y-78475183D01*
X128271645Y-78046924D01*
X128441476Y-77636890D01*
X128320155Y-77407000D01*
X127127000Y-77407000D01*
X127127000Y-77427000D01*
X126873000Y-77427000D01*
X126873000Y-77407000D01*
X125679845Y-77407000D01*
X125558524Y-77636890D01*
X125728355Y-78046924D01*
X126118642Y-78475183D01*
X126261553Y-78542298D01*
X125920853Y-78769946D01*
X125803719Y-78945249D01*
X125485564Y-78626539D01*
X124976702Y-78415241D01*
X124425715Y-78414760D01*
X123916485Y-78625169D01*
X123526539Y-79014436D01*
X123315241Y-79523298D01*
X123314760Y-80074285D01*
X122710000Y-80074285D01*
X122710000Y-74974285D01*
X123314760Y-74974285D01*
X123525169Y-75483515D01*
X123914436Y-75873461D01*
X124423298Y-76084759D01*
X124974285Y-76085240D01*
X125483515Y-75874831D01*
X125779844Y-75579018D01*
X125920853Y-75790054D01*
X126261553Y-76017702D01*
X126118642Y-76084817D01*
X125728355Y-76513076D01*
X125558524Y-76923110D01*
X125679845Y-77153000D01*
X126873000Y-77153000D01*
X126873000Y-77133000D01*
X127127000Y-77133000D01*
X127127000Y-77153000D01*
X128320155Y-77153000D01*
X128441476Y-76923110D01*
X128271645Y-76513076D01*
X127881358Y-76084817D01*
X127738447Y-76017702D01*
X128079147Y-75790054D01*
X128401054Y-75308285D01*
X128514093Y-74740000D01*
X128401054Y-74171715D01*
X128079147Y-73689946D01*
X128037548Y-73662150D01*
X128085317Y-73653162D01*
X128301441Y-73514090D01*
X128446431Y-73301890D01*
X128497440Y-73050000D01*
X128497440Y-71350000D01*
X128453162Y-71114683D01*
X128314090Y-70898559D01*
X128101890Y-70753569D01*
X127850000Y-70702560D01*
X127356261Y-70702560D01*
X127473461Y-70585564D01*
X127684759Y-70076702D01*
X127685240Y-69525715D01*
X127474831Y-69016485D01*
X127459199Y-69000825D01*
X127614148Y-68936643D01*
X127700554Y-68680159D01*
X126800000Y-67779605D01*
X126785858Y-67793748D01*
X126606253Y-67614143D01*
X126620395Y-67600000D01*
X125719841Y-66699446D01*
X125463357Y-66785852D01*
X125253542Y-67359336D01*
X125279161Y-67969460D01*
X125463357Y-68414148D01*
X125719839Y-68500553D01*
X125650665Y-68569727D01*
X125516485Y-68625169D01*
X125126539Y-69014436D01*
X124915241Y-69523298D01*
X124914760Y-70074285D01*
X124925330Y-70099868D01*
X124162599Y-70862599D01*
X123997852Y-71109161D01*
X123940000Y-71400000D01*
X123940000Y-73515453D01*
X123916485Y-73525169D01*
X123526539Y-73914436D01*
X123315241Y-74423298D01*
X123314760Y-74974285D01*
X122710000Y-74974285D01*
X122710000Y-66519841D01*
X125899446Y-66519841D01*
X126800000Y-67420395D01*
X127700554Y-66519841D01*
X127614148Y-66263357D01*
X127040664Y-66053542D01*
X126430540Y-66079161D01*
X125985852Y-66263357D01*
X125899446Y-66519841D01*
X122710000Y-66519841D01*
X122710000Y-61237663D01*
X122738980Y-61307800D01*
X123339041Y-61908909D01*
X124123459Y-62234628D01*
X124972815Y-62235370D01*
X125757800Y-61911020D01*
X126358909Y-61310959D01*
X126684628Y-60526541D01*
X126685370Y-59677185D01*
X126361020Y-58892200D01*
X125760959Y-58291091D01*
X124976541Y-57965372D01*
X124127185Y-57964630D01*
X123342200Y-58288980D01*
X122741091Y-58889041D01*
X122710000Y-58963916D01*
X122710000Y-53710000D01*
X129000000Y-53710000D01*
X129271705Y-53655954D01*
X129502046Y-53502046D01*
X129655954Y-53271705D01*
X129710000Y-53000000D01*
X129710000Y-46710000D01*
X147290000Y-46710000D01*
X147290000Y-53000000D01*
G36*
X133962560Y-72750000D02*
X134006838Y-72985317D01*
X134145910Y-73201441D01*
X134336373Y-73331579D01*
X134215241Y-73623298D01*
X134214760Y-74174285D01*
X134425169Y-74683515D01*
X134814436Y-75073461D01*
X135323298Y-75284759D01*
X135874285Y-75285240D01*
X135899868Y-75274670D01*
X136512600Y-75887402D01*
X136759161Y-76052149D01*
X136807415Y-76061747D01*
X137050001Y-76110001D01*
X141027115Y-76110001D01*
X141015000Y-76170907D01*
X141015000Y-76229093D01*
X141128039Y-76797378D01*
X141449946Y-77279147D01*
X141931715Y-77601054D01*
X142500000Y-77714093D01*
X143068285Y-77601054D01*
X143550054Y-77279147D01*
X143770000Y-76949974D01*
X143989946Y-77279147D01*
X144280000Y-77472954D01*
X144280000Y-77740000D01*
X144337852Y-78030839D01*
X144502599Y-78277401D01*
X145587036Y-79361838D01*
X145833598Y-79526585D01*
X146124437Y-79584437D01*
X147817702Y-79584437D01*
X147827418Y-79607952D01*
X148216685Y-79997898D01*
X148725547Y-80209196D01*
X149276534Y-80209677D01*
X149785764Y-79999268D01*
X150124807Y-79660815D01*
X150364750Y-79760448D01*
X133285198Y-96840000D01*
X126814802Y-96840000D01*
X125460000Y-95485198D01*
X125460000Y-85256890D01*
X125558524Y-85256890D01*
X125728355Y-85666924D01*
X126118642Y-86095183D01*
X126643108Y-86341486D01*
X126872998Y-86220820D01*
X126872998Y-86385000D01*
X126956375Y-86385000D01*
X126726539Y-86614436D01*
X126515241Y-87123298D01*
X126514760Y-87674285D01*
X126725169Y-88183515D01*
X127021924Y-88480788D01*
X126858559Y-88585910D01*
X126713569Y-88798110D01*
X126662560Y-89050000D01*
X126662560Y-90750000D01*
X126706838Y-90985317D01*
X126845910Y-91201441D01*
X127058110Y-91346431D01*
X127310000Y-91397440D01*
X127400000Y-91397440D01*
X127400000Y-92304442D01*
X127174683Y-92346838D01*
X126958559Y-92485910D01*
X126813569Y-92698110D01*
X126762560Y-92950000D01*
X126762560Y-94650000D01*
X126806838Y-94885317D01*
X126945910Y-95101441D01*
X127158110Y-95246431D01*
X127410000Y-95297440D01*
X129110000Y-95297440D01*
X129345317Y-95253162D01*
X129561441Y-95114090D01*
X129706431Y-94901890D01*
X129728301Y-94793893D01*
X130033076Y-95071645D01*
X130443110Y-95241476D01*
X130673000Y-95120155D01*
X130673000Y-93927000D01*
X130927000Y-93927000D01*
X130927000Y-95120155D01*
X131156890Y-95241476D01*
X131566924Y-95071645D01*
X131995183Y-94681358D01*
X132241486Y-94156892D01*
X132120819Y-93927000D01*
X130927000Y-93927000D01*
X130673000Y-93927000D01*
X130653000Y-93927000D01*
X130653000Y-93673000D01*
X130673000Y-93673000D01*
X130673000Y-92479845D01*
X130927000Y-92479845D01*
X130927000Y-93673000D01*
X132120819Y-93673000D01*
X132241486Y-93443108D01*
X131995183Y-92918642D01*
X131566924Y-92528355D01*
X131156890Y-92358524D01*
X130927000Y-92479845D01*
X130673000Y-92479845D01*
X130443110Y-92358524D01*
X130033076Y-92528355D01*
X129730063Y-92804501D01*
X129713162Y-92714683D01*
X129574090Y-92498559D01*
X129361890Y-92353569D01*
X129110000Y-92302560D01*
X128920000Y-92302560D01*
X128920000Y-91397440D01*
X129010000Y-91397440D01*
X129245317Y-91353162D01*
X129461441Y-91214090D01*
X129606431Y-91001890D01*
X129620086Y-90934459D01*
X129649946Y-90979147D01*
X130131715Y-91301054D01*
X130700000Y-91414093D01*
X131268285Y-91301054D01*
X131750054Y-90979147D01*
X132071961Y-90497378D01*
X132185000Y-89929093D01*
X132185000Y-89870907D01*
X132071961Y-89302622D01*
X131750054Y-88820853D01*
X131572552Y-88702250D01*
X132637401Y-87637401D01*
X132802148Y-87390839D01*
X132860000Y-87100000D01*
X132860000Y-85884547D01*
X132883515Y-85874831D01*
X133273461Y-85485564D01*
X133484759Y-84976702D01*
X133485240Y-84425715D01*
X133274831Y-83916485D01*
X132885564Y-83526539D01*
X132376702Y-83315241D01*
X131825715Y-83314760D01*
X131316485Y-83525169D01*
X130926539Y-83914436D01*
X130715241Y-84423298D01*
X130714760Y-84974285D01*
X130925169Y-85483515D01*
X131314436Y-85873461D01*
X131340000Y-85884076D01*
X131340000Y-86785198D01*
X130162599Y-87962599D01*
X129997852Y-88209161D01*
X129940000Y-88500000D01*
X129940000Y-88627046D01*
X129649946Y-88820853D01*
X129622150Y-88862452D01*
X129613162Y-88814683D01*
X129474090Y-88598559D01*
X129261890Y-88453569D01*
X129010000Y-88402560D01*
X128920000Y-88402560D01*
X128920000Y-88338758D01*
X129073461Y-88185564D01*
X129284759Y-87676702D01*
X129285240Y-87125715D01*
X129074831Y-86616485D01*
X128685564Y-86226539D01*
X128176702Y-86015241D01*
X127954389Y-86015047D01*
X128271645Y-85666924D01*
X128441476Y-85256890D01*
X128320155Y-85027000D01*
X127127000Y-85027000D01*
X127127000Y-85047000D01*
X126873000Y-85047000D01*
X126873000Y-85027000D01*
X125679845Y-85027000D01*
X125558524Y-85256890D01*
X125460000Y-85256890D01*
X125460000Y-80984547D01*
X125483515Y-80974831D01*
X125787860Y-80671016D01*
X125920853Y-80870054D01*
X126250026Y-81090000D01*
X125920853Y-81309946D01*
X125598946Y-81791715D01*
X125485907Y-82360000D01*
X125598946Y-82928285D01*
X125920853Y-83410054D01*
X126261553Y-83637702D01*
X126118642Y-83704817D01*
X125728355Y-84133076D01*
X125558524Y-84543110D01*
X125679845Y-84773000D01*
X126873000Y-84773000D01*
X126873000Y-84753000D01*
X127127000Y-84753000D01*
X127127000Y-84773000D01*
X128320155Y-84773000D01*
X128441476Y-84543110D01*
X128271645Y-84133076D01*
X127881358Y-83704817D01*
X127738447Y-83637702D01*
X128079147Y-83410054D01*
X128350792Y-83003508D01*
X128425169Y-83183515D01*
X128814436Y-83573461D01*
X129323298Y-83784759D01*
X129874285Y-83785240D01*
X130383515Y-83574831D01*
X130773461Y-83185564D01*
X130984759Y-82676702D01*
X130985240Y-82125715D01*
X130774831Y-81616485D01*
X130385564Y-81226539D01*
X130360000Y-81215924D01*
X130360000Y-80348094D01*
X130448298Y-80384759D01*
X130999285Y-80385240D01*
X131508515Y-80174831D01*
X131898461Y-79785564D01*
X132109759Y-79276702D01*
X132110240Y-78725715D01*
X131899831Y-78216485D01*
X131510564Y-77826539D01*
X131485000Y-77815924D01*
X131485000Y-73654804D01*
X133962560Y-71177244D01*
X133962560Y-72750000D01*
X133962560Y-72750000D01*
G37*
X133962560Y-72750000D02*
X134006838Y-72985317D01*
X134145910Y-73201441D01*
X134336373Y-73331579D01*
X134215241Y-73623298D01*
X134214760Y-74174285D01*
X134425169Y-74683515D01*
X134814436Y-75073461D01*
X135323298Y-75284759D01*
X135874285Y-75285240D01*
X135899868Y-75274670D01*
X136512600Y-75887402D01*
X136759161Y-76052149D01*
X136807415Y-76061747D01*
X137050001Y-76110001D01*
X141027115Y-76110001D01*
X141015000Y-76170907D01*
X141015000Y-76229093D01*
X141128039Y-76797378D01*
X141449946Y-77279147D01*
X141931715Y-77601054D01*
X142500000Y-77714093D01*
X143068285Y-77601054D01*
X143550054Y-77279147D01*
X143770000Y-76949974D01*
X143989946Y-77279147D01*
X144280000Y-77472954D01*
X144280000Y-77740000D01*
X144337852Y-78030839D01*
X144502599Y-78277401D01*
X145587036Y-79361838D01*
X145833598Y-79526585D01*
X146124437Y-79584437D01*
X147817702Y-79584437D01*
X147827418Y-79607952D01*
X148216685Y-79997898D01*
X148725547Y-80209196D01*
X149276534Y-80209677D01*
X149785764Y-79999268D01*
X150124807Y-79660815D01*
X150364750Y-79760448D01*
X133285198Y-96840000D01*
X126814802Y-96840000D01*
X125460000Y-95485198D01*
X125460000Y-85256890D01*
X125558524Y-85256890D01*
X125728355Y-85666924D01*
X126118642Y-86095183D01*
X126643108Y-86341486D01*
X126872998Y-86220820D01*
X126872998Y-86385000D01*
X126956375Y-86385000D01*
X126726539Y-86614436D01*
X126515241Y-87123298D01*
X126514760Y-87674285D01*
X126725169Y-88183515D01*
X127021924Y-88480788D01*
X126858559Y-88585910D01*
X126713569Y-88798110D01*
X126662560Y-89050000D01*
X126662560Y-90750000D01*
X126706838Y-90985317D01*
X126845910Y-91201441D01*
X127058110Y-91346431D01*
X127310000Y-91397440D01*
X127400000Y-91397440D01*
X127400000Y-92304442D01*
X127174683Y-92346838D01*
X126958559Y-92485910D01*
X126813569Y-92698110D01*
X126762560Y-92950000D01*
X126762560Y-94650000D01*
X126806838Y-94885317D01*
X126945910Y-95101441D01*
X127158110Y-95246431D01*
X127410000Y-95297440D01*
X129110000Y-95297440D01*
X129345317Y-95253162D01*
X129561441Y-95114090D01*
X129706431Y-94901890D01*
X129728301Y-94793893D01*
X130033076Y-95071645D01*
X130443110Y-95241476D01*
X130673000Y-95120155D01*
X130673000Y-93927000D01*
X130927000Y-93927000D01*
X130927000Y-95120155D01*
X131156890Y-95241476D01*
X131566924Y-95071645D01*
X131995183Y-94681358D01*
X132241486Y-94156892D01*
X132120819Y-93927000D01*
X130927000Y-93927000D01*
X130673000Y-93927000D01*
X130653000Y-93927000D01*
X130653000Y-93673000D01*
X130673000Y-93673000D01*
X130673000Y-92479845D01*
X130927000Y-92479845D01*
X130927000Y-93673000D01*
X132120819Y-93673000D01*
X132241486Y-93443108D01*
X131995183Y-92918642D01*
X131566924Y-92528355D01*
X131156890Y-92358524D01*
X130927000Y-92479845D01*
X130673000Y-92479845D01*
X130443110Y-92358524D01*
X130033076Y-92528355D01*
X129730063Y-92804501D01*
X129713162Y-92714683D01*
X129574090Y-92498559D01*
X129361890Y-92353569D01*
X129110000Y-92302560D01*
X128920000Y-92302560D01*
X128920000Y-91397440D01*
X129010000Y-91397440D01*
X129245317Y-91353162D01*
X129461441Y-91214090D01*
X129606431Y-91001890D01*
X129620086Y-90934459D01*
X129649946Y-90979147D01*
X130131715Y-91301054D01*
X130700000Y-91414093D01*
X131268285Y-91301054D01*
X131750054Y-90979147D01*
X132071961Y-90497378D01*
X132185000Y-89929093D01*
X132185000Y-89870907D01*
X132071961Y-89302622D01*
X131750054Y-88820853D01*
X131572552Y-88702250D01*
X132637401Y-87637401D01*
X132802148Y-87390839D01*
X132860000Y-87100000D01*
X132860000Y-85884547D01*
X132883515Y-85874831D01*
X133273461Y-85485564D01*
X133484759Y-84976702D01*
X133485240Y-84425715D01*
X133274831Y-83916485D01*
X132885564Y-83526539D01*
X132376702Y-83315241D01*
X131825715Y-83314760D01*
X131316485Y-83525169D01*
X130926539Y-83914436D01*
X130715241Y-84423298D01*
X130714760Y-84974285D01*
X130925169Y-85483515D01*
X131314436Y-85873461D01*
X131340000Y-85884076D01*
X131340000Y-86785198D01*
X130162599Y-87962599D01*
X129997852Y-88209161D01*
X129940000Y-88500000D01*
X129940000Y-88627046D01*
X129649946Y-88820853D01*
X129622150Y-88862452D01*
X129613162Y-88814683D01*
X129474090Y-88598559D01*
X129261890Y-88453569D01*
X129010000Y-88402560D01*
X128920000Y-88402560D01*
X128920000Y-88338758D01*
X129073461Y-88185564D01*
X129284759Y-87676702D01*
X129285240Y-87125715D01*
X129074831Y-86616485D01*
X128685564Y-86226539D01*
X128176702Y-86015241D01*
X127954389Y-86015047D01*
X128271645Y-85666924D01*
X128441476Y-85256890D01*
X128320155Y-85027000D01*
X127127000Y-85027000D01*
X127127000Y-85047000D01*
X126873000Y-85047000D01*
X126873000Y-85027000D01*
X125679845Y-85027000D01*
X125558524Y-85256890D01*
X125460000Y-85256890D01*
X125460000Y-80984547D01*
X125483515Y-80974831D01*
X125787860Y-80671016D01*
X125920853Y-80870054D01*
X126250026Y-81090000D01*
X125920853Y-81309946D01*
X125598946Y-81791715D01*
X125485907Y-82360000D01*
X125598946Y-82928285D01*
X125920853Y-83410054D01*
X126261553Y-83637702D01*
X126118642Y-83704817D01*
X125728355Y-84133076D01*
X125558524Y-84543110D01*
X125679845Y-84773000D01*
X126873000Y-84773000D01*
X126873000Y-84753000D01*
X127127000Y-84753000D01*
X127127000Y-84773000D01*
X128320155Y-84773000D01*
X128441476Y-84543110D01*
X128271645Y-84133076D01*
X127881358Y-83704817D01*
X127738447Y-83637702D01*
X128079147Y-83410054D01*
X128350792Y-83003508D01*
X128425169Y-83183515D01*
X128814436Y-83573461D01*
X129323298Y-83784759D01*
X129874285Y-83785240D01*
X130383515Y-83574831D01*
X130773461Y-83185564D01*
X130984759Y-82676702D01*
X130985240Y-82125715D01*
X130774831Y-81616485D01*
X130385564Y-81226539D01*
X130360000Y-81215924D01*
X130360000Y-80348094D01*
X130448298Y-80384759D01*
X130999285Y-80385240D01*
X131508515Y-80174831D01*
X131898461Y-79785564D01*
X132109759Y-79276702D01*
X132110240Y-78725715D01*
X131899831Y-78216485D01*
X131510564Y-77826539D01*
X131485000Y-77815924D01*
X131485000Y-73654804D01*
X133962560Y-71177244D01*
X133962560Y-72750000D01*
G36*
X89290000Y-53000000D02*
X89344046Y-53271705D01*
X89497954Y-53502046D01*
X89728295Y-53655954D01*
X90000000Y-53710000D01*
X96290000Y-53710000D01*
X96290000Y-79625791D01*
X96082739Y-79125418D01*
X95763970Y-78965635D01*
X94429605Y-80300000D01*
X95763970Y-81634365D01*
X96082739Y-81474582D01*
X96290000Y-80945859D01*
X96290000Y-91075791D01*
X96082739Y-90575418D01*
X95763970Y-90415635D01*
X94429605Y-91750000D01*
X95763970Y-93084365D01*
X96082739Y-92924582D01*
X96290000Y-92395859D01*
X96290000Y-98677848D01*
X84960238Y-98677848D01*
X84960238Y-101647848D01*
X85055475Y-101647848D01*
X85055475Y-104535000D01*
X90825563Y-104535000D01*
X90800132Y-104662848D01*
X90800132Y-109290000D01*
X81079555Y-109290000D01*
X81258909Y-109110959D01*
X81584628Y-108326541D01*
X81585370Y-107477185D01*
X81261020Y-106692200D01*
X80660959Y-106091091D01*
X80210000Y-105903836D01*
X80210000Y-101350000D01*
X80152148Y-101059161D01*
X79987401Y-100812599D01*
X77260000Y-98085198D01*
X77260000Y-96872815D01*
X77314630Y-96872815D01*
X77638980Y-97657800D01*
X78239041Y-98258909D01*
X79023459Y-98584628D01*
X79872815Y-98585370D01*
X80657800Y-98261020D01*
X81258909Y-97660959D01*
X81584628Y-96876541D01*
X81585370Y-96027185D01*
X81261020Y-95242200D01*
X80660959Y-94641091D01*
X79876541Y-94315372D01*
X79027185Y-94314630D01*
X78242200Y-94638980D01*
X77641091Y-95239041D01*
X77315372Y-96023459D01*
X77314630Y-96872815D01*
X77260000Y-96872815D01*
X77260000Y-92172815D01*
X79414630Y-92172815D01*
X79738980Y-92957800D01*
X80339041Y-93558909D01*
X81123459Y-93884628D01*
X81972815Y-93885370D01*
X82757800Y-93561020D01*
X83358909Y-92960959D01*
X83684628Y-92176541D01*
X83684631Y-92172815D01*
X85764630Y-92172815D01*
X86088980Y-92957800D01*
X86689041Y-93558909D01*
X87473459Y-93884628D01*
X88322815Y-93885370D01*
X89107800Y-93561020D01*
X89708909Y-92960959D01*
X89779329Y-92791369D01*
X90122637Y-93135278D01*
X90723352Y-93384716D01*
X91373795Y-93385284D01*
X91667396Y-93263970D01*
X92915635Y-93263970D01*
X93075418Y-93582739D01*
X93866187Y-93892723D01*
X94715387Y-93876497D01*
X95424582Y-93582739D01*
X95584365Y-93263970D01*
X94250000Y-91929605D01*
X92915635Y-93263970D01*
X91667396Y-93263970D01*
X91974943Y-93136894D01*
X92350086Y-92762406D01*
X92417261Y-92924582D01*
X92736030Y-93084365D01*
X94070395Y-91750000D01*
X92736030Y-90415635D01*
X92417261Y-90575418D01*
X92352530Y-90740546D01*
X91977363Y-90364722D01*
X91667438Y-90236030D01*
X92915635Y-90236030D01*
X94250000Y-91570395D01*
X95584365Y-90236030D01*
X95424582Y-89917261D01*
X94633813Y-89607277D01*
X93784613Y-89623503D01*
X93075418Y-89917261D01*
X92915635Y-90236030D01*
X91667438Y-90236030D01*
X91376648Y-90115284D01*
X90726205Y-90114716D01*
X90125057Y-90363106D01*
X89779537Y-90708023D01*
X89711020Y-90542200D01*
X89110959Y-89941091D01*
X88326541Y-89615372D01*
X87477185Y-89614630D01*
X86692200Y-89938980D01*
X86091091Y-90539041D01*
X85765372Y-91323459D01*
X85764630Y-92172815D01*
X83684631Y-92172815D01*
X83685370Y-91327185D01*
X83361020Y-90542200D01*
X82760959Y-89941091D01*
X81976541Y-89615372D01*
X81127185Y-89614630D01*
X80342200Y-89938980D01*
X79741091Y-90539041D01*
X79415372Y-91323459D01*
X79414630Y-92172815D01*
X77260000Y-92172815D01*
X77260000Y-81784547D01*
X77283515Y-81774831D01*
X77673461Y-81385564D01*
X77884759Y-80876702D01*
X77884893Y-80722815D01*
X79414630Y-80722815D01*
X79738980Y-81507800D01*
X80339041Y-82108909D01*
X81123459Y-82434628D01*
X81972815Y-82435370D01*
X82565182Y-82190608D01*
X82564630Y-82822815D01*
X82888980Y-83607800D01*
X83489041Y-84208909D01*
X84273459Y-84534628D01*
X85122815Y-84535370D01*
X85907800Y-84211020D01*
X86508909Y-83610959D01*
X86834628Y-82826541D01*
X86835202Y-82169600D01*
X87473459Y-82434628D01*
X88322815Y-82435370D01*
X89107800Y-82111020D01*
X89708909Y-81510959D01*
X89779329Y-81341369D01*
X90122637Y-81685278D01*
X90723352Y-81934716D01*
X91373795Y-81935284D01*
X91667396Y-81813970D01*
X92915635Y-81813970D01*
X93075418Y-82132739D01*
X93866187Y-82442723D01*
X94715387Y-82426497D01*
X95424582Y-82132739D01*
X95584365Y-81813970D01*
X94250000Y-80479605D01*
X92915635Y-81813970D01*
X91667396Y-81813970D01*
X91974943Y-81686894D01*
X92350086Y-81312406D01*
X92417261Y-81474582D01*
X92736030Y-81634365D01*
X94070395Y-80300000D01*
X92736030Y-78965635D01*
X92417261Y-79125418D01*
X92352530Y-79290546D01*
X91977363Y-78914722D01*
X91667438Y-78786030D01*
X92915635Y-78786030D01*
X94250000Y-80120395D01*
X95584365Y-78786030D01*
X95424582Y-78467261D01*
X94633813Y-78157277D01*
X93784613Y-78173503D01*
X93075418Y-78467261D01*
X92915635Y-78786030D01*
X91667438Y-78786030D01*
X91376648Y-78665284D01*
X90726205Y-78664716D01*
X90125057Y-78913106D01*
X89779537Y-79258023D01*
X89711020Y-79092200D01*
X89110959Y-78491091D01*
X88326541Y-78165372D01*
X87477185Y-78164630D01*
X86692200Y-78488980D01*
X86091091Y-79089041D01*
X85765372Y-79873459D01*
X85764798Y-80530400D01*
X85126541Y-80265372D01*
X84277185Y-80264630D01*
X83684818Y-80509392D01*
X83685370Y-79877185D01*
X83498902Y-79425900D01*
X84637401Y-78287401D01*
X84802148Y-78040839D01*
X84860000Y-77750000D01*
X84860000Y-71500000D01*
X84802148Y-71209161D01*
X84637401Y-70962599D01*
X83328300Y-69653498D01*
X83484759Y-69276702D01*
X83485240Y-68725715D01*
X83274831Y-68216485D01*
X82885564Y-67826539D01*
X82376702Y-67615241D01*
X81825715Y-67614760D01*
X81316485Y-67825169D01*
X80926539Y-68214436D01*
X80715241Y-68723298D01*
X80714760Y-69274285D01*
X80925169Y-69783515D01*
X81314436Y-70173461D01*
X81823298Y-70384759D01*
X81910033Y-70384835D01*
X83340000Y-71814802D01*
X83340000Y-77435198D01*
X82424017Y-78351181D01*
X81976541Y-78165372D01*
X81127185Y-78164630D01*
X80342200Y-78488980D01*
X79741091Y-79089041D01*
X79415372Y-79873459D01*
X79414630Y-80722815D01*
X77884893Y-80722815D01*
X77885240Y-80325715D01*
X77674831Y-79816485D01*
X77285564Y-79426539D01*
X77047229Y-79327573D01*
X78514802Y-77860000D01*
X80139340Y-77860000D01*
X80430179Y-77802148D01*
X80676741Y-77637401D01*
X80927722Y-77386421D01*
X81114436Y-77573461D01*
X81623298Y-77784759D01*
X82174285Y-77785240D01*
X82683515Y-77574831D01*
X83073461Y-77185564D01*
X83284759Y-76676702D01*
X83285240Y-76125715D01*
X83074831Y-75616485D01*
X82685564Y-75226539D01*
X82176702Y-75015241D01*
X82143768Y-75015212D01*
X82159759Y-74976702D01*
X82160240Y-74425715D01*
X81949831Y-73916485D01*
X81560564Y-73526539D01*
X81051702Y-73315241D01*
X80500715Y-73314760D01*
X79991485Y-73525169D01*
X79601539Y-73914436D01*
X79390241Y-74423298D01*
X79389760Y-74974285D01*
X79553831Y-75371367D01*
X79285198Y-75640000D01*
X78192880Y-75640000D01*
X77902041Y-75697852D01*
X77839057Y-75739936D01*
X77771961Y-75402622D01*
X77450054Y-74920853D01*
X77160000Y-74727046D01*
X77160000Y-74485228D01*
X77174285Y-74485240D01*
X77683515Y-74274831D01*
X78073461Y-73885564D01*
X78284759Y-73376702D01*
X78285240Y-72825715D01*
X78074831Y-72316485D01*
X77685564Y-71926539D01*
X77176702Y-71715241D01*
X76625715Y-71714760D01*
X76116485Y-71925169D01*
X75726539Y-72314436D01*
X75515241Y-72823298D01*
X75514760Y-73374285D01*
X75640000Y-73677390D01*
X75640000Y-74727046D01*
X75349946Y-74920853D01*
X75322150Y-74962452D01*
X75313162Y-74914683D01*
X75174090Y-74698559D01*
X74961890Y-74553569D01*
X74710000Y-74502560D01*
X73010000Y-74502560D01*
X72774683Y-74546838D01*
X72558559Y-74685910D01*
X72413569Y-74898110D01*
X72387655Y-75026076D01*
X71885000Y-74523420D01*
X71885000Y-74484808D01*
X72379285Y-74485240D01*
X72888515Y-74274831D01*
X73278461Y-73885564D01*
X73489759Y-73376702D01*
X73490240Y-72825715D01*
X73279831Y-72316485D01*
X72890564Y-71926539D01*
X72381702Y-71715241D01*
X71830715Y-71714760D01*
X71395971Y-71894392D01*
X71075790Y-71574210D01*
X70964726Y-71500000D01*
X70788675Y-71382367D01*
X70732484Y-71371190D01*
X70492443Y-71323442D01*
X70453162Y-71114683D01*
X70314090Y-70898559D01*
X70101890Y-70753569D01*
X69876637Y-70707954D01*
X69817633Y-70411325D01*
X69716521Y-70260000D01*
X69625790Y-70124210D01*
X69625787Y-70124208D01*
X69135000Y-69633420D01*
X69135000Y-62594877D01*
X69183515Y-62574831D01*
X69573461Y-62185564D01*
X69656742Y-61985000D01*
X80626477Y-61985000D01*
X80914436Y-62273461D01*
X81423298Y-62484759D01*
X81974285Y-62485240D01*
X82483515Y-62274831D01*
X82873461Y-61885564D01*
X83084759Y-61376702D01*
X83084883Y-61235000D01*
X85114250Y-61235000D01*
X85273000Y-61076250D01*
X85273000Y-58327000D01*
X85527000Y-58327000D01*
X85527000Y-61076250D01*
X85685750Y-61235000D01*
X87926310Y-61235000D01*
X88159699Y-61138327D01*
X88338327Y-60959698D01*
X88435000Y-60726309D01*
X88435000Y-58485750D01*
X88276250Y-58327000D01*
X85527000Y-58327000D01*
X85273000Y-58327000D01*
X82523750Y-58327000D01*
X82365000Y-58485750D01*
X82365000Y-59876476D01*
X81976702Y-59715241D01*
X81425715Y-59714760D01*
X80916485Y-59925169D01*
X80626148Y-60215000D01*
X69157775Y-60215000D01*
X68676702Y-60015241D01*
X68125715Y-60014760D01*
X67616485Y-60225169D01*
X67226539Y-60614436D01*
X67015241Y-61123298D01*
X67014760Y-61674285D01*
X67225169Y-62183515D01*
X67365000Y-62323590D01*
X67365000Y-69999995D01*
X67364999Y-70000000D01*
X67399776Y-70174831D01*
X67432367Y-70338675D01*
X67463481Y-70385240D01*
X67624210Y-70625790D01*
X67811594Y-70813174D01*
X67698559Y-70885910D01*
X67553569Y-71098110D01*
X67502560Y-71350000D01*
X67502560Y-73050000D01*
X67546838Y-73285317D01*
X67685910Y-73501441D01*
X67898110Y-73646431D01*
X67965541Y-73660086D01*
X67920853Y-73689946D01*
X67598946Y-74171715D01*
X67485907Y-74740000D01*
X67598946Y-75308285D01*
X67920853Y-75790054D01*
X68261553Y-76017702D01*
X68118642Y-76084817D01*
X67728355Y-76513076D01*
X67558524Y-76923110D01*
X67679845Y-77153000D01*
X68873000Y-77153000D01*
X68873000Y-77133000D01*
X69127000Y-77133000D01*
X69127000Y-77153000D01*
X69147000Y-77153000D01*
X69147000Y-77407000D01*
X69127000Y-77407000D01*
X69127000Y-77427000D01*
X68873000Y-77427000D01*
X68873000Y-77407000D01*
X67679845Y-77407000D01*
X67558524Y-77636890D01*
X67728355Y-78046924D01*
X68118642Y-78475183D01*
X68261553Y-78542298D01*
X67920853Y-78769946D01*
X67598946Y-79251715D01*
X67485907Y-79820000D01*
X67598946Y-80388285D01*
X67920853Y-80870054D01*
X68250026Y-81090000D01*
X67920853Y-81309946D01*
X67598946Y-81791715D01*
X67485907Y-82360000D01*
X67598946Y-82928285D01*
X67920853Y-83410054D01*
X68261553Y-83637702D01*
X68118642Y-83704817D01*
X67728355Y-84133076D01*
X67558524Y-84543110D01*
X67679845Y-84773000D01*
X68873000Y-84773000D01*
X68873000Y-84753000D01*
X69127000Y-84753000D01*
X69127000Y-84773000D01*
X70320155Y-84773000D01*
X70441476Y-84543110D01*
X70271645Y-84133076D01*
X69881358Y-83704817D01*
X69738447Y-83637702D01*
X70079147Y-83410054D01*
X70401054Y-82928285D01*
X70454419Y-82660000D01*
X73400000Y-82660000D01*
X73690839Y-82602148D01*
X73937401Y-82437401D01*
X75227548Y-81147254D01*
X75325169Y-81383515D01*
X75714436Y-81773461D01*
X75740000Y-81784076D01*
X75740000Y-98400000D01*
X75797852Y-98690839D01*
X75962599Y-98937401D01*
X78690000Y-101664802D01*
X78690000Y-105903952D01*
X78434818Y-106009392D01*
X78435370Y-105377185D01*
X78111020Y-104592200D01*
X77510959Y-103991091D01*
X76726541Y-103665372D01*
X75877185Y-103664630D01*
X75092200Y-103988980D01*
X74491091Y-104589041D01*
X74165372Y-105373459D01*
X74164798Y-106030400D01*
X73526541Y-105765372D01*
X72677185Y-105764630D01*
X71892200Y-106088980D01*
X71291091Y-106689041D01*
X71220671Y-106858631D01*
X70877363Y-106514722D01*
X70276648Y-106265284D01*
X69626205Y-106264716D01*
X69025057Y-106513106D01*
X68649914Y-106887594D01*
X68582739Y-106725418D01*
X68263970Y-106565635D01*
X66929605Y-107900000D01*
X66943748Y-107914143D01*
X66764143Y-108093748D01*
X66750000Y-108079605D01*
X66735858Y-108093748D01*
X66556253Y-107914143D01*
X66570395Y-107900000D01*
X65236030Y-106565635D01*
X64917261Y-106725418D01*
X64710000Y-107254141D01*
X64710000Y-106386030D01*
X65415635Y-106386030D01*
X66750000Y-107720395D01*
X68084365Y-106386030D01*
X67924582Y-106067261D01*
X67133813Y-105757277D01*
X66284613Y-105773503D01*
X65575418Y-106067261D01*
X65415635Y-106386030D01*
X64710000Y-106386030D01*
X64710000Y-97963970D01*
X65415635Y-97963970D01*
X65575418Y-98282739D01*
X66366187Y-98592723D01*
X67215387Y-98576497D01*
X67924582Y-98282739D01*
X68084365Y-97963970D01*
X66750000Y-96629605D01*
X65415635Y-97963970D01*
X64710000Y-97963970D01*
X64710000Y-97124209D01*
X64917261Y-97624582D01*
X65236030Y-97784365D01*
X66570395Y-96450000D01*
X66929605Y-96450000D01*
X68263970Y-97784365D01*
X68582739Y-97624582D01*
X68647470Y-97459454D01*
X69022637Y-97835278D01*
X69623352Y-98084716D01*
X70273795Y-98085284D01*
X70874943Y-97836894D01*
X71220463Y-97491977D01*
X71288980Y-97657800D01*
X71889041Y-98258909D01*
X72673459Y-98584628D01*
X73522815Y-98585370D01*
X74307800Y-98261020D01*
X74908909Y-97660959D01*
X75234628Y-96876541D01*
X75235370Y-96027185D01*
X74911020Y-95242200D01*
X74310959Y-94641091D01*
X73526541Y-94315372D01*
X72677185Y-94314630D01*
X71892200Y-94638980D01*
X71291091Y-95239041D01*
X71220671Y-95408631D01*
X70877363Y-95064722D01*
X70276648Y-94815284D01*
X69626205Y-94814716D01*
X69025057Y-95063106D01*
X68649914Y-95437594D01*
X68582739Y-95275418D01*
X68263970Y-95115635D01*
X66929605Y-96450000D01*
X66570395Y-96450000D01*
X65236030Y-95115635D01*
X64917261Y-95275418D01*
X64710000Y-95804141D01*
X64710000Y-94936030D01*
X65415635Y-94936030D01*
X66750000Y-96270395D01*
X68084365Y-94936030D01*
X67924582Y-94617261D01*
X67133813Y-94307277D01*
X66284613Y-94323503D01*
X65575418Y-94617261D01*
X65415635Y-94936030D01*
X64710000Y-94936030D01*
X64710000Y-85256890D01*
X67558524Y-85256890D01*
X67728355Y-85666924D01*
X68118642Y-86095183D01*
X68643108Y-86341486D01*
X68873000Y-86220819D01*
X68873000Y-85027000D01*
X69127000Y-85027000D01*
X69127000Y-86220819D01*
X69356892Y-86341486D01*
X69881358Y-86095183D01*
X70271645Y-85666924D01*
X70441476Y-85256890D01*
X70320155Y-85027000D01*
X69127000Y-85027000D01*
X68873000Y-85027000D01*
X67679845Y-85027000D01*
X67558524Y-85256890D01*
X64710000Y-85256890D01*
X64710000Y-54991050D01*
X77284474Y-54991050D01*
X77745552Y-56106943D01*
X78598566Y-56961447D01*
X79713653Y-57424472D01*
X80921050Y-57425526D01*
X82036943Y-56964448D01*
X82365000Y-56636963D01*
X82365000Y-57914250D01*
X82523750Y-58073000D01*
X85273000Y-58073000D01*
X85273000Y-55323750D01*
X85527000Y-55323750D01*
X85527000Y-58073000D01*
X88276250Y-58073000D01*
X88435000Y-57914250D01*
X88435000Y-55673691D01*
X88338327Y-55440302D01*
X88159699Y-55261673D01*
X87926310Y-55165000D01*
X85685750Y-55165000D01*
X85527000Y-55323750D01*
X85273000Y-55323750D01*
X85114250Y-55165000D01*
X83284441Y-55165000D01*
X83354472Y-54996347D01*
X83355039Y-54347354D01*
X83678566Y-54671447D01*
X84793653Y-55134472D01*
X86001050Y-55135526D01*
X87116943Y-54674448D01*
X87971447Y-53821434D01*
X88434472Y-52706347D01*
X88435526Y-51498950D01*
X87974448Y-50383057D01*
X87121434Y-49528553D01*
X86006347Y-49065528D01*
X84798950Y-49064474D01*
X83683057Y-49525552D01*
X82828553Y-50378566D01*
X82554789Y-51037863D01*
X82381324Y-51072368D01*
X82094209Y-51264211D01*
X82094207Y-51264214D01*
X81687030Y-51671391D01*
X80926347Y-51355528D01*
X79985000Y-51354706D01*
X79985000Y-51273523D01*
X80273461Y-50985564D01*
X80484759Y-50476702D01*
X80485240Y-49925715D01*
X80274831Y-49416485D01*
X79885564Y-49026539D01*
X79376702Y-48815241D01*
X78825715Y-48814760D01*
X78316485Y-49025169D01*
X77926539Y-49414436D01*
X77715241Y-49923298D01*
X77714760Y-50474285D01*
X77925169Y-50983515D01*
X78215000Y-51273852D01*
X78215000Y-52202932D01*
X77748553Y-52668566D01*
X77285528Y-53783653D01*
X77284474Y-54991050D01*
X64710000Y-54991050D01*
X64710000Y-53710000D01*
X71000000Y-53710000D01*
X71271705Y-53655954D01*
X71502046Y-53502046D01*
X71655954Y-53271705D01*
X71710000Y-53000000D01*
X71710000Y-46710000D01*
X89290000Y-46710000D01*
X89290000Y-53000000D01*
X89290000Y-53000000D01*
G37*
X89290000Y-53000000D02*
X89344046Y-53271705D01*
X89497954Y-53502046D01*
X89728295Y-53655954D01*
X90000000Y-53710000D01*
X96290000Y-53710000D01*
X96290000Y-79625791D01*
X96082739Y-79125418D01*
X95763970Y-78965635D01*
X94429605Y-80300000D01*
X95763970Y-81634365D01*
X96082739Y-81474582D01*
X96290000Y-80945859D01*
X96290000Y-91075791D01*
X96082739Y-90575418D01*
X95763970Y-90415635D01*
X94429605Y-91750000D01*
X95763970Y-93084365D01*
X96082739Y-92924582D01*
X96290000Y-92395859D01*
X96290000Y-98677848D01*
X84960238Y-98677848D01*
X84960238Y-101647848D01*
X85055475Y-101647848D01*
X85055475Y-104535000D01*
X90825563Y-104535000D01*
X90800132Y-104662848D01*
X90800132Y-109290000D01*
X81079555Y-109290000D01*
X81258909Y-109110959D01*
X81584628Y-108326541D01*
X81585370Y-107477185D01*
X81261020Y-106692200D01*
X80660959Y-106091091D01*
X80210000Y-105903836D01*
X80210000Y-101350000D01*
X80152148Y-101059161D01*
X79987401Y-100812599D01*
X77260000Y-98085198D01*
X77260000Y-96872815D01*
X77314630Y-96872815D01*
X77638980Y-97657800D01*
X78239041Y-98258909D01*
X79023459Y-98584628D01*
X79872815Y-98585370D01*
X80657800Y-98261020D01*
X81258909Y-97660959D01*
X81584628Y-96876541D01*
X81585370Y-96027185D01*
X81261020Y-95242200D01*
X80660959Y-94641091D01*
X79876541Y-94315372D01*
X79027185Y-94314630D01*
X78242200Y-94638980D01*
X77641091Y-95239041D01*
X77315372Y-96023459D01*
X77314630Y-96872815D01*
X77260000Y-96872815D01*
X77260000Y-92172815D01*
X79414630Y-92172815D01*
X79738980Y-92957800D01*
X80339041Y-93558909D01*
X81123459Y-93884628D01*
X81972815Y-93885370D01*
X82757800Y-93561020D01*
X83358909Y-92960959D01*
X83684628Y-92176541D01*
X83684631Y-92172815D01*
X85764630Y-92172815D01*
X86088980Y-92957800D01*
X86689041Y-93558909D01*
X87473459Y-93884628D01*
X88322815Y-93885370D01*
X89107800Y-93561020D01*
X89708909Y-92960959D01*
X89779329Y-92791369D01*
X90122637Y-93135278D01*
X90723352Y-93384716D01*
X91373795Y-93385284D01*
X91667396Y-93263970D01*
X92915635Y-93263970D01*
X93075418Y-93582739D01*
X93866187Y-93892723D01*
X94715387Y-93876497D01*
X95424582Y-93582739D01*
X95584365Y-93263970D01*
X94250000Y-91929605D01*
X92915635Y-93263970D01*
X91667396Y-93263970D01*
X91974943Y-93136894D01*
X92350086Y-92762406D01*
X92417261Y-92924582D01*
X92736030Y-93084365D01*
X94070395Y-91750000D01*
X92736030Y-90415635D01*
X92417261Y-90575418D01*
X92352530Y-90740546D01*
X91977363Y-90364722D01*
X91667438Y-90236030D01*
X92915635Y-90236030D01*
X94250000Y-91570395D01*
X95584365Y-90236030D01*
X95424582Y-89917261D01*
X94633813Y-89607277D01*
X93784613Y-89623503D01*
X93075418Y-89917261D01*
X92915635Y-90236030D01*
X91667438Y-90236030D01*
X91376648Y-90115284D01*
X90726205Y-90114716D01*
X90125057Y-90363106D01*
X89779537Y-90708023D01*
X89711020Y-90542200D01*
X89110959Y-89941091D01*
X88326541Y-89615372D01*
X87477185Y-89614630D01*
X86692200Y-89938980D01*
X86091091Y-90539041D01*
X85765372Y-91323459D01*
X85764630Y-92172815D01*
X83684631Y-92172815D01*
X83685370Y-91327185D01*
X83361020Y-90542200D01*
X82760959Y-89941091D01*
X81976541Y-89615372D01*
X81127185Y-89614630D01*
X80342200Y-89938980D01*
X79741091Y-90539041D01*
X79415372Y-91323459D01*
X79414630Y-92172815D01*
X77260000Y-92172815D01*
X77260000Y-81784547D01*
X77283515Y-81774831D01*
X77673461Y-81385564D01*
X77884759Y-80876702D01*
X77884893Y-80722815D01*
X79414630Y-80722815D01*
X79738980Y-81507800D01*
X80339041Y-82108909D01*
X81123459Y-82434628D01*
X81972815Y-82435370D01*
X82565182Y-82190608D01*
X82564630Y-82822815D01*
X82888980Y-83607800D01*
X83489041Y-84208909D01*
X84273459Y-84534628D01*
X85122815Y-84535370D01*
X85907800Y-84211020D01*
X86508909Y-83610959D01*
X86834628Y-82826541D01*
X86835202Y-82169600D01*
X87473459Y-82434628D01*
X88322815Y-82435370D01*
X89107800Y-82111020D01*
X89708909Y-81510959D01*
X89779329Y-81341369D01*
X90122637Y-81685278D01*
X90723352Y-81934716D01*
X91373795Y-81935284D01*
X91667396Y-81813970D01*
X92915635Y-81813970D01*
X93075418Y-82132739D01*
X93866187Y-82442723D01*
X94715387Y-82426497D01*
X95424582Y-82132739D01*
X95584365Y-81813970D01*
X94250000Y-80479605D01*
X92915635Y-81813970D01*
X91667396Y-81813970D01*
X91974943Y-81686894D01*
X92350086Y-81312406D01*
X92417261Y-81474582D01*
X92736030Y-81634365D01*
X94070395Y-80300000D01*
X92736030Y-78965635D01*
X92417261Y-79125418D01*
X92352530Y-79290546D01*
X91977363Y-78914722D01*
X91667438Y-78786030D01*
X92915635Y-78786030D01*
X94250000Y-80120395D01*
X95584365Y-78786030D01*
X95424582Y-78467261D01*
X94633813Y-78157277D01*
X93784613Y-78173503D01*
X93075418Y-78467261D01*
X92915635Y-78786030D01*
X91667438Y-78786030D01*
X91376648Y-78665284D01*
X90726205Y-78664716D01*
X90125057Y-78913106D01*
X89779537Y-79258023D01*
X89711020Y-79092200D01*
X89110959Y-78491091D01*
X88326541Y-78165372D01*
X87477185Y-78164630D01*
X86692200Y-78488980D01*
X86091091Y-79089041D01*
X85765372Y-79873459D01*
X85764798Y-80530400D01*
X85126541Y-80265372D01*
X84277185Y-80264630D01*
X83684818Y-80509392D01*
X83685370Y-79877185D01*
X83498902Y-79425900D01*
X84637401Y-78287401D01*
X84802148Y-78040839D01*
X84860000Y-77750000D01*
X84860000Y-71500000D01*
X84802148Y-71209161D01*
X84637401Y-70962599D01*
X83328300Y-69653498D01*
X83484759Y-69276702D01*
X83485240Y-68725715D01*
X83274831Y-68216485D01*
X82885564Y-67826539D01*
X82376702Y-67615241D01*
X81825715Y-67614760D01*
X81316485Y-67825169D01*
X80926539Y-68214436D01*
X80715241Y-68723298D01*
X80714760Y-69274285D01*
X80925169Y-69783515D01*
X81314436Y-70173461D01*
X81823298Y-70384759D01*
X81910033Y-70384835D01*
X83340000Y-71814802D01*
X83340000Y-77435198D01*
X82424017Y-78351181D01*
X81976541Y-78165372D01*
X81127185Y-78164630D01*
X80342200Y-78488980D01*
X79741091Y-79089041D01*
X79415372Y-79873459D01*
X79414630Y-80722815D01*
X77884893Y-80722815D01*
X77885240Y-80325715D01*
X77674831Y-79816485D01*
X77285564Y-79426539D01*
X77047229Y-79327573D01*
X78514802Y-77860000D01*
X80139340Y-77860000D01*
X80430179Y-77802148D01*
X80676741Y-77637401D01*
X80927722Y-77386421D01*
X81114436Y-77573461D01*
X81623298Y-77784759D01*
X82174285Y-77785240D01*
X82683515Y-77574831D01*
X83073461Y-77185564D01*
X83284759Y-76676702D01*
X83285240Y-76125715D01*
X83074831Y-75616485D01*
X82685564Y-75226539D01*
X82176702Y-75015241D01*
X82143768Y-75015212D01*
X82159759Y-74976702D01*
X82160240Y-74425715D01*
X81949831Y-73916485D01*
X81560564Y-73526539D01*
X81051702Y-73315241D01*
X80500715Y-73314760D01*
X79991485Y-73525169D01*
X79601539Y-73914436D01*
X79390241Y-74423298D01*
X79389760Y-74974285D01*
X79553831Y-75371367D01*
X79285198Y-75640000D01*
X78192880Y-75640000D01*
X77902041Y-75697852D01*
X77839057Y-75739936D01*
X77771961Y-75402622D01*
X77450054Y-74920853D01*
X77160000Y-74727046D01*
X77160000Y-74485228D01*
X77174285Y-74485240D01*
X77683515Y-74274831D01*
X78073461Y-73885564D01*
X78284759Y-73376702D01*
X78285240Y-72825715D01*
X78074831Y-72316485D01*
X77685564Y-71926539D01*
X77176702Y-71715241D01*
X76625715Y-71714760D01*
X76116485Y-71925169D01*
X75726539Y-72314436D01*
X75515241Y-72823298D01*
X75514760Y-73374285D01*
X75640000Y-73677390D01*
X75640000Y-74727046D01*
X75349946Y-74920853D01*
X75322150Y-74962452D01*
X75313162Y-74914683D01*
X75174090Y-74698559D01*
X74961890Y-74553569D01*
X74710000Y-74502560D01*
X73010000Y-74502560D01*
X72774683Y-74546838D01*
X72558559Y-74685910D01*
X72413569Y-74898110D01*
X72387655Y-75026076D01*
X71885000Y-74523420D01*
X71885000Y-74484808D01*
X72379285Y-74485240D01*
X72888515Y-74274831D01*
X73278461Y-73885564D01*
X73489759Y-73376702D01*
X73490240Y-72825715D01*
X73279831Y-72316485D01*
X72890564Y-71926539D01*
X72381702Y-71715241D01*
X71830715Y-71714760D01*
X71395971Y-71894392D01*
X71075790Y-71574210D01*
X70964726Y-71500000D01*
X70788675Y-71382367D01*
X70732484Y-71371190D01*
X70492443Y-71323442D01*
X70453162Y-71114683D01*
X70314090Y-70898559D01*
X70101890Y-70753569D01*
X69876637Y-70707954D01*
X69817633Y-70411325D01*
X69716521Y-70260000D01*
X69625790Y-70124210D01*
X69625787Y-70124208D01*
X69135000Y-69633420D01*
X69135000Y-62594877D01*
X69183515Y-62574831D01*
X69573461Y-62185564D01*
X69656742Y-61985000D01*
X80626477Y-61985000D01*
X80914436Y-62273461D01*
X81423298Y-62484759D01*
X81974285Y-62485240D01*
X82483515Y-62274831D01*
X82873461Y-61885564D01*
X83084759Y-61376702D01*
X83084883Y-61235000D01*
X85114250Y-61235000D01*
X85273000Y-61076250D01*
X85273000Y-58327000D01*
X85527000Y-58327000D01*
X85527000Y-61076250D01*
X85685750Y-61235000D01*
X87926310Y-61235000D01*
X88159699Y-61138327D01*
X88338327Y-60959698D01*
X88435000Y-60726309D01*
X88435000Y-58485750D01*
X88276250Y-58327000D01*
X85527000Y-58327000D01*
X85273000Y-58327000D01*
X82523750Y-58327000D01*
X82365000Y-58485750D01*
X82365000Y-59876476D01*
X81976702Y-59715241D01*
X81425715Y-59714760D01*
X80916485Y-59925169D01*
X80626148Y-60215000D01*
X69157775Y-60215000D01*
X68676702Y-60015241D01*
X68125715Y-60014760D01*
X67616485Y-60225169D01*
X67226539Y-60614436D01*
X67015241Y-61123298D01*
X67014760Y-61674285D01*
X67225169Y-62183515D01*
X67365000Y-62323590D01*
X67365000Y-69999995D01*
X67364999Y-70000000D01*
X67399776Y-70174831D01*
X67432367Y-70338675D01*
X67463481Y-70385240D01*
X67624210Y-70625790D01*
X67811594Y-70813174D01*
X67698559Y-70885910D01*
X67553569Y-71098110D01*
X67502560Y-71350000D01*
X67502560Y-73050000D01*
X67546838Y-73285317D01*
X67685910Y-73501441D01*
X67898110Y-73646431D01*
X67965541Y-73660086D01*
X67920853Y-73689946D01*
X67598946Y-74171715D01*
X67485907Y-74740000D01*
X67598946Y-75308285D01*
X67920853Y-75790054D01*
X68261553Y-76017702D01*
X68118642Y-76084817D01*
X67728355Y-76513076D01*
X67558524Y-76923110D01*
X67679845Y-77153000D01*
X68873000Y-77153000D01*
X68873000Y-77133000D01*
X69127000Y-77133000D01*
X69127000Y-77153000D01*
X69147000Y-77153000D01*
X69147000Y-77407000D01*
X69127000Y-77407000D01*
X69127000Y-77427000D01*
X68873000Y-77427000D01*
X68873000Y-77407000D01*
X67679845Y-77407000D01*
X67558524Y-77636890D01*
X67728355Y-78046924D01*
X68118642Y-78475183D01*
X68261553Y-78542298D01*
X67920853Y-78769946D01*
X67598946Y-79251715D01*
X67485907Y-79820000D01*
X67598946Y-80388285D01*
X67920853Y-80870054D01*
X68250026Y-81090000D01*
X67920853Y-81309946D01*
X67598946Y-81791715D01*
X67485907Y-82360000D01*
X67598946Y-82928285D01*
X67920853Y-83410054D01*
X68261553Y-83637702D01*
X68118642Y-83704817D01*
X67728355Y-84133076D01*
X67558524Y-84543110D01*
X67679845Y-84773000D01*
X68873000Y-84773000D01*
X68873000Y-84753000D01*
X69127000Y-84753000D01*
X69127000Y-84773000D01*
X70320155Y-84773000D01*
X70441476Y-84543110D01*
X70271645Y-84133076D01*
X69881358Y-83704817D01*
X69738447Y-83637702D01*
X70079147Y-83410054D01*
X70401054Y-82928285D01*
X70454419Y-82660000D01*
X73400000Y-82660000D01*
X73690839Y-82602148D01*
X73937401Y-82437401D01*
X75227548Y-81147254D01*
X75325169Y-81383515D01*
X75714436Y-81773461D01*
X75740000Y-81784076D01*
X75740000Y-98400000D01*
X75797852Y-98690839D01*
X75962599Y-98937401D01*
X78690000Y-101664802D01*
X78690000Y-105903952D01*
X78434818Y-106009392D01*
X78435370Y-105377185D01*
X78111020Y-104592200D01*
X77510959Y-103991091D01*
X76726541Y-103665372D01*
X75877185Y-103664630D01*
X75092200Y-103988980D01*
X74491091Y-104589041D01*
X74165372Y-105373459D01*
X74164798Y-106030400D01*
X73526541Y-105765372D01*
X72677185Y-105764630D01*
X71892200Y-106088980D01*
X71291091Y-106689041D01*
X71220671Y-106858631D01*
X70877363Y-106514722D01*
X70276648Y-106265284D01*
X69626205Y-106264716D01*
X69025057Y-106513106D01*
X68649914Y-106887594D01*
X68582739Y-106725418D01*
X68263970Y-106565635D01*
X66929605Y-107900000D01*
X66943748Y-107914143D01*
X66764143Y-108093748D01*
X66750000Y-108079605D01*
X66735858Y-108093748D01*
X66556253Y-107914143D01*
X66570395Y-107900000D01*
X65236030Y-106565635D01*
X64917261Y-106725418D01*
X64710000Y-107254141D01*
X64710000Y-106386030D01*
X65415635Y-106386030D01*
X66750000Y-107720395D01*
X68084365Y-106386030D01*
X67924582Y-106067261D01*
X67133813Y-105757277D01*
X66284613Y-105773503D01*
X65575418Y-106067261D01*
X65415635Y-106386030D01*
X64710000Y-106386030D01*
X64710000Y-97963970D01*
X65415635Y-97963970D01*
X65575418Y-98282739D01*
X66366187Y-98592723D01*
X67215387Y-98576497D01*
X67924582Y-98282739D01*
X68084365Y-97963970D01*
X66750000Y-96629605D01*
X65415635Y-97963970D01*
X64710000Y-97963970D01*
X64710000Y-97124209D01*
X64917261Y-97624582D01*
X65236030Y-97784365D01*
X66570395Y-96450000D01*
X66929605Y-96450000D01*
X68263970Y-97784365D01*
X68582739Y-97624582D01*
X68647470Y-97459454D01*
X69022637Y-97835278D01*
X69623352Y-98084716D01*
X70273795Y-98085284D01*
X70874943Y-97836894D01*
X71220463Y-97491977D01*
X71288980Y-97657800D01*
X71889041Y-98258909D01*
X72673459Y-98584628D01*
X73522815Y-98585370D01*
X74307800Y-98261020D01*
X74908909Y-97660959D01*
X75234628Y-96876541D01*
X75235370Y-96027185D01*
X74911020Y-95242200D01*
X74310959Y-94641091D01*
X73526541Y-94315372D01*
X72677185Y-94314630D01*
X71892200Y-94638980D01*
X71291091Y-95239041D01*
X71220671Y-95408631D01*
X70877363Y-95064722D01*
X70276648Y-94815284D01*
X69626205Y-94814716D01*
X69025057Y-95063106D01*
X68649914Y-95437594D01*
X68582739Y-95275418D01*
X68263970Y-95115635D01*
X66929605Y-96450000D01*
X66570395Y-96450000D01*
X65236030Y-95115635D01*
X64917261Y-95275418D01*
X64710000Y-95804141D01*
X64710000Y-94936030D01*
X65415635Y-94936030D01*
X66750000Y-96270395D01*
X68084365Y-94936030D01*
X67924582Y-94617261D01*
X67133813Y-94307277D01*
X66284613Y-94323503D01*
X65575418Y-94617261D01*
X65415635Y-94936030D01*
X64710000Y-94936030D01*
X64710000Y-85256890D01*
X67558524Y-85256890D01*
X67728355Y-85666924D01*
X68118642Y-86095183D01*
X68643108Y-86341486D01*
X68873000Y-86220819D01*
X68873000Y-85027000D01*
X69127000Y-85027000D01*
X69127000Y-86220819D01*
X69356892Y-86341486D01*
X69881358Y-86095183D01*
X70271645Y-85666924D01*
X70441476Y-85256890D01*
X70320155Y-85027000D01*
X69127000Y-85027000D01*
X68873000Y-85027000D01*
X67679845Y-85027000D01*
X67558524Y-85256890D01*
X64710000Y-85256890D01*
X64710000Y-54991050D01*
X77284474Y-54991050D01*
X77745552Y-56106943D01*
X78598566Y-56961447D01*
X79713653Y-57424472D01*
X80921050Y-57425526D01*
X82036943Y-56964448D01*
X82365000Y-56636963D01*
X82365000Y-57914250D01*
X82523750Y-58073000D01*
X85273000Y-58073000D01*
X85273000Y-55323750D01*
X85527000Y-55323750D01*
X85527000Y-58073000D01*
X88276250Y-58073000D01*
X88435000Y-57914250D01*
X88435000Y-55673691D01*
X88338327Y-55440302D01*
X88159699Y-55261673D01*
X87926310Y-55165000D01*
X85685750Y-55165000D01*
X85527000Y-55323750D01*
X85273000Y-55323750D01*
X85114250Y-55165000D01*
X83284441Y-55165000D01*
X83354472Y-54996347D01*
X83355039Y-54347354D01*
X83678566Y-54671447D01*
X84793653Y-55134472D01*
X86001050Y-55135526D01*
X87116943Y-54674448D01*
X87971447Y-53821434D01*
X88434472Y-52706347D01*
X88435526Y-51498950D01*
X87974448Y-50383057D01*
X87121434Y-49528553D01*
X86006347Y-49065528D01*
X84798950Y-49064474D01*
X83683057Y-49525552D01*
X82828553Y-50378566D01*
X82554789Y-51037863D01*
X82381324Y-51072368D01*
X82094209Y-51264211D01*
X82094207Y-51264214D01*
X81687030Y-51671391D01*
X80926347Y-51355528D01*
X79985000Y-51354706D01*
X79985000Y-51273523D01*
X80273461Y-50985564D01*
X80484759Y-50476702D01*
X80485240Y-49925715D01*
X80274831Y-49416485D01*
X79885564Y-49026539D01*
X79376702Y-48815241D01*
X78825715Y-48814760D01*
X78316485Y-49025169D01*
X77926539Y-49414436D01*
X77715241Y-49923298D01*
X77714760Y-50474285D01*
X77925169Y-50983515D01*
X78215000Y-51273852D01*
X78215000Y-52202932D01*
X77748553Y-52668566D01*
X77285528Y-53783653D01*
X77284474Y-54991050D01*
X64710000Y-54991050D01*
X64710000Y-53710000D01*
X71000000Y-53710000D01*
X71271705Y-53655954D01*
X71502046Y-53502046D01*
X71655954Y-53271705D01*
X71710000Y-53000000D01*
X71710000Y-46710000D01*
X89290000Y-46710000D01*
X89290000Y-53000000D01*
G36*
X75349946Y-77079147D02*
X75831715Y-77401054D01*
X76069688Y-77448390D01*
X72903077Y-80615001D01*
X70869804Y-80615001D01*
X70441210Y-80186407D01*
X70514093Y-79820000D01*
X70401054Y-79251715D01*
X70079147Y-78769946D01*
X69738447Y-78542298D01*
X69881358Y-78475183D01*
X70271645Y-78046924D01*
X70441476Y-77636890D01*
X70320156Y-77407002D01*
X70485000Y-77407002D01*
X70485000Y-77299802D01*
X71127932Y-77942734D01*
X71115241Y-77973298D01*
X71114760Y-78524285D01*
X71325169Y-79033515D01*
X71714436Y-79423461D01*
X72223298Y-79634759D01*
X72774285Y-79635240D01*
X73283515Y-79424831D01*
X73673461Y-79035564D01*
X73884759Y-78526702D01*
X73885240Y-77975715D01*
X73687621Y-77497440D01*
X74710000Y-77497440D01*
X74945317Y-77453162D01*
X75161441Y-77314090D01*
X75306431Y-77101890D01*
X75320086Y-77034459D01*
X75349946Y-77079147D01*
X75349946Y-77079147D01*
G37*
X75349946Y-77079147D02*
X75831715Y-77401054D01*
X76069688Y-77448390D01*
X72903077Y-80615001D01*
X70869804Y-80615001D01*
X70441210Y-80186407D01*
X70514093Y-79820000D01*
X70401054Y-79251715D01*
X70079147Y-78769946D01*
X69738447Y-78542298D01*
X69881358Y-78475183D01*
X70271645Y-78046924D01*
X70441476Y-77636890D01*
X70320156Y-77407002D01*
X70485000Y-77407002D01*
X70485000Y-77299802D01*
X71127932Y-77942734D01*
X71115241Y-77973298D01*
X71114760Y-78524285D01*
X71325169Y-79033515D01*
X71714436Y-79423461D01*
X72223298Y-79634759D01*
X72774285Y-79635240D01*
X73283515Y-79424831D01*
X73673461Y-79035564D01*
X73884759Y-78526702D01*
X73885240Y-77975715D01*
X73687621Y-77497440D01*
X74710000Y-77497440D01*
X74945317Y-77453162D01*
X75161441Y-77314090D01*
X75306431Y-77101890D01*
X75320086Y-77034459D01*
X75349946Y-77079147D01*
M02*
