G04 #@! TF.FileFunction,Copper,L1,Top,Signal*
%FSLAX46Y46*%
G04 Gerber Fmt 4.6, Leading zero omitted, Abs format (unit mm)*
G04 Created by KiCad (PCBNEW 4.0.7) date 06/05/18 18:44:41*
%MOMM*%
%LPD*%
G01*
G04 APERTURE LIST*
%ADD10C,0.100000*%
%ADD11C,0.150000*%
%ADD12C,0.200000*%
%ADD13C,0.250000*%
%ADD14C,4.800000*%
%ADD15R,4.800000X4.800000*%
%ADD16R,0.508000X1.143000*%
%ADD17R,1.700000X1.700000*%
%ADD18O,1.700000X1.700000*%
%ADD19R,2.940000X1.000000*%
%ADD20C,3.000000*%
%ADD21R,0.800000X0.900000*%
%ADD22R,3.000000X1.600000*%
%ADD23R,0.800000X0.750000*%
%ADD24R,1.300000X0.700000*%
%ADD25C,1.800000*%
%ADD26R,0.500000X0.900000*%
%ADD27R,0.900000X0.500000*%
%ADD28R,0.900000X0.800000*%
%ADD29R,0.750000X0.800000*%
%ADD30C,1.500000*%
%ADD31C,0.500000*%
%ADD32C,0.254000*%
G04 APERTURE END LIST*
D10*
D11*
X126466666Y-129600000D02*
G75*
G03X126466666Y-129600000I-1666666J0D01*
G01*
X122300000Y-129600000D02*
X127300000Y-129600000D01*
X124800000Y-127100000D02*
X124800000Y-132100000D01*
X153666666Y-49200000D02*
G75*
G03X153666666Y-49200000I-1666666J0D01*
G01*
X149500000Y-49200000D02*
X154500000Y-49200000D01*
X152000000Y-46700000D02*
X152000000Y-51700000D01*
X68866666Y-129600000D02*
G75*
G03X68866666Y-129600000I-1666666J0D01*
G01*
X64700000Y-129600000D02*
X69700000Y-129600000D01*
X67200000Y-127100000D02*
X67200000Y-132100000D01*
X95266666Y-49200000D02*
G75*
G03X95266666Y-49200000I-1666666J0D01*
G01*
X91100000Y-49200000D02*
X96100000Y-49200000D01*
X93600000Y-46700000D02*
X93600000Y-51700000D01*
D12*
X85928570Y-102785714D02*
X85928570Y-103642857D01*
X85880951Y-103738095D01*
X85785713Y-103785714D01*
X85738094Y-103785714D01*
X85928570Y-102452381D02*
X85880951Y-102500000D01*
X85928570Y-102547619D01*
X85976189Y-102500000D01*
X85928570Y-102452381D01*
X85928570Y-102547619D01*
X86785713Y-103404762D02*
X86690475Y-103452381D01*
X86499998Y-103452381D01*
X86404760Y-103404762D01*
X86357141Y-103309524D01*
X86357141Y-102928571D01*
X86404760Y-102833333D01*
X86499998Y-102785714D01*
X86690475Y-102785714D01*
X86785713Y-102833333D01*
X86833332Y-102928571D01*
X86833332Y-103023810D01*
X86357141Y-103119048D01*
X87261903Y-103452381D02*
X87261903Y-102785714D01*
X87261903Y-102976190D02*
X87309522Y-102880952D01*
X87357141Y-102833333D01*
X87452379Y-102785714D01*
X87547618Y-102785714D01*
X87880951Y-103452381D02*
X87880951Y-102452381D01*
X87976189Y-103071429D02*
X88261904Y-103452381D01*
X88261904Y-102785714D02*
X87880951Y-103166667D01*
X89119047Y-102785714D02*
X89119047Y-103452381D01*
X88690475Y-102785714D02*
X88690475Y-103309524D01*
X88738094Y-103404762D01*
X88833332Y-103452381D01*
X88976190Y-103452381D01*
X89071428Y-103404762D01*
X89119047Y-103357143D01*
X89738094Y-103452381D02*
X89642856Y-103404762D01*
X89595237Y-103309524D01*
X89595237Y-102452381D01*
X90547619Y-103452381D02*
X90547619Y-102928571D01*
X90500000Y-102833333D01*
X90404762Y-102785714D01*
X90214285Y-102785714D01*
X90119047Y-102833333D01*
X90547619Y-103404762D02*
X90452381Y-103452381D01*
X90214285Y-103452381D01*
X90119047Y-103404762D01*
X90071428Y-103309524D01*
X90071428Y-103214286D01*
X90119047Y-103119048D01*
X90214285Y-103071429D01*
X90452381Y-103071429D01*
X90547619Y-103023810D01*
X90880952Y-102785714D02*
X91261904Y-102785714D01*
X91023809Y-102452381D02*
X91023809Y-103309524D01*
X91071428Y-103404762D01*
X91166666Y-103452381D01*
X91261904Y-103452381D01*
X91738095Y-103452381D02*
X91642857Y-103404762D01*
X91595238Y-103357143D01*
X91547619Y-103261905D01*
X91547619Y-102976190D01*
X91595238Y-102880952D01*
X91642857Y-102833333D01*
X91738095Y-102785714D01*
X91880953Y-102785714D01*
X91976191Y-102833333D01*
X92023810Y-102880952D01*
X92071429Y-102976190D01*
X92071429Y-103261905D01*
X92023810Y-103357143D01*
X91976191Y-103404762D01*
X91880953Y-103452381D01*
X91738095Y-103452381D01*
X92500000Y-103452381D02*
X92500000Y-102785714D01*
X92500000Y-102976190D02*
X92547619Y-102880952D01*
X92595238Y-102833333D01*
X92690476Y-102785714D01*
X92785715Y-102785714D01*
X93785715Y-102785714D02*
X94023810Y-103452381D01*
X94261906Y-102785714D01*
X94833334Y-102452381D02*
X94928573Y-102452381D01*
X95023811Y-102500000D01*
X95071430Y-102547619D01*
X95119049Y-102642857D01*
X95166668Y-102833333D01*
X95166668Y-103071429D01*
X95119049Y-103261905D01*
X95071430Y-103357143D01*
X95023811Y-103404762D01*
X94928573Y-103452381D01*
X94833334Y-103452381D01*
X94738096Y-103404762D01*
X94690477Y-103357143D01*
X94642858Y-103261905D01*
X94595239Y-103071429D01*
X94595239Y-102833333D01*
X94642858Y-102642857D01*
X94690477Y-102547619D01*
X94738096Y-102500000D01*
X94833334Y-102452381D01*
X95500001Y-102452381D02*
X96119049Y-102452381D01*
X95785715Y-102833333D01*
X95928573Y-102833333D01*
X96023811Y-102880952D01*
X96071430Y-102928571D01*
X96119049Y-103023810D01*
X96119049Y-103261905D01*
X96071430Y-103357143D01*
X96023811Y-103404762D01*
X95928573Y-103452381D01*
X95642858Y-103452381D01*
X95547620Y-103404762D01*
X95500001Y-103357143D01*
X85875582Y-101952381D02*
X85875582Y-100952381D01*
X86304154Y-101952381D02*
X86304154Y-101428571D01*
X86256535Y-101333333D01*
X86161297Y-101285714D01*
X86018439Y-101285714D01*
X85923201Y-101333333D01*
X85875582Y-101380952D01*
X87208916Y-101952381D02*
X87208916Y-101428571D01*
X87161297Y-101333333D01*
X87066059Y-101285714D01*
X86875582Y-101285714D01*
X86780344Y-101333333D01*
X87208916Y-101904762D02*
X87113678Y-101952381D01*
X86875582Y-101952381D01*
X86780344Y-101904762D01*
X86732725Y-101809524D01*
X86732725Y-101714286D01*
X86780344Y-101619048D01*
X86875582Y-101571429D01*
X87113678Y-101571429D01*
X87208916Y-101523810D01*
X87685106Y-101952381D02*
X87685106Y-101285714D01*
X87685106Y-101476190D02*
X87732725Y-101380952D01*
X87780344Y-101333333D01*
X87875582Y-101285714D01*
X87970821Y-101285714D01*
X88304154Y-101952381D02*
X88304154Y-101285714D01*
X88304154Y-101380952D02*
X88351773Y-101333333D01*
X88447011Y-101285714D01*
X88589869Y-101285714D01*
X88685107Y-101333333D01*
X88732726Y-101428571D01*
X88732726Y-101952381D01*
X88732726Y-101428571D02*
X88780345Y-101333333D01*
X88875583Y-101285714D01*
X89018440Y-101285714D01*
X89113678Y-101333333D01*
X89161297Y-101428571D01*
X89161297Y-101952381D01*
X89780344Y-101952381D02*
X89685106Y-101904762D01*
X89637487Y-101857143D01*
X89589868Y-101761905D01*
X89589868Y-101476190D01*
X89637487Y-101380952D01*
X89685106Y-101333333D01*
X89780344Y-101285714D01*
X89923202Y-101285714D01*
X90018440Y-101333333D01*
X90066059Y-101380952D01*
X90113678Y-101476190D01*
X90113678Y-101761905D01*
X90066059Y-101857143D01*
X90018440Y-101904762D01*
X89923202Y-101952381D01*
X89780344Y-101952381D01*
X90542249Y-101285714D02*
X90542249Y-101952381D01*
X90542249Y-101380952D02*
X90589868Y-101333333D01*
X90685106Y-101285714D01*
X90827964Y-101285714D01*
X90923202Y-101333333D01*
X90970821Y-101428571D01*
X90970821Y-101952381D01*
X91447011Y-101952381D02*
X91447011Y-101285714D01*
X91447011Y-100952381D02*
X91399392Y-101000000D01*
X91447011Y-101047619D01*
X91494630Y-101000000D01*
X91447011Y-100952381D01*
X91447011Y-101047619D01*
X92351773Y-101904762D02*
X92256535Y-101952381D01*
X92066058Y-101952381D01*
X91970820Y-101904762D01*
X91923201Y-101857143D01*
X91875582Y-101761905D01*
X91875582Y-101476190D01*
X91923201Y-101380952D01*
X91970820Y-101333333D01*
X92066058Y-101285714D01*
X92256535Y-101285714D01*
X92351773Y-101333333D01*
X86499392Y-100565229D02*
X86166058Y-100089038D01*
X85927963Y-100565229D02*
X85927963Y-99565229D01*
X86308916Y-99565229D01*
X86404154Y-99612848D01*
X86451773Y-99660467D01*
X86499392Y-99755705D01*
X86499392Y-99898562D01*
X86451773Y-99993800D01*
X86404154Y-100041419D01*
X86308916Y-100089038D01*
X85927963Y-100089038D01*
X86880344Y-100279515D02*
X87356535Y-100279515D01*
X86785106Y-100565229D02*
X87118439Y-99565229D01*
X87451773Y-100565229D01*
X87785106Y-100565229D02*
X87785106Y-99565229D01*
X88356535Y-100565229D01*
X88356535Y-99565229D01*
X88832725Y-100565229D02*
X88832725Y-99565229D01*
X89070820Y-99565229D01*
X89213678Y-99612848D01*
X89308916Y-99708086D01*
X89356535Y-99803324D01*
X89404154Y-99993800D01*
X89404154Y-100136658D01*
X89356535Y-100327134D01*
X89308916Y-100422372D01*
X89213678Y-100517610D01*
X89070820Y-100565229D01*
X88832725Y-100565229D01*
X89785106Y-100279515D02*
X90261297Y-100279515D01*
X89689868Y-100565229D02*
X90023201Y-99565229D01*
X90356535Y-100565229D01*
X91213678Y-99612848D02*
X91118440Y-99565229D01*
X90975583Y-99565229D01*
X90832725Y-99612848D01*
X90737487Y-99708086D01*
X90689868Y-99803324D01*
X90642249Y-99993800D01*
X90642249Y-100136658D01*
X90689868Y-100327134D01*
X90737487Y-100422372D01*
X90832725Y-100517610D01*
X90975583Y-100565229D01*
X91070821Y-100565229D01*
X91213678Y-100517610D01*
X91261297Y-100469991D01*
X91261297Y-100136658D01*
X91070821Y-100136658D01*
X91880344Y-99565229D02*
X92070821Y-99565229D01*
X92166059Y-99612848D01*
X92261297Y-99708086D01*
X92308916Y-99898562D01*
X92308916Y-100231896D01*
X92261297Y-100422372D01*
X92166059Y-100517610D01*
X92070821Y-100565229D01*
X91880344Y-100565229D01*
X91785106Y-100517610D01*
X91689868Y-100422372D01*
X91642249Y-100231896D01*
X91642249Y-99898562D01*
X91689868Y-99708086D01*
X91785106Y-99612848D01*
X91880344Y-99565229D01*
X92737487Y-100565229D02*
X92737487Y-99565229D01*
X92975582Y-99565229D01*
X93118440Y-99612848D01*
X93213678Y-99708086D01*
X93261297Y-99803324D01*
X93308916Y-99993800D01*
X93308916Y-100136658D01*
X93261297Y-100327134D01*
X93213678Y-100422372D01*
X93118440Y-100517610D01*
X92975582Y-100565229D01*
X92737487Y-100565229D01*
X94308916Y-100565229D02*
X93975582Y-100089038D01*
X93737487Y-100565229D02*
X93737487Y-99565229D01*
X94118440Y-99565229D01*
X94213678Y-99612848D01*
X94261297Y-99660467D01*
X94308916Y-99755705D01*
X94308916Y-99898562D01*
X94261297Y-99993800D01*
X94213678Y-100041419D01*
X94118440Y-100089038D01*
X93737487Y-100089038D01*
X94927963Y-99565229D02*
X95118440Y-99565229D01*
X95213678Y-99612848D01*
X95308916Y-99708086D01*
X95356535Y-99898562D01*
X95356535Y-100231896D01*
X95308916Y-100422372D01*
X95213678Y-100517610D01*
X95118440Y-100565229D01*
X94927963Y-100565229D01*
X94832725Y-100517610D01*
X94737487Y-100422372D01*
X94689868Y-100231896D01*
X94689868Y-99898562D01*
X94737487Y-99708086D01*
X94832725Y-99612848D01*
X94927963Y-99565229D01*
X95785106Y-100565229D02*
X95785106Y-99565229D01*
X96356535Y-100565229D01*
X96356535Y-99565229D01*
D13*
X142859524Y-105402381D02*
X142526190Y-104926190D01*
X142288095Y-105402381D02*
X142288095Y-104402381D01*
X142669048Y-104402381D01*
X142764286Y-104450000D01*
X142811905Y-104497619D01*
X142859524Y-104592857D01*
X142859524Y-104735714D01*
X142811905Y-104830952D01*
X142764286Y-104878571D01*
X142669048Y-104926190D01*
X142288095Y-104926190D01*
X143240476Y-105116667D02*
X143716667Y-105116667D01*
X143145238Y-105402381D02*
X143478571Y-104402381D01*
X143811905Y-105402381D01*
X144145238Y-105402381D02*
X144145238Y-104402381D01*
X144716667Y-105402381D01*
X144716667Y-104402381D01*
X145192857Y-105402381D02*
X145192857Y-104402381D01*
X145430952Y-104402381D01*
X145573810Y-104450000D01*
X145669048Y-104545238D01*
X145716667Y-104640476D01*
X145764286Y-104830952D01*
X145764286Y-104973810D01*
X145716667Y-105164286D01*
X145669048Y-105259524D01*
X145573810Y-105354762D01*
X145430952Y-105402381D01*
X145192857Y-105402381D01*
X146145238Y-105116667D02*
X146621429Y-105116667D01*
X146050000Y-105402381D02*
X146383333Y-104402381D01*
X146716667Y-105402381D01*
X147573810Y-104450000D02*
X147478572Y-104402381D01*
X147335715Y-104402381D01*
X147192857Y-104450000D01*
X147097619Y-104545238D01*
X147050000Y-104640476D01*
X147002381Y-104830952D01*
X147002381Y-104973810D01*
X147050000Y-105164286D01*
X147097619Y-105259524D01*
X147192857Y-105354762D01*
X147335715Y-105402381D01*
X147430953Y-105402381D01*
X147573810Y-105354762D01*
X147621429Y-105307143D01*
X147621429Y-104973810D01*
X147430953Y-104973810D01*
X148240476Y-104402381D02*
X148430953Y-104402381D01*
X148526191Y-104450000D01*
X148621429Y-104545238D01*
X148669048Y-104735714D01*
X148669048Y-105069048D01*
X148621429Y-105259524D01*
X148526191Y-105354762D01*
X148430953Y-105402381D01*
X148240476Y-105402381D01*
X148145238Y-105354762D01*
X148050000Y-105259524D01*
X148002381Y-105069048D01*
X148002381Y-104735714D01*
X148050000Y-104545238D01*
X148145238Y-104450000D01*
X148240476Y-104402381D01*
X149097619Y-105402381D02*
X149097619Y-104402381D01*
X149335714Y-104402381D01*
X149478572Y-104450000D01*
X149573810Y-104545238D01*
X149621429Y-104640476D01*
X149669048Y-104830952D01*
X149669048Y-104973810D01*
X149621429Y-105164286D01*
X149573810Y-105259524D01*
X149478572Y-105354762D01*
X149335714Y-105402381D01*
X149097619Y-105402381D01*
X150669048Y-105402381D02*
X150335714Y-104926190D01*
X150097619Y-105402381D02*
X150097619Y-104402381D01*
X150478572Y-104402381D01*
X150573810Y-104450000D01*
X150621429Y-104497619D01*
X150669048Y-104592857D01*
X150669048Y-104735714D01*
X150621429Y-104830952D01*
X150573810Y-104878571D01*
X150478572Y-104926190D01*
X150097619Y-104926190D01*
X151288095Y-104402381D02*
X151478572Y-104402381D01*
X151573810Y-104450000D01*
X151669048Y-104545238D01*
X151716667Y-104735714D01*
X151716667Y-105069048D01*
X151669048Y-105259524D01*
X151573810Y-105354762D01*
X151478572Y-105402381D01*
X151288095Y-105402381D01*
X151192857Y-105354762D01*
X151097619Y-105259524D01*
X151050000Y-105069048D01*
X151050000Y-104735714D01*
X151097619Y-104545238D01*
X151192857Y-104450000D01*
X151288095Y-104402381D01*
X152145238Y-105402381D02*
X152145238Y-104402381D01*
X152716667Y-105402381D01*
X152716667Y-104402381D01*
X142288095Y-107152381D02*
X142288095Y-106152381D01*
X142716667Y-107152381D02*
X142716667Y-106628571D01*
X142669048Y-106533333D01*
X142573810Y-106485714D01*
X142430952Y-106485714D01*
X142335714Y-106533333D01*
X142288095Y-106580952D01*
X143621429Y-107152381D02*
X143621429Y-106628571D01*
X143573810Y-106533333D01*
X143478572Y-106485714D01*
X143288095Y-106485714D01*
X143192857Y-106533333D01*
X143621429Y-107104762D02*
X143526191Y-107152381D01*
X143288095Y-107152381D01*
X143192857Y-107104762D01*
X143145238Y-107009524D01*
X143145238Y-106914286D01*
X143192857Y-106819048D01*
X143288095Y-106771429D01*
X143526191Y-106771429D01*
X143621429Y-106723810D01*
X144097619Y-107152381D02*
X144097619Y-106485714D01*
X144097619Y-106676190D02*
X144145238Y-106580952D01*
X144192857Y-106533333D01*
X144288095Y-106485714D01*
X144383334Y-106485714D01*
X144716667Y-107152381D02*
X144716667Y-106485714D01*
X144716667Y-106580952D02*
X144764286Y-106533333D01*
X144859524Y-106485714D01*
X145002382Y-106485714D01*
X145097620Y-106533333D01*
X145145239Y-106628571D01*
X145145239Y-107152381D01*
X145145239Y-106628571D02*
X145192858Y-106533333D01*
X145288096Y-106485714D01*
X145430953Y-106485714D01*
X145526191Y-106533333D01*
X145573810Y-106628571D01*
X145573810Y-107152381D01*
X146192857Y-107152381D02*
X146097619Y-107104762D01*
X146050000Y-107057143D01*
X146002381Y-106961905D01*
X146002381Y-106676190D01*
X146050000Y-106580952D01*
X146097619Y-106533333D01*
X146192857Y-106485714D01*
X146335715Y-106485714D01*
X146430953Y-106533333D01*
X146478572Y-106580952D01*
X146526191Y-106676190D01*
X146526191Y-106961905D01*
X146478572Y-107057143D01*
X146430953Y-107104762D01*
X146335715Y-107152381D01*
X146192857Y-107152381D01*
X146954762Y-106485714D02*
X146954762Y-107152381D01*
X146954762Y-106580952D02*
X147002381Y-106533333D01*
X147097619Y-106485714D01*
X147240477Y-106485714D01*
X147335715Y-106533333D01*
X147383334Y-106628571D01*
X147383334Y-107152381D01*
X147859524Y-107152381D02*
X147859524Y-106485714D01*
X147859524Y-106152381D02*
X147811905Y-106200000D01*
X147859524Y-106247619D01*
X147907143Y-106200000D01*
X147859524Y-106152381D01*
X147859524Y-106247619D01*
X148764286Y-107104762D02*
X148669048Y-107152381D01*
X148478571Y-107152381D01*
X148383333Y-107104762D01*
X148335714Y-107057143D01*
X148288095Y-106961905D01*
X148288095Y-106676190D01*
X148335714Y-106580952D01*
X148383333Y-106533333D01*
X148478571Y-106485714D01*
X148669048Y-106485714D01*
X148764286Y-106533333D01*
X142288095Y-108235714D02*
X142288095Y-109092857D01*
X142240476Y-109188095D01*
X142145238Y-109235714D01*
X142097619Y-109235714D01*
X142288095Y-107902381D02*
X142240476Y-107950000D01*
X142288095Y-107997619D01*
X142335714Y-107950000D01*
X142288095Y-107902381D01*
X142288095Y-107997619D01*
X143145238Y-108854762D02*
X143050000Y-108902381D01*
X142859523Y-108902381D01*
X142764285Y-108854762D01*
X142716666Y-108759524D01*
X142716666Y-108378571D01*
X142764285Y-108283333D01*
X142859523Y-108235714D01*
X143050000Y-108235714D01*
X143145238Y-108283333D01*
X143192857Y-108378571D01*
X143192857Y-108473810D01*
X142716666Y-108569048D01*
X143621428Y-108902381D02*
X143621428Y-108235714D01*
X143621428Y-108426190D02*
X143669047Y-108330952D01*
X143716666Y-108283333D01*
X143811904Y-108235714D01*
X143907143Y-108235714D01*
X144240476Y-108902381D02*
X144240476Y-107902381D01*
X144335714Y-108521429D02*
X144621429Y-108902381D01*
X144621429Y-108235714D02*
X144240476Y-108616667D01*
X145478572Y-108235714D02*
X145478572Y-108902381D01*
X145050000Y-108235714D02*
X145050000Y-108759524D01*
X145097619Y-108854762D01*
X145192857Y-108902381D01*
X145335715Y-108902381D01*
X145430953Y-108854762D01*
X145478572Y-108807143D01*
X146097619Y-108902381D02*
X146002381Y-108854762D01*
X145954762Y-108759524D01*
X145954762Y-107902381D01*
X146907144Y-108902381D02*
X146907144Y-108378571D01*
X146859525Y-108283333D01*
X146764287Y-108235714D01*
X146573810Y-108235714D01*
X146478572Y-108283333D01*
X146907144Y-108854762D02*
X146811906Y-108902381D01*
X146573810Y-108902381D01*
X146478572Y-108854762D01*
X146430953Y-108759524D01*
X146430953Y-108664286D01*
X146478572Y-108569048D01*
X146573810Y-108521429D01*
X146811906Y-108521429D01*
X146907144Y-108473810D01*
X147240477Y-108235714D02*
X147621429Y-108235714D01*
X147383334Y-107902381D02*
X147383334Y-108759524D01*
X147430953Y-108854762D01*
X147526191Y-108902381D01*
X147621429Y-108902381D01*
X148097620Y-108902381D02*
X148002382Y-108854762D01*
X147954763Y-108807143D01*
X147907144Y-108711905D01*
X147907144Y-108426190D01*
X147954763Y-108330952D01*
X148002382Y-108283333D01*
X148097620Y-108235714D01*
X148240478Y-108235714D01*
X148335716Y-108283333D01*
X148383335Y-108330952D01*
X148430954Y-108426190D01*
X148430954Y-108711905D01*
X148383335Y-108807143D01*
X148335716Y-108854762D01*
X148240478Y-108902381D01*
X148097620Y-108902381D01*
X148859525Y-108902381D02*
X148859525Y-108235714D01*
X148859525Y-108426190D02*
X148907144Y-108330952D01*
X148954763Y-108283333D01*
X149050001Y-108235714D01*
X149145240Y-108235714D01*
X150145240Y-108235714D02*
X150383335Y-108902381D01*
X150621431Y-108235714D01*
X151192859Y-107902381D02*
X151288098Y-107902381D01*
X151383336Y-107950000D01*
X151430955Y-107997619D01*
X151478574Y-108092857D01*
X151526193Y-108283333D01*
X151526193Y-108521429D01*
X151478574Y-108711905D01*
X151430955Y-108807143D01*
X151383336Y-108854762D01*
X151288098Y-108902381D01*
X151192859Y-108902381D01*
X151097621Y-108854762D01*
X151050002Y-108807143D01*
X151002383Y-108711905D01*
X150954764Y-108521429D01*
X150954764Y-108283333D01*
X151002383Y-108092857D01*
X151050002Y-107997619D01*
X151097621Y-107950000D01*
X151192859Y-107902381D01*
X151859526Y-107902381D02*
X152478574Y-107902381D01*
X152145240Y-108283333D01*
X152288098Y-108283333D01*
X152383336Y-108330952D01*
X152430955Y-108378571D01*
X152478574Y-108473810D01*
X152478574Y-108711905D01*
X152430955Y-108807143D01*
X152383336Y-108854762D01*
X152288098Y-108902381D01*
X152002383Y-108902381D01*
X151907145Y-108854762D01*
X151859526Y-108807143D01*
D11*
X122000000Y-110000000D02*
X155000000Y-110000000D01*
X64000000Y-110000000D02*
X97000000Y-110000000D01*
X148000000Y-53000000D02*
X155000000Y-53000000D01*
X155000000Y-53000000D02*
X155000000Y-126000000D01*
X129000000Y-46000000D02*
X148000000Y-46000000D01*
X129000000Y-53000000D02*
X129000000Y-46000000D01*
X148000000Y-46000000D02*
X148000000Y-53000000D01*
X122000000Y-126000000D02*
X122000000Y-53000000D01*
X122000000Y-53000000D02*
X129000000Y-53000000D01*
X148000000Y-126000000D02*
X148000000Y-133000000D01*
X155000000Y-126000000D02*
X148000000Y-126000000D01*
X148000000Y-133000000D02*
X129000000Y-133000000D01*
X129000000Y-133000000D02*
X129000000Y-126000000D01*
X129000000Y-126000000D02*
X122000000Y-126000000D01*
X71000000Y-53000000D02*
X71000000Y-46000000D01*
X64000000Y-53000000D02*
X71000000Y-53000000D01*
X64000000Y-126000000D02*
X64000000Y-53000000D01*
X71000000Y-126000000D02*
X64000000Y-126000000D01*
X71000000Y-133000000D02*
X71000000Y-126000000D01*
X90000000Y-133000000D02*
X71000000Y-133000000D01*
X90000000Y-126000000D02*
X90000000Y-133000000D01*
X97000000Y-126000000D02*
X90000000Y-126000000D01*
X97000000Y-53000000D02*
X97000000Y-126000000D01*
X90000000Y-53000000D02*
X97000000Y-53000000D01*
X90000000Y-46000000D02*
X90000000Y-53000000D01*
X71000000Y-46000000D02*
X90000000Y-46000000D01*
D14*
X85400000Y-52100000D03*
D15*
X85400000Y-58200000D03*
D14*
X80320000Y-54390000D03*
D16*
X70980000Y-68400000D03*
X72250000Y-68400000D03*
X73520000Y-68400000D03*
X74790000Y-68400000D03*
X76060000Y-68400000D03*
X77330000Y-68400000D03*
X78600000Y-68400000D03*
X78600000Y-62050000D03*
X77330000Y-62050000D03*
X74790000Y-62050000D03*
X73520000Y-62050000D03*
X72250000Y-62050000D03*
X70980000Y-62050000D03*
X76060000Y-62050000D03*
D17*
X128260000Y-93800000D03*
D18*
X130800000Y-93800000D03*
D19*
X94400000Y-65100000D03*
X94400000Y-67640000D03*
X94400000Y-70180000D03*
X94400000Y-72720000D03*
X94400000Y-75260000D03*
X84840000Y-75260000D03*
X84840000Y-72720000D03*
X84840000Y-70180000D03*
X84840000Y-67640000D03*
X84840000Y-65100000D03*
D20*
X66750000Y-107900000D03*
X73100000Y-107900000D03*
X79450000Y-96450000D03*
X79450000Y-107900000D03*
X66750000Y-96450000D03*
X73100000Y-96450000D03*
X94250000Y-80300000D03*
X87900000Y-80300000D03*
X81550000Y-91750000D03*
X81550000Y-80300000D03*
X94250000Y-91750000D03*
X87900000Y-91750000D03*
D21*
X75450000Y-51000000D03*
X77350000Y-51000000D03*
X76400000Y-49000000D03*
D17*
X127000000Y-72200000D03*
D18*
X127000000Y-74740000D03*
X127000000Y-77280000D03*
X127000000Y-79820000D03*
X127000000Y-82360000D03*
X127000000Y-84900000D03*
D17*
X69000000Y-72200000D03*
D18*
X69000000Y-74740000D03*
X69000000Y-77280000D03*
X69000000Y-79820000D03*
X69000000Y-82360000D03*
X69000000Y-84900000D03*
D17*
X136600000Y-49700000D03*
D18*
X139140000Y-49700000D03*
X141680000Y-49700000D03*
D22*
X71000000Y-57400000D03*
X75400000Y-57400000D03*
D23*
X73700000Y-73100000D03*
X75200000Y-73100000D03*
D24*
X95300000Y-55200000D03*
X95300000Y-57100000D03*
X81700000Y-65050000D03*
X81700000Y-63150000D03*
D25*
X126800000Y-67600000D03*
X129300000Y-67600000D03*
X131800000Y-67600000D03*
D20*
X124550000Y-60100000D03*
X134050000Y-60100000D03*
D25*
X145400000Y-67600000D03*
X147900000Y-67600000D03*
X150400000Y-67600000D03*
D20*
X143150000Y-60100000D03*
X152650000Y-60100000D03*
D26*
X78450000Y-71000000D03*
X79950000Y-71000000D03*
D24*
X140600000Y-66550000D03*
X140600000Y-64650000D03*
D27*
X131800000Y-71850000D03*
X131800000Y-73350000D03*
D26*
X132100000Y-86300000D03*
X130600000Y-86300000D03*
X77100000Y-71000000D03*
X75600000Y-71000000D03*
X72700000Y-71000000D03*
X74200000Y-71000000D03*
D27*
X152900000Y-71150000D03*
X152900000Y-69650000D03*
X131800000Y-75000000D03*
X131800000Y-76500000D03*
D26*
X137650000Y-80600000D03*
X139150000Y-80600000D03*
X150050000Y-70700000D03*
X148550000Y-70700000D03*
X138100000Y-68400000D03*
X136600000Y-68400000D03*
D28*
X136600000Y-64450000D03*
X136600000Y-66350000D03*
X138600000Y-65400000D03*
X91400000Y-54250000D03*
X91400000Y-56150000D03*
X93400000Y-55200000D03*
X150300000Y-72950000D03*
X150300000Y-74850000D03*
X152300000Y-73900000D03*
X138100000Y-77450000D03*
X138100000Y-75550000D03*
X136100000Y-76500000D03*
D17*
X128160000Y-89900000D03*
D18*
X130700000Y-89900000D03*
D17*
X73860000Y-76000000D03*
D18*
X76400000Y-76000000D03*
D17*
X147580000Y-76200000D03*
D18*
X145040000Y-76200000D03*
X142500000Y-76200000D03*
D17*
X135460000Y-71900000D03*
D18*
X138000000Y-71900000D03*
X140540000Y-71900000D03*
D17*
X138800000Y-58660000D03*
D18*
X138800000Y-61200000D03*
D28*
X95300000Y-60800000D03*
X95300000Y-58900000D03*
X93300000Y-59850000D03*
D21*
X133850000Y-86300000D03*
X135750000Y-86300000D03*
X134800000Y-84300000D03*
X135700000Y-80600000D03*
X133800000Y-80600000D03*
X134750000Y-82600000D03*
D29*
X68400000Y-66100000D03*
X68400000Y-64600000D03*
D23*
X135400000Y-79000000D03*
X133900000Y-79000000D03*
D29*
X134300000Y-76550000D03*
X134300000Y-75050000D03*
X152300000Y-76650000D03*
X152300000Y-78150000D03*
D23*
X146250000Y-73300000D03*
X147750000Y-73300000D03*
D22*
X142300000Y-81200000D03*
X146700000Y-81200000D03*
D30*
X146600000Y-71074990D03*
X140218870Y-74077879D03*
X149002249Y-78824437D03*
X143027908Y-69853898D03*
X150700000Y-78400000D03*
X132200000Y-70200000D03*
X135600000Y-73900000D03*
X139800000Y-76675010D03*
X135025010Y-69500000D03*
X131892686Y-80303463D03*
X124700000Y-77300000D03*
X131600000Y-82300000D03*
X127900000Y-87400000D03*
X130725000Y-79000000D03*
X81700000Y-61100000D03*
X68400000Y-61400000D03*
X72105000Y-73100000D03*
X132100000Y-84700000D03*
X138750000Y-55500000D03*
X140800000Y-55400000D03*
X82100000Y-69000000D03*
X76500000Y-80600000D03*
X86700000Y-62100000D03*
X78600000Y-59850000D03*
X80250000Y-68250000D03*
X72000000Y-80250000D03*
X80775000Y-74700000D03*
X81900000Y-76400000D03*
X72500000Y-78250000D03*
X124700000Y-79800000D03*
X129600000Y-82400000D03*
X126300000Y-69800000D03*
X124700000Y-74700000D03*
X139491833Y-68345574D03*
X130425000Y-70200000D03*
X76900000Y-73100000D03*
X79100000Y-50200000D03*
D13*
X92039868Y-107862848D02*
X92039868Y-109062848D01*
X94839868Y-105062848D02*
X92039868Y-107862848D01*
X96039868Y-105062848D02*
X94839868Y-105062848D01*
X96039868Y-106462848D02*
X96039868Y-105062848D01*
X95239868Y-107262848D02*
X96039868Y-106462848D01*
X96039868Y-108062848D02*
X95239868Y-107262848D01*
X96039868Y-109062848D02*
X96039868Y-108062848D01*
X95039868Y-109062848D02*
X96039868Y-109062848D01*
X94239868Y-108262848D02*
X95039868Y-109062848D01*
X93439868Y-109062848D02*
X94239868Y-108262848D01*
X92039868Y-109062848D02*
X93439868Y-109062848D01*
X92039868Y-107262848D02*
X94239868Y-105062848D01*
X92039868Y-106662848D02*
X93639868Y-105062848D01*
X92039868Y-106062848D02*
X93039868Y-105062848D01*
X92039868Y-105462848D02*
X92439868Y-105062848D01*
X96439868Y-104662848D02*
X91639868Y-104662848D01*
X96439868Y-109462848D02*
X96439868Y-104662848D01*
X91639868Y-109462848D02*
X96439868Y-109462848D01*
X91639868Y-104662848D02*
X91639868Y-109462848D01*
X136650000Y-107300000D02*
X136650000Y-108700000D01*
X139250000Y-104700000D02*
X136650000Y-107300000D01*
X140650000Y-104700000D02*
X139250000Y-104700000D01*
X140650000Y-105900000D02*
X140650000Y-104700000D01*
X139850000Y-106700000D02*
X140650000Y-105900000D01*
X140650000Y-107500000D02*
X139850000Y-106700000D01*
X140650000Y-108700000D02*
X140650000Y-107500000D01*
X139450000Y-108700000D02*
X140650000Y-108700000D01*
X138650000Y-107900000D02*
X139450000Y-108700000D01*
X137850000Y-108700000D02*
X138650000Y-107900000D01*
X136650000Y-108700000D02*
X137850000Y-108700000D01*
X136650000Y-106700000D02*
X138650000Y-104700000D01*
X136650000Y-106100000D02*
X138050000Y-104700000D01*
X136650000Y-105500000D02*
X137450000Y-104700000D01*
X136650000Y-104900000D02*
X136850000Y-104700000D01*
X136250000Y-104300000D02*
X136250000Y-109100000D01*
X141050000Y-104300000D02*
X136250000Y-104300000D01*
X141050000Y-109100000D02*
X141050000Y-104300000D01*
X136250000Y-109100000D02*
X141050000Y-109100000D01*
X146250000Y-73300000D02*
X146250000Y-71424990D01*
X146250000Y-71424990D02*
X146600000Y-71074990D01*
X140218870Y-74077879D02*
X140490981Y-74349990D01*
X140490981Y-74349990D02*
X147450010Y-74349990D01*
X147450010Y-74349990D02*
X147750000Y-74050000D01*
X147750000Y-74050000D02*
X147750000Y-73300000D01*
X147800000Y-72400000D02*
X148250001Y-71949999D01*
X148250001Y-71949999D02*
X148599999Y-71949999D01*
X147800000Y-73275000D02*
X147800000Y-72400000D01*
X147750000Y-73300000D02*
X147775000Y-73300000D01*
X147775000Y-73300000D02*
X147800000Y-73275000D01*
X148550000Y-70700000D02*
X148550000Y-71900000D01*
X148550000Y-71900000D02*
X148599999Y-71949999D01*
X148599999Y-71949999D02*
X149600000Y-72950000D01*
X149600000Y-72950000D02*
X150300000Y-72950000D01*
X150200000Y-72850000D02*
X150300000Y-72950000D01*
X139150000Y-80600000D02*
X139150000Y-82550000D01*
X148400000Y-84600000D02*
X150200000Y-82800000D01*
X139150000Y-82550000D02*
X141200000Y-84600000D01*
X141200000Y-84600000D02*
X148400000Y-84600000D01*
X150200000Y-82800000D02*
X150200000Y-80022188D01*
X150200000Y-80022188D02*
X149002249Y-78824437D01*
X138100000Y-77450000D02*
X138100000Y-78300000D01*
X138100000Y-78300000D02*
X139150000Y-79350000D01*
X139150000Y-79350000D02*
X139150000Y-80600000D01*
X149002249Y-78824437D02*
X149002249Y-78432749D01*
X149002249Y-78432749D02*
X150784998Y-76650000D01*
X150784998Y-76650000D02*
X151675000Y-76650000D01*
X151675000Y-76650000D02*
X152300000Y-76650000D01*
X152300000Y-78150000D02*
X153050000Y-78150000D01*
X152300000Y-74800000D02*
X152300000Y-73900000D01*
X153050000Y-78150000D02*
X153300000Y-77900000D01*
X153300000Y-77900000D02*
X153300000Y-75800000D01*
X153300000Y-75800000D02*
X152300000Y-74800000D01*
X152300000Y-72700000D02*
X152900000Y-72100000D01*
X152900000Y-72100000D02*
X152900000Y-71150000D01*
X152300000Y-73900000D02*
X152300000Y-72700000D01*
X151650000Y-71150000D02*
X151200000Y-70700000D01*
X151200000Y-70700000D02*
X150050000Y-70700000D01*
X152900000Y-71150000D02*
X151650000Y-71150000D01*
X150050000Y-70700000D02*
X150050000Y-70050000D01*
X150050000Y-70050000D02*
X149853898Y-69853898D01*
X149853898Y-69853898D02*
X149078900Y-69853898D01*
X149078900Y-69853898D02*
X143027908Y-69853898D01*
X139192878Y-83700000D02*
X137650000Y-82157122D01*
X137650000Y-82157122D02*
X137650000Y-80600000D01*
X136600000Y-78400000D02*
X137650000Y-79450000D01*
X137650000Y-79450000D02*
X137650000Y-80600000D01*
X150700000Y-83007122D02*
X150700000Y-78400000D01*
X150700000Y-83007122D02*
X148607111Y-85100011D01*
X140592889Y-85100011D02*
X139192878Y-83700000D01*
X148607111Y-85100011D02*
X140592889Y-85100011D01*
X139192878Y-83700000D02*
X139199990Y-83692888D01*
X136600000Y-77650000D02*
X136600000Y-78400000D01*
X136100000Y-76500000D02*
X136100000Y-77150000D01*
X136100000Y-77150000D02*
X136600000Y-77650000D01*
X136100000Y-76500000D02*
X134350000Y-76500000D01*
X134350000Y-76500000D02*
X134300000Y-76550000D01*
X131800000Y-76500000D02*
X134250000Y-76500000D01*
X134250000Y-76500000D02*
X134300000Y-76550000D01*
X133100000Y-73350000D02*
X133750000Y-73350000D01*
X131800000Y-73350000D02*
X133100000Y-73350000D01*
X133100000Y-73350000D02*
X133100000Y-71100000D01*
X133100000Y-71100000D02*
X132200000Y-70200000D01*
X133750000Y-73350000D02*
X134300000Y-73900000D01*
X134300000Y-73900000D02*
X134300000Y-75050000D01*
X138100000Y-75550000D02*
X141050000Y-75550000D01*
X141050000Y-75550000D02*
X141100000Y-75600000D01*
X142300000Y-81200000D02*
X142300000Y-78200000D01*
X142300000Y-78200000D02*
X141100000Y-77000000D01*
X149600000Y-74850000D02*
X150300000Y-74850000D01*
X141100000Y-77000000D02*
X141100000Y-75600000D01*
X141100000Y-75600000D02*
X141850000Y-74850000D01*
X141850000Y-74850000D02*
X149600000Y-74850000D01*
X137600000Y-73900000D02*
X138100000Y-74400000D01*
X138100000Y-74400000D02*
X138100000Y-75550000D01*
X135600000Y-73900000D02*
X137600000Y-73900000D01*
X146700000Y-81200000D02*
X146700000Y-82500000D01*
X140900000Y-83100000D02*
X140100000Y-82300000D01*
X146700000Y-82500000D02*
X146100000Y-83100000D01*
X146100000Y-83100000D02*
X140900000Y-83100000D01*
X140549999Y-77425009D02*
X139800000Y-76675010D01*
X140100000Y-82300000D02*
X140100000Y-79000000D01*
X140100000Y-79000000D02*
X140549999Y-78550001D01*
X140549999Y-78550001D02*
X140549999Y-77425009D01*
X136600000Y-68400000D02*
X136100000Y-68400000D01*
X135025010Y-69474990D02*
X135025010Y-69500000D01*
X136100000Y-68400000D02*
X135025010Y-69474990D01*
X133800000Y-80600000D02*
X132189223Y-80600000D01*
X132189223Y-80600000D02*
X131892686Y-80303463D01*
X151000000Y-69200000D02*
X151450000Y-69650000D01*
X151450000Y-69650000D02*
X152900000Y-69650000D01*
X143965002Y-69200000D02*
X151000000Y-69200000D01*
X136600000Y-66350000D02*
X136600000Y-68400000D01*
X137100000Y-69700000D02*
X136600000Y-69200000D01*
X136600000Y-69200000D02*
X136600000Y-68400000D01*
X139900000Y-69700000D02*
X137100000Y-69700000D01*
X140900000Y-68700000D02*
X139900000Y-69700000D01*
X143465002Y-68700000D02*
X140900000Y-68700000D01*
X143965002Y-69200000D02*
X143465002Y-68700000D01*
X123574999Y-83474999D02*
X125000000Y-84900000D01*
X125000000Y-84900000D02*
X127000000Y-84900000D01*
X124700000Y-77300000D02*
X123574999Y-78425001D01*
X123574999Y-78425001D02*
X123574999Y-83474999D01*
X133800000Y-80600000D02*
X133800000Y-81600000D01*
X133800000Y-81600000D02*
X133100000Y-82300000D01*
X133100000Y-82300000D02*
X131600000Y-82300000D01*
X131600000Y-82300000D02*
X130600000Y-83300000D01*
X130600000Y-83300000D02*
X130600000Y-86300000D01*
X133800000Y-80600000D02*
X133800000Y-79100000D01*
X133800000Y-79100000D02*
X133900000Y-79000000D01*
X127000000Y-84900000D02*
X128202081Y-84900000D01*
X128202081Y-84900000D02*
X129602081Y-86300000D01*
X129602081Y-86300000D02*
X130600000Y-86300000D01*
X130600000Y-86100000D02*
X130600000Y-86300000D01*
X127900000Y-87400000D02*
X128960660Y-87400000D01*
X128960660Y-87400000D02*
X129083926Y-87523266D01*
X129083926Y-87523266D02*
X135276734Y-87523266D01*
X134625000Y-77600000D02*
X132125000Y-77600000D01*
X132125000Y-77600000D02*
X130725000Y-79000000D01*
X135400000Y-79000000D02*
X135400000Y-78375000D01*
X135400000Y-78375000D02*
X134625000Y-77600000D01*
X135276734Y-87523266D02*
X135750000Y-87050000D01*
X135750000Y-87050000D02*
X135750000Y-86300000D01*
X136000000Y-82200000D02*
X135700000Y-81900000D01*
X135700000Y-81900000D02*
X135700000Y-80600000D01*
X136000000Y-85350000D02*
X136000000Y-82200000D01*
X135750000Y-86300000D02*
X135750000Y-85600000D01*
X135750000Y-85600000D02*
X136000000Y-85350000D01*
X135675000Y-79900000D02*
X135675000Y-80575000D01*
X135675000Y-80575000D02*
X135700000Y-80600000D01*
X135400000Y-79000000D02*
X135400000Y-79625000D01*
X135400000Y-79625000D02*
X135675000Y-79900000D01*
D31*
X81700000Y-63150000D02*
X81700000Y-61100000D01*
X73000000Y-53400000D02*
X71000000Y-55400000D01*
X71000000Y-55400000D02*
X71000000Y-57400000D01*
X73000000Y-50100000D02*
X73000000Y-53400000D01*
X74100000Y-49000000D02*
X73000000Y-50100000D01*
X76400000Y-49000000D02*
X74100000Y-49000000D01*
X71000000Y-58800000D02*
X68400000Y-61400000D01*
X68400000Y-61400000D02*
X68400000Y-63500000D01*
X71000000Y-57400000D02*
X71000000Y-58800000D01*
X73700000Y-73100000D02*
X72105000Y-73100000D01*
X68400000Y-63500000D02*
X68400000Y-64600000D01*
X68400000Y-64600000D02*
X70900000Y-64600000D01*
X70900000Y-64600000D02*
X74800000Y-64600000D01*
X70980000Y-62050000D02*
X70980000Y-64520000D01*
X70980000Y-64520000D02*
X70900000Y-64600000D01*
X74800000Y-64600000D02*
X76060000Y-63340000D01*
X76060000Y-63340000D02*
X76060000Y-62050000D01*
D13*
X132100000Y-86300000D02*
X132100000Y-84700000D01*
X132100000Y-86300000D02*
X133850000Y-86300000D01*
X95300000Y-57100000D02*
X94200000Y-57100000D01*
X94200000Y-57100000D02*
X94000000Y-57300000D01*
X94300000Y-60600000D02*
X94500000Y-60800000D01*
X94000000Y-57300000D02*
X94000000Y-58700000D01*
X94500000Y-60800000D02*
X95300000Y-60800000D01*
X94000000Y-58700000D02*
X94300000Y-59000000D01*
X94300000Y-59000000D02*
X94300000Y-60600000D01*
X94400000Y-63400000D02*
X95300000Y-62500000D01*
X95300000Y-62500000D02*
X95300000Y-60800000D01*
X94400000Y-65100000D02*
X94400000Y-63400000D01*
X138750000Y-55500000D02*
X137250000Y-57000000D01*
X137250000Y-57000000D02*
X137250000Y-61750000D01*
X137250000Y-61750000D02*
X138600000Y-63100000D01*
X138600000Y-63100000D02*
X138600000Y-63200000D01*
X138600000Y-63200000D02*
X138600000Y-65400000D01*
X140600000Y-63200000D02*
X140600000Y-64650000D01*
X140800000Y-63000000D02*
X140600000Y-63200000D01*
X140800000Y-55400000D02*
X140800000Y-63000000D01*
X87100000Y-69400000D02*
X86700000Y-69000000D01*
X91980000Y-70180000D02*
X91200000Y-69400000D01*
X91200000Y-69400000D02*
X87100000Y-69400000D01*
X94400000Y-70180000D02*
X91980000Y-70180000D01*
X86700000Y-69000000D02*
X82100000Y-69000000D01*
X81400000Y-69700000D02*
X81400000Y-70400000D01*
X82100000Y-69000000D02*
X81400000Y-69700000D01*
X81400000Y-70400000D02*
X80800000Y-71000000D01*
X80800000Y-71000000D02*
X79950000Y-71000000D01*
X77249999Y-79850001D02*
X76500000Y-80600000D01*
X78950010Y-78149990D02*
X77249999Y-79850001D01*
X83120000Y-70180000D02*
X78950010Y-74349990D01*
X84840000Y-70180000D02*
X83120000Y-70180000D01*
X78950010Y-74349990D02*
X78950010Y-78149990D01*
X73060660Y-80250000D02*
X72000000Y-80250000D01*
X75242878Y-80250000D02*
X73060660Y-80250000D01*
X78450000Y-71000000D02*
X78449999Y-77042879D01*
X78449999Y-77042879D02*
X75242878Y-80250000D01*
X88475000Y-61725000D02*
X88100000Y-62100000D01*
X88100000Y-62100000D02*
X86700000Y-62100000D01*
X88475000Y-59025000D02*
X88475000Y-61725000D01*
X76100000Y-59500000D02*
X75400000Y-58800000D01*
X75400000Y-58800000D02*
X75400000Y-57400000D01*
X77189340Y-59500000D02*
X76100000Y-59500000D01*
X78600000Y-59850000D02*
X77539340Y-59850000D01*
X77539340Y-59850000D02*
X77189340Y-59500000D01*
X78600000Y-62050000D02*
X78600000Y-60000000D01*
X78600000Y-60000000D02*
X78600000Y-59850000D01*
X75450000Y-51000000D02*
X75450000Y-57350000D01*
X75450000Y-57350000D02*
X75400000Y-57400000D01*
X90700000Y-58100000D02*
X91400000Y-57400000D01*
X91400000Y-57400000D02*
X91400000Y-56150000D01*
X89400000Y-58100000D02*
X90700000Y-58100000D01*
X88475000Y-59025000D02*
X89400000Y-58100000D01*
X74790000Y-68400000D02*
X74790000Y-69390000D01*
X74790000Y-69390000D02*
X75100000Y-69700000D01*
X75100000Y-69700000D02*
X76700000Y-69700000D01*
X76700000Y-69700000D02*
X77100000Y-70100000D01*
X77100000Y-70100000D02*
X77100000Y-71000000D01*
X77100000Y-71000000D02*
X78450000Y-71000000D01*
X78600000Y-68400000D02*
X80100000Y-68400000D01*
X80100000Y-68400000D02*
X80250000Y-68250000D01*
X68400000Y-66100000D02*
X76200000Y-66100000D01*
X76200000Y-66100000D02*
X78600000Y-63700000D01*
X78600000Y-63700000D02*
X78600000Y-62050000D01*
X78450000Y-71000000D02*
X78450000Y-69800000D01*
X78450000Y-69800000D02*
X78450000Y-69750000D01*
X78600000Y-69600000D02*
X78600000Y-68400000D01*
X78450000Y-69750000D02*
X78600000Y-69600000D01*
X77330000Y-68400000D02*
X78600000Y-68400000D01*
X82914340Y-71500000D02*
X86500000Y-71500000D01*
X87000000Y-70200000D02*
X87000000Y-71000000D01*
X87000000Y-71000000D02*
X86500000Y-71500000D01*
X87300000Y-69900000D02*
X87000000Y-70200000D01*
X90700000Y-69900000D02*
X87300000Y-69900000D01*
X91100000Y-70300000D02*
X90700000Y-69900000D01*
X91100000Y-71500000D02*
X91100000Y-70300000D01*
X80775000Y-74700000D02*
X80775000Y-73639340D01*
X91100000Y-71500000D02*
X92320000Y-72720000D01*
X80775000Y-73639340D02*
X82914340Y-71500000D01*
X92320000Y-72720000D02*
X94400000Y-72720000D01*
X81900000Y-76400000D02*
X81900000Y-73600000D01*
X82780000Y-72720000D02*
X84840000Y-72720000D01*
X81900000Y-73600000D02*
X82780000Y-72720000D01*
X84820000Y-72700000D02*
X84840000Y-72720000D01*
X70980000Y-68400000D02*
X70980000Y-67020000D01*
X88900000Y-53700000D02*
X89450000Y-54250000D01*
X70980000Y-67020000D02*
X71300000Y-66700000D01*
X78674990Y-51625010D02*
X79274990Y-51625010D01*
X77300000Y-53000000D02*
X78674990Y-51625010D01*
X71300000Y-66700000D02*
X77700000Y-66700000D01*
X77700000Y-66700000D02*
X79800000Y-64600000D01*
X87500000Y-48800000D02*
X88900000Y-50200000D01*
X79274990Y-51625010D02*
X79600000Y-51300000D01*
X79800000Y-64600000D02*
X79800000Y-58600000D01*
X79800000Y-58600000D02*
X77300000Y-56100000D01*
X77300000Y-56100000D02*
X77300000Y-53000000D01*
X89450000Y-54250000D02*
X91400000Y-54250000D01*
X79600000Y-51300000D02*
X81800000Y-51300000D01*
X81800000Y-51300000D02*
X84300000Y-48800000D01*
X84300000Y-48800000D02*
X87500000Y-48800000D01*
X88900000Y-50200000D02*
X88900000Y-53700000D01*
X70980000Y-68400000D02*
X70980000Y-76730000D01*
X70980000Y-76730000D02*
X71750001Y-77500001D01*
X71750001Y-77500001D02*
X72500000Y-78250000D01*
D31*
X145200000Y-57700000D02*
X146000000Y-58500000D01*
X142400000Y-56600000D02*
X143500000Y-57700000D01*
X143500000Y-57700000D02*
X145200000Y-57700000D01*
X142400000Y-55149998D02*
X142400000Y-56600000D01*
X138100000Y-54149999D02*
X141400001Y-54149999D01*
X141400001Y-54149999D02*
X142400000Y-55149998D01*
X140900000Y-66550000D02*
X140600000Y-66550000D01*
X143400000Y-62900000D02*
X142400000Y-63900000D01*
X124674989Y-71224989D02*
X124674989Y-64141112D01*
X142400000Y-63900000D02*
X142400000Y-65050000D01*
X146000000Y-58500000D02*
X146000000Y-61400000D01*
X142400000Y-65050000D02*
X140900000Y-66550000D01*
X136500000Y-55749999D02*
X138100000Y-54149999D01*
X135500000Y-62600000D02*
X136500000Y-61600000D01*
X132500000Y-62600000D02*
X135500000Y-62600000D01*
X131300000Y-61400000D02*
X132500000Y-62600000D01*
X144500000Y-62900000D02*
X143400000Y-62900000D01*
X127416102Y-61400000D02*
X131300000Y-61400000D01*
X125650000Y-72200000D02*
X124674989Y-71224989D01*
X127000000Y-72200000D02*
X125650000Y-72200000D01*
X124674989Y-64141112D02*
X127416102Y-61400000D01*
X136500000Y-61600000D02*
X136500000Y-55749999D01*
X146000000Y-61400000D02*
X144500000Y-62900000D01*
X127000000Y-72200000D02*
X129000000Y-72200000D01*
X129000000Y-72200000D02*
X129700000Y-72900000D01*
X129700000Y-72900000D02*
X129700000Y-74200000D01*
X129700000Y-74200000D02*
X130500000Y-75000000D01*
X130500000Y-75000000D02*
X131800000Y-75000000D01*
D13*
X127000000Y-79820000D02*
X124720000Y-79820000D01*
X124720000Y-79820000D02*
X124700000Y-79800000D01*
X127000000Y-82360000D02*
X129560000Y-82360000D01*
X129560000Y-82360000D02*
X129600000Y-82400000D01*
X135900000Y-64450000D02*
X134750000Y-63300000D01*
X127674990Y-62025010D02*
X125300000Y-64400000D01*
X125300000Y-68800000D02*
X125550001Y-69050001D01*
X134750000Y-63300000D02*
X132200000Y-63300000D01*
X125300000Y-64400000D02*
X125300000Y-68800000D01*
X125550001Y-69050001D02*
X126300000Y-69800000D01*
X136600000Y-64450000D02*
X135900000Y-64450000D01*
X132200000Y-63300000D02*
X130925010Y-62025010D01*
X130925010Y-62025010D02*
X127674990Y-62025010D01*
X127000000Y-74740000D02*
X124740000Y-74740000D01*
X124740000Y-74740000D02*
X124700000Y-74700000D01*
X84840000Y-67640000D02*
X86560000Y-67640000D01*
X86560000Y-67640000D02*
X87820000Y-68900000D01*
X87820000Y-68900000D02*
X91240000Y-68900000D01*
X91240000Y-68900000D02*
X92500000Y-67640000D01*
X92500000Y-67640000D02*
X94400000Y-67640000D01*
X139491833Y-68345574D02*
X138154426Y-68345574D01*
X138154426Y-68345574D02*
X138100000Y-68400000D01*
X75600000Y-71000000D02*
X74200000Y-71000000D01*
X73520000Y-68400000D02*
X73520000Y-69221500D01*
X73520000Y-69221500D02*
X74200000Y-69901500D01*
X74200000Y-69901500D02*
X74200000Y-71000000D01*
X130425000Y-70200000D02*
X130425000Y-71260660D01*
X130425000Y-71260660D02*
X131014340Y-71850000D01*
X131014340Y-71850000D02*
X131800000Y-71850000D01*
X72250000Y-68400000D02*
X72250000Y-67550000D01*
X72250000Y-67550000D02*
X72600000Y-67200000D01*
X75800000Y-67200000D02*
X76060000Y-67460000D01*
X72600000Y-67200000D02*
X75800000Y-67200000D01*
X76060000Y-67460000D02*
X76060000Y-68400000D01*
X81700000Y-65050000D02*
X84790000Y-65050000D01*
X84790000Y-65050000D02*
X84840000Y-65100000D01*
X90200000Y-63500000D02*
X88600000Y-65100000D01*
X88600000Y-65100000D02*
X84840000Y-65100000D01*
X90200000Y-61300000D02*
X90200000Y-63500000D01*
X91650000Y-59850000D02*
X90200000Y-61300000D01*
X93300000Y-59850000D02*
X91650000Y-59850000D01*
X93400000Y-55200000D02*
X95300000Y-55200000D01*
X76900000Y-73100000D02*
X75200000Y-73100000D01*
X75000000Y-72100000D02*
X75200000Y-72300000D01*
X75200000Y-72300000D02*
X75200000Y-73100000D01*
X73000000Y-72100000D02*
X75000000Y-72100000D01*
X72700000Y-71000000D02*
X72700000Y-71800000D01*
X72700000Y-71800000D02*
X73000000Y-72100000D01*
D31*
X77350000Y-51000000D02*
X78300000Y-51000000D01*
X78300000Y-51000000D02*
X79100000Y-50200000D01*
D32*
G36*
X89290000Y-49515198D02*
X88037401Y-48262599D01*
X87790839Y-48097852D01*
X87500000Y-48040000D01*
X84300000Y-48040000D01*
X84009161Y-48097852D01*
X83762599Y-48262599D01*
X81485198Y-50540000D01*
X80458475Y-50540000D01*
X80484759Y-50476702D01*
X80485240Y-49925715D01*
X80274831Y-49416485D01*
X79885564Y-49026539D01*
X79376702Y-48815241D01*
X78825715Y-48814760D01*
X78316485Y-49025169D01*
X77926539Y-49414436D01*
X77723852Y-49902560D01*
X77259319Y-49902560D01*
X77396431Y-49701890D01*
X77447440Y-49450000D01*
X77447440Y-48550000D01*
X77403162Y-48314683D01*
X77264090Y-48098559D01*
X77051890Y-47953569D01*
X76800000Y-47902560D01*
X76000000Y-47902560D01*
X75764683Y-47946838D01*
X75548559Y-48085910D01*
X75528683Y-48115000D01*
X74100005Y-48115000D01*
X74100000Y-48114999D01*
X73817516Y-48171190D01*
X73761325Y-48182367D01*
X73474210Y-48374210D01*
X73474208Y-48374213D01*
X72374210Y-49474210D01*
X72182367Y-49761325D01*
X72182367Y-49761326D01*
X72114999Y-50100000D01*
X72115000Y-50100005D01*
X72115000Y-53033421D01*
X70374210Y-54774210D01*
X70182367Y-55061325D01*
X70182367Y-55061326D01*
X70114999Y-55400000D01*
X70115000Y-55400005D01*
X70115000Y-55952560D01*
X69500000Y-55952560D01*
X69264683Y-55996838D01*
X69048559Y-56135910D01*
X68903569Y-56348110D01*
X68852560Y-56600000D01*
X68852560Y-58200000D01*
X68896838Y-58435317D01*
X69035910Y-58651441D01*
X69248110Y-58796431D01*
X69500000Y-58847440D01*
X69700981Y-58847440D01*
X68533304Y-60015116D01*
X68125715Y-60014760D01*
X67616485Y-60225169D01*
X67226539Y-60614436D01*
X67015241Y-61123298D01*
X67014760Y-61674285D01*
X67225169Y-62183515D01*
X67515000Y-62473852D01*
X67515000Y-63821614D01*
X67428569Y-63948110D01*
X67377560Y-64200000D01*
X67377560Y-65000000D01*
X67421838Y-65235317D01*
X67488329Y-65338646D01*
X67486673Y-65340302D01*
X67390000Y-65573691D01*
X67390000Y-65814250D01*
X67548750Y-65973000D01*
X68273000Y-65973000D01*
X68273000Y-65953000D01*
X68527000Y-65953000D01*
X68527000Y-65973000D01*
X69251250Y-65973000D01*
X69410000Y-65814250D01*
X69410000Y-65573691D01*
X69373263Y-65485000D01*
X70899995Y-65485000D01*
X70900000Y-65485001D01*
X70900005Y-65485000D01*
X74799995Y-65485000D01*
X74800000Y-65485001D01*
X75082484Y-65428810D01*
X75138675Y-65417633D01*
X75425790Y-65225790D01*
X76685787Y-63965792D01*
X76685790Y-63965790D01*
X76877633Y-63678675D01*
X76892573Y-63603569D01*
X76945001Y-63340000D01*
X76945000Y-63339995D01*
X76945000Y-63242412D01*
X77076000Y-63268940D01*
X77584000Y-63268940D01*
X77819317Y-63224662D01*
X77960371Y-63133896D01*
X77986302Y-63159827D01*
X78219691Y-63256500D01*
X78314250Y-63256500D01*
X78473000Y-63097750D01*
X78473000Y-62177000D01*
X78453000Y-62177000D01*
X78453000Y-61923000D01*
X78473000Y-61923000D01*
X78473000Y-61002250D01*
X78314250Y-60843500D01*
X78219691Y-60843500D01*
X77986302Y-60940173D01*
X77959765Y-60966709D01*
X77835890Y-60882069D01*
X77584000Y-60831060D01*
X77076000Y-60831060D01*
X76840683Y-60875338D01*
X76694093Y-60969666D01*
X76565890Y-60882069D01*
X76314000Y-60831060D01*
X75806000Y-60831060D01*
X75570683Y-60875338D01*
X75424093Y-60969666D01*
X75295890Y-60882069D01*
X75044000Y-60831060D01*
X74536000Y-60831060D01*
X74300683Y-60875338D01*
X74154093Y-60969666D01*
X74025890Y-60882069D01*
X73774000Y-60831060D01*
X73266000Y-60831060D01*
X73030683Y-60875338D01*
X72884093Y-60969666D01*
X72755890Y-60882069D01*
X72504000Y-60831060D01*
X71996000Y-60831060D01*
X71760683Y-60875338D01*
X71614093Y-60969666D01*
X71485890Y-60882069D01*
X71234000Y-60831060D01*
X70726000Y-60831060D01*
X70490683Y-60875338D01*
X70274559Y-61014410D01*
X70129569Y-61226610D01*
X70078560Y-61478500D01*
X70078560Y-62621500D01*
X70095000Y-62708871D01*
X70095000Y-63715000D01*
X69285000Y-63715000D01*
X69285000Y-62473523D01*
X69573461Y-62185564D01*
X69784759Y-61676702D01*
X69785117Y-61266463D01*
X71625787Y-59425792D01*
X71625790Y-59425790D01*
X71817633Y-59138675D01*
X71827315Y-59090000D01*
X71875564Y-58847440D01*
X72500000Y-58847440D01*
X72735317Y-58803162D01*
X72951441Y-58664090D01*
X73096431Y-58451890D01*
X73147440Y-58200000D01*
X73147440Y-57685750D01*
X73265000Y-57685750D01*
X73265000Y-58326310D01*
X73361673Y-58559699D01*
X73540302Y-58738327D01*
X73773691Y-58835000D01*
X75114250Y-58835000D01*
X75273000Y-58676250D01*
X75273000Y-57527000D01*
X73423750Y-57527000D01*
X73265000Y-57685750D01*
X73147440Y-57685750D01*
X73147440Y-56600000D01*
X73123674Y-56473690D01*
X73265000Y-56473690D01*
X73265000Y-57114250D01*
X73423750Y-57273000D01*
X75273000Y-57273000D01*
X75273000Y-56123750D01*
X75114250Y-55965000D01*
X73773691Y-55965000D01*
X73540302Y-56061673D01*
X73361673Y-56240301D01*
X73265000Y-56473690D01*
X73123674Y-56473690D01*
X73103162Y-56364683D01*
X72964090Y-56148559D01*
X72751890Y-56003569D01*
X72500000Y-55952560D01*
X71885000Y-55952560D01*
X71885000Y-55766580D01*
X73625787Y-54025792D01*
X73625790Y-54025790D01*
X73817633Y-53738675D01*
X73825326Y-53700000D01*
X73885001Y-53400000D01*
X73885000Y-53399995D01*
X73885000Y-51285750D01*
X74415000Y-51285750D01*
X74415000Y-51576309D01*
X74511673Y-51809698D01*
X74690301Y-51988327D01*
X74923690Y-52085000D01*
X75164250Y-52085000D01*
X75323000Y-51926250D01*
X75323000Y-51127000D01*
X74573750Y-51127000D01*
X74415000Y-51285750D01*
X73885000Y-51285750D01*
X73885000Y-50466580D01*
X73927888Y-50423691D01*
X74415000Y-50423691D01*
X74415000Y-50714250D01*
X74573750Y-50873000D01*
X75323000Y-50873000D01*
X75323000Y-50073750D01*
X75164250Y-49915000D01*
X74923690Y-49915000D01*
X74690301Y-50011673D01*
X74511673Y-50190302D01*
X74415000Y-50423691D01*
X73927888Y-50423691D01*
X74466579Y-49885000D01*
X75525331Y-49885000D01*
X75535910Y-49901441D01*
X75662686Y-49988064D01*
X75577000Y-50073750D01*
X75577000Y-50873000D01*
X75597000Y-50873000D01*
X75597000Y-51127000D01*
X75577000Y-51127000D01*
X75577000Y-51926250D01*
X75735750Y-52085000D01*
X75976310Y-52085000D01*
X76209699Y-51988327D01*
X76388327Y-51809698D01*
X76403423Y-51773253D01*
X76485910Y-51901441D01*
X76698110Y-52046431D01*
X76950000Y-52097440D01*
X77127758Y-52097440D01*
X76762599Y-52462599D01*
X76597852Y-52709161D01*
X76540000Y-53000000D01*
X76540000Y-55965000D01*
X75685750Y-55965000D01*
X75527000Y-56123750D01*
X75527000Y-57273000D01*
X75547000Y-57273000D01*
X75547000Y-57527000D01*
X75527000Y-57527000D01*
X75527000Y-58676250D01*
X75685750Y-58835000D01*
X77026309Y-58835000D01*
X77259698Y-58738327D01*
X77438327Y-58559699D01*
X77535000Y-58326310D01*
X77535000Y-57685750D01*
X77376252Y-57527002D01*
X77535000Y-57527002D01*
X77535000Y-57409802D01*
X79040000Y-58914802D01*
X79040000Y-60868225D01*
X78980309Y-60843500D01*
X78885750Y-60843500D01*
X78727000Y-61002250D01*
X78727000Y-61923000D01*
X78747000Y-61923000D01*
X78747000Y-62177000D01*
X78727000Y-62177000D01*
X78727000Y-63097750D01*
X78885750Y-63256500D01*
X78980309Y-63256500D01*
X79040000Y-63231775D01*
X79040000Y-64285198D01*
X77385198Y-65940000D01*
X71300000Y-65940000D01*
X71009160Y-65997852D01*
X70762599Y-66162599D01*
X70442599Y-66482599D01*
X70277852Y-66729161D01*
X70220000Y-67020000D01*
X70220000Y-67444260D01*
X70129569Y-67576610D01*
X70078560Y-67828500D01*
X70078560Y-68971500D01*
X70122838Y-69206817D01*
X70220000Y-69357811D01*
X70220000Y-70834270D01*
X70101890Y-70753569D01*
X69850000Y-70702560D01*
X68150000Y-70702560D01*
X67914683Y-70746838D01*
X67698559Y-70885910D01*
X67553569Y-71098110D01*
X67502560Y-71350000D01*
X67502560Y-73050000D01*
X67546838Y-73285317D01*
X67685910Y-73501441D01*
X67898110Y-73646431D01*
X67965541Y-73660086D01*
X67920853Y-73689946D01*
X67598946Y-74171715D01*
X67485907Y-74740000D01*
X67598946Y-75308285D01*
X67920853Y-75790054D01*
X68261553Y-76017702D01*
X68118642Y-76084817D01*
X67728355Y-76513076D01*
X67558524Y-76923110D01*
X67679845Y-77153000D01*
X68873000Y-77153000D01*
X68873000Y-77133000D01*
X69127000Y-77133000D01*
X69127000Y-77153000D01*
X69147000Y-77153000D01*
X69147000Y-77407000D01*
X69127000Y-77407000D01*
X69127000Y-77427000D01*
X68873000Y-77427000D01*
X68873000Y-77407000D01*
X67679845Y-77407000D01*
X67558524Y-77636890D01*
X67728355Y-78046924D01*
X68118642Y-78475183D01*
X68261553Y-78542298D01*
X67920853Y-78769946D01*
X67598946Y-79251715D01*
X67485907Y-79820000D01*
X67598946Y-80388285D01*
X67920853Y-80870054D01*
X68250026Y-81090000D01*
X67920853Y-81309946D01*
X67598946Y-81791715D01*
X67485907Y-82360000D01*
X67598946Y-82928285D01*
X67920853Y-83410054D01*
X68261553Y-83637702D01*
X68118642Y-83704817D01*
X67728355Y-84133076D01*
X67558524Y-84543110D01*
X67679845Y-84773000D01*
X68873000Y-84773000D01*
X68873000Y-84753000D01*
X69127000Y-84753000D01*
X69127000Y-84773000D01*
X70320155Y-84773000D01*
X70441476Y-84543110D01*
X70271645Y-84133076D01*
X69881358Y-83704817D01*
X69738447Y-83637702D01*
X70079147Y-83410054D01*
X70401054Y-82928285D01*
X70514093Y-82360000D01*
X70401054Y-81791715D01*
X70079147Y-81309946D01*
X69749974Y-81090000D01*
X70079147Y-80870054D01*
X70401054Y-80388285D01*
X70514093Y-79820000D01*
X70401054Y-79251715D01*
X70079147Y-78769946D01*
X69738447Y-78542298D01*
X69881358Y-78475183D01*
X70271645Y-78046924D01*
X70441476Y-77636890D01*
X70320156Y-77407002D01*
X70485000Y-77407002D01*
X70485000Y-77309802D01*
X71124998Y-77949800D01*
X71115241Y-77973298D01*
X71114760Y-78524285D01*
X71325169Y-79033515D01*
X71714436Y-79423461D01*
X72223298Y-79634759D01*
X72774285Y-79635240D01*
X73283515Y-79424831D01*
X73673461Y-79035564D01*
X73884759Y-78526702D01*
X73885240Y-77975715D01*
X73687621Y-77497440D01*
X74710000Y-77497440D01*
X74945317Y-77453162D01*
X75161441Y-77314090D01*
X75306431Y-77101890D01*
X75320086Y-77034459D01*
X75349946Y-77079147D01*
X75831715Y-77401054D01*
X76400000Y-77514093D01*
X76968285Y-77401054D01*
X77450054Y-77079147D01*
X77771961Y-76597378D01*
X77885000Y-76029093D01*
X77885000Y-75970907D01*
X77771961Y-75402622D01*
X77450054Y-74920853D01*
X76968285Y-74598946D01*
X76400000Y-74485907D01*
X75831715Y-74598946D01*
X75349946Y-74920853D01*
X75322150Y-74962452D01*
X75313162Y-74914683D01*
X75174090Y-74698559D01*
X74961890Y-74553569D01*
X74710000Y-74502560D01*
X73010000Y-74502560D01*
X72774683Y-74546838D01*
X72558559Y-74685910D01*
X72413569Y-74898110D01*
X72362560Y-75150000D01*
X72362560Y-76850000D01*
X72365360Y-76864882D01*
X72225715Y-76864760D01*
X72200132Y-76875330D01*
X71740000Y-76415198D01*
X71740000Y-74448094D01*
X71828298Y-74484759D01*
X72379285Y-74485240D01*
X72888515Y-74274831D01*
X73084822Y-74078865D01*
X73300000Y-74122440D01*
X74100000Y-74122440D01*
X74335317Y-74078162D01*
X74449978Y-74004380D01*
X74548110Y-74071431D01*
X74800000Y-74122440D01*
X75600000Y-74122440D01*
X75835317Y-74078162D01*
X75886560Y-74045188D01*
X76114436Y-74273461D01*
X76623298Y-74484759D01*
X77174285Y-74485240D01*
X77683515Y-74274831D01*
X78073461Y-73885564D01*
X78284759Y-73376702D01*
X78285240Y-72825715D01*
X78074831Y-72316485D01*
X77728488Y-71969537D01*
X77775000Y-71923025D01*
X77840302Y-71988327D01*
X78073691Y-72085000D01*
X78166250Y-72085000D01*
X78325000Y-71926250D01*
X78325000Y-71127000D01*
X77225000Y-71127000D01*
X77225000Y-71147000D01*
X76975000Y-71147000D01*
X76975000Y-71127000D01*
X76953000Y-71127000D01*
X76953000Y-70873000D01*
X76975000Y-70873000D01*
X76975000Y-70073750D01*
X77225000Y-70073750D01*
X77225000Y-70873000D01*
X78325000Y-70873000D01*
X78325000Y-70073750D01*
X78166250Y-69915000D01*
X78073691Y-69915000D01*
X77840302Y-70011673D01*
X77775000Y-70076975D01*
X77709698Y-70011673D01*
X77476309Y-69915000D01*
X77383750Y-69915000D01*
X77225000Y-70073750D01*
X76975000Y-70073750D01*
X76816250Y-69915000D01*
X76723691Y-69915000D01*
X76490302Y-70011673D01*
X76349064Y-70152910D01*
X76314090Y-70098559D01*
X76101890Y-69953569D01*
X75850000Y-69902560D01*
X75350000Y-69902560D01*
X75114683Y-69946838D01*
X74960000Y-70046374D01*
X74960000Y-69901500D01*
X74902148Y-69610661D01*
X74902148Y-69610660D01*
X74899368Y-69606500D01*
X74917002Y-69606500D01*
X74917002Y-69447752D01*
X75075750Y-69606500D01*
X75170309Y-69606500D01*
X75403698Y-69509827D01*
X75430235Y-69483291D01*
X75554110Y-69567931D01*
X75806000Y-69618940D01*
X76314000Y-69618940D01*
X76549317Y-69574662D01*
X76690371Y-69483896D01*
X76716302Y-69509827D01*
X76949691Y-69606500D01*
X77044250Y-69606500D01*
X77203000Y-69447750D01*
X77203000Y-68527000D01*
X77457000Y-68527000D01*
X77457000Y-69447750D01*
X77615750Y-69606500D01*
X77710309Y-69606500D01*
X77943698Y-69509827D01*
X77965000Y-69488525D01*
X77986302Y-69509827D01*
X78219691Y-69606500D01*
X78314250Y-69606500D01*
X78473000Y-69447750D01*
X78473000Y-68527000D01*
X78727000Y-68527000D01*
X78727000Y-69447750D01*
X78885750Y-69606500D01*
X78980309Y-69606500D01*
X79213698Y-69509827D01*
X79392327Y-69331199D01*
X79489000Y-69097810D01*
X79489000Y-68685750D01*
X79330250Y-68527000D01*
X78727000Y-68527000D01*
X78473000Y-68527000D01*
X77457000Y-68527000D01*
X77203000Y-68527000D01*
X77183000Y-68527000D01*
X77183000Y-68273000D01*
X77203000Y-68273000D01*
X77203000Y-68253000D01*
X77457000Y-68253000D01*
X77457000Y-68273000D01*
X78473000Y-68273000D01*
X78473000Y-67352250D01*
X78727000Y-67352250D01*
X78727000Y-68273000D01*
X79330250Y-68273000D01*
X79489000Y-68114250D01*
X79489000Y-67702190D01*
X79392327Y-67468801D01*
X79213698Y-67290173D01*
X78980309Y-67193500D01*
X78885750Y-67193500D01*
X78727000Y-67352250D01*
X78473000Y-67352250D01*
X78314250Y-67193500D01*
X78281302Y-67193500D01*
X80337401Y-65137401D01*
X80402560Y-65039884D01*
X80402560Y-65400000D01*
X80446838Y-65635317D01*
X80585910Y-65851441D01*
X80798110Y-65996431D01*
X81050000Y-66047440D01*
X82350000Y-66047440D01*
X82585317Y-66003162D01*
X82790064Y-65871411D01*
X82905910Y-66051441D01*
X83118110Y-66196431D01*
X83370000Y-66247440D01*
X86310000Y-66247440D01*
X86545317Y-66203162D01*
X86761441Y-66064090D01*
X86900890Y-65860000D01*
X88600000Y-65860000D01*
X88890839Y-65802148D01*
X89137401Y-65637401D01*
X90737401Y-64037401D01*
X90902148Y-63790839D01*
X90960000Y-63500000D01*
X90960000Y-61614802D01*
X91964802Y-60610000D01*
X92327069Y-60610000D01*
X92385910Y-60701441D01*
X92598110Y-60846431D01*
X92850000Y-60897440D01*
X93602263Y-60897440D01*
X93762599Y-61137401D01*
X93962599Y-61337401D01*
X94209161Y-61502148D01*
X94301686Y-61520552D01*
X94385910Y-61651441D01*
X94540000Y-61756726D01*
X94540000Y-62185198D01*
X93862599Y-62862599D01*
X93697852Y-63109161D01*
X93640000Y-63400000D01*
X93640000Y-63952560D01*
X92930000Y-63952560D01*
X92694683Y-63996838D01*
X92478559Y-64135910D01*
X92333569Y-64348110D01*
X92282560Y-64600000D01*
X92282560Y-65600000D01*
X92326838Y-65835317D01*
X92465910Y-66051441D01*
X92678110Y-66196431D01*
X92930000Y-66247440D01*
X95870000Y-66247440D01*
X96105317Y-66203162D01*
X96290000Y-66084322D01*
X96290000Y-66658434D01*
X96121890Y-66543569D01*
X95870000Y-66492560D01*
X92930000Y-66492560D01*
X92694683Y-66536838D01*
X92478559Y-66675910D01*
X92333569Y-66888110D01*
X92328295Y-66914155D01*
X92209161Y-66937852D01*
X91962599Y-67102599D01*
X90925198Y-68140000D01*
X88134802Y-68140000D01*
X87097401Y-67102599D01*
X86929263Y-66990253D01*
X86913162Y-66904683D01*
X86774090Y-66688559D01*
X86561890Y-66543569D01*
X86310000Y-66492560D01*
X83370000Y-66492560D01*
X83134683Y-66536838D01*
X82918559Y-66675910D01*
X82773569Y-66888110D01*
X82722560Y-67140000D01*
X82722560Y-67758854D01*
X82376702Y-67615241D01*
X81825715Y-67614760D01*
X81316485Y-67825169D01*
X80926539Y-68214436D01*
X80715241Y-68723298D01*
X80714760Y-69274285D01*
X80742735Y-69341989D01*
X80697852Y-69409161D01*
X80640000Y-69700000D01*
X80640000Y-70082099D01*
X80451890Y-69953569D01*
X80200000Y-69902560D01*
X79700000Y-69902560D01*
X79464683Y-69946838D01*
X79248559Y-70085910D01*
X79202031Y-70154006D01*
X79059698Y-70011673D01*
X78826309Y-69915000D01*
X78733750Y-69915000D01*
X78575000Y-70073750D01*
X78575000Y-70873000D01*
X78597000Y-70873000D01*
X78597000Y-71127000D01*
X78575000Y-71127000D01*
X78575000Y-71926250D01*
X78733750Y-72085000D01*
X78826309Y-72085000D01*
X79059698Y-71988327D01*
X79200936Y-71847090D01*
X79235910Y-71901441D01*
X79448110Y-72046431D01*
X79700000Y-72097440D01*
X80127758Y-72097440D01*
X78412609Y-73812589D01*
X78247862Y-74059151D01*
X78190010Y-74349990D01*
X78190010Y-77835188D01*
X76800200Y-79224998D01*
X76776702Y-79215241D01*
X76225715Y-79214760D01*
X75716485Y-79425169D01*
X75326539Y-79814436D01*
X75115241Y-80323298D01*
X75114760Y-80874285D01*
X75325169Y-81383515D01*
X75714436Y-81773461D01*
X76223298Y-81984759D01*
X76774285Y-81985240D01*
X77283515Y-81774831D01*
X77673461Y-81385564D01*
X77884759Y-80876702D01*
X77884893Y-80722815D01*
X79414630Y-80722815D01*
X79738980Y-81507800D01*
X80339041Y-82108909D01*
X81123459Y-82434628D01*
X81972815Y-82435370D01*
X82565182Y-82190608D01*
X82564630Y-82822815D01*
X82888980Y-83607800D01*
X83489041Y-84208909D01*
X84273459Y-84534628D01*
X85122815Y-84535370D01*
X85907800Y-84211020D01*
X86508909Y-83610959D01*
X86834628Y-82826541D01*
X86835202Y-82169600D01*
X87473459Y-82434628D01*
X88322815Y-82435370D01*
X89107800Y-82111020D01*
X89708909Y-81510959D01*
X89779329Y-81341369D01*
X90122637Y-81685278D01*
X90723352Y-81934716D01*
X91373795Y-81935284D01*
X91667396Y-81813970D01*
X92915635Y-81813970D01*
X93075418Y-82132739D01*
X93866187Y-82442723D01*
X94715387Y-82426497D01*
X95424582Y-82132739D01*
X95584365Y-81813970D01*
X94250000Y-80479605D01*
X92915635Y-81813970D01*
X91667396Y-81813970D01*
X91974943Y-81686894D01*
X92350086Y-81312406D01*
X92417261Y-81474582D01*
X92736030Y-81634365D01*
X94070395Y-80300000D01*
X92736030Y-78965635D01*
X92417261Y-79125418D01*
X92352530Y-79290546D01*
X91977363Y-78914722D01*
X91667438Y-78786030D01*
X92915635Y-78786030D01*
X94250000Y-80120395D01*
X95584365Y-78786030D01*
X95424582Y-78467261D01*
X94633813Y-78157277D01*
X93784613Y-78173503D01*
X93075418Y-78467261D01*
X92915635Y-78786030D01*
X91667438Y-78786030D01*
X91376648Y-78665284D01*
X90726205Y-78664716D01*
X90125057Y-78913106D01*
X89779537Y-79258023D01*
X89711020Y-79092200D01*
X89110959Y-78491091D01*
X88326541Y-78165372D01*
X87477185Y-78164630D01*
X86692200Y-78488980D01*
X86091091Y-79089041D01*
X85765372Y-79873459D01*
X85764798Y-80530400D01*
X85126541Y-80265372D01*
X84277185Y-80264630D01*
X83684818Y-80509392D01*
X83685370Y-79877185D01*
X83361020Y-79092200D01*
X82760959Y-78491091D01*
X81976541Y-78165372D01*
X81127185Y-78164630D01*
X80342200Y-78488980D01*
X79741091Y-79089041D01*
X79415372Y-79873459D01*
X79414630Y-80722815D01*
X77884893Y-80722815D01*
X77885240Y-80325715D01*
X77874670Y-80300132D01*
X79487411Y-78687391D01*
X79652158Y-78440829D01*
X79710010Y-78149990D01*
X79710010Y-75593548D01*
X79989436Y-75873461D01*
X80498298Y-76084759D01*
X80531232Y-76084788D01*
X80515241Y-76123298D01*
X80514760Y-76674285D01*
X80725169Y-77183515D01*
X81114436Y-77573461D01*
X81623298Y-77784759D01*
X82174285Y-77785240D01*
X82683515Y-77574831D01*
X83073461Y-77185564D01*
X83284759Y-76676702D01*
X83285009Y-76390229D01*
X83370000Y-76407440D01*
X86310000Y-76407440D01*
X86545317Y-76363162D01*
X86761441Y-76224090D01*
X86906431Y-76011890D01*
X86957440Y-75760000D01*
X86957440Y-74760000D01*
X86913162Y-74524683D01*
X86774090Y-74308559D01*
X86561890Y-74163569D01*
X86310000Y-74112560D01*
X83370000Y-74112560D01*
X83134683Y-74156838D01*
X82918559Y-74295910D01*
X82773569Y-74508110D01*
X82722560Y-74760000D01*
X82722560Y-75263600D01*
X82685564Y-75226539D01*
X82660000Y-75215924D01*
X82660000Y-73914802D01*
X82904912Y-73669890D01*
X82905910Y-73671441D01*
X83118110Y-73816431D01*
X83370000Y-73867440D01*
X86310000Y-73867440D01*
X86545317Y-73823162D01*
X86761441Y-73684090D01*
X86906431Y-73471890D01*
X86957440Y-73220000D01*
X86957440Y-72220000D01*
X86935849Y-72105255D01*
X87037401Y-72037401D01*
X87537401Y-71537401D01*
X87702148Y-71290839D01*
X87760000Y-71000000D01*
X87760000Y-70660000D01*
X90340000Y-70660000D01*
X90340000Y-71500000D01*
X90397852Y-71790839D01*
X90562599Y-72037401D01*
X91782599Y-73257401D01*
X92029161Y-73422148D01*
X92320000Y-73480000D01*
X92342721Y-73480000D01*
X92465910Y-73671441D01*
X92678110Y-73816431D01*
X92930000Y-73867440D01*
X95870000Y-73867440D01*
X96105317Y-73823162D01*
X96290000Y-73704322D01*
X96290000Y-74278434D01*
X96121890Y-74163569D01*
X95870000Y-74112560D01*
X92930000Y-74112560D01*
X92694683Y-74156838D01*
X92478559Y-74295910D01*
X92333569Y-74508110D01*
X92282560Y-74760000D01*
X92282560Y-75760000D01*
X92326838Y-75995317D01*
X92465910Y-76211441D01*
X92678110Y-76356431D01*
X92930000Y-76407440D01*
X95870000Y-76407440D01*
X96105317Y-76363162D01*
X96290000Y-76244322D01*
X96290000Y-79625791D01*
X96082739Y-79125418D01*
X95763970Y-78965635D01*
X94429605Y-80300000D01*
X95763970Y-81634365D01*
X96082739Y-81474582D01*
X96290000Y-80945859D01*
X96290000Y-91075791D01*
X96082739Y-90575418D01*
X95763970Y-90415635D01*
X94429605Y-91750000D01*
X95763970Y-93084365D01*
X96082739Y-92924582D01*
X96290000Y-92395859D01*
X96290000Y-98677848D01*
X85054868Y-98677848D01*
X85054868Y-100065000D01*
X85002487Y-100065000D01*
X85002487Y-103035000D01*
X85055475Y-103035000D01*
X85055475Y-104535000D01*
X90905299Y-104535000D01*
X90879868Y-104662848D01*
X90879868Y-109290000D01*
X81079555Y-109290000D01*
X81258909Y-109110959D01*
X81584628Y-108326541D01*
X81585370Y-107477185D01*
X81261020Y-106692200D01*
X80660959Y-106091091D01*
X79876541Y-105765372D01*
X79027185Y-105764630D01*
X78434818Y-106009392D01*
X78435370Y-105377185D01*
X78111020Y-104592200D01*
X77510959Y-103991091D01*
X76726541Y-103665372D01*
X75877185Y-103664630D01*
X75092200Y-103988980D01*
X74491091Y-104589041D01*
X74165372Y-105373459D01*
X74164798Y-106030400D01*
X73526541Y-105765372D01*
X72677185Y-105764630D01*
X71892200Y-106088980D01*
X71291091Y-106689041D01*
X71220671Y-106858631D01*
X70877363Y-106514722D01*
X70276648Y-106265284D01*
X69626205Y-106264716D01*
X69025057Y-106513106D01*
X68649914Y-106887594D01*
X68582739Y-106725418D01*
X68263970Y-106565635D01*
X66929605Y-107900000D01*
X66943748Y-107914143D01*
X66764143Y-108093748D01*
X66750000Y-108079605D01*
X66735858Y-108093748D01*
X66556253Y-107914143D01*
X66570395Y-107900000D01*
X65236030Y-106565635D01*
X64917261Y-106725418D01*
X64710000Y-107254141D01*
X64710000Y-106386030D01*
X65415635Y-106386030D01*
X66750000Y-107720395D01*
X68084365Y-106386030D01*
X67924582Y-106067261D01*
X67133813Y-105757277D01*
X66284613Y-105773503D01*
X65575418Y-106067261D01*
X65415635Y-106386030D01*
X64710000Y-106386030D01*
X64710000Y-97963970D01*
X65415635Y-97963970D01*
X65575418Y-98282739D01*
X66366187Y-98592723D01*
X67215387Y-98576497D01*
X67924582Y-98282739D01*
X68084365Y-97963970D01*
X66750000Y-96629605D01*
X65415635Y-97963970D01*
X64710000Y-97963970D01*
X64710000Y-97124209D01*
X64917261Y-97624582D01*
X65236030Y-97784365D01*
X66570395Y-96450000D01*
X66929605Y-96450000D01*
X68263970Y-97784365D01*
X68582739Y-97624582D01*
X68647470Y-97459454D01*
X69022637Y-97835278D01*
X69623352Y-98084716D01*
X70273795Y-98085284D01*
X70874943Y-97836894D01*
X71220463Y-97491977D01*
X71288980Y-97657800D01*
X71889041Y-98258909D01*
X72673459Y-98584628D01*
X73522815Y-98585370D01*
X74307800Y-98261020D01*
X74908909Y-97660959D01*
X75234628Y-96876541D01*
X75234631Y-96872815D01*
X77314630Y-96872815D01*
X77638980Y-97657800D01*
X78239041Y-98258909D01*
X79023459Y-98584628D01*
X79872815Y-98585370D01*
X80657800Y-98261020D01*
X81258909Y-97660959D01*
X81584628Y-96876541D01*
X81585370Y-96027185D01*
X81261020Y-95242200D01*
X80660959Y-94641091D01*
X79876541Y-94315372D01*
X79027185Y-94314630D01*
X78242200Y-94638980D01*
X77641091Y-95239041D01*
X77315372Y-96023459D01*
X77314630Y-96872815D01*
X75234631Y-96872815D01*
X75235370Y-96027185D01*
X74911020Y-95242200D01*
X74310959Y-94641091D01*
X73526541Y-94315372D01*
X72677185Y-94314630D01*
X71892200Y-94638980D01*
X71291091Y-95239041D01*
X71220671Y-95408631D01*
X70877363Y-95064722D01*
X70276648Y-94815284D01*
X69626205Y-94814716D01*
X69025057Y-95063106D01*
X68649914Y-95437594D01*
X68582739Y-95275418D01*
X68263970Y-95115635D01*
X66929605Y-96450000D01*
X66570395Y-96450000D01*
X65236030Y-95115635D01*
X64917261Y-95275418D01*
X64710000Y-95804141D01*
X64710000Y-94936030D01*
X65415635Y-94936030D01*
X66750000Y-96270395D01*
X68084365Y-94936030D01*
X67924582Y-94617261D01*
X67133813Y-94307277D01*
X66284613Y-94323503D01*
X65575418Y-94617261D01*
X65415635Y-94936030D01*
X64710000Y-94936030D01*
X64710000Y-92172815D01*
X79414630Y-92172815D01*
X79738980Y-92957800D01*
X80339041Y-93558909D01*
X81123459Y-93884628D01*
X81972815Y-93885370D01*
X82757800Y-93561020D01*
X83358909Y-92960959D01*
X83684628Y-92176541D01*
X83684631Y-92172815D01*
X85764630Y-92172815D01*
X86088980Y-92957800D01*
X86689041Y-93558909D01*
X87473459Y-93884628D01*
X88322815Y-93885370D01*
X89107800Y-93561020D01*
X89708909Y-92960959D01*
X89779329Y-92791369D01*
X90122637Y-93135278D01*
X90723352Y-93384716D01*
X91373795Y-93385284D01*
X91667396Y-93263970D01*
X92915635Y-93263970D01*
X93075418Y-93582739D01*
X93866187Y-93892723D01*
X94715387Y-93876497D01*
X95424582Y-93582739D01*
X95584365Y-93263970D01*
X94250000Y-91929605D01*
X92915635Y-93263970D01*
X91667396Y-93263970D01*
X91974943Y-93136894D01*
X92350086Y-92762406D01*
X92417261Y-92924582D01*
X92736030Y-93084365D01*
X94070395Y-91750000D01*
X92736030Y-90415635D01*
X92417261Y-90575418D01*
X92352530Y-90740546D01*
X91977363Y-90364722D01*
X91667438Y-90236030D01*
X92915635Y-90236030D01*
X94250000Y-91570395D01*
X95584365Y-90236030D01*
X95424582Y-89917261D01*
X94633813Y-89607277D01*
X93784613Y-89623503D01*
X93075418Y-89917261D01*
X92915635Y-90236030D01*
X91667438Y-90236030D01*
X91376648Y-90115284D01*
X90726205Y-90114716D01*
X90125057Y-90363106D01*
X89779537Y-90708023D01*
X89711020Y-90542200D01*
X89110959Y-89941091D01*
X88326541Y-89615372D01*
X87477185Y-89614630D01*
X86692200Y-89938980D01*
X86091091Y-90539041D01*
X85765372Y-91323459D01*
X85764630Y-92172815D01*
X83684631Y-92172815D01*
X83685370Y-91327185D01*
X83361020Y-90542200D01*
X82760959Y-89941091D01*
X81976541Y-89615372D01*
X81127185Y-89614630D01*
X80342200Y-89938980D01*
X79741091Y-90539041D01*
X79415372Y-91323459D01*
X79414630Y-92172815D01*
X64710000Y-92172815D01*
X64710000Y-85256890D01*
X67558524Y-85256890D01*
X67728355Y-85666924D01*
X68118642Y-86095183D01*
X68643108Y-86341486D01*
X68873000Y-86220819D01*
X68873000Y-85027000D01*
X69127000Y-85027000D01*
X69127000Y-86220819D01*
X69356892Y-86341486D01*
X69881358Y-86095183D01*
X70271645Y-85666924D01*
X70441476Y-85256890D01*
X70320155Y-85027000D01*
X69127000Y-85027000D01*
X68873000Y-85027000D01*
X67679845Y-85027000D01*
X67558524Y-85256890D01*
X64710000Y-85256890D01*
X64710000Y-66385750D01*
X67390000Y-66385750D01*
X67390000Y-66626309D01*
X67486673Y-66859698D01*
X67665301Y-67038327D01*
X67898690Y-67135000D01*
X68114250Y-67135000D01*
X68273000Y-66976250D01*
X68273000Y-66227000D01*
X68527000Y-66227000D01*
X68527000Y-66976250D01*
X68685750Y-67135000D01*
X68901310Y-67135000D01*
X69134699Y-67038327D01*
X69313327Y-66859698D01*
X69410000Y-66626309D01*
X69410000Y-66385750D01*
X69251250Y-66227000D01*
X68527000Y-66227000D01*
X68273000Y-66227000D01*
X67548750Y-66227000D01*
X67390000Y-66385750D01*
X64710000Y-66385750D01*
X64710000Y-53710000D01*
X71000000Y-53710000D01*
X71271705Y-53655954D01*
X71502046Y-53502046D01*
X71655954Y-53271705D01*
X71710000Y-53000000D01*
X71710000Y-46710000D01*
X89290000Y-46710000D01*
X89290000Y-49515198D01*
X89290000Y-49515198D01*
G37*
X89290000Y-49515198D02*
X88037401Y-48262599D01*
X87790839Y-48097852D01*
X87500000Y-48040000D01*
X84300000Y-48040000D01*
X84009161Y-48097852D01*
X83762599Y-48262599D01*
X81485198Y-50540000D01*
X80458475Y-50540000D01*
X80484759Y-50476702D01*
X80485240Y-49925715D01*
X80274831Y-49416485D01*
X79885564Y-49026539D01*
X79376702Y-48815241D01*
X78825715Y-48814760D01*
X78316485Y-49025169D01*
X77926539Y-49414436D01*
X77723852Y-49902560D01*
X77259319Y-49902560D01*
X77396431Y-49701890D01*
X77447440Y-49450000D01*
X77447440Y-48550000D01*
X77403162Y-48314683D01*
X77264090Y-48098559D01*
X77051890Y-47953569D01*
X76800000Y-47902560D01*
X76000000Y-47902560D01*
X75764683Y-47946838D01*
X75548559Y-48085910D01*
X75528683Y-48115000D01*
X74100005Y-48115000D01*
X74100000Y-48114999D01*
X73817516Y-48171190D01*
X73761325Y-48182367D01*
X73474210Y-48374210D01*
X73474208Y-48374213D01*
X72374210Y-49474210D01*
X72182367Y-49761325D01*
X72182367Y-49761326D01*
X72114999Y-50100000D01*
X72115000Y-50100005D01*
X72115000Y-53033421D01*
X70374210Y-54774210D01*
X70182367Y-55061325D01*
X70182367Y-55061326D01*
X70114999Y-55400000D01*
X70115000Y-55400005D01*
X70115000Y-55952560D01*
X69500000Y-55952560D01*
X69264683Y-55996838D01*
X69048559Y-56135910D01*
X68903569Y-56348110D01*
X68852560Y-56600000D01*
X68852560Y-58200000D01*
X68896838Y-58435317D01*
X69035910Y-58651441D01*
X69248110Y-58796431D01*
X69500000Y-58847440D01*
X69700981Y-58847440D01*
X68533304Y-60015116D01*
X68125715Y-60014760D01*
X67616485Y-60225169D01*
X67226539Y-60614436D01*
X67015241Y-61123298D01*
X67014760Y-61674285D01*
X67225169Y-62183515D01*
X67515000Y-62473852D01*
X67515000Y-63821614D01*
X67428569Y-63948110D01*
X67377560Y-64200000D01*
X67377560Y-65000000D01*
X67421838Y-65235317D01*
X67488329Y-65338646D01*
X67486673Y-65340302D01*
X67390000Y-65573691D01*
X67390000Y-65814250D01*
X67548750Y-65973000D01*
X68273000Y-65973000D01*
X68273000Y-65953000D01*
X68527000Y-65953000D01*
X68527000Y-65973000D01*
X69251250Y-65973000D01*
X69410000Y-65814250D01*
X69410000Y-65573691D01*
X69373263Y-65485000D01*
X70899995Y-65485000D01*
X70900000Y-65485001D01*
X70900005Y-65485000D01*
X74799995Y-65485000D01*
X74800000Y-65485001D01*
X75082484Y-65428810D01*
X75138675Y-65417633D01*
X75425790Y-65225790D01*
X76685787Y-63965792D01*
X76685790Y-63965790D01*
X76877633Y-63678675D01*
X76892573Y-63603569D01*
X76945001Y-63340000D01*
X76945000Y-63339995D01*
X76945000Y-63242412D01*
X77076000Y-63268940D01*
X77584000Y-63268940D01*
X77819317Y-63224662D01*
X77960371Y-63133896D01*
X77986302Y-63159827D01*
X78219691Y-63256500D01*
X78314250Y-63256500D01*
X78473000Y-63097750D01*
X78473000Y-62177000D01*
X78453000Y-62177000D01*
X78453000Y-61923000D01*
X78473000Y-61923000D01*
X78473000Y-61002250D01*
X78314250Y-60843500D01*
X78219691Y-60843500D01*
X77986302Y-60940173D01*
X77959765Y-60966709D01*
X77835890Y-60882069D01*
X77584000Y-60831060D01*
X77076000Y-60831060D01*
X76840683Y-60875338D01*
X76694093Y-60969666D01*
X76565890Y-60882069D01*
X76314000Y-60831060D01*
X75806000Y-60831060D01*
X75570683Y-60875338D01*
X75424093Y-60969666D01*
X75295890Y-60882069D01*
X75044000Y-60831060D01*
X74536000Y-60831060D01*
X74300683Y-60875338D01*
X74154093Y-60969666D01*
X74025890Y-60882069D01*
X73774000Y-60831060D01*
X73266000Y-60831060D01*
X73030683Y-60875338D01*
X72884093Y-60969666D01*
X72755890Y-60882069D01*
X72504000Y-60831060D01*
X71996000Y-60831060D01*
X71760683Y-60875338D01*
X71614093Y-60969666D01*
X71485890Y-60882069D01*
X71234000Y-60831060D01*
X70726000Y-60831060D01*
X70490683Y-60875338D01*
X70274559Y-61014410D01*
X70129569Y-61226610D01*
X70078560Y-61478500D01*
X70078560Y-62621500D01*
X70095000Y-62708871D01*
X70095000Y-63715000D01*
X69285000Y-63715000D01*
X69285000Y-62473523D01*
X69573461Y-62185564D01*
X69784759Y-61676702D01*
X69785117Y-61266463D01*
X71625787Y-59425792D01*
X71625790Y-59425790D01*
X71817633Y-59138675D01*
X71827315Y-59090000D01*
X71875564Y-58847440D01*
X72500000Y-58847440D01*
X72735317Y-58803162D01*
X72951441Y-58664090D01*
X73096431Y-58451890D01*
X73147440Y-58200000D01*
X73147440Y-57685750D01*
X73265000Y-57685750D01*
X73265000Y-58326310D01*
X73361673Y-58559699D01*
X73540302Y-58738327D01*
X73773691Y-58835000D01*
X75114250Y-58835000D01*
X75273000Y-58676250D01*
X75273000Y-57527000D01*
X73423750Y-57527000D01*
X73265000Y-57685750D01*
X73147440Y-57685750D01*
X73147440Y-56600000D01*
X73123674Y-56473690D01*
X73265000Y-56473690D01*
X73265000Y-57114250D01*
X73423750Y-57273000D01*
X75273000Y-57273000D01*
X75273000Y-56123750D01*
X75114250Y-55965000D01*
X73773691Y-55965000D01*
X73540302Y-56061673D01*
X73361673Y-56240301D01*
X73265000Y-56473690D01*
X73123674Y-56473690D01*
X73103162Y-56364683D01*
X72964090Y-56148559D01*
X72751890Y-56003569D01*
X72500000Y-55952560D01*
X71885000Y-55952560D01*
X71885000Y-55766580D01*
X73625787Y-54025792D01*
X73625790Y-54025790D01*
X73817633Y-53738675D01*
X73825326Y-53700000D01*
X73885001Y-53400000D01*
X73885000Y-53399995D01*
X73885000Y-51285750D01*
X74415000Y-51285750D01*
X74415000Y-51576309D01*
X74511673Y-51809698D01*
X74690301Y-51988327D01*
X74923690Y-52085000D01*
X75164250Y-52085000D01*
X75323000Y-51926250D01*
X75323000Y-51127000D01*
X74573750Y-51127000D01*
X74415000Y-51285750D01*
X73885000Y-51285750D01*
X73885000Y-50466580D01*
X73927888Y-50423691D01*
X74415000Y-50423691D01*
X74415000Y-50714250D01*
X74573750Y-50873000D01*
X75323000Y-50873000D01*
X75323000Y-50073750D01*
X75164250Y-49915000D01*
X74923690Y-49915000D01*
X74690301Y-50011673D01*
X74511673Y-50190302D01*
X74415000Y-50423691D01*
X73927888Y-50423691D01*
X74466579Y-49885000D01*
X75525331Y-49885000D01*
X75535910Y-49901441D01*
X75662686Y-49988064D01*
X75577000Y-50073750D01*
X75577000Y-50873000D01*
X75597000Y-50873000D01*
X75597000Y-51127000D01*
X75577000Y-51127000D01*
X75577000Y-51926250D01*
X75735750Y-52085000D01*
X75976310Y-52085000D01*
X76209699Y-51988327D01*
X76388327Y-51809698D01*
X76403423Y-51773253D01*
X76485910Y-51901441D01*
X76698110Y-52046431D01*
X76950000Y-52097440D01*
X77127758Y-52097440D01*
X76762599Y-52462599D01*
X76597852Y-52709161D01*
X76540000Y-53000000D01*
X76540000Y-55965000D01*
X75685750Y-55965000D01*
X75527000Y-56123750D01*
X75527000Y-57273000D01*
X75547000Y-57273000D01*
X75547000Y-57527000D01*
X75527000Y-57527000D01*
X75527000Y-58676250D01*
X75685750Y-58835000D01*
X77026309Y-58835000D01*
X77259698Y-58738327D01*
X77438327Y-58559699D01*
X77535000Y-58326310D01*
X77535000Y-57685750D01*
X77376252Y-57527002D01*
X77535000Y-57527002D01*
X77535000Y-57409802D01*
X79040000Y-58914802D01*
X79040000Y-60868225D01*
X78980309Y-60843500D01*
X78885750Y-60843500D01*
X78727000Y-61002250D01*
X78727000Y-61923000D01*
X78747000Y-61923000D01*
X78747000Y-62177000D01*
X78727000Y-62177000D01*
X78727000Y-63097750D01*
X78885750Y-63256500D01*
X78980309Y-63256500D01*
X79040000Y-63231775D01*
X79040000Y-64285198D01*
X77385198Y-65940000D01*
X71300000Y-65940000D01*
X71009160Y-65997852D01*
X70762599Y-66162599D01*
X70442599Y-66482599D01*
X70277852Y-66729161D01*
X70220000Y-67020000D01*
X70220000Y-67444260D01*
X70129569Y-67576610D01*
X70078560Y-67828500D01*
X70078560Y-68971500D01*
X70122838Y-69206817D01*
X70220000Y-69357811D01*
X70220000Y-70834270D01*
X70101890Y-70753569D01*
X69850000Y-70702560D01*
X68150000Y-70702560D01*
X67914683Y-70746838D01*
X67698559Y-70885910D01*
X67553569Y-71098110D01*
X67502560Y-71350000D01*
X67502560Y-73050000D01*
X67546838Y-73285317D01*
X67685910Y-73501441D01*
X67898110Y-73646431D01*
X67965541Y-73660086D01*
X67920853Y-73689946D01*
X67598946Y-74171715D01*
X67485907Y-74740000D01*
X67598946Y-75308285D01*
X67920853Y-75790054D01*
X68261553Y-76017702D01*
X68118642Y-76084817D01*
X67728355Y-76513076D01*
X67558524Y-76923110D01*
X67679845Y-77153000D01*
X68873000Y-77153000D01*
X68873000Y-77133000D01*
X69127000Y-77133000D01*
X69127000Y-77153000D01*
X69147000Y-77153000D01*
X69147000Y-77407000D01*
X69127000Y-77407000D01*
X69127000Y-77427000D01*
X68873000Y-77427000D01*
X68873000Y-77407000D01*
X67679845Y-77407000D01*
X67558524Y-77636890D01*
X67728355Y-78046924D01*
X68118642Y-78475183D01*
X68261553Y-78542298D01*
X67920853Y-78769946D01*
X67598946Y-79251715D01*
X67485907Y-79820000D01*
X67598946Y-80388285D01*
X67920853Y-80870054D01*
X68250026Y-81090000D01*
X67920853Y-81309946D01*
X67598946Y-81791715D01*
X67485907Y-82360000D01*
X67598946Y-82928285D01*
X67920853Y-83410054D01*
X68261553Y-83637702D01*
X68118642Y-83704817D01*
X67728355Y-84133076D01*
X67558524Y-84543110D01*
X67679845Y-84773000D01*
X68873000Y-84773000D01*
X68873000Y-84753000D01*
X69127000Y-84753000D01*
X69127000Y-84773000D01*
X70320155Y-84773000D01*
X70441476Y-84543110D01*
X70271645Y-84133076D01*
X69881358Y-83704817D01*
X69738447Y-83637702D01*
X70079147Y-83410054D01*
X70401054Y-82928285D01*
X70514093Y-82360000D01*
X70401054Y-81791715D01*
X70079147Y-81309946D01*
X69749974Y-81090000D01*
X70079147Y-80870054D01*
X70401054Y-80388285D01*
X70514093Y-79820000D01*
X70401054Y-79251715D01*
X70079147Y-78769946D01*
X69738447Y-78542298D01*
X69881358Y-78475183D01*
X70271645Y-78046924D01*
X70441476Y-77636890D01*
X70320156Y-77407002D01*
X70485000Y-77407002D01*
X70485000Y-77309802D01*
X71124998Y-77949800D01*
X71115241Y-77973298D01*
X71114760Y-78524285D01*
X71325169Y-79033515D01*
X71714436Y-79423461D01*
X72223298Y-79634759D01*
X72774285Y-79635240D01*
X73283515Y-79424831D01*
X73673461Y-79035564D01*
X73884759Y-78526702D01*
X73885240Y-77975715D01*
X73687621Y-77497440D01*
X74710000Y-77497440D01*
X74945317Y-77453162D01*
X75161441Y-77314090D01*
X75306431Y-77101890D01*
X75320086Y-77034459D01*
X75349946Y-77079147D01*
X75831715Y-77401054D01*
X76400000Y-77514093D01*
X76968285Y-77401054D01*
X77450054Y-77079147D01*
X77771961Y-76597378D01*
X77885000Y-76029093D01*
X77885000Y-75970907D01*
X77771961Y-75402622D01*
X77450054Y-74920853D01*
X76968285Y-74598946D01*
X76400000Y-74485907D01*
X75831715Y-74598946D01*
X75349946Y-74920853D01*
X75322150Y-74962452D01*
X75313162Y-74914683D01*
X75174090Y-74698559D01*
X74961890Y-74553569D01*
X74710000Y-74502560D01*
X73010000Y-74502560D01*
X72774683Y-74546838D01*
X72558559Y-74685910D01*
X72413569Y-74898110D01*
X72362560Y-75150000D01*
X72362560Y-76850000D01*
X72365360Y-76864882D01*
X72225715Y-76864760D01*
X72200132Y-76875330D01*
X71740000Y-76415198D01*
X71740000Y-74448094D01*
X71828298Y-74484759D01*
X72379285Y-74485240D01*
X72888515Y-74274831D01*
X73084822Y-74078865D01*
X73300000Y-74122440D01*
X74100000Y-74122440D01*
X74335317Y-74078162D01*
X74449978Y-74004380D01*
X74548110Y-74071431D01*
X74800000Y-74122440D01*
X75600000Y-74122440D01*
X75835317Y-74078162D01*
X75886560Y-74045188D01*
X76114436Y-74273461D01*
X76623298Y-74484759D01*
X77174285Y-74485240D01*
X77683515Y-74274831D01*
X78073461Y-73885564D01*
X78284759Y-73376702D01*
X78285240Y-72825715D01*
X78074831Y-72316485D01*
X77728488Y-71969537D01*
X77775000Y-71923025D01*
X77840302Y-71988327D01*
X78073691Y-72085000D01*
X78166250Y-72085000D01*
X78325000Y-71926250D01*
X78325000Y-71127000D01*
X77225000Y-71127000D01*
X77225000Y-71147000D01*
X76975000Y-71147000D01*
X76975000Y-71127000D01*
X76953000Y-71127000D01*
X76953000Y-70873000D01*
X76975000Y-70873000D01*
X76975000Y-70073750D01*
X77225000Y-70073750D01*
X77225000Y-70873000D01*
X78325000Y-70873000D01*
X78325000Y-70073750D01*
X78166250Y-69915000D01*
X78073691Y-69915000D01*
X77840302Y-70011673D01*
X77775000Y-70076975D01*
X77709698Y-70011673D01*
X77476309Y-69915000D01*
X77383750Y-69915000D01*
X77225000Y-70073750D01*
X76975000Y-70073750D01*
X76816250Y-69915000D01*
X76723691Y-69915000D01*
X76490302Y-70011673D01*
X76349064Y-70152910D01*
X76314090Y-70098559D01*
X76101890Y-69953569D01*
X75850000Y-69902560D01*
X75350000Y-69902560D01*
X75114683Y-69946838D01*
X74960000Y-70046374D01*
X74960000Y-69901500D01*
X74902148Y-69610661D01*
X74902148Y-69610660D01*
X74899368Y-69606500D01*
X74917002Y-69606500D01*
X74917002Y-69447752D01*
X75075750Y-69606500D01*
X75170309Y-69606500D01*
X75403698Y-69509827D01*
X75430235Y-69483291D01*
X75554110Y-69567931D01*
X75806000Y-69618940D01*
X76314000Y-69618940D01*
X76549317Y-69574662D01*
X76690371Y-69483896D01*
X76716302Y-69509827D01*
X76949691Y-69606500D01*
X77044250Y-69606500D01*
X77203000Y-69447750D01*
X77203000Y-68527000D01*
X77457000Y-68527000D01*
X77457000Y-69447750D01*
X77615750Y-69606500D01*
X77710309Y-69606500D01*
X77943698Y-69509827D01*
X77965000Y-69488525D01*
X77986302Y-69509827D01*
X78219691Y-69606500D01*
X78314250Y-69606500D01*
X78473000Y-69447750D01*
X78473000Y-68527000D01*
X78727000Y-68527000D01*
X78727000Y-69447750D01*
X78885750Y-69606500D01*
X78980309Y-69606500D01*
X79213698Y-69509827D01*
X79392327Y-69331199D01*
X79489000Y-69097810D01*
X79489000Y-68685750D01*
X79330250Y-68527000D01*
X78727000Y-68527000D01*
X78473000Y-68527000D01*
X77457000Y-68527000D01*
X77203000Y-68527000D01*
X77183000Y-68527000D01*
X77183000Y-68273000D01*
X77203000Y-68273000D01*
X77203000Y-68253000D01*
X77457000Y-68253000D01*
X77457000Y-68273000D01*
X78473000Y-68273000D01*
X78473000Y-67352250D01*
X78727000Y-67352250D01*
X78727000Y-68273000D01*
X79330250Y-68273000D01*
X79489000Y-68114250D01*
X79489000Y-67702190D01*
X79392327Y-67468801D01*
X79213698Y-67290173D01*
X78980309Y-67193500D01*
X78885750Y-67193500D01*
X78727000Y-67352250D01*
X78473000Y-67352250D01*
X78314250Y-67193500D01*
X78281302Y-67193500D01*
X80337401Y-65137401D01*
X80402560Y-65039884D01*
X80402560Y-65400000D01*
X80446838Y-65635317D01*
X80585910Y-65851441D01*
X80798110Y-65996431D01*
X81050000Y-66047440D01*
X82350000Y-66047440D01*
X82585317Y-66003162D01*
X82790064Y-65871411D01*
X82905910Y-66051441D01*
X83118110Y-66196431D01*
X83370000Y-66247440D01*
X86310000Y-66247440D01*
X86545317Y-66203162D01*
X86761441Y-66064090D01*
X86900890Y-65860000D01*
X88600000Y-65860000D01*
X88890839Y-65802148D01*
X89137401Y-65637401D01*
X90737401Y-64037401D01*
X90902148Y-63790839D01*
X90960000Y-63500000D01*
X90960000Y-61614802D01*
X91964802Y-60610000D01*
X92327069Y-60610000D01*
X92385910Y-60701441D01*
X92598110Y-60846431D01*
X92850000Y-60897440D01*
X93602263Y-60897440D01*
X93762599Y-61137401D01*
X93962599Y-61337401D01*
X94209161Y-61502148D01*
X94301686Y-61520552D01*
X94385910Y-61651441D01*
X94540000Y-61756726D01*
X94540000Y-62185198D01*
X93862599Y-62862599D01*
X93697852Y-63109161D01*
X93640000Y-63400000D01*
X93640000Y-63952560D01*
X92930000Y-63952560D01*
X92694683Y-63996838D01*
X92478559Y-64135910D01*
X92333569Y-64348110D01*
X92282560Y-64600000D01*
X92282560Y-65600000D01*
X92326838Y-65835317D01*
X92465910Y-66051441D01*
X92678110Y-66196431D01*
X92930000Y-66247440D01*
X95870000Y-66247440D01*
X96105317Y-66203162D01*
X96290000Y-66084322D01*
X96290000Y-66658434D01*
X96121890Y-66543569D01*
X95870000Y-66492560D01*
X92930000Y-66492560D01*
X92694683Y-66536838D01*
X92478559Y-66675910D01*
X92333569Y-66888110D01*
X92328295Y-66914155D01*
X92209161Y-66937852D01*
X91962599Y-67102599D01*
X90925198Y-68140000D01*
X88134802Y-68140000D01*
X87097401Y-67102599D01*
X86929263Y-66990253D01*
X86913162Y-66904683D01*
X86774090Y-66688559D01*
X86561890Y-66543569D01*
X86310000Y-66492560D01*
X83370000Y-66492560D01*
X83134683Y-66536838D01*
X82918559Y-66675910D01*
X82773569Y-66888110D01*
X82722560Y-67140000D01*
X82722560Y-67758854D01*
X82376702Y-67615241D01*
X81825715Y-67614760D01*
X81316485Y-67825169D01*
X80926539Y-68214436D01*
X80715241Y-68723298D01*
X80714760Y-69274285D01*
X80742735Y-69341989D01*
X80697852Y-69409161D01*
X80640000Y-69700000D01*
X80640000Y-70082099D01*
X80451890Y-69953569D01*
X80200000Y-69902560D01*
X79700000Y-69902560D01*
X79464683Y-69946838D01*
X79248559Y-70085910D01*
X79202031Y-70154006D01*
X79059698Y-70011673D01*
X78826309Y-69915000D01*
X78733750Y-69915000D01*
X78575000Y-70073750D01*
X78575000Y-70873000D01*
X78597000Y-70873000D01*
X78597000Y-71127000D01*
X78575000Y-71127000D01*
X78575000Y-71926250D01*
X78733750Y-72085000D01*
X78826309Y-72085000D01*
X79059698Y-71988327D01*
X79200936Y-71847090D01*
X79235910Y-71901441D01*
X79448110Y-72046431D01*
X79700000Y-72097440D01*
X80127758Y-72097440D01*
X78412609Y-73812589D01*
X78247862Y-74059151D01*
X78190010Y-74349990D01*
X78190010Y-77835188D01*
X76800200Y-79224998D01*
X76776702Y-79215241D01*
X76225715Y-79214760D01*
X75716485Y-79425169D01*
X75326539Y-79814436D01*
X75115241Y-80323298D01*
X75114760Y-80874285D01*
X75325169Y-81383515D01*
X75714436Y-81773461D01*
X76223298Y-81984759D01*
X76774285Y-81985240D01*
X77283515Y-81774831D01*
X77673461Y-81385564D01*
X77884759Y-80876702D01*
X77884893Y-80722815D01*
X79414630Y-80722815D01*
X79738980Y-81507800D01*
X80339041Y-82108909D01*
X81123459Y-82434628D01*
X81972815Y-82435370D01*
X82565182Y-82190608D01*
X82564630Y-82822815D01*
X82888980Y-83607800D01*
X83489041Y-84208909D01*
X84273459Y-84534628D01*
X85122815Y-84535370D01*
X85907800Y-84211020D01*
X86508909Y-83610959D01*
X86834628Y-82826541D01*
X86835202Y-82169600D01*
X87473459Y-82434628D01*
X88322815Y-82435370D01*
X89107800Y-82111020D01*
X89708909Y-81510959D01*
X89779329Y-81341369D01*
X90122637Y-81685278D01*
X90723352Y-81934716D01*
X91373795Y-81935284D01*
X91667396Y-81813970D01*
X92915635Y-81813970D01*
X93075418Y-82132739D01*
X93866187Y-82442723D01*
X94715387Y-82426497D01*
X95424582Y-82132739D01*
X95584365Y-81813970D01*
X94250000Y-80479605D01*
X92915635Y-81813970D01*
X91667396Y-81813970D01*
X91974943Y-81686894D01*
X92350086Y-81312406D01*
X92417261Y-81474582D01*
X92736030Y-81634365D01*
X94070395Y-80300000D01*
X92736030Y-78965635D01*
X92417261Y-79125418D01*
X92352530Y-79290546D01*
X91977363Y-78914722D01*
X91667438Y-78786030D01*
X92915635Y-78786030D01*
X94250000Y-80120395D01*
X95584365Y-78786030D01*
X95424582Y-78467261D01*
X94633813Y-78157277D01*
X93784613Y-78173503D01*
X93075418Y-78467261D01*
X92915635Y-78786030D01*
X91667438Y-78786030D01*
X91376648Y-78665284D01*
X90726205Y-78664716D01*
X90125057Y-78913106D01*
X89779537Y-79258023D01*
X89711020Y-79092200D01*
X89110959Y-78491091D01*
X88326541Y-78165372D01*
X87477185Y-78164630D01*
X86692200Y-78488980D01*
X86091091Y-79089041D01*
X85765372Y-79873459D01*
X85764798Y-80530400D01*
X85126541Y-80265372D01*
X84277185Y-80264630D01*
X83684818Y-80509392D01*
X83685370Y-79877185D01*
X83361020Y-79092200D01*
X82760959Y-78491091D01*
X81976541Y-78165372D01*
X81127185Y-78164630D01*
X80342200Y-78488980D01*
X79741091Y-79089041D01*
X79415372Y-79873459D01*
X79414630Y-80722815D01*
X77884893Y-80722815D01*
X77885240Y-80325715D01*
X77874670Y-80300132D01*
X79487411Y-78687391D01*
X79652158Y-78440829D01*
X79710010Y-78149990D01*
X79710010Y-75593548D01*
X79989436Y-75873461D01*
X80498298Y-76084759D01*
X80531232Y-76084788D01*
X80515241Y-76123298D01*
X80514760Y-76674285D01*
X80725169Y-77183515D01*
X81114436Y-77573461D01*
X81623298Y-77784759D01*
X82174285Y-77785240D01*
X82683515Y-77574831D01*
X83073461Y-77185564D01*
X83284759Y-76676702D01*
X83285009Y-76390229D01*
X83370000Y-76407440D01*
X86310000Y-76407440D01*
X86545317Y-76363162D01*
X86761441Y-76224090D01*
X86906431Y-76011890D01*
X86957440Y-75760000D01*
X86957440Y-74760000D01*
X86913162Y-74524683D01*
X86774090Y-74308559D01*
X86561890Y-74163569D01*
X86310000Y-74112560D01*
X83370000Y-74112560D01*
X83134683Y-74156838D01*
X82918559Y-74295910D01*
X82773569Y-74508110D01*
X82722560Y-74760000D01*
X82722560Y-75263600D01*
X82685564Y-75226539D01*
X82660000Y-75215924D01*
X82660000Y-73914802D01*
X82904912Y-73669890D01*
X82905910Y-73671441D01*
X83118110Y-73816431D01*
X83370000Y-73867440D01*
X86310000Y-73867440D01*
X86545317Y-73823162D01*
X86761441Y-73684090D01*
X86906431Y-73471890D01*
X86957440Y-73220000D01*
X86957440Y-72220000D01*
X86935849Y-72105255D01*
X87037401Y-72037401D01*
X87537401Y-71537401D01*
X87702148Y-71290839D01*
X87760000Y-71000000D01*
X87760000Y-70660000D01*
X90340000Y-70660000D01*
X90340000Y-71500000D01*
X90397852Y-71790839D01*
X90562599Y-72037401D01*
X91782599Y-73257401D01*
X92029161Y-73422148D01*
X92320000Y-73480000D01*
X92342721Y-73480000D01*
X92465910Y-73671441D01*
X92678110Y-73816431D01*
X92930000Y-73867440D01*
X95870000Y-73867440D01*
X96105317Y-73823162D01*
X96290000Y-73704322D01*
X96290000Y-74278434D01*
X96121890Y-74163569D01*
X95870000Y-74112560D01*
X92930000Y-74112560D01*
X92694683Y-74156838D01*
X92478559Y-74295910D01*
X92333569Y-74508110D01*
X92282560Y-74760000D01*
X92282560Y-75760000D01*
X92326838Y-75995317D01*
X92465910Y-76211441D01*
X92678110Y-76356431D01*
X92930000Y-76407440D01*
X95870000Y-76407440D01*
X96105317Y-76363162D01*
X96290000Y-76244322D01*
X96290000Y-79625791D01*
X96082739Y-79125418D01*
X95763970Y-78965635D01*
X94429605Y-80300000D01*
X95763970Y-81634365D01*
X96082739Y-81474582D01*
X96290000Y-80945859D01*
X96290000Y-91075791D01*
X96082739Y-90575418D01*
X95763970Y-90415635D01*
X94429605Y-91750000D01*
X95763970Y-93084365D01*
X96082739Y-92924582D01*
X96290000Y-92395859D01*
X96290000Y-98677848D01*
X85054868Y-98677848D01*
X85054868Y-100065000D01*
X85002487Y-100065000D01*
X85002487Y-103035000D01*
X85055475Y-103035000D01*
X85055475Y-104535000D01*
X90905299Y-104535000D01*
X90879868Y-104662848D01*
X90879868Y-109290000D01*
X81079555Y-109290000D01*
X81258909Y-109110959D01*
X81584628Y-108326541D01*
X81585370Y-107477185D01*
X81261020Y-106692200D01*
X80660959Y-106091091D01*
X79876541Y-105765372D01*
X79027185Y-105764630D01*
X78434818Y-106009392D01*
X78435370Y-105377185D01*
X78111020Y-104592200D01*
X77510959Y-103991091D01*
X76726541Y-103665372D01*
X75877185Y-103664630D01*
X75092200Y-103988980D01*
X74491091Y-104589041D01*
X74165372Y-105373459D01*
X74164798Y-106030400D01*
X73526541Y-105765372D01*
X72677185Y-105764630D01*
X71892200Y-106088980D01*
X71291091Y-106689041D01*
X71220671Y-106858631D01*
X70877363Y-106514722D01*
X70276648Y-106265284D01*
X69626205Y-106264716D01*
X69025057Y-106513106D01*
X68649914Y-106887594D01*
X68582739Y-106725418D01*
X68263970Y-106565635D01*
X66929605Y-107900000D01*
X66943748Y-107914143D01*
X66764143Y-108093748D01*
X66750000Y-108079605D01*
X66735858Y-108093748D01*
X66556253Y-107914143D01*
X66570395Y-107900000D01*
X65236030Y-106565635D01*
X64917261Y-106725418D01*
X64710000Y-107254141D01*
X64710000Y-106386030D01*
X65415635Y-106386030D01*
X66750000Y-107720395D01*
X68084365Y-106386030D01*
X67924582Y-106067261D01*
X67133813Y-105757277D01*
X66284613Y-105773503D01*
X65575418Y-106067261D01*
X65415635Y-106386030D01*
X64710000Y-106386030D01*
X64710000Y-97963970D01*
X65415635Y-97963970D01*
X65575418Y-98282739D01*
X66366187Y-98592723D01*
X67215387Y-98576497D01*
X67924582Y-98282739D01*
X68084365Y-97963970D01*
X66750000Y-96629605D01*
X65415635Y-97963970D01*
X64710000Y-97963970D01*
X64710000Y-97124209D01*
X64917261Y-97624582D01*
X65236030Y-97784365D01*
X66570395Y-96450000D01*
X66929605Y-96450000D01*
X68263970Y-97784365D01*
X68582739Y-97624582D01*
X68647470Y-97459454D01*
X69022637Y-97835278D01*
X69623352Y-98084716D01*
X70273795Y-98085284D01*
X70874943Y-97836894D01*
X71220463Y-97491977D01*
X71288980Y-97657800D01*
X71889041Y-98258909D01*
X72673459Y-98584628D01*
X73522815Y-98585370D01*
X74307800Y-98261020D01*
X74908909Y-97660959D01*
X75234628Y-96876541D01*
X75234631Y-96872815D01*
X77314630Y-96872815D01*
X77638980Y-97657800D01*
X78239041Y-98258909D01*
X79023459Y-98584628D01*
X79872815Y-98585370D01*
X80657800Y-98261020D01*
X81258909Y-97660959D01*
X81584628Y-96876541D01*
X81585370Y-96027185D01*
X81261020Y-95242200D01*
X80660959Y-94641091D01*
X79876541Y-94315372D01*
X79027185Y-94314630D01*
X78242200Y-94638980D01*
X77641091Y-95239041D01*
X77315372Y-96023459D01*
X77314630Y-96872815D01*
X75234631Y-96872815D01*
X75235370Y-96027185D01*
X74911020Y-95242200D01*
X74310959Y-94641091D01*
X73526541Y-94315372D01*
X72677185Y-94314630D01*
X71892200Y-94638980D01*
X71291091Y-95239041D01*
X71220671Y-95408631D01*
X70877363Y-95064722D01*
X70276648Y-94815284D01*
X69626205Y-94814716D01*
X69025057Y-95063106D01*
X68649914Y-95437594D01*
X68582739Y-95275418D01*
X68263970Y-95115635D01*
X66929605Y-96450000D01*
X66570395Y-96450000D01*
X65236030Y-95115635D01*
X64917261Y-95275418D01*
X64710000Y-95804141D01*
X64710000Y-94936030D01*
X65415635Y-94936030D01*
X66750000Y-96270395D01*
X68084365Y-94936030D01*
X67924582Y-94617261D01*
X67133813Y-94307277D01*
X66284613Y-94323503D01*
X65575418Y-94617261D01*
X65415635Y-94936030D01*
X64710000Y-94936030D01*
X64710000Y-92172815D01*
X79414630Y-92172815D01*
X79738980Y-92957800D01*
X80339041Y-93558909D01*
X81123459Y-93884628D01*
X81972815Y-93885370D01*
X82757800Y-93561020D01*
X83358909Y-92960959D01*
X83684628Y-92176541D01*
X83684631Y-92172815D01*
X85764630Y-92172815D01*
X86088980Y-92957800D01*
X86689041Y-93558909D01*
X87473459Y-93884628D01*
X88322815Y-93885370D01*
X89107800Y-93561020D01*
X89708909Y-92960959D01*
X89779329Y-92791369D01*
X90122637Y-93135278D01*
X90723352Y-93384716D01*
X91373795Y-93385284D01*
X91667396Y-93263970D01*
X92915635Y-93263970D01*
X93075418Y-93582739D01*
X93866187Y-93892723D01*
X94715387Y-93876497D01*
X95424582Y-93582739D01*
X95584365Y-93263970D01*
X94250000Y-91929605D01*
X92915635Y-93263970D01*
X91667396Y-93263970D01*
X91974943Y-93136894D01*
X92350086Y-92762406D01*
X92417261Y-92924582D01*
X92736030Y-93084365D01*
X94070395Y-91750000D01*
X92736030Y-90415635D01*
X92417261Y-90575418D01*
X92352530Y-90740546D01*
X91977363Y-90364722D01*
X91667438Y-90236030D01*
X92915635Y-90236030D01*
X94250000Y-91570395D01*
X95584365Y-90236030D01*
X95424582Y-89917261D01*
X94633813Y-89607277D01*
X93784613Y-89623503D01*
X93075418Y-89917261D01*
X92915635Y-90236030D01*
X91667438Y-90236030D01*
X91376648Y-90115284D01*
X90726205Y-90114716D01*
X90125057Y-90363106D01*
X89779537Y-90708023D01*
X89711020Y-90542200D01*
X89110959Y-89941091D01*
X88326541Y-89615372D01*
X87477185Y-89614630D01*
X86692200Y-89938980D01*
X86091091Y-90539041D01*
X85765372Y-91323459D01*
X85764630Y-92172815D01*
X83684631Y-92172815D01*
X83685370Y-91327185D01*
X83361020Y-90542200D01*
X82760959Y-89941091D01*
X81976541Y-89615372D01*
X81127185Y-89614630D01*
X80342200Y-89938980D01*
X79741091Y-90539041D01*
X79415372Y-91323459D01*
X79414630Y-92172815D01*
X64710000Y-92172815D01*
X64710000Y-85256890D01*
X67558524Y-85256890D01*
X67728355Y-85666924D01*
X68118642Y-86095183D01*
X68643108Y-86341486D01*
X68873000Y-86220819D01*
X68873000Y-85027000D01*
X69127000Y-85027000D01*
X69127000Y-86220819D01*
X69356892Y-86341486D01*
X69881358Y-86095183D01*
X70271645Y-85666924D01*
X70441476Y-85256890D01*
X70320155Y-85027000D01*
X69127000Y-85027000D01*
X68873000Y-85027000D01*
X67679845Y-85027000D01*
X67558524Y-85256890D01*
X64710000Y-85256890D01*
X64710000Y-66385750D01*
X67390000Y-66385750D01*
X67390000Y-66626309D01*
X67486673Y-66859698D01*
X67665301Y-67038327D01*
X67898690Y-67135000D01*
X68114250Y-67135000D01*
X68273000Y-66976250D01*
X68273000Y-66227000D01*
X68527000Y-66227000D01*
X68527000Y-66976250D01*
X68685750Y-67135000D01*
X68901310Y-67135000D01*
X69134699Y-67038327D01*
X69313327Y-66859698D01*
X69410000Y-66626309D01*
X69410000Y-66385750D01*
X69251250Y-66227000D01*
X68527000Y-66227000D01*
X68273000Y-66227000D01*
X67548750Y-66227000D01*
X67390000Y-66385750D01*
X64710000Y-66385750D01*
X64710000Y-53710000D01*
X71000000Y-53710000D01*
X71271705Y-53655954D01*
X71502046Y-53502046D01*
X71655954Y-53271705D01*
X71710000Y-53000000D01*
X71710000Y-46710000D01*
X89290000Y-46710000D01*
X89290000Y-49515198D01*
G36*
X74917000Y-68273000D02*
X74937000Y-68273000D01*
X74937000Y-68527000D01*
X74917000Y-68527000D01*
X74917000Y-68547000D01*
X74663000Y-68547000D01*
X74663000Y-68527000D01*
X74643000Y-68527000D01*
X74643000Y-68273000D01*
X74663000Y-68273000D01*
X74663000Y-68253000D01*
X74917000Y-68253000D01*
X74917000Y-68273000D01*
X74917000Y-68273000D01*
G37*
X74917000Y-68273000D02*
X74937000Y-68273000D01*
X74937000Y-68527000D01*
X74917000Y-68527000D01*
X74917000Y-68547000D01*
X74663000Y-68547000D01*
X74663000Y-68527000D01*
X74643000Y-68527000D01*
X74643000Y-68273000D01*
X74663000Y-68273000D01*
X74663000Y-68253000D01*
X74917000Y-68253000D01*
X74917000Y-68273000D01*
G36*
X88140000Y-53700000D02*
X88197852Y-53990839D01*
X88362599Y-54237401D01*
X88912599Y-54787401D01*
X89159160Y-54952148D01*
X89207414Y-54961746D01*
X89450000Y-55010000D01*
X90427069Y-55010000D01*
X90485910Y-55101441D01*
X90625750Y-55196990D01*
X90590302Y-55211673D01*
X90411673Y-55390301D01*
X90315000Y-55623690D01*
X90315000Y-55864250D01*
X90473750Y-56023000D01*
X91273000Y-56023000D01*
X91273000Y-56003000D01*
X91527000Y-56003000D01*
X91527000Y-56023000D01*
X92326250Y-56023000D01*
X92412262Y-55936988D01*
X92485910Y-56051441D01*
X92698110Y-56196431D01*
X92950000Y-56247440D01*
X93850000Y-56247440D01*
X94085317Y-56203162D01*
X94289163Y-56071991D01*
X94398110Y-56146431D01*
X94411197Y-56149081D01*
X94198559Y-56285910D01*
X94155561Y-56348840D01*
X93909161Y-56397852D01*
X93662599Y-56562599D01*
X93462599Y-56762599D01*
X93297852Y-57009161D01*
X93240000Y-57300000D01*
X93240000Y-58700000D01*
X93260401Y-58802560D01*
X92850000Y-58802560D01*
X92614683Y-58846838D01*
X92398559Y-58985910D01*
X92327437Y-59090000D01*
X91650000Y-59090000D01*
X91359161Y-59147852D01*
X91112599Y-59312599D01*
X89662599Y-60762599D01*
X89497852Y-61009161D01*
X89440000Y-61300000D01*
X89440000Y-63185198D01*
X88285198Y-64340000D01*
X86897279Y-64340000D01*
X86774090Y-64148559D01*
X86561890Y-64003569D01*
X86310000Y-63952560D01*
X83370000Y-63952560D01*
X83134683Y-63996838D01*
X82918559Y-64135910D01*
X82827427Y-64269286D01*
X82814090Y-64248559D01*
X82601890Y-64103569D01*
X82588803Y-64100919D01*
X82801441Y-63964090D01*
X82946431Y-63751890D01*
X82997440Y-63500000D01*
X82997440Y-62800000D01*
X82953162Y-62564683D01*
X82814090Y-62348559D01*
X82601890Y-62203569D01*
X82585000Y-62200149D01*
X82585000Y-62173523D01*
X82873461Y-61885564D01*
X83084759Y-61376702D01*
X83084883Y-61235000D01*
X85114250Y-61235000D01*
X85273000Y-61076250D01*
X85273000Y-58327000D01*
X85527000Y-58327000D01*
X85527000Y-61076250D01*
X85685750Y-61235000D01*
X87926310Y-61235000D01*
X88159699Y-61138327D01*
X88338327Y-60959698D01*
X88435000Y-60726309D01*
X88435000Y-58485750D01*
X88276250Y-58327000D01*
X85527000Y-58327000D01*
X85273000Y-58327000D01*
X82523750Y-58327000D01*
X82365000Y-58485750D01*
X82365000Y-59876476D01*
X81976702Y-59715241D01*
X81425715Y-59714760D01*
X80916485Y-59925169D01*
X80560000Y-60281033D01*
X80560000Y-58600000D01*
X80502148Y-58309161D01*
X80337401Y-58062599D01*
X79689064Y-57414262D01*
X79713653Y-57424472D01*
X80921050Y-57425526D01*
X82036943Y-56964448D01*
X82365000Y-56636963D01*
X82365000Y-57914250D01*
X82523750Y-58073000D01*
X85273000Y-58073000D01*
X85273000Y-55323750D01*
X85527000Y-55323750D01*
X85527000Y-58073000D01*
X88276250Y-58073000D01*
X88435000Y-57914250D01*
X88435000Y-56435750D01*
X90315000Y-56435750D01*
X90315000Y-56676310D01*
X90411673Y-56909699D01*
X90590302Y-57088327D01*
X90823691Y-57185000D01*
X91114250Y-57185000D01*
X91273000Y-57026250D01*
X91273000Y-56277000D01*
X91527000Y-56277000D01*
X91527000Y-57026250D01*
X91685750Y-57185000D01*
X91976309Y-57185000D01*
X92209698Y-57088327D01*
X92388327Y-56909699D01*
X92485000Y-56676310D01*
X92485000Y-56435750D01*
X92326250Y-56277000D01*
X91527000Y-56277000D01*
X91273000Y-56277000D01*
X90473750Y-56277000D01*
X90315000Y-56435750D01*
X88435000Y-56435750D01*
X88435000Y-55673691D01*
X88338327Y-55440302D01*
X88159699Y-55261673D01*
X87926310Y-55165000D01*
X85685750Y-55165000D01*
X85527000Y-55323750D01*
X85273000Y-55323750D01*
X85114250Y-55165000D01*
X83284441Y-55165000D01*
X83354472Y-54996347D01*
X83355039Y-54347354D01*
X83678566Y-54671447D01*
X84793653Y-55134472D01*
X86001050Y-55135526D01*
X87116943Y-54674448D01*
X87971447Y-53821434D01*
X88140000Y-53415514D01*
X88140000Y-53700000D01*
X88140000Y-53700000D01*
G37*
X88140000Y-53700000D02*
X88197852Y-53990839D01*
X88362599Y-54237401D01*
X88912599Y-54787401D01*
X89159160Y-54952148D01*
X89207414Y-54961746D01*
X89450000Y-55010000D01*
X90427069Y-55010000D01*
X90485910Y-55101441D01*
X90625750Y-55196990D01*
X90590302Y-55211673D01*
X90411673Y-55390301D01*
X90315000Y-55623690D01*
X90315000Y-55864250D01*
X90473750Y-56023000D01*
X91273000Y-56023000D01*
X91273000Y-56003000D01*
X91527000Y-56003000D01*
X91527000Y-56023000D01*
X92326250Y-56023000D01*
X92412262Y-55936988D01*
X92485910Y-56051441D01*
X92698110Y-56196431D01*
X92950000Y-56247440D01*
X93850000Y-56247440D01*
X94085317Y-56203162D01*
X94289163Y-56071991D01*
X94398110Y-56146431D01*
X94411197Y-56149081D01*
X94198559Y-56285910D01*
X94155561Y-56348840D01*
X93909161Y-56397852D01*
X93662599Y-56562599D01*
X93462599Y-56762599D01*
X93297852Y-57009161D01*
X93240000Y-57300000D01*
X93240000Y-58700000D01*
X93260401Y-58802560D01*
X92850000Y-58802560D01*
X92614683Y-58846838D01*
X92398559Y-58985910D01*
X92327437Y-59090000D01*
X91650000Y-59090000D01*
X91359161Y-59147852D01*
X91112599Y-59312599D01*
X89662599Y-60762599D01*
X89497852Y-61009161D01*
X89440000Y-61300000D01*
X89440000Y-63185198D01*
X88285198Y-64340000D01*
X86897279Y-64340000D01*
X86774090Y-64148559D01*
X86561890Y-64003569D01*
X86310000Y-63952560D01*
X83370000Y-63952560D01*
X83134683Y-63996838D01*
X82918559Y-64135910D01*
X82827427Y-64269286D01*
X82814090Y-64248559D01*
X82601890Y-64103569D01*
X82588803Y-64100919D01*
X82801441Y-63964090D01*
X82946431Y-63751890D01*
X82997440Y-63500000D01*
X82997440Y-62800000D01*
X82953162Y-62564683D01*
X82814090Y-62348559D01*
X82601890Y-62203569D01*
X82585000Y-62200149D01*
X82585000Y-62173523D01*
X82873461Y-61885564D01*
X83084759Y-61376702D01*
X83084883Y-61235000D01*
X85114250Y-61235000D01*
X85273000Y-61076250D01*
X85273000Y-58327000D01*
X85527000Y-58327000D01*
X85527000Y-61076250D01*
X85685750Y-61235000D01*
X87926310Y-61235000D01*
X88159699Y-61138327D01*
X88338327Y-60959698D01*
X88435000Y-60726309D01*
X88435000Y-58485750D01*
X88276250Y-58327000D01*
X85527000Y-58327000D01*
X85273000Y-58327000D01*
X82523750Y-58327000D01*
X82365000Y-58485750D01*
X82365000Y-59876476D01*
X81976702Y-59715241D01*
X81425715Y-59714760D01*
X80916485Y-59925169D01*
X80560000Y-60281033D01*
X80560000Y-58600000D01*
X80502148Y-58309161D01*
X80337401Y-58062599D01*
X79689064Y-57414262D01*
X79713653Y-57424472D01*
X80921050Y-57425526D01*
X82036943Y-56964448D01*
X82365000Y-56636963D01*
X82365000Y-57914250D01*
X82523750Y-58073000D01*
X85273000Y-58073000D01*
X85273000Y-55323750D01*
X85527000Y-55323750D01*
X85527000Y-58073000D01*
X88276250Y-58073000D01*
X88435000Y-57914250D01*
X88435000Y-56435750D01*
X90315000Y-56435750D01*
X90315000Y-56676310D01*
X90411673Y-56909699D01*
X90590302Y-57088327D01*
X90823691Y-57185000D01*
X91114250Y-57185000D01*
X91273000Y-57026250D01*
X91273000Y-56277000D01*
X91527000Y-56277000D01*
X91527000Y-57026250D01*
X91685750Y-57185000D01*
X91976309Y-57185000D01*
X92209698Y-57088327D01*
X92388327Y-56909699D01*
X92485000Y-56676310D01*
X92485000Y-56435750D01*
X92326250Y-56277000D01*
X91527000Y-56277000D01*
X91273000Y-56277000D01*
X90473750Y-56277000D01*
X90315000Y-56435750D01*
X88435000Y-56435750D01*
X88435000Y-55673691D01*
X88338327Y-55440302D01*
X88159699Y-55261673D01*
X87926310Y-55165000D01*
X85685750Y-55165000D01*
X85527000Y-55323750D01*
X85273000Y-55323750D01*
X85114250Y-55165000D01*
X83284441Y-55165000D01*
X83354472Y-54996347D01*
X83355039Y-54347354D01*
X83678566Y-54671447D01*
X84793653Y-55134472D01*
X86001050Y-55135526D01*
X87116943Y-54674448D01*
X87971447Y-53821434D01*
X88140000Y-53415514D01*
X88140000Y-53700000D01*
G36*
X147290000Y-53000000D02*
X147344046Y-53271705D01*
X147497954Y-53502046D01*
X147728295Y-53655954D01*
X148000000Y-53710000D01*
X154290000Y-53710000D01*
X154290000Y-58720881D01*
X153860959Y-58291091D01*
X153076541Y-57965372D01*
X152227185Y-57964630D01*
X151442200Y-58288980D01*
X150841091Y-58889041D01*
X150515372Y-59673459D01*
X150514630Y-60522815D01*
X150838980Y-61307800D01*
X151439041Y-61908909D01*
X152223459Y-62234628D01*
X153072815Y-62235370D01*
X153857800Y-61911020D01*
X154290000Y-61479574D01*
X154290000Y-109290000D01*
X153589762Y-109290000D01*
X153589762Y-103490000D01*
X141415000Y-103490000D01*
X141415000Y-103647405D01*
X141340839Y-103597852D01*
X141050000Y-103540000D01*
X136250000Y-103540000D01*
X135959161Y-103597852D01*
X135712599Y-103762599D01*
X135547852Y-104009161D01*
X135490000Y-104300000D01*
X135490000Y-109100000D01*
X135527794Y-109290000D01*
X122710000Y-109290000D01*
X122710000Y-92950000D01*
X126762560Y-92950000D01*
X126762560Y-94650000D01*
X126806838Y-94885317D01*
X126945910Y-95101441D01*
X127158110Y-95246431D01*
X127410000Y-95297440D01*
X129110000Y-95297440D01*
X129345317Y-95253162D01*
X129561441Y-95114090D01*
X129706431Y-94901890D01*
X129728301Y-94793893D01*
X130033076Y-95071645D01*
X130443110Y-95241476D01*
X130673000Y-95120155D01*
X130673000Y-93927000D01*
X130927000Y-93927000D01*
X130927000Y-95120155D01*
X131156890Y-95241476D01*
X131566924Y-95071645D01*
X131995183Y-94681358D01*
X132241486Y-94156892D01*
X132120819Y-93927000D01*
X130927000Y-93927000D01*
X130673000Y-93927000D01*
X130653000Y-93927000D01*
X130653000Y-93673000D01*
X130673000Y-93673000D01*
X130673000Y-92479845D01*
X130927000Y-92479845D01*
X130927000Y-93673000D01*
X132120819Y-93673000D01*
X132241486Y-93443108D01*
X131995183Y-92918642D01*
X131566924Y-92528355D01*
X131156890Y-92358524D01*
X130927000Y-92479845D01*
X130673000Y-92479845D01*
X130443110Y-92358524D01*
X130033076Y-92528355D01*
X129730063Y-92804501D01*
X129713162Y-92714683D01*
X129574090Y-92498559D01*
X129361890Y-92353569D01*
X129110000Y-92302560D01*
X127410000Y-92302560D01*
X127174683Y-92346838D01*
X126958559Y-92485910D01*
X126813569Y-92698110D01*
X126762560Y-92950000D01*
X122710000Y-92950000D01*
X122710000Y-80074285D01*
X123314760Y-80074285D01*
X123525169Y-80583515D01*
X123914436Y-80973461D01*
X124423298Y-81184759D01*
X124974285Y-81185240D01*
X125483515Y-80974831D01*
X125787860Y-80671016D01*
X125920853Y-80870054D01*
X126250026Y-81090000D01*
X125920853Y-81309946D01*
X125598946Y-81791715D01*
X125485907Y-82360000D01*
X125598946Y-82928285D01*
X125920853Y-83410054D01*
X126261553Y-83637702D01*
X126118642Y-83704817D01*
X125728355Y-84133076D01*
X125558524Y-84543110D01*
X125679845Y-84773000D01*
X126873000Y-84773000D01*
X126873000Y-84753000D01*
X127127000Y-84753000D01*
X127127000Y-84773000D01*
X128320155Y-84773000D01*
X128441476Y-84543110D01*
X128271645Y-84133076D01*
X127881358Y-83704817D01*
X127738447Y-83637702D01*
X128079147Y-83410054D01*
X128272954Y-83120000D01*
X128398925Y-83120000D01*
X128425169Y-83183515D01*
X128814436Y-83573461D01*
X129323298Y-83784759D01*
X129874285Y-83785240D01*
X130383515Y-83574831D01*
X130773461Y-83185564D01*
X130984759Y-82676702D01*
X130985240Y-82125715D01*
X130774831Y-81616485D01*
X130385564Y-81226539D01*
X129876702Y-81015241D01*
X129325715Y-81014760D01*
X128816485Y-81225169D01*
X128441000Y-81600000D01*
X128272954Y-81600000D01*
X128079147Y-81309946D01*
X127749974Y-81090000D01*
X128055656Y-80885750D01*
X132765000Y-80885750D01*
X132765000Y-81176309D01*
X132861673Y-81409698D01*
X133040301Y-81588327D01*
X133273690Y-81685000D01*
X133514250Y-81685000D01*
X133673000Y-81526250D01*
X133673000Y-80727000D01*
X132923750Y-80727000D01*
X132765000Y-80885750D01*
X128055656Y-80885750D01*
X128079147Y-80870054D01*
X128401054Y-80388285D01*
X128514093Y-79820000D01*
X128401054Y-79251715D01*
X128079147Y-78769946D01*
X127738447Y-78542298D01*
X127881358Y-78475183D01*
X128271645Y-78046924D01*
X128441476Y-77636890D01*
X128320155Y-77407000D01*
X127127000Y-77407000D01*
X127127000Y-77427000D01*
X126873000Y-77427000D01*
X126873000Y-77407000D01*
X125679845Y-77407000D01*
X125558524Y-77636890D01*
X125728355Y-78046924D01*
X126118642Y-78475183D01*
X126261553Y-78542298D01*
X125920853Y-78769946D01*
X125803719Y-78945249D01*
X125485564Y-78626539D01*
X124976702Y-78415241D01*
X124425715Y-78414760D01*
X123916485Y-78625169D01*
X123526539Y-79014436D01*
X123315241Y-79523298D01*
X123314760Y-80074285D01*
X122710000Y-80074285D01*
X122710000Y-61237663D01*
X122738980Y-61307800D01*
X123339041Y-61908909D01*
X124123459Y-62234628D01*
X124972815Y-62235370D01*
X125580063Y-61984460D01*
X124049202Y-63515320D01*
X124049199Y-63515322D01*
X123885711Y-63760000D01*
X123857356Y-63802437D01*
X123789988Y-64141112D01*
X123789989Y-64141117D01*
X123789989Y-71224984D01*
X123789988Y-71224989D01*
X123824801Y-71400000D01*
X123857356Y-71563664D01*
X123983974Y-71753162D01*
X124049199Y-71850779D01*
X125024208Y-72825787D01*
X125024210Y-72825790D01*
X125311325Y-73017633D01*
X125367516Y-73028810D01*
X125503669Y-73055893D01*
X125546838Y-73285317D01*
X125685910Y-73501441D01*
X125898110Y-73646431D01*
X125965541Y-73660086D01*
X125920853Y-73689946D01*
X125811725Y-73853269D01*
X125485564Y-73526539D01*
X124976702Y-73315241D01*
X124425715Y-73314760D01*
X123916485Y-73525169D01*
X123526539Y-73914436D01*
X123315241Y-74423298D01*
X123314760Y-74974285D01*
X123525169Y-75483515D01*
X123914436Y-75873461D01*
X124423298Y-76084759D01*
X124974285Y-76085240D01*
X125483515Y-75874831D01*
X125779844Y-75579018D01*
X125920853Y-75790054D01*
X126261553Y-76017702D01*
X126118642Y-76084817D01*
X125728355Y-76513076D01*
X125558524Y-76923110D01*
X125679845Y-77153000D01*
X126873000Y-77153000D01*
X126873000Y-77133000D01*
X127127000Y-77133000D01*
X127127000Y-77153000D01*
X128320155Y-77153000D01*
X128441476Y-76923110D01*
X128271645Y-76513076D01*
X127881358Y-76084817D01*
X127738447Y-76017702D01*
X128079147Y-75790054D01*
X128401054Y-75308285D01*
X128514093Y-74740000D01*
X128401054Y-74171715D01*
X128079147Y-73689946D01*
X128037548Y-73662150D01*
X128085317Y-73653162D01*
X128301441Y-73514090D01*
X128446431Y-73301890D01*
X128490352Y-73085000D01*
X128633420Y-73085000D01*
X128815000Y-73266579D01*
X128815000Y-74199995D01*
X128814999Y-74200000D01*
X128856605Y-74409161D01*
X128882367Y-74538675D01*
X128991871Y-74702560D01*
X129074210Y-74825790D01*
X129874208Y-75625787D01*
X129874210Y-75625790D01*
X130161325Y-75817633D01*
X130217516Y-75828810D01*
X130500000Y-75885001D01*
X130500005Y-75885000D01*
X130830854Y-75885000D01*
X130753569Y-75998110D01*
X130702560Y-76250000D01*
X130702560Y-76750000D01*
X130746838Y-76985317D01*
X130885910Y-77201441D01*
X131098110Y-77346431D01*
X131269134Y-77381064D01*
X131025200Y-77624998D01*
X131001702Y-77615241D01*
X130450715Y-77614760D01*
X129941485Y-77825169D01*
X129551539Y-78214436D01*
X129340241Y-78723298D01*
X129339760Y-79274285D01*
X129550169Y-79783515D01*
X129939436Y-80173461D01*
X130448298Y-80384759D01*
X130999285Y-80385240D01*
X131508515Y-80174831D01*
X131659918Y-80023691D01*
X132765000Y-80023691D01*
X132765000Y-80314250D01*
X132923750Y-80473000D01*
X133673000Y-80473000D01*
X133673000Y-79951250D01*
X133773000Y-79851250D01*
X133773000Y-79127000D01*
X133023750Y-79127000D01*
X132865000Y-79285750D01*
X132865000Y-79501310D01*
X132948669Y-79703305D01*
X132861673Y-79790302D01*
X132765000Y-80023691D01*
X131659918Y-80023691D01*
X131898461Y-79785564D01*
X132109759Y-79276702D01*
X132110240Y-78725715D01*
X132099670Y-78700132D01*
X132439802Y-78360000D01*
X132922447Y-78360000D01*
X132865000Y-78498690D01*
X132865000Y-78714250D01*
X133023750Y-78873000D01*
X133773000Y-78873000D01*
X133773000Y-78853000D01*
X134027000Y-78853000D01*
X134027000Y-78873000D01*
X134047000Y-78873000D01*
X134047000Y-79127000D01*
X134027000Y-79127000D01*
X134027000Y-79573750D01*
X133927000Y-79673750D01*
X133927000Y-80473000D01*
X133947000Y-80473000D01*
X133947000Y-80727000D01*
X133927000Y-80727000D01*
X133927000Y-81526250D01*
X134013012Y-81612262D01*
X133898559Y-81685910D01*
X133753569Y-81898110D01*
X133702560Y-82150000D01*
X133702560Y-83050000D01*
X133746838Y-83285317D01*
X133878009Y-83489163D01*
X133803569Y-83598110D01*
X133752560Y-83850000D01*
X133752560Y-84750000D01*
X133796838Y-84985317D01*
X133935910Y-85201441D01*
X133937548Y-85202560D01*
X133450000Y-85202560D01*
X133385972Y-85214608D01*
X133484759Y-84976702D01*
X133485240Y-84425715D01*
X133274831Y-83916485D01*
X132885564Y-83526539D01*
X132376702Y-83315241D01*
X131825715Y-83314760D01*
X131316485Y-83525169D01*
X130926539Y-83914436D01*
X130715241Y-84423298D01*
X130714760Y-84974285D01*
X130834550Y-85264200D01*
X130725000Y-85373750D01*
X130725000Y-86173000D01*
X130747000Y-86173000D01*
X130747000Y-86427000D01*
X130725000Y-86427000D01*
X130725000Y-86447000D01*
X130475000Y-86447000D01*
X130475000Y-86427000D01*
X129873750Y-86427000D01*
X129715000Y-86585750D01*
X129715000Y-86763266D01*
X129349398Y-86763266D01*
X129251499Y-86697852D01*
X129095641Y-86666850D01*
X129074831Y-86616485D01*
X128685564Y-86226539D01*
X128176702Y-86015241D01*
X127954389Y-86015047D01*
X128219912Y-85723690D01*
X129715000Y-85723690D01*
X129715000Y-86014250D01*
X129873750Y-86173000D01*
X130475000Y-86173000D01*
X130475000Y-85373750D01*
X130316250Y-85215000D01*
X130223691Y-85215000D01*
X129990302Y-85311673D01*
X129811673Y-85490301D01*
X129715000Y-85723690D01*
X128219912Y-85723690D01*
X128271645Y-85666924D01*
X128441476Y-85256890D01*
X128320155Y-85027000D01*
X127127000Y-85027000D01*
X127127000Y-85047000D01*
X126873000Y-85047000D01*
X126873000Y-85027000D01*
X125679845Y-85027000D01*
X125558524Y-85256890D01*
X125728355Y-85666924D01*
X126118642Y-86095183D01*
X126643108Y-86341486D01*
X126872998Y-86220820D01*
X126872998Y-86385000D01*
X126956375Y-86385000D01*
X126726539Y-86614436D01*
X126515241Y-87123298D01*
X126514760Y-87674285D01*
X126725169Y-88183515D01*
X127021924Y-88480788D01*
X126858559Y-88585910D01*
X126713569Y-88798110D01*
X126662560Y-89050000D01*
X126662560Y-90750000D01*
X126706838Y-90985317D01*
X126845910Y-91201441D01*
X127058110Y-91346431D01*
X127310000Y-91397440D01*
X129010000Y-91397440D01*
X129245317Y-91353162D01*
X129461441Y-91214090D01*
X129606431Y-91001890D01*
X129620086Y-90934459D01*
X129649946Y-90979147D01*
X130131715Y-91301054D01*
X130700000Y-91414093D01*
X131268285Y-91301054D01*
X131750054Y-90979147D01*
X132071961Y-90497378D01*
X132185000Y-89929093D01*
X132185000Y-89870907D01*
X132071961Y-89302622D01*
X131750054Y-88820853D01*
X131268285Y-88498946D01*
X130700000Y-88385907D01*
X130131715Y-88498946D01*
X129649946Y-88820853D01*
X129622150Y-88862452D01*
X129613162Y-88814683D01*
X129474090Y-88598559D01*
X129261890Y-88453569D01*
X129010000Y-88402560D01*
X128856086Y-88402560D01*
X128993589Y-88265297D01*
X129083926Y-88283266D01*
X135276734Y-88283266D01*
X135567573Y-88225414D01*
X135814135Y-88060667D01*
X136287401Y-87587401D01*
X136452148Y-87340840D01*
X136459147Y-87305654D01*
X136601441Y-87214090D01*
X136746431Y-87001890D01*
X136797440Y-86750000D01*
X136797440Y-85850000D01*
X136753162Y-85614683D01*
X136718168Y-85560301D01*
X136760000Y-85350000D01*
X136760000Y-82200000D01*
X136702148Y-81909161D01*
X136537401Y-81662599D01*
X136460000Y-81585198D01*
X136460000Y-81572931D01*
X136551441Y-81514090D01*
X136696431Y-81301890D01*
X136747440Y-81050000D01*
X136747440Y-80150000D01*
X136703162Y-79914683D01*
X136564090Y-79698559D01*
X136404060Y-79589215D01*
X136447440Y-79375000D01*
X136447440Y-79322242D01*
X136890000Y-79764802D01*
X136890000Y-79771614D01*
X136803569Y-79898110D01*
X136752560Y-80150000D01*
X136752560Y-81050000D01*
X136796838Y-81285317D01*
X136890000Y-81430095D01*
X136890000Y-82157122D01*
X136947852Y-82447961D01*
X137112599Y-82694523D01*
X140055488Y-85637412D01*
X140302050Y-85802159D01*
X140592889Y-85860011D01*
X148607111Y-85860011D01*
X148897950Y-85802159D01*
X149144512Y-85637412D01*
X151237401Y-83544523D01*
X151402148Y-83297961D01*
X151460000Y-83007122D01*
X151460000Y-79584547D01*
X151483515Y-79574831D01*
X151872263Y-79186760D01*
X151925000Y-79197440D01*
X152675000Y-79197440D01*
X152910317Y-79153162D01*
X153126441Y-79014090D01*
X153220773Y-78876031D01*
X153340839Y-78852148D01*
X153587401Y-78687401D01*
X153837401Y-78437401D01*
X154002148Y-78190840D01*
X154060000Y-77900000D01*
X154060000Y-75800000D01*
X154002148Y-75509161D01*
X153837401Y-75262599D01*
X153257235Y-74682433D01*
X153346431Y-74551890D01*
X153397440Y-74300000D01*
X153397440Y-73500000D01*
X153353162Y-73264683D01*
X153214090Y-73048559D01*
X153102494Y-72972308D01*
X153437401Y-72637401D01*
X153602148Y-72390839D01*
X153660000Y-72100000D01*
X153660000Y-71955105D01*
X153801441Y-71864090D01*
X153946431Y-71651890D01*
X153997440Y-71400000D01*
X153997440Y-70900000D01*
X153953162Y-70664683D01*
X153814090Y-70448559D01*
X153745994Y-70402031D01*
X153888327Y-70259698D01*
X153985000Y-70026309D01*
X153985000Y-69933750D01*
X153826250Y-69775000D01*
X153027000Y-69775000D01*
X153027000Y-69797000D01*
X152773000Y-69797000D01*
X152773000Y-69775000D01*
X151973750Y-69775000D01*
X151815000Y-69933750D01*
X151815000Y-70026309D01*
X151911673Y-70259698D01*
X152041974Y-70390000D01*
X151964802Y-70390000D01*
X151737401Y-70162599D01*
X151490839Y-69997852D01*
X151200000Y-69940000D01*
X150855105Y-69940000D01*
X150764090Y-69798559D01*
X150759339Y-69795313D01*
X150752148Y-69759161D01*
X150587401Y-69512599D01*
X150391299Y-69316497D01*
X150327236Y-69273691D01*
X151815000Y-69273691D01*
X151815000Y-69366250D01*
X151973750Y-69525000D01*
X152773000Y-69525000D01*
X152773000Y-68923750D01*
X153027000Y-68923750D01*
X153027000Y-69525000D01*
X153826250Y-69525000D01*
X153985000Y-69366250D01*
X153985000Y-69273691D01*
X153888327Y-69040302D01*
X153709699Y-68861673D01*
X153476310Y-68765000D01*
X153185750Y-68765000D01*
X153027000Y-68923750D01*
X152773000Y-68923750D01*
X152614250Y-68765000D01*
X152323690Y-68765000D01*
X152090301Y-68861673D01*
X151911673Y-69040302D01*
X151815000Y-69273691D01*
X150327236Y-69273691D01*
X150144737Y-69151750D01*
X149853898Y-69093898D01*
X148304107Y-69093898D01*
X148768371Y-68902068D01*
X149150288Y-68520818D01*
X149529357Y-68900551D01*
X150093330Y-69134733D01*
X150703991Y-69135265D01*
X151268371Y-68902068D01*
X151700551Y-68470643D01*
X151934733Y-67906670D01*
X151935265Y-67296009D01*
X151702068Y-66731629D01*
X151270643Y-66299449D01*
X150706670Y-66065267D01*
X150096009Y-66064735D01*
X149531629Y-66297932D01*
X149149712Y-66679182D01*
X148770643Y-66299449D01*
X148206670Y-66065267D01*
X147596009Y-66064735D01*
X147031629Y-66297932D01*
X146649712Y-66679182D01*
X146270643Y-66299449D01*
X145706670Y-66065267D01*
X145096009Y-66064735D01*
X144531629Y-66297932D01*
X144099449Y-66729357D01*
X143865267Y-67293330D01*
X143864735Y-67903991D01*
X144097932Y-68468371D01*
X144529357Y-68900551D01*
X144994988Y-69093898D01*
X144212455Y-69093898D01*
X144202739Y-69070383D01*
X143813472Y-68680437D01*
X143304610Y-68469139D01*
X142753623Y-68468658D01*
X142244393Y-68679067D01*
X141854447Y-69068334D01*
X141643149Y-69577196D01*
X141642668Y-70128183D01*
X141853077Y-70637413D01*
X142242344Y-71027359D01*
X142751206Y-71238657D01*
X143302193Y-71239138D01*
X143811423Y-71028729D01*
X144201369Y-70639462D01*
X144211984Y-70613898D01*
X145291806Y-70613898D01*
X145215241Y-70798288D01*
X145214760Y-71349275D01*
X145425169Y-71858505D01*
X145490000Y-71923449D01*
X145490000Y-72402069D01*
X145398559Y-72460910D01*
X145253569Y-72673110D01*
X145202560Y-72925000D01*
X145202560Y-73589990D01*
X141515851Y-73589990D01*
X141393701Y-73294364D01*
X141283505Y-73183976D01*
X141590054Y-72979147D01*
X141911961Y-72497378D01*
X142025000Y-71929093D01*
X142025000Y-71870907D01*
X141911961Y-71302622D01*
X141590054Y-70820853D01*
X141108285Y-70498946D01*
X140540000Y-70385907D01*
X139971715Y-70498946D01*
X139489946Y-70820853D01*
X139270000Y-71150026D01*
X139050054Y-70820853D01*
X138568285Y-70498946D01*
X138000000Y-70385907D01*
X137431715Y-70498946D01*
X136949946Y-70820853D01*
X136922150Y-70862452D01*
X136913162Y-70814683D01*
X136774090Y-70598559D01*
X136561890Y-70453569D01*
X136310000Y-70402560D01*
X134610000Y-70402560D01*
X134374683Y-70446838D01*
X134158559Y-70585910D01*
X134013569Y-70798110D01*
X133962560Y-71050000D01*
X133962560Y-72632281D01*
X133860000Y-72611881D01*
X133860000Y-71100000D01*
X133837237Y-70985564D01*
X133802148Y-70809160D01*
X133637401Y-70562599D01*
X133575002Y-70500200D01*
X133584759Y-70476702D01*
X133585240Y-69925715D01*
X133374831Y-69416485D01*
X132985564Y-69026539D01*
X132673492Y-68896956D01*
X132885067Y-68685750D01*
X135715000Y-68685750D01*
X135715000Y-68976310D01*
X135811673Y-69209699D01*
X135990302Y-69388327D01*
X136223691Y-69485000D01*
X136316250Y-69485000D01*
X136475000Y-69326250D01*
X136475000Y-68527000D01*
X135873750Y-68527000D01*
X135715000Y-68685750D01*
X132885067Y-68685750D01*
X133100551Y-68470643D01*
X133334733Y-67906670D01*
X133335265Y-67296009D01*
X133102068Y-66731629D01*
X133006357Y-66635750D01*
X135515000Y-66635750D01*
X135515000Y-66876310D01*
X135611673Y-67109699D01*
X135790302Y-67288327D01*
X136023691Y-67385000D01*
X136054696Y-67385000D01*
X135990302Y-67411673D01*
X135811673Y-67590301D01*
X135715000Y-67823690D01*
X135715000Y-68114250D01*
X135873750Y-68273000D01*
X136475000Y-68273000D01*
X136475000Y-67473750D01*
X136350250Y-67349000D01*
X136473000Y-67226250D01*
X136473000Y-66477000D01*
X135673750Y-66477000D01*
X135515000Y-66635750D01*
X133006357Y-66635750D01*
X132670643Y-66299449D01*
X132106670Y-66065267D01*
X131496009Y-66064735D01*
X130931629Y-66297932D01*
X130549712Y-66679182D01*
X130170643Y-66299449D01*
X129606670Y-66065267D01*
X128996009Y-66064735D01*
X128431629Y-66297932D01*
X127999449Y-66729357D01*
X127995706Y-66738372D01*
X127880159Y-66699446D01*
X126979605Y-67600000D01*
X127880159Y-68500554D01*
X127995214Y-68461793D01*
X127997932Y-68468371D01*
X128429357Y-68900551D01*
X128993330Y-69134733D01*
X129531260Y-69135202D01*
X129251539Y-69414436D01*
X129040241Y-69923298D01*
X129039760Y-70474285D01*
X129250169Y-70983515D01*
X129639436Y-71373461D01*
X129691759Y-71395188D01*
X129722852Y-71551499D01*
X129887599Y-71798061D01*
X130476939Y-72387401D01*
X130723501Y-72552148D01*
X130954067Y-72598011D01*
X130955711Y-72599134D01*
X130898559Y-72635910D01*
X130753569Y-72848110D01*
X130702560Y-73100000D01*
X130702560Y-73600000D01*
X130746838Y-73835317D01*
X130885910Y-74051441D01*
X130978932Y-74115000D01*
X130866579Y-74115000D01*
X130585000Y-73833420D01*
X130585000Y-72900000D01*
X130517633Y-72561325D01*
X130325790Y-72274210D01*
X130325787Y-72274208D01*
X129625790Y-71574210D01*
X129591800Y-71551499D01*
X129338675Y-71382367D01*
X129282484Y-71371190D01*
X129000000Y-71314999D01*
X128999995Y-71315000D01*
X128490854Y-71315000D01*
X128453162Y-71114683D01*
X128314090Y-70898559D01*
X128101890Y-70753569D01*
X127850000Y-70702560D01*
X127356261Y-70702560D01*
X127473461Y-70585564D01*
X127684759Y-70076702D01*
X127685240Y-69525715D01*
X127474831Y-69016485D01*
X127459199Y-69000825D01*
X127614148Y-68936643D01*
X127700554Y-68680159D01*
X126800000Y-67779605D01*
X126785858Y-67793748D01*
X126606253Y-67614143D01*
X126620395Y-67600000D01*
X126606253Y-67585858D01*
X126785858Y-67406253D01*
X126800000Y-67420395D01*
X127700554Y-66519841D01*
X127614148Y-66263357D01*
X127040664Y-66053542D01*
X126430540Y-66079161D01*
X126060000Y-66232644D01*
X126060000Y-64714802D01*
X127989792Y-62785010D01*
X130610208Y-62785010D01*
X131662599Y-63837401D01*
X131909161Y-64002148D01*
X132200000Y-64060000D01*
X134435198Y-64060000D01*
X135362599Y-64987401D01*
X135575271Y-65129504D01*
X135685910Y-65301441D01*
X135825750Y-65396990D01*
X135790302Y-65411673D01*
X135611673Y-65590301D01*
X135515000Y-65823690D01*
X135515000Y-66064250D01*
X135673750Y-66223000D01*
X136473000Y-66223000D01*
X136473000Y-66203000D01*
X136727000Y-66203000D01*
X136727000Y-66223000D01*
X137526250Y-66223000D01*
X137612262Y-66136988D01*
X137685910Y-66251441D01*
X137898110Y-66396431D01*
X138150000Y-66447440D01*
X139050000Y-66447440D01*
X139285317Y-66403162D01*
X139302560Y-66392066D01*
X139302560Y-66900000D01*
X139313928Y-66960418D01*
X139217548Y-66960334D01*
X138708318Y-67170743D01*
X138538111Y-67340653D01*
X138350000Y-67302560D01*
X137850000Y-67302560D01*
X137614683Y-67346838D01*
X137398559Y-67485910D01*
X137352031Y-67554006D01*
X137209698Y-67411673D01*
X137145304Y-67385000D01*
X137176309Y-67385000D01*
X137409698Y-67288327D01*
X137588327Y-67109699D01*
X137685000Y-66876310D01*
X137685000Y-66635750D01*
X137526250Y-66477000D01*
X136727000Y-66477000D01*
X136727000Y-67226250D01*
X136849750Y-67349000D01*
X136725000Y-67473750D01*
X136725000Y-68273000D01*
X136747000Y-68273000D01*
X136747000Y-68527000D01*
X136725000Y-68527000D01*
X136725000Y-69326250D01*
X136883750Y-69485000D01*
X136976309Y-69485000D01*
X137209698Y-69388327D01*
X137350936Y-69247090D01*
X137385910Y-69301441D01*
X137598110Y-69446431D01*
X137850000Y-69497440D01*
X138350000Y-69497440D01*
X138585317Y-69453162D01*
X138618923Y-69431537D01*
X138706269Y-69519035D01*
X139215131Y-69730333D01*
X139766118Y-69730814D01*
X140275348Y-69520405D01*
X140665294Y-69131138D01*
X140876592Y-68622276D01*
X140877073Y-68071289D01*
X140666664Y-67562059D01*
X140652070Y-67547440D01*
X141250000Y-67547440D01*
X141485317Y-67503162D01*
X141701441Y-67364090D01*
X141846431Y-67151890D01*
X141897440Y-66900000D01*
X141897440Y-66804140D01*
X143025787Y-65675792D01*
X143025790Y-65675790D01*
X143217633Y-65388675D01*
X143285000Y-65050000D01*
X143285000Y-64266580D01*
X143766579Y-63785000D01*
X144499995Y-63785000D01*
X144500000Y-63785001D01*
X144782484Y-63728810D01*
X144838675Y-63717633D01*
X145125790Y-63525790D01*
X145125791Y-63525789D01*
X146625787Y-62025792D01*
X146625790Y-62025790D01*
X146817633Y-61738675D01*
X146885000Y-61400000D01*
X146885000Y-58500005D01*
X146885001Y-58500000D01*
X146817633Y-58161326D01*
X146817633Y-58161325D01*
X146625790Y-57874210D01*
X146625787Y-57874208D01*
X145825790Y-57074210D01*
X145622946Y-56938675D01*
X145538675Y-56882367D01*
X145482484Y-56871190D01*
X145200000Y-56814999D01*
X145199995Y-56815000D01*
X143866579Y-56815000D01*
X143285000Y-56233420D01*
X143285000Y-55150003D01*
X143285001Y-55149998D01*
X143217633Y-54811323D01*
X143169977Y-54740000D01*
X143025790Y-54524208D01*
X143025787Y-54524206D01*
X142025791Y-53524209D01*
X141738676Y-53332366D01*
X141682485Y-53321189D01*
X141400001Y-53264998D01*
X141399996Y-53264999D01*
X138100005Y-53264999D01*
X138100000Y-53264998D01*
X137817516Y-53321189D01*
X137761325Y-53332366D01*
X137474210Y-53524209D01*
X137474208Y-53524212D01*
X135874210Y-55124209D01*
X135682367Y-55411324D01*
X135682367Y-55411325D01*
X135614999Y-55749999D01*
X135615000Y-55750004D01*
X135615000Y-58645750D01*
X135260959Y-58291091D01*
X134476541Y-57965372D01*
X133627185Y-57964630D01*
X132842200Y-58288980D01*
X132241091Y-58889041D01*
X131915372Y-59673459D01*
X131914630Y-60522815D01*
X132083788Y-60932208D01*
X131925790Y-60774210D01*
X131837174Y-60714999D01*
X131638675Y-60582367D01*
X131582484Y-60571190D01*
X131300000Y-60514999D01*
X131299995Y-60515000D01*
X127416102Y-60515000D01*
X127077427Y-60582367D01*
X126790312Y-60774210D01*
X126790310Y-60774213D01*
X126433714Y-61130809D01*
X126684628Y-60526541D01*
X126685370Y-59677185D01*
X126361020Y-58892200D01*
X125760959Y-58291091D01*
X124976541Y-57965372D01*
X124127185Y-57964630D01*
X123342200Y-58288980D01*
X122741091Y-58889041D01*
X122710000Y-58963916D01*
X122710000Y-53710000D01*
X129000000Y-53710000D01*
X129271705Y-53655954D01*
X129502046Y-53502046D01*
X129655954Y-53271705D01*
X129710000Y-53000000D01*
X129710000Y-48850000D01*
X135102560Y-48850000D01*
X135102560Y-50550000D01*
X135146838Y-50785317D01*
X135285910Y-51001441D01*
X135498110Y-51146431D01*
X135750000Y-51197440D01*
X137450000Y-51197440D01*
X137685317Y-51153162D01*
X137901441Y-51014090D01*
X138046431Y-50801890D01*
X138060086Y-50734459D01*
X138089946Y-50779147D01*
X138571715Y-51101054D01*
X139140000Y-51214093D01*
X139708285Y-51101054D01*
X140190054Y-50779147D01*
X140410000Y-50449974D01*
X140629946Y-50779147D01*
X141111715Y-51101054D01*
X141680000Y-51214093D01*
X142248285Y-51101054D01*
X142730054Y-50779147D01*
X143051961Y-50297378D01*
X143165000Y-49729093D01*
X143165000Y-49670907D01*
X143051961Y-49102622D01*
X142730054Y-48620853D01*
X142248285Y-48298946D01*
X141680000Y-48185907D01*
X141111715Y-48298946D01*
X140629946Y-48620853D01*
X140410000Y-48950026D01*
X140190054Y-48620853D01*
X139708285Y-48298946D01*
X139140000Y-48185907D01*
X138571715Y-48298946D01*
X138089946Y-48620853D01*
X138062150Y-48662452D01*
X138053162Y-48614683D01*
X137914090Y-48398559D01*
X137701890Y-48253569D01*
X137450000Y-48202560D01*
X135750000Y-48202560D01*
X135514683Y-48246838D01*
X135298559Y-48385910D01*
X135153569Y-48598110D01*
X135102560Y-48850000D01*
X129710000Y-48850000D01*
X129710000Y-46710000D01*
X147290000Y-46710000D01*
X147290000Y-53000000D01*
X147290000Y-53000000D01*
G37*
X147290000Y-53000000D02*
X147344046Y-53271705D01*
X147497954Y-53502046D01*
X147728295Y-53655954D01*
X148000000Y-53710000D01*
X154290000Y-53710000D01*
X154290000Y-58720881D01*
X153860959Y-58291091D01*
X153076541Y-57965372D01*
X152227185Y-57964630D01*
X151442200Y-58288980D01*
X150841091Y-58889041D01*
X150515372Y-59673459D01*
X150514630Y-60522815D01*
X150838980Y-61307800D01*
X151439041Y-61908909D01*
X152223459Y-62234628D01*
X153072815Y-62235370D01*
X153857800Y-61911020D01*
X154290000Y-61479574D01*
X154290000Y-109290000D01*
X153589762Y-109290000D01*
X153589762Y-103490000D01*
X141415000Y-103490000D01*
X141415000Y-103647405D01*
X141340839Y-103597852D01*
X141050000Y-103540000D01*
X136250000Y-103540000D01*
X135959161Y-103597852D01*
X135712599Y-103762599D01*
X135547852Y-104009161D01*
X135490000Y-104300000D01*
X135490000Y-109100000D01*
X135527794Y-109290000D01*
X122710000Y-109290000D01*
X122710000Y-92950000D01*
X126762560Y-92950000D01*
X126762560Y-94650000D01*
X126806838Y-94885317D01*
X126945910Y-95101441D01*
X127158110Y-95246431D01*
X127410000Y-95297440D01*
X129110000Y-95297440D01*
X129345317Y-95253162D01*
X129561441Y-95114090D01*
X129706431Y-94901890D01*
X129728301Y-94793893D01*
X130033076Y-95071645D01*
X130443110Y-95241476D01*
X130673000Y-95120155D01*
X130673000Y-93927000D01*
X130927000Y-93927000D01*
X130927000Y-95120155D01*
X131156890Y-95241476D01*
X131566924Y-95071645D01*
X131995183Y-94681358D01*
X132241486Y-94156892D01*
X132120819Y-93927000D01*
X130927000Y-93927000D01*
X130673000Y-93927000D01*
X130653000Y-93927000D01*
X130653000Y-93673000D01*
X130673000Y-93673000D01*
X130673000Y-92479845D01*
X130927000Y-92479845D01*
X130927000Y-93673000D01*
X132120819Y-93673000D01*
X132241486Y-93443108D01*
X131995183Y-92918642D01*
X131566924Y-92528355D01*
X131156890Y-92358524D01*
X130927000Y-92479845D01*
X130673000Y-92479845D01*
X130443110Y-92358524D01*
X130033076Y-92528355D01*
X129730063Y-92804501D01*
X129713162Y-92714683D01*
X129574090Y-92498559D01*
X129361890Y-92353569D01*
X129110000Y-92302560D01*
X127410000Y-92302560D01*
X127174683Y-92346838D01*
X126958559Y-92485910D01*
X126813569Y-92698110D01*
X126762560Y-92950000D01*
X122710000Y-92950000D01*
X122710000Y-80074285D01*
X123314760Y-80074285D01*
X123525169Y-80583515D01*
X123914436Y-80973461D01*
X124423298Y-81184759D01*
X124974285Y-81185240D01*
X125483515Y-80974831D01*
X125787860Y-80671016D01*
X125920853Y-80870054D01*
X126250026Y-81090000D01*
X125920853Y-81309946D01*
X125598946Y-81791715D01*
X125485907Y-82360000D01*
X125598946Y-82928285D01*
X125920853Y-83410054D01*
X126261553Y-83637702D01*
X126118642Y-83704817D01*
X125728355Y-84133076D01*
X125558524Y-84543110D01*
X125679845Y-84773000D01*
X126873000Y-84773000D01*
X126873000Y-84753000D01*
X127127000Y-84753000D01*
X127127000Y-84773000D01*
X128320155Y-84773000D01*
X128441476Y-84543110D01*
X128271645Y-84133076D01*
X127881358Y-83704817D01*
X127738447Y-83637702D01*
X128079147Y-83410054D01*
X128272954Y-83120000D01*
X128398925Y-83120000D01*
X128425169Y-83183515D01*
X128814436Y-83573461D01*
X129323298Y-83784759D01*
X129874285Y-83785240D01*
X130383515Y-83574831D01*
X130773461Y-83185564D01*
X130984759Y-82676702D01*
X130985240Y-82125715D01*
X130774831Y-81616485D01*
X130385564Y-81226539D01*
X129876702Y-81015241D01*
X129325715Y-81014760D01*
X128816485Y-81225169D01*
X128441000Y-81600000D01*
X128272954Y-81600000D01*
X128079147Y-81309946D01*
X127749974Y-81090000D01*
X128055656Y-80885750D01*
X132765000Y-80885750D01*
X132765000Y-81176309D01*
X132861673Y-81409698D01*
X133040301Y-81588327D01*
X133273690Y-81685000D01*
X133514250Y-81685000D01*
X133673000Y-81526250D01*
X133673000Y-80727000D01*
X132923750Y-80727000D01*
X132765000Y-80885750D01*
X128055656Y-80885750D01*
X128079147Y-80870054D01*
X128401054Y-80388285D01*
X128514093Y-79820000D01*
X128401054Y-79251715D01*
X128079147Y-78769946D01*
X127738447Y-78542298D01*
X127881358Y-78475183D01*
X128271645Y-78046924D01*
X128441476Y-77636890D01*
X128320155Y-77407000D01*
X127127000Y-77407000D01*
X127127000Y-77427000D01*
X126873000Y-77427000D01*
X126873000Y-77407000D01*
X125679845Y-77407000D01*
X125558524Y-77636890D01*
X125728355Y-78046924D01*
X126118642Y-78475183D01*
X126261553Y-78542298D01*
X125920853Y-78769946D01*
X125803719Y-78945249D01*
X125485564Y-78626539D01*
X124976702Y-78415241D01*
X124425715Y-78414760D01*
X123916485Y-78625169D01*
X123526539Y-79014436D01*
X123315241Y-79523298D01*
X123314760Y-80074285D01*
X122710000Y-80074285D01*
X122710000Y-61237663D01*
X122738980Y-61307800D01*
X123339041Y-61908909D01*
X124123459Y-62234628D01*
X124972815Y-62235370D01*
X125580063Y-61984460D01*
X124049202Y-63515320D01*
X124049199Y-63515322D01*
X123885711Y-63760000D01*
X123857356Y-63802437D01*
X123789988Y-64141112D01*
X123789989Y-64141117D01*
X123789989Y-71224984D01*
X123789988Y-71224989D01*
X123824801Y-71400000D01*
X123857356Y-71563664D01*
X123983974Y-71753162D01*
X124049199Y-71850779D01*
X125024208Y-72825787D01*
X125024210Y-72825790D01*
X125311325Y-73017633D01*
X125367516Y-73028810D01*
X125503669Y-73055893D01*
X125546838Y-73285317D01*
X125685910Y-73501441D01*
X125898110Y-73646431D01*
X125965541Y-73660086D01*
X125920853Y-73689946D01*
X125811725Y-73853269D01*
X125485564Y-73526539D01*
X124976702Y-73315241D01*
X124425715Y-73314760D01*
X123916485Y-73525169D01*
X123526539Y-73914436D01*
X123315241Y-74423298D01*
X123314760Y-74974285D01*
X123525169Y-75483515D01*
X123914436Y-75873461D01*
X124423298Y-76084759D01*
X124974285Y-76085240D01*
X125483515Y-75874831D01*
X125779844Y-75579018D01*
X125920853Y-75790054D01*
X126261553Y-76017702D01*
X126118642Y-76084817D01*
X125728355Y-76513076D01*
X125558524Y-76923110D01*
X125679845Y-77153000D01*
X126873000Y-77153000D01*
X126873000Y-77133000D01*
X127127000Y-77133000D01*
X127127000Y-77153000D01*
X128320155Y-77153000D01*
X128441476Y-76923110D01*
X128271645Y-76513076D01*
X127881358Y-76084817D01*
X127738447Y-76017702D01*
X128079147Y-75790054D01*
X128401054Y-75308285D01*
X128514093Y-74740000D01*
X128401054Y-74171715D01*
X128079147Y-73689946D01*
X128037548Y-73662150D01*
X128085317Y-73653162D01*
X128301441Y-73514090D01*
X128446431Y-73301890D01*
X128490352Y-73085000D01*
X128633420Y-73085000D01*
X128815000Y-73266579D01*
X128815000Y-74199995D01*
X128814999Y-74200000D01*
X128856605Y-74409161D01*
X128882367Y-74538675D01*
X128991871Y-74702560D01*
X129074210Y-74825790D01*
X129874208Y-75625787D01*
X129874210Y-75625790D01*
X130161325Y-75817633D01*
X130217516Y-75828810D01*
X130500000Y-75885001D01*
X130500005Y-75885000D01*
X130830854Y-75885000D01*
X130753569Y-75998110D01*
X130702560Y-76250000D01*
X130702560Y-76750000D01*
X130746838Y-76985317D01*
X130885910Y-77201441D01*
X131098110Y-77346431D01*
X131269134Y-77381064D01*
X131025200Y-77624998D01*
X131001702Y-77615241D01*
X130450715Y-77614760D01*
X129941485Y-77825169D01*
X129551539Y-78214436D01*
X129340241Y-78723298D01*
X129339760Y-79274285D01*
X129550169Y-79783515D01*
X129939436Y-80173461D01*
X130448298Y-80384759D01*
X130999285Y-80385240D01*
X131508515Y-80174831D01*
X131659918Y-80023691D01*
X132765000Y-80023691D01*
X132765000Y-80314250D01*
X132923750Y-80473000D01*
X133673000Y-80473000D01*
X133673000Y-79951250D01*
X133773000Y-79851250D01*
X133773000Y-79127000D01*
X133023750Y-79127000D01*
X132865000Y-79285750D01*
X132865000Y-79501310D01*
X132948669Y-79703305D01*
X132861673Y-79790302D01*
X132765000Y-80023691D01*
X131659918Y-80023691D01*
X131898461Y-79785564D01*
X132109759Y-79276702D01*
X132110240Y-78725715D01*
X132099670Y-78700132D01*
X132439802Y-78360000D01*
X132922447Y-78360000D01*
X132865000Y-78498690D01*
X132865000Y-78714250D01*
X133023750Y-78873000D01*
X133773000Y-78873000D01*
X133773000Y-78853000D01*
X134027000Y-78853000D01*
X134027000Y-78873000D01*
X134047000Y-78873000D01*
X134047000Y-79127000D01*
X134027000Y-79127000D01*
X134027000Y-79573750D01*
X133927000Y-79673750D01*
X133927000Y-80473000D01*
X133947000Y-80473000D01*
X133947000Y-80727000D01*
X133927000Y-80727000D01*
X133927000Y-81526250D01*
X134013012Y-81612262D01*
X133898559Y-81685910D01*
X133753569Y-81898110D01*
X133702560Y-82150000D01*
X133702560Y-83050000D01*
X133746838Y-83285317D01*
X133878009Y-83489163D01*
X133803569Y-83598110D01*
X133752560Y-83850000D01*
X133752560Y-84750000D01*
X133796838Y-84985317D01*
X133935910Y-85201441D01*
X133937548Y-85202560D01*
X133450000Y-85202560D01*
X133385972Y-85214608D01*
X133484759Y-84976702D01*
X133485240Y-84425715D01*
X133274831Y-83916485D01*
X132885564Y-83526539D01*
X132376702Y-83315241D01*
X131825715Y-83314760D01*
X131316485Y-83525169D01*
X130926539Y-83914436D01*
X130715241Y-84423298D01*
X130714760Y-84974285D01*
X130834550Y-85264200D01*
X130725000Y-85373750D01*
X130725000Y-86173000D01*
X130747000Y-86173000D01*
X130747000Y-86427000D01*
X130725000Y-86427000D01*
X130725000Y-86447000D01*
X130475000Y-86447000D01*
X130475000Y-86427000D01*
X129873750Y-86427000D01*
X129715000Y-86585750D01*
X129715000Y-86763266D01*
X129349398Y-86763266D01*
X129251499Y-86697852D01*
X129095641Y-86666850D01*
X129074831Y-86616485D01*
X128685564Y-86226539D01*
X128176702Y-86015241D01*
X127954389Y-86015047D01*
X128219912Y-85723690D01*
X129715000Y-85723690D01*
X129715000Y-86014250D01*
X129873750Y-86173000D01*
X130475000Y-86173000D01*
X130475000Y-85373750D01*
X130316250Y-85215000D01*
X130223691Y-85215000D01*
X129990302Y-85311673D01*
X129811673Y-85490301D01*
X129715000Y-85723690D01*
X128219912Y-85723690D01*
X128271645Y-85666924D01*
X128441476Y-85256890D01*
X128320155Y-85027000D01*
X127127000Y-85027000D01*
X127127000Y-85047000D01*
X126873000Y-85047000D01*
X126873000Y-85027000D01*
X125679845Y-85027000D01*
X125558524Y-85256890D01*
X125728355Y-85666924D01*
X126118642Y-86095183D01*
X126643108Y-86341486D01*
X126872998Y-86220820D01*
X126872998Y-86385000D01*
X126956375Y-86385000D01*
X126726539Y-86614436D01*
X126515241Y-87123298D01*
X126514760Y-87674285D01*
X126725169Y-88183515D01*
X127021924Y-88480788D01*
X126858559Y-88585910D01*
X126713569Y-88798110D01*
X126662560Y-89050000D01*
X126662560Y-90750000D01*
X126706838Y-90985317D01*
X126845910Y-91201441D01*
X127058110Y-91346431D01*
X127310000Y-91397440D01*
X129010000Y-91397440D01*
X129245317Y-91353162D01*
X129461441Y-91214090D01*
X129606431Y-91001890D01*
X129620086Y-90934459D01*
X129649946Y-90979147D01*
X130131715Y-91301054D01*
X130700000Y-91414093D01*
X131268285Y-91301054D01*
X131750054Y-90979147D01*
X132071961Y-90497378D01*
X132185000Y-89929093D01*
X132185000Y-89870907D01*
X132071961Y-89302622D01*
X131750054Y-88820853D01*
X131268285Y-88498946D01*
X130700000Y-88385907D01*
X130131715Y-88498946D01*
X129649946Y-88820853D01*
X129622150Y-88862452D01*
X129613162Y-88814683D01*
X129474090Y-88598559D01*
X129261890Y-88453569D01*
X129010000Y-88402560D01*
X128856086Y-88402560D01*
X128993589Y-88265297D01*
X129083926Y-88283266D01*
X135276734Y-88283266D01*
X135567573Y-88225414D01*
X135814135Y-88060667D01*
X136287401Y-87587401D01*
X136452148Y-87340840D01*
X136459147Y-87305654D01*
X136601441Y-87214090D01*
X136746431Y-87001890D01*
X136797440Y-86750000D01*
X136797440Y-85850000D01*
X136753162Y-85614683D01*
X136718168Y-85560301D01*
X136760000Y-85350000D01*
X136760000Y-82200000D01*
X136702148Y-81909161D01*
X136537401Y-81662599D01*
X136460000Y-81585198D01*
X136460000Y-81572931D01*
X136551441Y-81514090D01*
X136696431Y-81301890D01*
X136747440Y-81050000D01*
X136747440Y-80150000D01*
X136703162Y-79914683D01*
X136564090Y-79698559D01*
X136404060Y-79589215D01*
X136447440Y-79375000D01*
X136447440Y-79322242D01*
X136890000Y-79764802D01*
X136890000Y-79771614D01*
X136803569Y-79898110D01*
X136752560Y-80150000D01*
X136752560Y-81050000D01*
X136796838Y-81285317D01*
X136890000Y-81430095D01*
X136890000Y-82157122D01*
X136947852Y-82447961D01*
X137112599Y-82694523D01*
X140055488Y-85637412D01*
X140302050Y-85802159D01*
X140592889Y-85860011D01*
X148607111Y-85860011D01*
X148897950Y-85802159D01*
X149144512Y-85637412D01*
X151237401Y-83544523D01*
X151402148Y-83297961D01*
X151460000Y-83007122D01*
X151460000Y-79584547D01*
X151483515Y-79574831D01*
X151872263Y-79186760D01*
X151925000Y-79197440D01*
X152675000Y-79197440D01*
X152910317Y-79153162D01*
X153126441Y-79014090D01*
X153220773Y-78876031D01*
X153340839Y-78852148D01*
X153587401Y-78687401D01*
X153837401Y-78437401D01*
X154002148Y-78190840D01*
X154060000Y-77900000D01*
X154060000Y-75800000D01*
X154002148Y-75509161D01*
X153837401Y-75262599D01*
X153257235Y-74682433D01*
X153346431Y-74551890D01*
X153397440Y-74300000D01*
X153397440Y-73500000D01*
X153353162Y-73264683D01*
X153214090Y-73048559D01*
X153102494Y-72972308D01*
X153437401Y-72637401D01*
X153602148Y-72390839D01*
X153660000Y-72100000D01*
X153660000Y-71955105D01*
X153801441Y-71864090D01*
X153946431Y-71651890D01*
X153997440Y-71400000D01*
X153997440Y-70900000D01*
X153953162Y-70664683D01*
X153814090Y-70448559D01*
X153745994Y-70402031D01*
X153888327Y-70259698D01*
X153985000Y-70026309D01*
X153985000Y-69933750D01*
X153826250Y-69775000D01*
X153027000Y-69775000D01*
X153027000Y-69797000D01*
X152773000Y-69797000D01*
X152773000Y-69775000D01*
X151973750Y-69775000D01*
X151815000Y-69933750D01*
X151815000Y-70026309D01*
X151911673Y-70259698D01*
X152041974Y-70390000D01*
X151964802Y-70390000D01*
X151737401Y-70162599D01*
X151490839Y-69997852D01*
X151200000Y-69940000D01*
X150855105Y-69940000D01*
X150764090Y-69798559D01*
X150759339Y-69795313D01*
X150752148Y-69759161D01*
X150587401Y-69512599D01*
X150391299Y-69316497D01*
X150327236Y-69273691D01*
X151815000Y-69273691D01*
X151815000Y-69366250D01*
X151973750Y-69525000D01*
X152773000Y-69525000D01*
X152773000Y-68923750D01*
X153027000Y-68923750D01*
X153027000Y-69525000D01*
X153826250Y-69525000D01*
X153985000Y-69366250D01*
X153985000Y-69273691D01*
X153888327Y-69040302D01*
X153709699Y-68861673D01*
X153476310Y-68765000D01*
X153185750Y-68765000D01*
X153027000Y-68923750D01*
X152773000Y-68923750D01*
X152614250Y-68765000D01*
X152323690Y-68765000D01*
X152090301Y-68861673D01*
X151911673Y-69040302D01*
X151815000Y-69273691D01*
X150327236Y-69273691D01*
X150144737Y-69151750D01*
X149853898Y-69093898D01*
X148304107Y-69093898D01*
X148768371Y-68902068D01*
X149150288Y-68520818D01*
X149529357Y-68900551D01*
X150093330Y-69134733D01*
X150703991Y-69135265D01*
X151268371Y-68902068D01*
X151700551Y-68470643D01*
X151934733Y-67906670D01*
X151935265Y-67296009D01*
X151702068Y-66731629D01*
X151270643Y-66299449D01*
X150706670Y-66065267D01*
X150096009Y-66064735D01*
X149531629Y-66297932D01*
X149149712Y-66679182D01*
X148770643Y-66299449D01*
X148206670Y-66065267D01*
X147596009Y-66064735D01*
X147031629Y-66297932D01*
X146649712Y-66679182D01*
X146270643Y-66299449D01*
X145706670Y-66065267D01*
X145096009Y-66064735D01*
X144531629Y-66297932D01*
X144099449Y-66729357D01*
X143865267Y-67293330D01*
X143864735Y-67903991D01*
X144097932Y-68468371D01*
X144529357Y-68900551D01*
X144994988Y-69093898D01*
X144212455Y-69093898D01*
X144202739Y-69070383D01*
X143813472Y-68680437D01*
X143304610Y-68469139D01*
X142753623Y-68468658D01*
X142244393Y-68679067D01*
X141854447Y-69068334D01*
X141643149Y-69577196D01*
X141642668Y-70128183D01*
X141853077Y-70637413D01*
X142242344Y-71027359D01*
X142751206Y-71238657D01*
X143302193Y-71239138D01*
X143811423Y-71028729D01*
X144201369Y-70639462D01*
X144211984Y-70613898D01*
X145291806Y-70613898D01*
X145215241Y-70798288D01*
X145214760Y-71349275D01*
X145425169Y-71858505D01*
X145490000Y-71923449D01*
X145490000Y-72402069D01*
X145398559Y-72460910D01*
X145253569Y-72673110D01*
X145202560Y-72925000D01*
X145202560Y-73589990D01*
X141515851Y-73589990D01*
X141393701Y-73294364D01*
X141283505Y-73183976D01*
X141590054Y-72979147D01*
X141911961Y-72497378D01*
X142025000Y-71929093D01*
X142025000Y-71870907D01*
X141911961Y-71302622D01*
X141590054Y-70820853D01*
X141108285Y-70498946D01*
X140540000Y-70385907D01*
X139971715Y-70498946D01*
X139489946Y-70820853D01*
X139270000Y-71150026D01*
X139050054Y-70820853D01*
X138568285Y-70498946D01*
X138000000Y-70385907D01*
X137431715Y-70498946D01*
X136949946Y-70820853D01*
X136922150Y-70862452D01*
X136913162Y-70814683D01*
X136774090Y-70598559D01*
X136561890Y-70453569D01*
X136310000Y-70402560D01*
X134610000Y-70402560D01*
X134374683Y-70446838D01*
X134158559Y-70585910D01*
X134013569Y-70798110D01*
X133962560Y-71050000D01*
X133962560Y-72632281D01*
X133860000Y-72611881D01*
X133860000Y-71100000D01*
X133837237Y-70985564D01*
X133802148Y-70809160D01*
X133637401Y-70562599D01*
X133575002Y-70500200D01*
X133584759Y-70476702D01*
X133585240Y-69925715D01*
X133374831Y-69416485D01*
X132985564Y-69026539D01*
X132673492Y-68896956D01*
X132885067Y-68685750D01*
X135715000Y-68685750D01*
X135715000Y-68976310D01*
X135811673Y-69209699D01*
X135990302Y-69388327D01*
X136223691Y-69485000D01*
X136316250Y-69485000D01*
X136475000Y-69326250D01*
X136475000Y-68527000D01*
X135873750Y-68527000D01*
X135715000Y-68685750D01*
X132885067Y-68685750D01*
X133100551Y-68470643D01*
X133334733Y-67906670D01*
X133335265Y-67296009D01*
X133102068Y-66731629D01*
X133006357Y-66635750D01*
X135515000Y-66635750D01*
X135515000Y-66876310D01*
X135611673Y-67109699D01*
X135790302Y-67288327D01*
X136023691Y-67385000D01*
X136054696Y-67385000D01*
X135990302Y-67411673D01*
X135811673Y-67590301D01*
X135715000Y-67823690D01*
X135715000Y-68114250D01*
X135873750Y-68273000D01*
X136475000Y-68273000D01*
X136475000Y-67473750D01*
X136350250Y-67349000D01*
X136473000Y-67226250D01*
X136473000Y-66477000D01*
X135673750Y-66477000D01*
X135515000Y-66635750D01*
X133006357Y-66635750D01*
X132670643Y-66299449D01*
X132106670Y-66065267D01*
X131496009Y-66064735D01*
X130931629Y-66297932D01*
X130549712Y-66679182D01*
X130170643Y-66299449D01*
X129606670Y-66065267D01*
X128996009Y-66064735D01*
X128431629Y-66297932D01*
X127999449Y-66729357D01*
X127995706Y-66738372D01*
X127880159Y-66699446D01*
X126979605Y-67600000D01*
X127880159Y-68500554D01*
X127995214Y-68461793D01*
X127997932Y-68468371D01*
X128429357Y-68900551D01*
X128993330Y-69134733D01*
X129531260Y-69135202D01*
X129251539Y-69414436D01*
X129040241Y-69923298D01*
X129039760Y-70474285D01*
X129250169Y-70983515D01*
X129639436Y-71373461D01*
X129691759Y-71395188D01*
X129722852Y-71551499D01*
X129887599Y-71798061D01*
X130476939Y-72387401D01*
X130723501Y-72552148D01*
X130954067Y-72598011D01*
X130955711Y-72599134D01*
X130898559Y-72635910D01*
X130753569Y-72848110D01*
X130702560Y-73100000D01*
X130702560Y-73600000D01*
X130746838Y-73835317D01*
X130885910Y-74051441D01*
X130978932Y-74115000D01*
X130866579Y-74115000D01*
X130585000Y-73833420D01*
X130585000Y-72900000D01*
X130517633Y-72561325D01*
X130325790Y-72274210D01*
X130325787Y-72274208D01*
X129625790Y-71574210D01*
X129591800Y-71551499D01*
X129338675Y-71382367D01*
X129282484Y-71371190D01*
X129000000Y-71314999D01*
X128999995Y-71315000D01*
X128490854Y-71315000D01*
X128453162Y-71114683D01*
X128314090Y-70898559D01*
X128101890Y-70753569D01*
X127850000Y-70702560D01*
X127356261Y-70702560D01*
X127473461Y-70585564D01*
X127684759Y-70076702D01*
X127685240Y-69525715D01*
X127474831Y-69016485D01*
X127459199Y-69000825D01*
X127614148Y-68936643D01*
X127700554Y-68680159D01*
X126800000Y-67779605D01*
X126785858Y-67793748D01*
X126606253Y-67614143D01*
X126620395Y-67600000D01*
X126606253Y-67585858D01*
X126785858Y-67406253D01*
X126800000Y-67420395D01*
X127700554Y-66519841D01*
X127614148Y-66263357D01*
X127040664Y-66053542D01*
X126430540Y-66079161D01*
X126060000Y-66232644D01*
X126060000Y-64714802D01*
X127989792Y-62785010D01*
X130610208Y-62785010D01*
X131662599Y-63837401D01*
X131909161Y-64002148D01*
X132200000Y-64060000D01*
X134435198Y-64060000D01*
X135362599Y-64987401D01*
X135575271Y-65129504D01*
X135685910Y-65301441D01*
X135825750Y-65396990D01*
X135790302Y-65411673D01*
X135611673Y-65590301D01*
X135515000Y-65823690D01*
X135515000Y-66064250D01*
X135673750Y-66223000D01*
X136473000Y-66223000D01*
X136473000Y-66203000D01*
X136727000Y-66203000D01*
X136727000Y-66223000D01*
X137526250Y-66223000D01*
X137612262Y-66136988D01*
X137685910Y-66251441D01*
X137898110Y-66396431D01*
X138150000Y-66447440D01*
X139050000Y-66447440D01*
X139285317Y-66403162D01*
X139302560Y-66392066D01*
X139302560Y-66900000D01*
X139313928Y-66960418D01*
X139217548Y-66960334D01*
X138708318Y-67170743D01*
X138538111Y-67340653D01*
X138350000Y-67302560D01*
X137850000Y-67302560D01*
X137614683Y-67346838D01*
X137398559Y-67485910D01*
X137352031Y-67554006D01*
X137209698Y-67411673D01*
X137145304Y-67385000D01*
X137176309Y-67385000D01*
X137409698Y-67288327D01*
X137588327Y-67109699D01*
X137685000Y-66876310D01*
X137685000Y-66635750D01*
X137526250Y-66477000D01*
X136727000Y-66477000D01*
X136727000Y-67226250D01*
X136849750Y-67349000D01*
X136725000Y-67473750D01*
X136725000Y-68273000D01*
X136747000Y-68273000D01*
X136747000Y-68527000D01*
X136725000Y-68527000D01*
X136725000Y-69326250D01*
X136883750Y-69485000D01*
X136976309Y-69485000D01*
X137209698Y-69388327D01*
X137350936Y-69247090D01*
X137385910Y-69301441D01*
X137598110Y-69446431D01*
X137850000Y-69497440D01*
X138350000Y-69497440D01*
X138585317Y-69453162D01*
X138618923Y-69431537D01*
X138706269Y-69519035D01*
X139215131Y-69730333D01*
X139766118Y-69730814D01*
X140275348Y-69520405D01*
X140665294Y-69131138D01*
X140876592Y-68622276D01*
X140877073Y-68071289D01*
X140666664Y-67562059D01*
X140652070Y-67547440D01*
X141250000Y-67547440D01*
X141485317Y-67503162D01*
X141701441Y-67364090D01*
X141846431Y-67151890D01*
X141897440Y-66900000D01*
X141897440Y-66804140D01*
X143025787Y-65675792D01*
X143025790Y-65675790D01*
X143217633Y-65388675D01*
X143285000Y-65050000D01*
X143285000Y-64266580D01*
X143766579Y-63785000D01*
X144499995Y-63785000D01*
X144500000Y-63785001D01*
X144782484Y-63728810D01*
X144838675Y-63717633D01*
X145125790Y-63525790D01*
X145125791Y-63525789D01*
X146625787Y-62025792D01*
X146625790Y-62025790D01*
X146817633Y-61738675D01*
X146885000Y-61400000D01*
X146885000Y-58500005D01*
X146885001Y-58500000D01*
X146817633Y-58161326D01*
X146817633Y-58161325D01*
X146625790Y-57874210D01*
X146625787Y-57874208D01*
X145825790Y-57074210D01*
X145622946Y-56938675D01*
X145538675Y-56882367D01*
X145482484Y-56871190D01*
X145200000Y-56814999D01*
X145199995Y-56815000D01*
X143866579Y-56815000D01*
X143285000Y-56233420D01*
X143285000Y-55150003D01*
X143285001Y-55149998D01*
X143217633Y-54811323D01*
X143169977Y-54740000D01*
X143025790Y-54524208D01*
X143025787Y-54524206D01*
X142025791Y-53524209D01*
X141738676Y-53332366D01*
X141682485Y-53321189D01*
X141400001Y-53264998D01*
X141399996Y-53264999D01*
X138100005Y-53264999D01*
X138100000Y-53264998D01*
X137817516Y-53321189D01*
X137761325Y-53332366D01*
X137474210Y-53524209D01*
X137474208Y-53524212D01*
X135874210Y-55124209D01*
X135682367Y-55411324D01*
X135682367Y-55411325D01*
X135614999Y-55749999D01*
X135615000Y-55750004D01*
X135615000Y-58645750D01*
X135260959Y-58291091D01*
X134476541Y-57965372D01*
X133627185Y-57964630D01*
X132842200Y-58288980D01*
X132241091Y-58889041D01*
X131915372Y-59673459D01*
X131914630Y-60522815D01*
X132083788Y-60932208D01*
X131925790Y-60774210D01*
X131837174Y-60714999D01*
X131638675Y-60582367D01*
X131582484Y-60571190D01*
X131300000Y-60514999D01*
X131299995Y-60515000D01*
X127416102Y-60515000D01*
X127077427Y-60582367D01*
X126790312Y-60774210D01*
X126790310Y-60774213D01*
X126433714Y-61130809D01*
X126684628Y-60526541D01*
X126685370Y-59677185D01*
X126361020Y-58892200D01*
X125760959Y-58291091D01*
X124976541Y-57965372D01*
X124127185Y-57964630D01*
X123342200Y-58288980D01*
X122741091Y-58889041D01*
X122710000Y-58963916D01*
X122710000Y-53710000D01*
X129000000Y-53710000D01*
X129271705Y-53655954D01*
X129502046Y-53502046D01*
X129655954Y-53271705D01*
X129710000Y-53000000D01*
X129710000Y-48850000D01*
X135102560Y-48850000D01*
X135102560Y-50550000D01*
X135146838Y-50785317D01*
X135285910Y-51001441D01*
X135498110Y-51146431D01*
X135750000Y-51197440D01*
X137450000Y-51197440D01*
X137685317Y-51153162D01*
X137901441Y-51014090D01*
X138046431Y-50801890D01*
X138060086Y-50734459D01*
X138089946Y-50779147D01*
X138571715Y-51101054D01*
X139140000Y-51214093D01*
X139708285Y-51101054D01*
X140190054Y-50779147D01*
X140410000Y-50449974D01*
X140629946Y-50779147D01*
X141111715Y-51101054D01*
X141680000Y-51214093D01*
X142248285Y-51101054D01*
X142730054Y-50779147D01*
X143051961Y-50297378D01*
X143165000Y-49729093D01*
X143165000Y-49670907D01*
X143051961Y-49102622D01*
X142730054Y-48620853D01*
X142248285Y-48298946D01*
X141680000Y-48185907D01*
X141111715Y-48298946D01*
X140629946Y-48620853D01*
X140410000Y-48950026D01*
X140190054Y-48620853D01*
X139708285Y-48298946D01*
X139140000Y-48185907D01*
X138571715Y-48298946D01*
X138089946Y-48620853D01*
X138062150Y-48662452D01*
X138053162Y-48614683D01*
X137914090Y-48398559D01*
X137701890Y-48253569D01*
X137450000Y-48202560D01*
X135750000Y-48202560D01*
X135514683Y-48246838D01*
X135298559Y-48385910D01*
X135153569Y-48598110D01*
X135102560Y-48850000D01*
X129710000Y-48850000D01*
X129710000Y-46710000D01*
X147290000Y-46710000D01*
X147290000Y-53000000D01*
G36*
X140340000Y-77000000D02*
X140397852Y-77290839D01*
X140562599Y-77537401D01*
X141540000Y-78514802D01*
X141540000Y-79752560D01*
X140800000Y-79752560D01*
X140564683Y-79796838D01*
X140348559Y-79935910D01*
X140203569Y-80148110D01*
X140152560Y-80400000D01*
X140152560Y-82000000D01*
X140196838Y-82235317D01*
X140335910Y-82451441D01*
X140548110Y-82596431D01*
X140800000Y-82647440D01*
X143800000Y-82647440D01*
X144035317Y-82603162D01*
X144251441Y-82464090D01*
X144396431Y-82251890D01*
X144447440Y-82000000D01*
X144447440Y-81485750D01*
X144565000Y-81485750D01*
X144565000Y-82126310D01*
X144661673Y-82359699D01*
X144840302Y-82538327D01*
X145073691Y-82635000D01*
X146414250Y-82635000D01*
X146573000Y-82476250D01*
X146573000Y-81327000D01*
X146827000Y-81327000D01*
X146827000Y-82476250D01*
X146985750Y-82635000D01*
X148326309Y-82635000D01*
X148559698Y-82538327D01*
X148738327Y-82359699D01*
X148835000Y-82126310D01*
X148835000Y-81485750D01*
X148676250Y-81327000D01*
X146827000Y-81327000D01*
X146573000Y-81327000D01*
X144723750Y-81327000D01*
X144565000Y-81485750D01*
X144447440Y-81485750D01*
X144447440Y-80400000D01*
X144423674Y-80273690D01*
X144565000Y-80273690D01*
X144565000Y-80914250D01*
X144723750Y-81073000D01*
X146573000Y-81073000D01*
X146573000Y-79923750D01*
X146414250Y-79765000D01*
X145073691Y-79765000D01*
X144840302Y-79861673D01*
X144661673Y-80040301D01*
X144565000Y-80273690D01*
X144423674Y-80273690D01*
X144403162Y-80164683D01*
X144264090Y-79948559D01*
X144051890Y-79803569D01*
X143800000Y-79752560D01*
X143060000Y-79752560D01*
X143060000Y-78200000D01*
X143024561Y-78021838D01*
X143002148Y-77909160D01*
X142837401Y-77662599D01*
X142824373Y-77649571D01*
X143068285Y-77601054D01*
X143550054Y-77279147D01*
X143770000Y-76949974D01*
X143989946Y-77279147D01*
X144471715Y-77601054D01*
X145040000Y-77714093D01*
X145608285Y-77601054D01*
X146090054Y-77279147D01*
X146117850Y-77237548D01*
X146126838Y-77285317D01*
X146265910Y-77501441D01*
X146478110Y-77646431D01*
X146730000Y-77697440D01*
X148170817Y-77697440D01*
X147828788Y-78038873D01*
X147617490Y-78547735D01*
X147617009Y-79098722D01*
X147827418Y-79607952D01*
X147984193Y-79765000D01*
X146985750Y-79765000D01*
X146827000Y-79923750D01*
X146827000Y-81073000D01*
X148676250Y-81073000D01*
X148835000Y-80914250D01*
X148835000Y-80273690D01*
X148808316Y-80209268D01*
X149276534Y-80209677D01*
X149302117Y-80199107D01*
X149440000Y-80336990D01*
X149440000Y-82485198D01*
X148085198Y-83840000D01*
X141514802Y-83840000D01*
X139910000Y-82235198D01*
X139910000Y-81428386D01*
X139996431Y-81301890D01*
X140047440Y-81050000D01*
X140047440Y-80150000D01*
X140003162Y-79914683D01*
X139910000Y-79769905D01*
X139910000Y-79350000D01*
X139872206Y-79160000D01*
X139852148Y-79059160D01*
X139687401Y-78812599D01*
X139077531Y-78202729D01*
X139146431Y-78101890D01*
X139197440Y-77850000D01*
X139197440Y-77050000D01*
X139153162Y-76814683D01*
X139014090Y-76598559D01*
X138868917Y-76499367D01*
X139001441Y-76414090D01*
X139072563Y-76310000D01*
X140340000Y-76310000D01*
X140340000Y-77000000D01*
X140340000Y-77000000D01*
G37*
X140340000Y-77000000D02*
X140397852Y-77290839D01*
X140562599Y-77537401D01*
X141540000Y-78514802D01*
X141540000Y-79752560D01*
X140800000Y-79752560D01*
X140564683Y-79796838D01*
X140348559Y-79935910D01*
X140203569Y-80148110D01*
X140152560Y-80400000D01*
X140152560Y-82000000D01*
X140196838Y-82235317D01*
X140335910Y-82451441D01*
X140548110Y-82596431D01*
X140800000Y-82647440D01*
X143800000Y-82647440D01*
X144035317Y-82603162D01*
X144251441Y-82464090D01*
X144396431Y-82251890D01*
X144447440Y-82000000D01*
X144447440Y-81485750D01*
X144565000Y-81485750D01*
X144565000Y-82126310D01*
X144661673Y-82359699D01*
X144840302Y-82538327D01*
X145073691Y-82635000D01*
X146414250Y-82635000D01*
X146573000Y-82476250D01*
X146573000Y-81327000D01*
X146827000Y-81327000D01*
X146827000Y-82476250D01*
X146985750Y-82635000D01*
X148326309Y-82635000D01*
X148559698Y-82538327D01*
X148738327Y-82359699D01*
X148835000Y-82126310D01*
X148835000Y-81485750D01*
X148676250Y-81327000D01*
X146827000Y-81327000D01*
X146573000Y-81327000D01*
X144723750Y-81327000D01*
X144565000Y-81485750D01*
X144447440Y-81485750D01*
X144447440Y-80400000D01*
X144423674Y-80273690D01*
X144565000Y-80273690D01*
X144565000Y-80914250D01*
X144723750Y-81073000D01*
X146573000Y-81073000D01*
X146573000Y-79923750D01*
X146414250Y-79765000D01*
X145073691Y-79765000D01*
X144840302Y-79861673D01*
X144661673Y-80040301D01*
X144565000Y-80273690D01*
X144423674Y-80273690D01*
X144403162Y-80164683D01*
X144264090Y-79948559D01*
X144051890Y-79803569D01*
X143800000Y-79752560D01*
X143060000Y-79752560D01*
X143060000Y-78200000D01*
X143024561Y-78021838D01*
X143002148Y-77909160D01*
X142837401Y-77662599D01*
X142824373Y-77649571D01*
X143068285Y-77601054D01*
X143550054Y-77279147D01*
X143770000Y-76949974D01*
X143989946Y-77279147D01*
X144471715Y-77601054D01*
X145040000Y-77714093D01*
X145608285Y-77601054D01*
X146090054Y-77279147D01*
X146117850Y-77237548D01*
X146126838Y-77285317D01*
X146265910Y-77501441D01*
X146478110Y-77646431D01*
X146730000Y-77697440D01*
X148170817Y-77697440D01*
X147828788Y-78038873D01*
X147617490Y-78547735D01*
X147617009Y-79098722D01*
X147827418Y-79607952D01*
X147984193Y-79765000D01*
X146985750Y-79765000D01*
X146827000Y-79923750D01*
X146827000Y-81073000D01*
X148676250Y-81073000D01*
X148835000Y-80914250D01*
X148835000Y-80273690D01*
X148808316Y-80209268D01*
X149276534Y-80209677D01*
X149302117Y-80199107D01*
X149440000Y-80336990D01*
X149440000Y-82485198D01*
X148085198Y-83840000D01*
X141514802Y-83840000D01*
X139910000Y-82235198D01*
X139910000Y-81428386D01*
X139996431Y-81301890D01*
X140047440Y-81050000D01*
X140047440Y-80150000D01*
X140003162Y-79914683D01*
X139910000Y-79769905D01*
X139910000Y-79350000D01*
X139872206Y-79160000D01*
X139852148Y-79059160D01*
X139687401Y-78812599D01*
X139077531Y-78202729D01*
X139146431Y-78101890D01*
X139197440Y-77850000D01*
X139197440Y-77050000D01*
X139153162Y-76814683D01*
X139014090Y-76598559D01*
X138868917Y-76499367D01*
X139001441Y-76414090D01*
X139072563Y-76310000D01*
X140340000Y-76310000D01*
X140340000Y-77000000D01*
M02*
