G04 #@! TF.FileFunction,Copper,L1,Top,Signal*
%FSLAX46Y46*%
G04 Gerber Fmt 4.6, Leading zero omitted, Abs format (unit mm)*
G04 Created by KiCad (PCBNEW 4.0.7) date 12/09/17 17:29:04*
%MOMM*%
%LPD*%
G01*
G04 APERTURE LIST*
%ADD10C,0.100000*%
%ADD11C,0.150000*%
%ADD12C,0.200000*%
%ADD13C,0.250000*%
%ADD14R,1.700000X1.700000*%
%ADD15O,1.700000X1.700000*%
%ADD16R,0.508000X1.143000*%
%ADD17R,0.750000X0.800000*%
%ADD18R,3.000000X1.600000*%
%ADD19R,0.800000X0.750000*%
%ADD20R,0.800000X0.900000*%
%ADD21R,0.900000X0.800000*%
%ADD22R,2.940000X1.000000*%
%ADD23R,0.500000X0.900000*%
%ADD24R,0.900000X0.500000*%
%ADD25R,1.300000X0.700000*%
%ADD26C,1.800000*%
%ADD27C,3.000000*%
%ADD28R,3.500000X3.500000*%
%ADD29C,1.500000*%
%ADD30C,0.500000*%
%ADD31C,0.254000*%
G04 APERTURE END LIST*
D10*
D11*
X126466666Y-129600000D02*
G75*
G03X126466666Y-129600000I-1666666J0D01*
G01*
X122300000Y-129600000D02*
X127300000Y-129600000D01*
X124800000Y-127100000D02*
X124800000Y-132100000D01*
X153666666Y-49200000D02*
G75*
G03X153666666Y-49200000I-1666666J0D01*
G01*
X149500000Y-49200000D02*
X154500000Y-49200000D01*
X152000000Y-46700000D02*
X152000000Y-51700000D01*
X68866666Y-129600000D02*
G75*
G03X68866666Y-129600000I-1666666J0D01*
G01*
X64700000Y-129600000D02*
X69700000Y-129600000D01*
X67200000Y-127100000D02*
X67200000Y-132100000D01*
X95266666Y-49200000D02*
G75*
G03X95266666Y-49200000I-1666666J0D01*
G01*
X91100000Y-49200000D02*
X96100000Y-49200000D01*
X93600000Y-46700000D02*
X93600000Y-51700000D01*
D12*
X85928570Y-102785714D02*
X85928570Y-103642857D01*
X85880951Y-103738095D01*
X85785713Y-103785714D01*
X85738094Y-103785714D01*
X85928570Y-102452381D02*
X85880951Y-102500000D01*
X85928570Y-102547619D01*
X85976189Y-102500000D01*
X85928570Y-102452381D01*
X85928570Y-102547619D01*
X86785713Y-103404762D02*
X86690475Y-103452381D01*
X86499998Y-103452381D01*
X86404760Y-103404762D01*
X86357141Y-103309524D01*
X86357141Y-102928571D01*
X86404760Y-102833333D01*
X86499998Y-102785714D01*
X86690475Y-102785714D01*
X86785713Y-102833333D01*
X86833332Y-102928571D01*
X86833332Y-103023810D01*
X86357141Y-103119048D01*
X87261903Y-103452381D02*
X87261903Y-102785714D01*
X87261903Y-102976190D02*
X87309522Y-102880952D01*
X87357141Y-102833333D01*
X87452379Y-102785714D01*
X87547618Y-102785714D01*
X87880951Y-103452381D02*
X87880951Y-102452381D01*
X87976189Y-103071429D02*
X88261904Y-103452381D01*
X88261904Y-102785714D02*
X87880951Y-103166667D01*
X89119047Y-102785714D02*
X89119047Y-103452381D01*
X88690475Y-102785714D02*
X88690475Y-103309524D01*
X88738094Y-103404762D01*
X88833332Y-103452381D01*
X88976190Y-103452381D01*
X89071428Y-103404762D01*
X89119047Y-103357143D01*
X89738094Y-103452381D02*
X89642856Y-103404762D01*
X89595237Y-103309524D01*
X89595237Y-102452381D01*
X90547619Y-103452381D02*
X90547619Y-102928571D01*
X90500000Y-102833333D01*
X90404762Y-102785714D01*
X90214285Y-102785714D01*
X90119047Y-102833333D01*
X90547619Y-103404762D02*
X90452381Y-103452381D01*
X90214285Y-103452381D01*
X90119047Y-103404762D01*
X90071428Y-103309524D01*
X90071428Y-103214286D01*
X90119047Y-103119048D01*
X90214285Y-103071429D01*
X90452381Y-103071429D01*
X90547619Y-103023810D01*
X90880952Y-102785714D02*
X91261904Y-102785714D01*
X91023809Y-102452381D02*
X91023809Y-103309524D01*
X91071428Y-103404762D01*
X91166666Y-103452381D01*
X91261904Y-103452381D01*
X91738095Y-103452381D02*
X91642857Y-103404762D01*
X91595238Y-103357143D01*
X91547619Y-103261905D01*
X91547619Y-102976190D01*
X91595238Y-102880952D01*
X91642857Y-102833333D01*
X91738095Y-102785714D01*
X91880953Y-102785714D01*
X91976191Y-102833333D01*
X92023810Y-102880952D01*
X92071429Y-102976190D01*
X92071429Y-103261905D01*
X92023810Y-103357143D01*
X91976191Y-103404762D01*
X91880953Y-103452381D01*
X91738095Y-103452381D01*
X92500000Y-103452381D02*
X92500000Y-102785714D01*
X92500000Y-102976190D02*
X92547619Y-102880952D01*
X92595238Y-102833333D01*
X92690476Y-102785714D01*
X92785715Y-102785714D01*
X93785715Y-102785714D02*
X94023810Y-103452381D01*
X94261906Y-102785714D01*
X94833334Y-102452381D02*
X94928573Y-102452381D01*
X95023811Y-102500000D01*
X95071430Y-102547619D01*
X95119049Y-102642857D01*
X95166668Y-102833333D01*
X95166668Y-103071429D01*
X95119049Y-103261905D01*
X95071430Y-103357143D01*
X95023811Y-103404762D01*
X94928573Y-103452381D01*
X94833334Y-103452381D01*
X94738096Y-103404762D01*
X94690477Y-103357143D01*
X94642858Y-103261905D01*
X94595239Y-103071429D01*
X94595239Y-102833333D01*
X94642858Y-102642857D01*
X94690477Y-102547619D01*
X94738096Y-102500000D01*
X94833334Y-102452381D01*
X96119049Y-103452381D02*
X95547620Y-103452381D01*
X95833334Y-103452381D02*
X95833334Y-102452381D01*
X95738096Y-102595238D01*
X95642858Y-102690476D01*
X95547620Y-102738095D01*
X85875582Y-101952381D02*
X85875582Y-100952381D01*
X86304154Y-101952381D02*
X86304154Y-101428571D01*
X86256535Y-101333333D01*
X86161297Y-101285714D01*
X86018439Y-101285714D01*
X85923201Y-101333333D01*
X85875582Y-101380952D01*
X87208916Y-101952381D02*
X87208916Y-101428571D01*
X87161297Y-101333333D01*
X87066059Y-101285714D01*
X86875582Y-101285714D01*
X86780344Y-101333333D01*
X87208916Y-101904762D02*
X87113678Y-101952381D01*
X86875582Y-101952381D01*
X86780344Y-101904762D01*
X86732725Y-101809524D01*
X86732725Y-101714286D01*
X86780344Y-101619048D01*
X86875582Y-101571429D01*
X87113678Y-101571429D01*
X87208916Y-101523810D01*
X87685106Y-101952381D02*
X87685106Y-101285714D01*
X87685106Y-101476190D02*
X87732725Y-101380952D01*
X87780344Y-101333333D01*
X87875582Y-101285714D01*
X87970821Y-101285714D01*
X88304154Y-101952381D02*
X88304154Y-101285714D01*
X88304154Y-101380952D02*
X88351773Y-101333333D01*
X88447011Y-101285714D01*
X88589869Y-101285714D01*
X88685107Y-101333333D01*
X88732726Y-101428571D01*
X88732726Y-101952381D01*
X88732726Y-101428571D02*
X88780345Y-101333333D01*
X88875583Y-101285714D01*
X89018440Y-101285714D01*
X89113678Y-101333333D01*
X89161297Y-101428571D01*
X89161297Y-101952381D01*
X89780344Y-101952381D02*
X89685106Y-101904762D01*
X89637487Y-101857143D01*
X89589868Y-101761905D01*
X89589868Y-101476190D01*
X89637487Y-101380952D01*
X89685106Y-101333333D01*
X89780344Y-101285714D01*
X89923202Y-101285714D01*
X90018440Y-101333333D01*
X90066059Y-101380952D01*
X90113678Y-101476190D01*
X90113678Y-101761905D01*
X90066059Y-101857143D01*
X90018440Y-101904762D01*
X89923202Y-101952381D01*
X89780344Y-101952381D01*
X90542249Y-101285714D02*
X90542249Y-101952381D01*
X90542249Y-101380952D02*
X90589868Y-101333333D01*
X90685106Y-101285714D01*
X90827964Y-101285714D01*
X90923202Y-101333333D01*
X90970821Y-101428571D01*
X90970821Y-101952381D01*
X91447011Y-101952381D02*
X91447011Y-101285714D01*
X91447011Y-100952381D02*
X91399392Y-101000000D01*
X91447011Y-101047619D01*
X91494630Y-101000000D01*
X91447011Y-100952381D01*
X91447011Y-101047619D01*
X92351773Y-101904762D02*
X92256535Y-101952381D01*
X92066058Y-101952381D01*
X91970820Y-101904762D01*
X91923201Y-101857143D01*
X91875582Y-101761905D01*
X91875582Y-101476190D01*
X91923201Y-101380952D01*
X91970820Y-101333333D01*
X92066058Y-101285714D01*
X92256535Y-101285714D01*
X92351773Y-101333333D01*
X86499392Y-100565229D02*
X86166058Y-100089038D01*
X85927963Y-100565229D02*
X85927963Y-99565229D01*
X86308916Y-99565229D01*
X86404154Y-99612848D01*
X86451773Y-99660467D01*
X86499392Y-99755705D01*
X86499392Y-99898562D01*
X86451773Y-99993800D01*
X86404154Y-100041419D01*
X86308916Y-100089038D01*
X85927963Y-100089038D01*
X86880344Y-100279515D02*
X87356535Y-100279515D01*
X86785106Y-100565229D02*
X87118439Y-99565229D01*
X87451773Y-100565229D01*
X87785106Y-100565229D02*
X87785106Y-99565229D01*
X88356535Y-100565229D01*
X88356535Y-99565229D01*
X88832725Y-100565229D02*
X88832725Y-99565229D01*
X89070820Y-99565229D01*
X89213678Y-99612848D01*
X89308916Y-99708086D01*
X89356535Y-99803324D01*
X89404154Y-99993800D01*
X89404154Y-100136658D01*
X89356535Y-100327134D01*
X89308916Y-100422372D01*
X89213678Y-100517610D01*
X89070820Y-100565229D01*
X88832725Y-100565229D01*
X89785106Y-100279515D02*
X90261297Y-100279515D01*
X89689868Y-100565229D02*
X90023201Y-99565229D01*
X90356535Y-100565229D01*
X91213678Y-99612848D02*
X91118440Y-99565229D01*
X90975583Y-99565229D01*
X90832725Y-99612848D01*
X90737487Y-99708086D01*
X90689868Y-99803324D01*
X90642249Y-99993800D01*
X90642249Y-100136658D01*
X90689868Y-100327134D01*
X90737487Y-100422372D01*
X90832725Y-100517610D01*
X90975583Y-100565229D01*
X91070821Y-100565229D01*
X91213678Y-100517610D01*
X91261297Y-100469991D01*
X91261297Y-100136658D01*
X91070821Y-100136658D01*
X91880344Y-99565229D02*
X92070821Y-99565229D01*
X92166059Y-99612848D01*
X92261297Y-99708086D01*
X92308916Y-99898562D01*
X92308916Y-100231896D01*
X92261297Y-100422372D01*
X92166059Y-100517610D01*
X92070821Y-100565229D01*
X91880344Y-100565229D01*
X91785106Y-100517610D01*
X91689868Y-100422372D01*
X91642249Y-100231896D01*
X91642249Y-99898562D01*
X91689868Y-99708086D01*
X91785106Y-99612848D01*
X91880344Y-99565229D01*
X92737487Y-100565229D02*
X92737487Y-99565229D01*
X92975582Y-99565229D01*
X93118440Y-99612848D01*
X93213678Y-99708086D01*
X93261297Y-99803324D01*
X93308916Y-99993800D01*
X93308916Y-100136658D01*
X93261297Y-100327134D01*
X93213678Y-100422372D01*
X93118440Y-100517610D01*
X92975582Y-100565229D01*
X92737487Y-100565229D01*
X94308916Y-100565229D02*
X93975582Y-100089038D01*
X93737487Y-100565229D02*
X93737487Y-99565229D01*
X94118440Y-99565229D01*
X94213678Y-99612848D01*
X94261297Y-99660467D01*
X94308916Y-99755705D01*
X94308916Y-99898562D01*
X94261297Y-99993800D01*
X94213678Y-100041419D01*
X94118440Y-100089038D01*
X93737487Y-100089038D01*
X94927963Y-99565229D02*
X95118440Y-99565229D01*
X95213678Y-99612848D01*
X95308916Y-99708086D01*
X95356535Y-99898562D01*
X95356535Y-100231896D01*
X95308916Y-100422372D01*
X95213678Y-100517610D01*
X95118440Y-100565229D01*
X94927963Y-100565229D01*
X94832725Y-100517610D01*
X94737487Y-100422372D01*
X94689868Y-100231896D01*
X94689868Y-99898562D01*
X94737487Y-99708086D01*
X94832725Y-99612848D01*
X94927963Y-99565229D01*
X95785106Y-100565229D02*
X95785106Y-99565229D01*
X96356535Y-100565229D01*
X96356535Y-99565229D01*
D13*
X142859524Y-105402381D02*
X142526190Y-104926190D01*
X142288095Y-105402381D02*
X142288095Y-104402381D01*
X142669048Y-104402381D01*
X142764286Y-104450000D01*
X142811905Y-104497619D01*
X142859524Y-104592857D01*
X142859524Y-104735714D01*
X142811905Y-104830952D01*
X142764286Y-104878571D01*
X142669048Y-104926190D01*
X142288095Y-104926190D01*
X143240476Y-105116667D02*
X143716667Y-105116667D01*
X143145238Y-105402381D02*
X143478571Y-104402381D01*
X143811905Y-105402381D01*
X144145238Y-105402381D02*
X144145238Y-104402381D01*
X144716667Y-105402381D01*
X144716667Y-104402381D01*
X145192857Y-105402381D02*
X145192857Y-104402381D01*
X145430952Y-104402381D01*
X145573810Y-104450000D01*
X145669048Y-104545238D01*
X145716667Y-104640476D01*
X145764286Y-104830952D01*
X145764286Y-104973810D01*
X145716667Y-105164286D01*
X145669048Y-105259524D01*
X145573810Y-105354762D01*
X145430952Y-105402381D01*
X145192857Y-105402381D01*
X146145238Y-105116667D02*
X146621429Y-105116667D01*
X146050000Y-105402381D02*
X146383333Y-104402381D01*
X146716667Y-105402381D01*
X147573810Y-104450000D02*
X147478572Y-104402381D01*
X147335715Y-104402381D01*
X147192857Y-104450000D01*
X147097619Y-104545238D01*
X147050000Y-104640476D01*
X147002381Y-104830952D01*
X147002381Y-104973810D01*
X147050000Y-105164286D01*
X147097619Y-105259524D01*
X147192857Y-105354762D01*
X147335715Y-105402381D01*
X147430953Y-105402381D01*
X147573810Y-105354762D01*
X147621429Y-105307143D01*
X147621429Y-104973810D01*
X147430953Y-104973810D01*
X148240476Y-104402381D02*
X148430953Y-104402381D01*
X148526191Y-104450000D01*
X148621429Y-104545238D01*
X148669048Y-104735714D01*
X148669048Y-105069048D01*
X148621429Y-105259524D01*
X148526191Y-105354762D01*
X148430953Y-105402381D01*
X148240476Y-105402381D01*
X148145238Y-105354762D01*
X148050000Y-105259524D01*
X148002381Y-105069048D01*
X148002381Y-104735714D01*
X148050000Y-104545238D01*
X148145238Y-104450000D01*
X148240476Y-104402381D01*
X149097619Y-105402381D02*
X149097619Y-104402381D01*
X149335714Y-104402381D01*
X149478572Y-104450000D01*
X149573810Y-104545238D01*
X149621429Y-104640476D01*
X149669048Y-104830952D01*
X149669048Y-104973810D01*
X149621429Y-105164286D01*
X149573810Y-105259524D01*
X149478572Y-105354762D01*
X149335714Y-105402381D01*
X149097619Y-105402381D01*
X150669048Y-105402381D02*
X150335714Y-104926190D01*
X150097619Y-105402381D02*
X150097619Y-104402381D01*
X150478572Y-104402381D01*
X150573810Y-104450000D01*
X150621429Y-104497619D01*
X150669048Y-104592857D01*
X150669048Y-104735714D01*
X150621429Y-104830952D01*
X150573810Y-104878571D01*
X150478572Y-104926190D01*
X150097619Y-104926190D01*
X151288095Y-104402381D02*
X151478572Y-104402381D01*
X151573810Y-104450000D01*
X151669048Y-104545238D01*
X151716667Y-104735714D01*
X151716667Y-105069048D01*
X151669048Y-105259524D01*
X151573810Y-105354762D01*
X151478572Y-105402381D01*
X151288095Y-105402381D01*
X151192857Y-105354762D01*
X151097619Y-105259524D01*
X151050000Y-105069048D01*
X151050000Y-104735714D01*
X151097619Y-104545238D01*
X151192857Y-104450000D01*
X151288095Y-104402381D01*
X152145238Y-105402381D02*
X152145238Y-104402381D01*
X152716667Y-105402381D01*
X152716667Y-104402381D01*
X142288095Y-107152381D02*
X142288095Y-106152381D01*
X142716667Y-107152381D02*
X142716667Y-106628571D01*
X142669048Y-106533333D01*
X142573810Y-106485714D01*
X142430952Y-106485714D01*
X142335714Y-106533333D01*
X142288095Y-106580952D01*
X143621429Y-107152381D02*
X143621429Y-106628571D01*
X143573810Y-106533333D01*
X143478572Y-106485714D01*
X143288095Y-106485714D01*
X143192857Y-106533333D01*
X143621429Y-107104762D02*
X143526191Y-107152381D01*
X143288095Y-107152381D01*
X143192857Y-107104762D01*
X143145238Y-107009524D01*
X143145238Y-106914286D01*
X143192857Y-106819048D01*
X143288095Y-106771429D01*
X143526191Y-106771429D01*
X143621429Y-106723810D01*
X144097619Y-107152381D02*
X144097619Y-106485714D01*
X144097619Y-106676190D02*
X144145238Y-106580952D01*
X144192857Y-106533333D01*
X144288095Y-106485714D01*
X144383334Y-106485714D01*
X144716667Y-107152381D02*
X144716667Y-106485714D01*
X144716667Y-106580952D02*
X144764286Y-106533333D01*
X144859524Y-106485714D01*
X145002382Y-106485714D01*
X145097620Y-106533333D01*
X145145239Y-106628571D01*
X145145239Y-107152381D01*
X145145239Y-106628571D02*
X145192858Y-106533333D01*
X145288096Y-106485714D01*
X145430953Y-106485714D01*
X145526191Y-106533333D01*
X145573810Y-106628571D01*
X145573810Y-107152381D01*
X146192857Y-107152381D02*
X146097619Y-107104762D01*
X146050000Y-107057143D01*
X146002381Y-106961905D01*
X146002381Y-106676190D01*
X146050000Y-106580952D01*
X146097619Y-106533333D01*
X146192857Y-106485714D01*
X146335715Y-106485714D01*
X146430953Y-106533333D01*
X146478572Y-106580952D01*
X146526191Y-106676190D01*
X146526191Y-106961905D01*
X146478572Y-107057143D01*
X146430953Y-107104762D01*
X146335715Y-107152381D01*
X146192857Y-107152381D01*
X146954762Y-106485714D02*
X146954762Y-107152381D01*
X146954762Y-106580952D02*
X147002381Y-106533333D01*
X147097619Y-106485714D01*
X147240477Y-106485714D01*
X147335715Y-106533333D01*
X147383334Y-106628571D01*
X147383334Y-107152381D01*
X147859524Y-107152381D02*
X147859524Y-106485714D01*
X147859524Y-106152381D02*
X147811905Y-106200000D01*
X147859524Y-106247619D01*
X147907143Y-106200000D01*
X147859524Y-106152381D01*
X147859524Y-106247619D01*
X148764286Y-107104762D02*
X148669048Y-107152381D01*
X148478571Y-107152381D01*
X148383333Y-107104762D01*
X148335714Y-107057143D01*
X148288095Y-106961905D01*
X148288095Y-106676190D01*
X148335714Y-106580952D01*
X148383333Y-106533333D01*
X148478571Y-106485714D01*
X148669048Y-106485714D01*
X148764286Y-106533333D01*
X142288095Y-108235714D02*
X142288095Y-109092857D01*
X142240476Y-109188095D01*
X142145238Y-109235714D01*
X142097619Y-109235714D01*
X142288095Y-107902381D02*
X142240476Y-107950000D01*
X142288095Y-107997619D01*
X142335714Y-107950000D01*
X142288095Y-107902381D01*
X142288095Y-107997619D01*
X143145238Y-108854762D02*
X143050000Y-108902381D01*
X142859523Y-108902381D01*
X142764285Y-108854762D01*
X142716666Y-108759524D01*
X142716666Y-108378571D01*
X142764285Y-108283333D01*
X142859523Y-108235714D01*
X143050000Y-108235714D01*
X143145238Y-108283333D01*
X143192857Y-108378571D01*
X143192857Y-108473810D01*
X142716666Y-108569048D01*
X143621428Y-108902381D02*
X143621428Y-108235714D01*
X143621428Y-108426190D02*
X143669047Y-108330952D01*
X143716666Y-108283333D01*
X143811904Y-108235714D01*
X143907143Y-108235714D01*
X144240476Y-108902381D02*
X144240476Y-107902381D01*
X144335714Y-108521429D02*
X144621429Y-108902381D01*
X144621429Y-108235714D02*
X144240476Y-108616667D01*
X145478572Y-108235714D02*
X145478572Y-108902381D01*
X145050000Y-108235714D02*
X145050000Y-108759524D01*
X145097619Y-108854762D01*
X145192857Y-108902381D01*
X145335715Y-108902381D01*
X145430953Y-108854762D01*
X145478572Y-108807143D01*
X146097619Y-108902381D02*
X146002381Y-108854762D01*
X145954762Y-108759524D01*
X145954762Y-107902381D01*
X146907144Y-108902381D02*
X146907144Y-108378571D01*
X146859525Y-108283333D01*
X146764287Y-108235714D01*
X146573810Y-108235714D01*
X146478572Y-108283333D01*
X146907144Y-108854762D02*
X146811906Y-108902381D01*
X146573810Y-108902381D01*
X146478572Y-108854762D01*
X146430953Y-108759524D01*
X146430953Y-108664286D01*
X146478572Y-108569048D01*
X146573810Y-108521429D01*
X146811906Y-108521429D01*
X146907144Y-108473810D01*
X147240477Y-108235714D02*
X147621429Y-108235714D01*
X147383334Y-107902381D02*
X147383334Y-108759524D01*
X147430953Y-108854762D01*
X147526191Y-108902381D01*
X147621429Y-108902381D01*
X148097620Y-108902381D02*
X148002382Y-108854762D01*
X147954763Y-108807143D01*
X147907144Y-108711905D01*
X147907144Y-108426190D01*
X147954763Y-108330952D01*
X148002382Y-108283333D01*
X148097620Y-108235714D01*
X148240478Y-108235714D01*
X148335716Y-108283333D01*
X148383335Y-108330952D01*
X148430954Y-108426190D01*
X148430954Y-108711905D01*
X148383335Y-108807143D01*
X148335716Y-108854762D01*
X148240478Y-108902381D01*
X148097620Y-108902381D01*
X148859525Y-108902381D02*
X148859525Y-108235714D01*
X148859525Y-108426190D02*
X148907144Y-108330952D01*
X148954763Y-108283333D01*
X149050001Y-108235714D01*
X149145240Y-108235714D01*
X150145240Y-108235714D02*
X150383335Y-108902381D01*
X150621431Y-108235714D01*
X151192859Y-107902381D02*
X151288098Y-107902381D01*
X151383336Y-107950000D01*
X151430955Y-107997619D01*
X151478574Y-108092857D01*
X151526193Y-108283333D01*
X151526193Y-108521429D01*
X151478574Y-108711905D01*
X151430955Y-108807143D01*
X151383336Y-108854762D01*
X151288098Y-108902381D01*
X151192859Y-108902381D01*
X151097621Y-108854762D01*
X151050002Y-108807143D01*
X151002383Y-108711905D01*
X150954764Y-108521429D01*
X150954764Y-108283333D01*
X151002383Y-108092857D01*
X151050002Y-107997619D01*
X151097621Y-107950000D01*
X151192859Y-107902381D01*
X152478574Y-108902381D02*
X151907145Y-108902381D01*
X152192859Y-108902381D02*
X152192859Y-107902381D01*
X152097621Y-108045238D01*
X152002383Y-108140476D01*
X151907145Y-108188095D01*
D11*
X122000000Y-110000000D02*
X155000000Y-110000000D01*
X64000000Y-110000000D02*
X97000000Y-110000000D01*
X148000000Y-53000000D02*
X155000000Y-53000000D01*
X155000000Y-53000000D02*
X155000000Y-126000000D01*
X129000000Y-46000000D02*
X148000000Y-46000000D01*
X129000000Y-53000000D02*
X129000000Y-46000000D01*
X148000000Y-46000000D02*
X148000000Y-53000000D01*
X122000000Y-126000000D02*
X122000000Y-53000000D01*
X122000000Y-53000000D02*
X129000000Y-53000000D01*
X148000000Y-126000000D02*
X148000000Y-133000000D01*
X155000000Y-126000000D02*
X148000000Y-126000000D01*
X148000000Y-133000000D02*
X129000000Y-133000000D01*
X129000000Y-133000000D02*
X129000000Y-126000000D01*
X129000000Y-126000000D02*
X122000000Y-126000000D01*
X71000000Y-53000000D02*
X71000000Y-46000000D01*
X64000000Y-53000000D02*
X71000000Y-53000000D01*
X64000000Y-126000000D02*
X64000000Y-53000000D01*
X71000000Y-126000000D02*
X64000000Y-126000000D01*
X71000000Y-133000000D02*
X71000000Y-126000000D01*
X90000000Y-133000000D02*
X71000000Y-133000000D01*
X90000000Y-126000000D02*
X90000000Y-133000000D01*
X97000000Y-126000000D02*
X90000000Y-126000000D01*
X97000000Y-53000000D02*
X97000000Y-126000000D01*
X90000000Y-53000000D02*
X97000000Y-53000000D01*
X90000000Y-46000000D02*
X90000000Y-53000000D01*
X71000000Y-46000000D02*
X90000000Y-46000000D01*
D14*
X127000000Y-72200000D03*
D15*
X127000000Y-74740000D03*
X127000000Y-77280000D03*
X127000000Y-79820000D03*
X127000000Y-82360000D03*
X127000000Y-84900000D03*
X127000000Y-87440000D03*
X127000000Y-89980000D03*
D16*
X70980000Y-68400000D03*
X72250000Y-68400000D03*
X73520000Y-68400000D03*
X74790000Y-68400000D03*
X76060000Y-68400000D03*
X77330000Y-68400000D03*
X78600000Y-68400000D03*
X78600000Y-62050000D03*
X77330000Y-62050000D03*
X74790000Y-62050000D03*
X73520000Y-62050000D03*
X72250000Y-62050000D03*
X70980000Y-62050000D03*
X76060000Y-62050000D03*
D17*
X146000000Y-70000000D03*
X146000000Y-71500000D03*
X151600000Y-74950000D03*
X151600000Y-73450000D03*
X144000000Y-85650000D03*
X144000000Y-87150000D03*
D18*
X137800000Y-72800000D03*
X133400000Y-72800000D03*
D19*
X135550000Y-76600000D03*
X134050000Y-76600000D03*
D17*
X68400000Y-66100000D03*
X68400000Y-64600000D03*
D20*
X137308592Y-82727628D03*
X135408592Y-82727628D03*
X136358592Y-84727628D03*
X135408592Y-88727628D03*
X137308592Y-88727628D03*
X136358592Y-86727628D03*
D21*
X91000000Y-59650000D03*
X91000000Y-61550000D03*
X93000000Y-60600000D03*
D14*
X138800000Y-58660000D03*
D15*
X138800000Y-61200000D03*
D14*
X142400000Y-71460000D03*
D15*
X142400000Y-74000000D03*
X142400000Y-76540000D03*
D14*
X150200000Y-87000000D03*
D15*
X150200000Y-84460000D03*
X150200000Y-81920000D03*
D14*
X72860000Y-75400000D03*
D15*
X75400000Y-75400000D03*
D14*
X137358592Y-79527628D03*
D15*
X134818592Y-79527628D03*
D14*
X140958592Y-87067628D03*
D15*
X140958592Y-84527628D03*
D14*
X137298592Y-91927628D03*
D15*
X134758592Y-91927628D03*
D14*
X69000000Y-72200000D03*
D15*
X69000000Y-74740000D03*
X69000000Y-77280000D03*
X69000000Y-79820000D03*
X69000000Y-82360000D03*
X69000000Y-84900000D03*
X69000000Y-87440000D03*
X69000000Y-89980000D03*
D14*
X74400000Y-53740000D03*
D15*
X74400000Y-51200000D03*
X74400000Y-48660000D03*
D22*
X92580000Y-64520000D03*
X92580000Y-67060000D03*
X92580000Y-69600000D03*
X92580000Y-72140000D03*
X92580000Y-74680000D03*
X83020000Y-74680000D03*
X83020000Y-72140000D03*
X83020000Y-69600000D03*
X83020000Y-67060000D03*
X83020000Y-64520000D03*
D21*
X146000000Y-83950000D03*
X146000000Y-82050000D03*
X144000000Y-83000000D03*
X147800000Y-73850000D03*
X147800000Y-75750000D03*
X149800000Y-74800000D03*
X91000000Y-55850000D03*
X91000000Y-57750000D03*
X93000000Y-56800000D03*
X136600000Y-64450000D03*
X136600000Y-66350000D03*
X138600000Y-65400000D03*
D23*
X137950000Y-68600000D03*
X136450000Y-68600000D03*
X149900000Y-71600000D03*
X148400000Y-71600000D03*
X151350000Y-78600000D03*
X149850000Y-78600000D03*
D24*
X142400000Y-79650000D03*
X142400000Y-81150000D03*
X151600000Y-71550000D03*
X151600000Y-70050000D03*
D23*
X74950000Y-72800000D03*
X73450000Y-72800000D03*
X74950000Y-71000000D03*
X73450000Y-71000000D03*
D24*
X133200000Y-88700000D03*
X133200000Y-87200000D03*
X130100000Y-71550000D03*
X130100000Y-73050000D03*
D25*
X140600000Y-66550000D03*
X140600000Y-64650000D03*
D23*
X78450000Y-71000000D03*
X79950000Y-71000000D03*
D26*
X145400000Y-67600000D03*
X147900000Y-67600000D03*
X150400000Y-67600000D03*
D27*
X143150000Y-60100000D03*
X152650000Y-60100000D03*
D26*
X126800000Y-67600000D03*
X129300000Y-67600000D03*
X131800000Y-67600000D03*
D27*
X124550000Y-60100000D03*
X134050000Y-60100000D03*
X92300000Y-79750000D03*
X85950000Y-79750000D03*
X79600000Y-91200000D03*
X79600000Y-79750000D03*
X92300000Y-91200000D03*
X85950000Y-91200000D03*
X68650000Y-107700000D03*
X75000000Y-107700000D03*
X81350000Y-96250000D03*
X81350000Y-107700000D03*
X68650000Y-96250000D03*
X75000000Y-96250000D03*
D25*
X95000000Y-60050000D03*
X95000000Y-61950000D03*
X95000000Y-55850000D03*
X95000000Y-57750000D03*
D28*
X85400000Y-58100000D03*
X85400000Y-52100000D03*
X80700000Y-55100000D03*
D29*
X147800000Y-69800000D03*
X146000000Y-73800000D03*
X147800000Y-84400000D03*
X148200000Y-78200000D03*
X147800000Y-87000000D03*
X144000000Y-89000000D03*
X130000000Y-79800000D03*
X138400000Y-76600000D03*
X146000000Y-78400000D03*
X147200000Y-80800000D03*
X132000000Y-79600000D03*
X127000000Y-92800000D03*
X130500000Y-83500000D03*
X139800000Y-79400000D03*
X140400000Y-92000000D03*
X91750000Y-54250000D03*
X76500000Y-58500000D03*
X69750000Y-63500000D03*
X132000000Y-92000000D03*
X138750000Y-55500000D03*
X140800000Y-55400000D03*
X88500000Y-94500000D03*
X87250000Y-96250000D03*
X76750000Y-72750000D03*
X70250000Y-92750000D03*
X93500000Y-76500000D03*
X80579504Y-61329504D03*
X80250000Y-68250000D03*
X88475000Y-61250000D03*
X72600000Y-87600000D03*
X72000000Y-80250000D03*
X71500000Y-83500000D03*
X71750000Y-85750000D03*
X72500000Y-78250000D03*
X144800000Y-54800000D03*
X129375000Y-85500000D03*
X128500000Y-65000000D03*
X128975000Y-74750000D03*
X136400000Y-62600000D03*
X139800000Y-68600000D03*
X130200000Y-69800000D03*
D13*
X92039868Y-107862848D02*
X92039868Y-109062848D01*
X94839868Y-105062848D02*
X92039868Y-107862848D01*
X96039868Y-105062848D02*
X94839868Y-105062848D01*
X96039868Y-106462848D02*
X96039868Y-105062848D01*
X95239868Y-107262848D02*
X96039868Y-106462848D01*
X96039868Y-108062848D02*
X95239868Y-107262848D01*
X96039868Y-109062848D02*
X96039868Y-108062848D01*
X95039868Y-109062848D02*
X96039868Y-109062848D01*
X94239868Y-108262848D02*
X95039868Y-109062848D01*
X93439868Y-109062848D02*
X94239868Y-108262848D01*
X92039868Y-109062848D02*
X93439868Y-109062848D01*
X92039868Y-107262848D02*
X94239868Y-105062848D01*
X92039868Y-106662848D02*
X93639868Y-105062848D01*
X92039868Y-106062848D02*
X93039868Y-105062848D01*
X92039868Y-105462848D02*
X92439868Y-105062848D01*
X96439868Y-104662848D02*
X91639868Y-104662848D01*
X96439868Y-109462848D02*
X96439868Y-104662848D01*
X91639868Y-109462848D02*
X96439868Y-109462848D01*
X91639868Y-104662848D02*
X91639868Y-109462848D01*
X136650000Y-107300000D02*
X136650000Y-108700000D01*
X139250000Y-104700000D02*
X136650000Y-107300000D01*
X140650000Y-104700000D02*
X139250000Y-104700000D01*
X140650000Y-105900000D02*
X140650000Y-104700000D01*
X139850000Y-106700000D02*
X140650000Y-105900000D01*
X140650000Y-107500000D02*
X139850000Y-106700000D01*
X140650000Y-108700000D02*
X140650000Y-107500000D01*
X139450000Y-108700000D02*
X140650000Y-108700000D01*
X138650000Y-107900000D02*
X139450000Y-108700000D01*
X137850000Y-108700000D02*
X138650000Y-107900000D01*
X136650000Y-108700000D02*
X137850000Y-108700000D01*
X136650000Y-106700000D02*
X138650000Y-104700000D01*
X136650000Y-106100000D02*
X138050000Y-104700000D01*
X136650000Y-105500000D02*
X137450000Y-104700000D01*
X136650000Y-104900000D02*
X136850000Y-104700000D01*
X136250000Y-104300000D02*
X136250000Y-109100000D01*
X141050000Y-104300000D02*
X136250000Y-104300000D01*
X141050000Y-109100000D02*
X141050000Y-104300000D01*
X136250000Y-109100000D02*
X141050000Y-109100000D01*
X146000000Y-70000000D02*
X147600000Y-70000000D01*
X147600000Y-70000000D02*
X147800000Y-69800000D01*
X146000000Y-73800000D02*
X146000000Y-72500000D01*
X146000000Y-72500000D02*
X146000000Y-71500000D01*
X144349999Y-73150001D02*
X145000000Y-72500000D01*
X145000000Y-72500000D02*
X146000000Y-72500000D01*
X142400000Y-74000000D02*
X143249999Y-73150001D01*
X143249999Y-73150001D02*
X144349999Y-73150001D01*
X147800000Y-73850000D02*
X146050000Y-73850000D01*
X146050000Y-73850000D02*
X146000000Y-73800000D01*
X146000000Y-71500000D02*
X147100000Y-71500000D01*
X147200000Y-71600000D02*
X148400000Y-71600000D01*
X147100000Y-71500000D02*
X147200000Y-71600000D01*
X147800000Y-83339340D02*
X148250000Y-82889340D01*
X148250000Y-82889340D02*
X148600000Y-82539340D01*
X150200000Y-84460000D02*
X149350001Y-83610001D01*
X149350001Y-83610001D02*
X148970661Y-83610001D01*
X148970661Y-83610001D02*
X148250000Y-82889340D01*
X147800000Y-84400000D02*
X147800000Y-83339340D01*
X148600000Y-82539340D02*
X148600000Y-80600000D01*
X148600000Y-80600000D02*
X149850000Y-79350000D01*
X149850000Y-79350000D02*
X149850000Y-78600000D01*
X151600000Y-74950000D02*
X151600000Y-75800000D01*
X149850000Y-77550000D02*
X149850000Y-78600000D01*
X151600000Y-75800000D02*
X149850000Y-77550000D01*
X147800000Y-84400000D02*
X147200000Y-84400000D01*
X147200000Y-84400000D02*
X146750000Y-83950000D01*
X146750000Y-83950000D02*
X146000000Y-83950000D01*
X145210000Y-76540000D02*
X146950000Y-74800000D01*
X146950000Y-74800000D02*
X149800000Y-74800000D01*
X142400000Y-76540000D02*
X145210000Y-76540000D01*
X149800000Y-74800000D02*
X149800000Y-76600000D01*
X149800000Y-76600000D02*
X148200000Y-78200000D01*
X151600000Y-71550000D02*
X151600000Y-73450000D01*
X149800000Y-74800000D02*
X149800000Y-74000000D01*
X149800000Y-74000000D02*
X150350000Y-73450000D01*
X150350000Y-73450000D02*
X151600000Y-73450000D01*
X149900000Y-71600000D02*
X151550000Y-71600000D01*
X151550000Y-71600000D02*
X151600000Y-71550000D01*
X152000000Y-80400000D02*
X152000000Y-87000000D01*
X152000000Y-87000000D02*
X152000000Y-88800000D01*
X150200000Y-87000000D02*
X152000000Y-87000000D01*
X151350000Y-78600000D02*
X151350000Y-79750000D01*
X151350000Y-79750000D02*
X152000000Y-80400000D01*
X152000000Y-88800000D02*
X151000000Y-89800000D01*
X151000000Y-89800000D02*
X149000000Y-89800000D01*
X149000000Y-89800000D02*
X147800000Y-88600000D01*
X147800000Y-88600000D02*
X147800000Y-87000000D01*
X142400000Y-81150000D02*
X142400000Y-82400000D01*
X143000000Y-83000000D02*
X144000000Y-83000000D01*
X142400000Y-82400000D02*
X143000000Y-83000000D01*
X144000000Y-83000000D02*
X144000000Y-85650000D01*
X146450000Y-85650000D02*
X144000000Y-85650000D01*
X147800000Y-87000000D02*
X146450000Y-85650000D01*
X140958592Y-87067628D02*
X143917628Y-87067628D01*
X143917628Y-87067628D02*
X144000000Y-87150000D01*
X127000000Y-79820000D02*
X129980000Y-79820000D01*
X129980000Y-79820000D02*
X130000000Y-79800000D01*
X144000000Y-87150000D02*
X144000000Y-89000000D01*
X130100000Y-73050000D02*
X130100000Y-79700000D01*
X130100000Y-79700000D02*
X130000000Y-79800000D01*
X141000000Y-76916104D02*
X142483896Y-78400000D01*
X142483896Y-78400000D02*
X146000000Y-78400000D01*
X142400000Y-71460000D02*
X141300000Y-71460000D01*
X141000000Y-71760000D02*
X141000000Y-76916104D01*
X141300000Y-71460000D02*
X141000000Y-71760000D01*
X150200000Y-81920000D02*
X151500000Y-83220000D01*
X145000000Y-84750000D02*
X145000000Y-82250000D01*
X151500000Y-83220000D02*
X151500000Y-84973002D01*
X151500000Y-84973002D02*
X150723002Y-85750000D01*
X150723002Y-85750000D02*
X147257120Y-85750000D01*
X147257120Y-85750000D02*
X146507120Y-85000000D01*
X146507120Y-85000000D02*
X145250000Y-85000000D01*
X145250000Y-85000000D02*
X145000000Y-84750000D01*
X145000000Y-82250000D02*
X145200000Y-82050000D01*
X145200000Y-82050000D02*
X146000000Y-82050000D01*
X146000000Y-78400000D02*
X146000000Y-82050000D01*
X137800000Y-72800000D02*
X137800000Y-74000000D01*
X138400000Y-74600000D02*
X138400000Y-76600000D01*
X137800000Y-74000000D02*
X138400000Y-74600000D01*
X147800000Y-75750000D02*
X147800000Y-76600000D01*
X147800000Y-76600000D02*
X146000000Y-78400000D01*
X151600000Y-70050000D02*
X151600000Y-69400000D01*
X151600000Y-69400000D02*
X152800000Y-68200000D01*
X152800000Y-65600000D02*
X149400000Y-62200000D01*
X152800000Y-68200000D02*
X152800000Y-65600000D01*
X149400000Y-57000000D02*
X146074999Y-53674999D01*
X149400000Y-62200000D02*
X149400000Y-57000000D01*
X146074999Y-53674999D02*
X138825001Y-53674999D01*
X138825001Y-53674999D02*
X135500000Y-57000000D01*
X135500000Y-57000000D02*
X134250000Y-57000000D01*
X134250000Y-57000000D02*
X132000000Y-59250000D01*
X132000000Y-59250000D02*
X132000000Y-62400000D01*
X132000000Y-62400000D02*
X133800000Y-64200000D01*
X133800000Y-64200000D02*
X133800000Y-69000000D01*
X133800000Y-69000000D02*
X134300000Y-69500000D01*
X147200000Y-80800000D02*
X147200000Y-80600000D01*
X136600000Y-66350000D02*
X136600000Y-67200000D01*
X136450000Y-67350000D02*
X136450000Y-68600000D01*
X136600000Y-67200000D02*
X136450000Y-67350000D01*
X133400000Y-72800000D02*
X133400000Y-70400000D01*
X135200000Y-68600000D02*
X136450000Y-68600000D01*
X133400000Y-70400000D02*
X134300000Y-69500000D01*
X134300000Y-69500000D02*
X135200000Y-68600000D01*
X133400000Y-72800000D02*
X133400000Y-74600000D01*
X134050000Y-75250000D02*
X134050000Y-76600000D01*
X133400000Y-74600000D02*
X134050000Y-75250000D01*
X134050000Y-76600000D02*
X133400000Y-76600000D01*
X133400000Y-76600000D02*
X132200000Y-77800000D01*
X135408592Y-82727628D02*
X135408592Y-81808592D01*
X135408592Y-81808592D02*
X135000000Y-81400000D01*
X135000000Y-81400000D02*
X133000000Y-81400000D01*
X133000000Y-81400000D02*
X132000000Y-80400000D01*
X132000000Y-80400000D02*
X132000000Y-79600000D01*
X132000000Y-79600000D02*
X132200000Y-79400000D01*
X132200000Y-79400000D02*
X132200000Y-77800000D01*
X132200000Y-77800000D02*
X133200000Y-76800000D01*
X135408592Y-82727628D02*
X134472372Y-82727628D01*
X133200000Y-84000000D02*
X133200000Y-87200000D01*
X134472372Y-82727628D02*
X133200000Y-84000000D01*
X127000000Y-92800000D02*
X129200000Y-92800000D01*
X132000000Y-87200000D02*
X133200000Y-87200000D01*
X130400000Y-88800000D02*
X132000000Y-87200000D01*
X130400000Y-91600000D02*
X130400000Y-88800000D01*
X129200000Y-92800000D02*
X130400000Y-91600000D01*
X127000000Y-82360000D02*
X129360000Y-82360000D01*
X129360000Y-82360000D02*
X130500000Y-83500000D01*
X137298592Y-91927628D02*
X137298592Y-88737628D01*
X137298592Y-88737628D02*
X137308592Y-88727628D01*
X140958592Y-84527628D02*
X140958592Y-82750000D01*
X140958592Y-82750000D02*
X140958592Y-80558592D01*
X137308592Y-82727628D02*
X140936220Y-82727628D01*
X140936220Y-82727628D02*
X140958592Y-82750000D01*
X140958592Y-80558592D02*
X139800000Y-79400000D01*
X137250000Y-77850000D02*
X137600000Y-78200000D01*
X136800000Y-77400000D02*
X137250000Y-77850000D01*
X137250000Y-77850000D02*
X137358592Y-77958592D01*
X137358592Y-77958592D02*
X137358592Y-79527628D01*
X137600000Y-78200000D02*
X138000000Y-78200000D01*
X138000000Y-78200000D02*
X138600000Y-78200000D01*
X137358592Y-79527628D02*
X137358592Y-78427628D01*
X137358592Y-78427628D02*
X137586220Y-78200000D01*
X137586220Y-78200000D02*
X138000000Y-78200000D01*
X138477628Y-82727628D02*
X137308592Y-82727628D01*
X137308592Y-88727628D02*
X137308592Y-87891408D01*
X137308592Y-83508592D02*
X137308592Y-82727628D01*
X137600000Y-83800000D02*
X137308592Y-83508592D01*
X137600000Y-87600000D02*
X137600000Y-83800000D01*
X137308592Y-87891408D02*
X137600000Y-87600000D01*
X135550000Y-76600000D02*
X136400000Y-76600000D01*
X138600000Y-78200000D02*
X139800000Y-79400000D01*
X136800000Y-77000000D02*
X136800000Y-77400000D01*
X136400000Y-76600000D02*
X136800000Y-77000000D01*
X137308592Y-88727628D02*
X138327628Y-88727628D01*
X138327628Y-88727628D02*
X140400000Y-90800000D01*
X140400000Y-90800000D02*
X140400000Y-92000000D01*
D30*
X68400000Y-61600000D02*
X70750001Y-59249999D01*
X75750001Y-59249999D02*
X76500000Y-58500000D01*
X70750001Y-59249999D02*
X75750001Y-59249999D01*
X68400000Y-63500000D02*
X68400000Y-61600000D01*
X91750000Y-54250000D02*
X95450000Y-54250000D01*
X95450000Y-54250000D02*
X96400000Y-55200000D01*
X68400000Y-63500000D02*
X68400000Y-64600000D01*
X69750000Y-63500000D02*
X68400000Y-63500000D01*
X96400000Y-55200000D02*
X95800000Y-54600000D01*
X95000000Y-61950000D02*
X96050000Y-61950000D01*
X96400000Y-61600000D02*
X96050000Y-61950000D01*
X96400000Y-55700000D02*
X96400000Y-55349998D01*
X96400000Y-55700000D02*
X96400000Y-61600000D01*
X96400000Y-55349998D02*
X96400000Y-55200000D01*
X68400000Y-64600000D02*
X70900000Y-64600000D01*
X70900000Y-64600000D02*
X74800000Y-64600000D01*
X70980000Y-62050000D02*
X70980000Y-64520000D01*
X70980000Y-64520000D02*
X70900000Y-64600000D01*
X74800000Y-64600000D02*
X76060000Y-63340000D01*
X76060000Y-63340000D02*
X76060000Y-62050000D01*
D13*
X134758592Y-90491408D02*
X135408592Y-89841408D01*
X135408592Y-89841408D02*
X135408592Y-88727628D01*
X134758592Y-91927628D02*
X134758592Y-90491408D01*
X133200000Y-88700000D02*
X133200000Y-89400000D01*
X132000000Y-90600000D02*
X132000000Y-92000000D01*
X133200000Y-89400000D02*
X132000000Y-90600000D01*
X133200000Y-88700000D02*
X135380964Y-88700000D01*
X135380964Y-88700000D02*
X135408592Y-88727628D01*
X89600000Y-62600000D02*
X89600000Y-60600000D01*
X87680000Y-64520000D02*
X89600000Y-62600000D01*
X83020000Y-64520000D02*
X87680000Y-64520000D01*
X90150000Y-59650000D02*
X91000000Y-59650000D01*
X89600000Y-60200000D02*
X90150000Y-59650000D01*
X89600000Y-60600000D02*
X89600000Y-60200000D01*
X91000000Y-59650000D02*
X91750000Y-59650000D01*
X95000000Y-58400000D02*
X95000000Y-57750000D01*
X94600000Y-58800000D02*
X95000000Y-58400000D01*
X92600000Y-58800000D02*
X94600000Y-58800000D01*
X91750000Y-59650000D02*
X92600000Y-58800000D01*
X138750000Y-55500000D02*
X137250000Y-57000000D01*
X137250000Y-57000000D02*
X137250000Y-61750000D01*
X137250000Y-61750000D02*
X138600000Y-63100000D01*
X138600000Y-63100000D02*
X138600000Y-63200000D01*
X138600000Y-63200000D02*
X138600000Y-65400000D01*
X140600000Y-63200000D02*
X140600000Y-64650000D01*
X140800000Y-63000000D02*
X140600000Y-63200000D01*
X140800000Y-55400000D02*
X140800000Y-63000000D01*
X88500000Y-94500000D02*
X93092878Y-94500000D01*
X93092878Y-94500000D02*
X94799989Y-92792889D01*
X79950000Y-71000000D02*
X83000000Y-71000000D01*
X83000000Y-71000000D02*
X85600000Y-71000000D01*
X83020000Y-69600000D02*
X83020000Y-70980000D01*
X83020000Y-70980000D02*
X83000000Y-71000000D01*
X90800000Y-70800000D02*
X94400000Y-70800000D01*
X85600000Y-71000000D02*
X86239990Y-71639990D01*
X86239990Y-71639990D02*
X89960010Y-71639990D01*
X89960010Y-71639990D02*
X90800000Y-70800000D01*
X94400000Y-70800000D02*
X94799989Y-71199989D01*
X94799989Y-71199989D02*
X94799989Y-92792889D01*
X83020000Y-69600000D02*
X83990000Y-69600000D01*
X92050000Y-96250000D02*
X87250000Y-96250000D01*
X94500000Y-69600000D02*
X92580000Y-69600000D01*
X92050000Y-96250000D02*
X95300000Y-93000000D01*
X95300000Y-93000000D02*
X95300000Y-70400000D01*
X95300000Y-70400000D02*
X94500000Y-69600000D01*
X76250000Y-73750000D02*
X76750000Y-73250000D01*
X76750000Y-73250000D02*
X76750000Y-72750000D01*
X76000000Y-73750000D02*
X76250000Y-73750000D01*
X75200000Y-73750000D02*
X76000000Y-73750000D01*
X74950000Y-72800000D02*
X74950000Y-73500000D01*
X74950000Y-73500000D02*
X75200000Y-73750000D01*
X69000000Y-77280000D02*
X71095001Y-79375001D01*
X92300000Y-91200000D02*
X92300000Y-87500000D01*
X92300000Y-87500000D02*
X92300000Y-79750000D01*
X72600000Y-87600000D02*
X92200000Y-87600000D01*
X92200000Y-87600000D02*
X92300000Y-87500000D01*
X70250000Y-92750000D02*
X71000000Y-92750000D01*
X93500000Y-76500000D02*
X92500000Y-76500000D01*
X78600000Y-62050000D02*
X79859008Y-62050000D01*
X79859008Y-62050000D02*
X80579504Y-61329504D01*
X78600000Y-68400000D02*
X80100000Y-68400000D01*
X80100000Y-68400000D02*
X80250000Y-68250000D01*
X90000000Y-57750000D02*
X88475000Y-59275000D01*
X88475000Y-59275000D02*
X88475000Y-61250000D01*
X90950000Y-57750000D02*
X90000000Y-57750000D01*
X91000000Y-57750000D02*
X90950000Y-57750000D01*
X72000000Y-80250000D02*
X73000000Y-80250000D01*
X74324999Y-79375001D02*
X78450000Y-75250000D01*
X78450000Y-71700000D02*
X78450000Y-71000000D01*
X71095001Y-79375001D02*
X74324999Y-79375001D01*
X78450000Y-75250000D02*
X78450000Y-71700000D01*
X72600000Y-87600000D02*
X70220000Y-89980000D01*
X70220000Y-89980000D02*
X69000000Y-89980000D01*
X78600000Y-68400000D02*
X78600000Y-65900000D01*
X78600000Y-65900000D02*
X82600000Y-61900000D01*
X82600000Y-61900000D02*
X84600000Y-61900000D01*
X84600000Y-61900000D02*
X85400000Y-61100000D01*
X85400000Y-61100000D02*
X85400000Y-58100000D01*
X68400000Y-66100000D02*
X76200000Y-66100000D01*
X76200000Y-66100000D02*
X78600000Y-63700000D01*
X78600000Y-63700000D02*
X78600000Y-62050000D01*
X78450000Y-69800000D02*
X74950000Y-69800000D01*
X74950000Y-69800000D02*
X74950000Y-69550000D01*
X74950000Y-69550000D02*
X74790000Y-69390000D01*
X74790000Y-69390000D02*
X74790000Y-68400000D01*
X74950000Y-69800000D02*
X74950000Y-71000000D01*
X78450000Y-71000000D02*
X78450000Y-69800000D01*
X78450000Y-69800000D02*
X78450000Y-69750000D01*
X78600000Y-69600000D02*
X78600000Y-68400000D01*
X78450000Y-69750000D02*
X78600000Y-69600000D01*
X77330000Y-68400000D02*
X78600000Y-68400000D01*
X71500000Y-83500000D02*
X72250000Y-83500000D01*
X72250000Y-83500000D02*
X79500000Y-76250000D01*
X79500000Y-76250000D02*
X79500000Y-73500000D01*
X79500000Y-73200000D02*
X79500000Y-73500000D01*
X83020000Y-72140000D02*
X80560000Y-72140000D01*
X80560000Y-72140000D02*
X79500000Y-73200000D01*
X71750000Y-85750000D02*
X72625001Y-84874999D01*
X72625001Y-84874999D02*
X72625001Y-83832119D01*
X72625001Y-83832119D02*
X80000010Y-76457110D01*
X80000010Y-76457110D02*
X80000010Y-73899990D01*
X80500000Y-73400000D02*
X84800000Y-73400000D01*
X84800000Y-73400000D02*
X86060000Y-72140000D01*
X80000010Y-73899990D02*
X80500000Y-73400000D01*
X86060000Y-72140000D02*
X92580000Y-72140000D01*
X70980000Y-74250000D02*
X70980000Y-76730000D01*
X72000000Y-73230000D02*
X70980000Y-74250000D01*
X72000000Y-70750000D02*
X72000000Y-73230000D01*
X70980000Y-69730000D02*
X72000000Y-70750000D01*
X70980000Y-68400000D02*
X70980000Y-69730000D01*
X70980000Y-76730000D02*
X71750001Y-77500001D01*
X71750001Y-77500001D02*
X72500000Y-78250000D01*
X91000000Y-55850000D02*
X88050000Y-55850000D01*
X70980000Y-67020000D02*
X70980000Y-68400000D01*
X71300000Y-66700000D02*
X70980000Y-67020000D01*
X76800000Y-66700000D02*
X71300000Y-66700000D01*
X83000000Y-60500000D02*
X76800000Y-66700000D01*
X83000000Y-55700000D02*
X83000000Y-60500000D01*
X83850000Y-54850000D02*
X83000000Y-55700000D01*
X87050000Y-54850000D02*
X83850000Y-54850000D01*
X88050000Y-55850000D02*
X87050000Y-54850000D01*
D30*
X142750000Y-66500000D02*
X142750000Y-67250000D01*
X141400000Y-68000000D02*
X142000000Y-68000000D01*
X142000000Y-68000000D02*
X142750000Y-67250000D01*
X144800000Y-54800000D02*
X146400000Y-56400000D01*
X146400000Y-56400000D02*
X146400000Y-62850000D01*
X146400000Y-62850000D02*
X142750000Y-66500000D01*
X141400000Y-69000000D02*
X141400000Y-68000000D01*
X141400000Y-69600000D02*
X141400000Y-69000000D01*
X140200000Y-77000000D02*
X140200000Y-70800000D01*
X140200000Y-77000000D02*
X142400000Y-79200000D01*
X142400000Y-79650000D02*
X142400000Y-79200000D01*
X140600000Y-67200000D02*
X140600000Y-66550000D01*
X141400000Y-68000000D02*
X140600000Y-67200000D01*
X140200000Y-70800000D02*
X141400000Y-69600000D01*
D13*
X127000000Y-84900000D02*
X128775000Y-84900000D01*
X128775000Y-84900000D02*
X129375000Y-85500000D01*
X125000000Y-66000000D02*
X126000000Y-65000000D01*
X126000000Y-65000000D02*
X128500000Y-65000000D01*
X125000000Y-86642081D02*
X125000000Y-66000000D01*
X127000000Y-87440000D02*
X125797919Y-87440000D01*
X125797919Y-87440000D02*
X125000000Y-86642081D01*
X127000000Y-74740000D02*
X128965000Y-74740000D01*
X128965000Y-74740000D02*
X128975000Y-74750000D01*
X136600000Y-62800000D02*
X136600000Y-64450000D01*
X136400000Y-62600000D02*
X136600000Y-62800000D01*
X92580000Y-67060000D02*
X83020000Y-67060000D01*
X137950000Y-68600000D02*
X139800000Y-68600000D01*
X73450000Y-71000000D02*
X73450000Y-72800000D01*
X73300000Y-70850000D02*
X73450000Y-71000000D01*
X73520000Y-68400000D02*
X73520000Y-69880000D01*
X73450000Y-69950000D02*
X73450000Y-71000000D01*
X73520000Y-69880000D02*
X73450000Y-69950000D01*
X130200000Y-69800000D02*
X130100000Y-69900000D01*
X130100000Y-69900000D02*
X130100000Y-71550000D01*
X72250000Y-68400000D02*
X72250000Y-67550000D01*
X72250000Y-67550000D02*
X72600000Y-67200000D01*
X75800000Y-67200000D02*
X76060000Y-67460000D01*
X72600000Y-67200000D02*
X75800000Y-67200000D01*
X76060000Y-67460000D02*
X76060000Y-68400000D01*
X93000000Y-60600000D02*
X93000000Y-62600000D01*
X92580000Y-63020000D02*
X92580000Y-64520000D01*
X93000000Y-62600000D02*
X92580000Y-63020000D01*
X93000000Y-60600000D02*
X93600000Y-60600000D01*
X94150000Y-60050000D02*
X95000000Y-60050000D01*
X93600000Y-60600000D02*
X94150000Y-60050000D01*
X93000000Y-56800000D02*
X93800000Y-56800000D01*
X94150000Y-55850000D02*
X95000000Y-55850000D01*
X94000000Y-56000000D02*
X94150000Y-55850000D01*
X94000000Y-56600000D02*
X94000000Y-56000000D01*
X93800000Y-56800000D02*
X94000000Y-56600000D01*
D31*
G36*
X89290000Y-53000000D02*
X89344046Y-53271705D01*
X89497954Y-53502046D01*
X89728295Y-53655954D01*
X90000000Y-53710000D01*
X90474572Y-53710000D01*
X90365241Y-53973298D01*
X90364760Y-54524285D01*
X90484809Y-54814827D01*
X90314683Y-54846838D01*
X90098559Y-54985910D01*
X90027437Y-55090000D01*
X88364802Y-55090000D01*
X87593805Y-54319003D01*
X87601441Y-54314090D01*
X87746431Y-54101890D01*
X87797440Y-53850000D01*
X87797440Y-50350000D01*
X87753162Y-50114683D01*
X87614090Y-49898559D01*
X87401890Y-49753569D01*
X87150000Y-49702560D01*
X83650000Y-49702560D01*
X83414683Y-49746838D01*
X83198559Y-49885910D01*
X83053569Y-50098110D01*
X83002560Y-50350000D01*
X83002560Y-53036045D01*
X82914090Y-52898559D01*
X82701890Y-52753569D01*
X82450000Y-52702560D01*
X78950000Y-52702560D01*
X78714683Y-52746838D01*
X78498559Y-52885910D01*
X78353569Y-53098110D01*
X78302560Y-53350000D01*
X78302560Y-56850000D01*
X78346838Y-57085317D01*
X78485910Y-57301441D01*
X78698110Y-57446431D01*
X78950000Y-57497440D01*
X82240000Y-57497440D01*
X82240000Y-60185198D01*
X76485198Y-65940000D01*
X71300000Y-65940000D01*
X71009160Y-65997852D01*
X70762599Y-66162599D01*
X70442599Y-66482599D01*
X70277852Y-66729161D01*
X70220000Y-67020000D01*
X70220000Y-67444260D01*
X70129569Y-67576610D01*
X70078560Y-67828500D01*
X70078560Y-68971500D01*
X70122838Y-69206817D01*
X70220000Y-69357811D01*
X70220000Y-69730000D01*
X70277852Y-70020839D01*
X70442599Y-70267401D01*
X71240000Y-71064802D01*
X71240000Y-72915198D01*
X70442599Y-73712599D01*
X70277852Y-73959161D01*
X70273534Y-73980868D01*
X70079147Y-73689946D01*
X70037548Y-73662150D01*
X70085317Y-73653162D01*
X70301441Y-73514090D01*
X70446431Y-73301890D01*
X70497440Y-73050000D01*
X70497440Y-71350000D01*
X70453162Y-71114683D01*
X70314090Y-70898559D01*
X70101890Y-70753569D01*
X69850000Y-70702560D01*
X68150000Y-70702560D01*
X67914683Y-70746838D01*
X67698559Y-70885910D01*
X67553569Y-71098110D01*
X67502560Y-71350000D01*
X67502560Y-73050000D01*
X67546838Y-73285317D01*
X67685910Y-73501441D01*
X67898110Y-73646431D01*
X67965541Y-73660086D01*
X67920853Y-73689946D01*
X67598946Y-74171715D01*
X67485907Y-74740000D01*
X67598946Y-75308285D01*
X67920853Y-75790054D01*
X68261553Y-76017702D01*
X68118642Y-76084817D01*
X67728355Y-76513076D01*
X67558524Y-76923110D01*
X67679845Y-77153000D01*
X68873000Y-77153000D01*
X68873000Y-77133000D01*
X69127000Y-77133000D01*
X69127000Y-77153000D01*
X69147000Y-77153000D01*
X69147000Y-77407000D01*
X69127000Y-77407000D01*
X69127000Y-77427000D01*
X68873000Y-77427000D01*
X68873000Y-77407000D01*
X67679845Y-77407000D01*
X67558524Y-77636890D01*
X67728355Y-78046924D01*
X68118642Y-78475183D01*
X68261553Y-78542298D01*
X67920853Y-78769946D01*
X67598946Y-79251715D01*
X67485907Y-79820000D01*
X67598946Y-80388285D01*
X67920853Y-80870054D01*
X68250026Y-81090000D01*
X67920853Y-81309946D01*
X67598946Y-81791715D01*
X67485907Y-82360000D01*
X67598946Y-82928285D01*
X67920853Y-83410054D01*
X68250026Y-83630000D01*
X67920853Y-83849946D01*
X67598946Y-84331715D01*
X67485907Y-84900000D01*
X67598946Y-85468285D01*
X67920853Y-85950054D01*
X68250026Y-86170000D01*
X67920853Y-86389946D01*
X67598946Y-86871715D01*
X67485907Y-87440000D01*
X67598946Y-88008285D01*
X67920853Y-88490054D01*
X68261553Y-88717702D01*
X68118642Y-88784817D01*
X67728355Y-89213076D01*
X67558524Y-89623110D01*
X67679845Y-89853000D01*
X68873000Y-89853000D01*
X68873000Y-89833000D01*
X69127000Y-89833000D01*
X69127000Y-89853000D01*
X70320155Y-89853000D01*
X70441476Y-89623110D01*
X70271645Y-89213076D01*
X69881358Y-88784817D01*
X69738447Y-88717702D01*
X70079147Y-88490054D01*
X70401054Y-88008285D01*
X70514093Y-87440000D01*
X70401054Y-86871715D01*
X70079147Y-86389946D01*
X69749974Y-86170000D01*
X70079147Y-85950054D01*
X70365199Y-85521947D01*
X70364760Y-86024285D01*
X70575169Y-86533515D01*
X70964436Y-86923461D01*
X71473298Y-87134759D01*
X72024285Y-87135240D01*
X72533515Y-86924831D01*
X72923461Y-86535564D01*
X73134759Y-86026702D01*
X73135240Y-85475715D01*
X73124670Y-85450132D01*
X73162402Y-85412400D01*
X73327149Y-85165839D01*
X73385001Y-84874999D01*
X73385001Y-84146921D01*
X77464722Y-80067200D01*
X77464630Y-80172815D01*
X77788980Y-80957800D01*
X78389041Y-81558909D01*
X79173459Y-81884628D01*
X80022815Y-81885370D01*
X80615182Y-81640608D01*
X80614630Y-82272815D01*
X80938980Y-83057800D01*
X81539041Y-83658909D01*
X82323459Y-83984628D01*
X83172815Y-83985370D01*
X83957800Y-83661020D01*
X84558909Y-83060959D01*
X84884628Y-82276541D01*
X84885202Y-81619600D01*
X85523459Y-81884628D01*
X86372815Y-81885370D01*
X87157800Y-81561020D01*
X87758909Y-80960959D01*
X87829329Y-80791369D01*
X88172637Y-81135278D01*
X88773352Y-81384716D01*
X89423795Y-81385284D01*
X89717396Y-81263970D01*
X90965635Y-81263970D01*
X91125418Y-81582739D01*
X91916187Y-81892723D01*
X92765387Y-81876497D01*
X93474582Y-81582739D01*
X93634365Y-81263970D01*
X92300000Y-79929605D01*
X90965635Y-81263970D01*
X89717396Y-81263970D01*
X90024943Y-81136894D01*
X90400086Y-80762406D01*
X90467261Y-80924582D01*
X90786030Y-81084365D01*
X92120395Y-79750000D01*
X90786030Y-78415635D01*
X90467261Y-78575418D01*
X90402530Y-78740546D01*
X90027363Y-78364722D01*
X89717438Y-78236030D01*
X90965635Y-78236030D01*
X92300000Y-79570395D01*
X93634365Y-78236030D01*
X93474582Y-77917261D01*
X92683813Y-77607277D01*
X91834613Y-77623503D01*
X91125418Y-77917261D01*
X90965635Y-78236030D01*
X89717438Y-78236030D01*
X89426648Y-78115284D01*
X88776205Y-78114716D01*
X88175057Y-78363106D01*
X87829537Y-78708023D01*
X87761020Y-78542200D01*
X87160959Y-77941091D01*
X86376541Y-77615372D01*
X85527185Y-77614630D01*
X84742200Y-77938980D01*
X84141091Y-78539041D01*
X83815372Y-79323459D01*
X83814798Y-79980400D01*
X83176541Y-79715372D01*
X82327185Y-79714630D01*
X81734818Y-79959392D01*
X81735370Y-79327185D01*
X81411020Y-78542200D01*
X80810959Y-77941091D01*
X80026541Y-77615372D01*
X79916646Y-77615276D01*
X80537411Y-76994511D01*
X80702158Y-76747949D01*
X80760010Y-76457110D01*
X80760010Y-74214792D01*
X80814802Y-74160000D01*
X80906610Y-74160000D01*
X80902560Y-74180000D01*
X80902560Y-75180000D01*
X80946838Y-75415317D01*
X81085910Y-75631441D01*
X81298110Y-75776431D01*
X81550000Y-75827440D01*
X84490000Y-75827440D01*
X84725317Y-75783162D01*
X84941441Y-75644090D01*
X85086431Y-75431890D01*
X85137440Y-75180000D01*
X85137440Y-74180000D01*
X85119223Y-74083183D01*
X85337401Y-73937401D01*
X86374802Y-72900000D01*
X90522721Y-72900000D01*
X90645910Y-73091441D01*
X90858110Y-73236431D01*
X91110000Y-73287440D01*
X94039989Y-73287440D01*
X94039989Y-73532560D01*
X91110000Y-73532560D01*
X90874683Y-73576838D01*
X90658559Y-73715910D01*
X90513569Y-73928110D01*
X90462560Y-74180000D01*
X90462560Y-75180000D01*
X90506838Y-75415317D01*
X90645910Y-75631441D01*
X90858110Y-75776431D01*
X91110000Y-75827440D01*
X94039989Y-75827440D01*
X94039989Y-78528927D01*
X93813970Y-78415635D01*
X92479605Y-79750000D01*
X93813970Y-81084365D01*
X94039989Y-80971073D01*
X94039989Y-89978927D01*
X93813970Y-89865635D01*
X92479605Y-91200000D01*
X92493748Y-91214143D01*
X92314143Y-91393748D01*
X92300000Y-91379605D01*
X90965635Y-92713970D01*
X91125418Y-93032739D01*
X91916187Y-93342723D01*
X92765387Y-93326497D01*
X93474582Y-93032739D01*
X93634364Y-92713972D01*
X93719234Y-92798842D01*
X92778076Y-93740000D01*
X89684547Y-93740000D01*
X89674831Y-93716485D01*
X89285564Y-93326539D01*
X88776702Y-93115241D01*
X88225715Y-93114760D01*
X87716485Y-93325169D01*
X87326539Y-93714436D01*
X87115241Y-94223298D01*
X87114760Y-94774285D01*
X87152207Y-94864914D01*
X86975715Y-94864760D01*
X86466485Y-95075169D01*
X86076539Y-95464436D01*
X85865241Y-95973298D01*
X85864760Y-96524285D01*
X86075169Y-97033515D01*
X86464436Y-97423461D01*
X86973298Y-97634759D01*
X87524285Y-97635240D01*
X88033515Y-97424831D01*
X88423461Y-97035564D01*
X88434076Y-97010000D01*
X92050000Y-97010000D01*
X92340839Y-96952148D01*
X92587401Y-96787401D01*
X95837401Y-93537401D01*
X96002148Y-93290839D01*
X96060000Y-93000000D01*
X96060000Y-70400000D01*
X96002148Y-70109161D01*
X95837401Y-69862599D01*
X95037401Y-69062599D01*
X94790839Y-68897852D01*
X94654292Y-68870691D01*
X94653162Y-68864683D01*
X94514090Y-68648559D01*
X94301890Y-68503569D01*
X94050000Y-68452560D01*
X91110000Y-68452560D01*
X90874683Y-68496838D01*
X90658559Y-68635910D01*
X90513569Y-68848110D01*
X90462560Y-69100000D01*
X90462560Y-70100000D01*
X90467405Y-70125752D01*
X90262599Y-70262599D01*
X89645208Y-70879990D01*
X86554792Y-70879990D01*
X86137401Y-70462599D01*
X85890839Y-70297852D01*
X85600000Y-70240000D01*
X85109089Y-70240000D01*
X85137440Y-70100000D01*
X85137440Y-69100000D01*
X85093162Y-68864683D01*
X84954090Y-68648559D01*
X84741890Y-68503569D01*
X84490000Y-68452560D01*
X81550000Y-68452560D01*
X81314683Y-68496838D01*
X81098559Y-68635910D01*
X80953569Y-68848110D01*
X80902560Y-69100000D01*
X80902560Y-70100000D01*
X80928903Y-70240000D01*
X80755105Y-70240000D01*
X80664090Y-70098559D01*
X80451890Y-69953569D01*
X80200000Y-69902560D01*
X79700000Y-69902560D01*
X79464683Y-69946838D01*
X79248559Y-70085910D01*
X79202031Y-70154006D01*
X79059698Y-70011673D01*
X78826309Y-69915000D01*
X78733750Y-69915000D01*
X78575000Y-70073750D01*
X78575000Y-70873000D01*
X78597000Y-70873000D01*
X78597000Y-71127000D01*
X78575000Y-71127000D01*
X78575000Y-71926250D01*
X78733750Y-72085000D01*
X78826309Y-72085000D01*
X79059698Y-71988327D01*
X79200936Y-71847090D01*
X79235910Y-71901441D01*
X79448110Y-72046431D01*
X79556764Y-72068434D01*
X78962599Y-72662599D01*
X78797852Y-72909161D01*
X78740000Y-73200000D01*
X78740000Y-75935198D01*
X72317084Y-82358114D01*
X72285564Y-82326539D01*
X71776702Y-82115241D01*
X71225715Y-82114760D01*
X70716485Y-82325169D01*
X70472593Y-82568637D01*
X70514093Y-82360000D01*
X70401054Y-81791715D01*
X70079147Y-81309946D01*
X69749974Y-81090000D01*
X70079147Y-80870054D01*
X70401054Y-80388285D01*
X70514093Y-79820000D01*
X70401054Y-79251715D01*
X70079147Y-78769946D01*
X69738447Y-78542298D01*
X69881358Y-78475183D01*
X70271645Y-78046924D01*
X70441476Y-77636890D01*
X70320156Y-77407002D01*
X70485000Y-77407002D01*
X70485000Y-77309802D01*
X71124998Y-77949800D01*
X71115241Y-77973298D01*
X71114760Y-78524285D01*
X71325169Y-79033515D01*
X71714436Y-79423461D01*
X72223298Y-79634759D01*
X72774285Y-79635240D01*
X73283515Y-79424831D01*
X73673461Y-79035564D01*
X73884759Y-78526702D01*
X73885240Y-77975715D01*
X73674831Y-77466485D01*
X73285564Y-77076539D01*
X72854246Y-76897440D01*
X73710000Y-76897440D01*
X73945317Y-76853162D01*
X74161441Y-76714090D01*
X74306431Y-76501890D01*
X74320086Y-76434459D01*
X74349946Y-76479147D01*
X74831715Y-76801054D01*
X75400000Y-76914093D01*
X75968285Y-76801054D01*
X76450054Y-76479147D01*
X76771961Y-75997378D01*
X76885000Y-75429093D01*
X76885000Y-75370907D01*
X76771961Y-74802622D01*
X76538141Y-74452685D01*
X76540839Y-74452148D01*
X76787401Y-74287401D01*
X76939636Y-74135166D01*
X77024285Y-74135240D01*
X77533515Y-73924831D01*
X77923461Y-73535564D01*
X78134759Y-73026702D01*
X78135240Y-72475715D01*
X77953174Y-72035080D01*
X78073691Y-72085000D01*
X78166250Y-72085000D01*
X78325000Y-71926250D01*
X78325000Y-71127000D01*
X77723750Y-71127000D01*
X77565000Y-71285750D01*
X77565000Y-71576310D01*
X77586039Y-71627102D01*
X77535564Y-71576539D01*
X77026702Y-71365241D01*
X76475715Y-71364760D01*
X75966485Y-71575169D01*
X75743108Y-71798157D01*
X75835000Y-71576310D01*
X75835000Y-71285750D01*
X75676250Y-71127000D01*
X75075000Y-71127000D01*
X75075000Y-71147000D01*
X74825000Y-71147000D01*
X74825000Y-71127000D01*
X74803000Y-71127000D01*
X74803000Y-70873000D01*
X74825000Y-70873000D01*
X74825000Y-70073750D01*
X75075000Y-70073750D01*
X75075000Y-70873000D01*
X75676250Y-70873000D01*
X75835000Y-70714250D01*
X75835000Y-70423690D01*
X77565000Y-70423690D01*
X77565000Y-70714250D01*
X77723750Y-70873000D01*
X78325000Y-70873000D01*
X78325000Y-70073750D01*
X78166250Y-69915000D01*
X78073691Y-69915000D01*
X77840302Y-70011673D01*
X77661673Y-70190301D01*
X77565000Y-70423690D01*
X75835000Y-70423690D01*
X75738327Y-70190301D01*
X75559698Y-70011673D01*
X75326309Y-69915000D01*
X75233750Y-69915000D01*
X75075000Y-70073750D01*
X74825000Y-70073750D01*
X74666250Y-69915000D01*
X74573691Y-69915000D01*
X74340302Y-70011673D01*
X74232332Y-70119643D01*
X74280000Y-69880000D01*
X74280000Y-69552780D01*
X74409691Y-69606500D01*
X74504250Y-69606500D01*
X74663000Y-69447750D01*
X74663000Y-68527000D01*
X74643000Y-68527000D01*
X74643000Y-68273000D01*
X74663000Y-68273000D01*
X74663000Y-68253000D01*
X74917000Y-68253000D01*
X74917000Y-68273000D01*
X74937000Y-68273000D01*
X74937000Y-68527000D01*
X74917000Y-68527000D01*
X74917000Y-69447750D01*
X75075750Y-69606500D01*
X75170309Y-69606500D01*
X75403698Y-69509827D01*
X75430235Y-69483291D01*
X75554110Y-69567931D01*
X75806000Y-69618940D01*
X76314000Y-69618940D01*
X76549317Y-69574662D01*
X76690371Y-69483896D01*
X76716302Y-69509827D01*
X76949691Y-69606500D01*
X77044250Y-69606500D01*
X77203000Y-69447750D01*
X77203000Y-68527000D01*
X77457000Y-68527000D01*
X77457000Y-69447750D01*
X77615750Y-69606500D01*
X77710309Y-69606500D01*
X77943698Y-69509827D01*
X77965000Y-69488525D01*
X77986302Y-69509827D01*
X78219691Y-69606500D01*
X78314250Y-69606500D01*
X78473000Y-69447750D01*
X78473000Y-68527000D01*
X78727000Y-68527000D01*
X78727000Y-69447750D01*
X78885750Y-69606500D01*
X78980309Y-69606500D01*
X79213698Y-69509827D01*
X79392327Y-69331199D01*
X79489000Y-69097810D01*
X79489000Y-68685750D01*
X79330250Y-68527000D01*
X78727000Y-68527000D01*
X78473000Y-68527000D01*
X77457000Y-68527000D01*
X77203000Y-68527000D01*
X77183000Y-68527000D01*
X77183000Y-68273000D01*
X77203000Y-68273000D01*
X77203000Y-68253000D01*
X77457000Y-68253000D01*
X77457000Y-68273000D01*
X78473000Y-68273000D01*
X78473000Y-67352250D01*
X78727000Y-67352250D01*
X78727000Y-68273000D01*
X79330250Y-68273000D01*
X79489000Y-68114250D01*
X79489000Y-67702190D01*
X79392327Y-67468801D01*
X79213698Y-67290173D01*
X78980309Y-67193500D01*
X78885750Y-67193500D01*
X78727000Y-67352250D01*
X78473000Y-67352250D01*
X78314250Y-67193500D01*
X78219691Y-67193500D01*
X77986302Y-67290173D01*
X77965000Y-67311475D01*
X77943698Y-67290173D01*
X77710309Y-67193500D01*
X77615750Y-67193500D01*
X77457002Y-67352248D01*
X77457002Y-67193500D01*
X77381302Y-67193500D01*
X78014802Y-66560000D01*
X80902560Y-66560000D01*
X80902560Y-67560000D01*
X80946838Y-67795317D01*
X81085910Y-68011441D01*
X81298110Y-68156431D01*
X81550000Y-68207440D01*
X84490000Y-68207440D01*
X84725317Y-68163162D01*
X84941441Y-68024090D01*
X85080890Y-67820000D01*
X90522721Y-67820000D01*
X90645910Y-68011441D01*
X90858110Y-68156431D01*
X91110000Y-68207440D01*
X94050000Y-68207440D01*
X94285317Y-68163162D01*
X94501441Y-68024090D01*
X94646431Y-67811890D01*
X94697440Y-67560000D01*
X94697440Y-66560000D01*
X94653162Y-66324683D01*
X94514090Y-66108559D01*
X94301890Y-65963569D01*
X94050000Y-65912560D01*
X91110000Y-65912560D01*
X90874683Y-65956838D01*
X90658559Y-66095910D01*
X90519110Y-66300000D01*
X85077279Y-66300000D01*
X84954090Y-66108559D01*
X84741890Y-65963569D01*
X84490000Y-65912560D01*
X81550000Y-65912560D01*
X81314683Y-65956838D01*
X81098559Y-66095910D01*
X80953569Y-66308110D01*
X80902560Y-66560000D01*
X78014802Y-66560000D01*
X83537401Y-61037401D01*
X83702148Y-60790839D01*
X83760000Y-60500000D01*
X83760000Y-60485000D01*
X85114250Y-60485000D01*
X85273000Y-60326250D01*
X85273000Y-58227000D01*
X85527000Y-58227000D01*
X85527000Y-60326250D01*
X85685750Y-60485000D01*
X87276310Y-60485000D01*
X87509699Y-60388327D01*
X87688327Y-60209698D01*
X87785000Y-59976309D01*
X87785000Y-58385750D01*
X87626250Y-58227000D01*
X85527000Y-58227000D01*
X85273000Y-58227000D01*
X85253000Y-58227000D01*
X85253000Y-57973000D01*
X85273000Y-57973000D01*
X85273000Y-55873750D01*
X85114250Y-55715000D01*
X84059802Y-55715000D01*
X84164802Y-55610000D01*
X86735198Y-55610000D01*
X86840198Y-55715000D01*
X85685750Y-55715000D01*
X85527000Y-55873750D01*
X85527000Y-57973000D01*
X87626250Y-57973000D01*
X87785000Y-57814250D01*
X87785000Y-56557288D01*
X88050000Y-56610000D01*
X90027069Y-56610000D01*
X90085910Y-56701441D01*
X90225750Y-56796990D01*
X90190302Y-56811673D01*
X90011673Y-56990301D01*
X89915000Y-57223690D01*
X89915000Y-57464250D01*
X90073750Y-57623000D01*
X90873000Y-57623000D01*
X90873000Y-57603000D01*
X91127000Y-57603000D01*
X91127000Y-57623000D01*
X91926250Y-57623000D01*
X92012262Y-57536988D01*
X92085910Y-57651441D01*
X92298110Y-57796431D01*
X92550000Y-57847440D01*
X93450000Y-57847440D01*
X93685317Y-57803162D01*
X93702560Y-57792066D01*
X93702560Y-58040000D01*
X92600000Y-58040000D01*
X92309161Y-58097852D01*
X92085000Y-58247631D01*
X92085000Y-58035750D01*
X91926250Y-57877000D01*
X91127000Y-57877000D01*
X91127000Y-57897000D01*
X90873000Y-57897000D01*
X90873000Y-57877000D01*
X90073750Y-57877000D01*
X89915000Y-58035750D01*
X89915000Y-58276310D01*
X90011673Y-58509699D01*
X90190302Y-58688327D01*
X90226747Y-58703423D01*
X90098559Y-58785910D01*
X90008160Y-58918214D01*
X89911701Y-58937401D01*
X89859160Y-58947852D01*
X89612599Y-59112599D01*
X89062599Y-59662599D01*
X88897852Y-59909161D01*
X88840000Y-60200000D01*
X88840000Y-62285198D01*
X87365198Y-63760000D01*
X85077279Y-63760000D01*
X84954090Y-63568559D01*
X84741890Y-63423569D01*
X84490000Y-63372560D01*
X81550000Y-63372560D01*
X81314683Y-63416838D01*
X81098559Y-63555910D01*
X80953569Y-63768110D01*
X80902560Y-64020000D01*
X80902560Y-65020000D01*
X80946838Y-65255317D01*
X81085910Y-65471441D01*
X81298110Y-65616431D01*
X81550000Y-65667440D01*
X84490000Y-65667440D01*
X84725317Y-65623162D01*
X84941441Y-65484090D01*
X85080890Y-65280000D01*
X87680000Y-65280000D01*
X87970839Y-65222148D01*
X88217401Y-65057401D01*
X90137401Y-63137401D01*
X90302148Y-62890839D01*
X90360000Y-62600000D01*
X90360000Y-62558964D01*
X90550000Y-62597440D01*
X91450000Y-62597440D01*
X91685317Y-62553162D01*
X91901441Y-62414090D01*
X92046431Y-62201890D01*
X92097440Y-61950000D01*
X92097440Y-61459319D01*
X92240000Y-61556726D01*
X92240000Y-62285198D01*
X92042599Y-62482599D01*
X91877852Y-62729161D01*
X91820000Y-63020000D01*
X91820000Y-63372560D01*
X91110000Y-63372560D01*
X90874683Y-63416838D01*
X90658559Y-63555910D01*
X90513569Y-63768110D01*
X90462560Y-64020000D01*
X90462560Y-65020000D01*
X90506838Y-65255317D01*
X90645910Y-65471441D01*
X90858110Y-65616431D01*
X91110000Y-65667440D01*
X94050000Y-65667440D01*
X94285317Y-65623162D01*
X94501441Y-65484090D01*
X94646431Y-65271890D01*
X94697440Y-65020000D01*
X94697440Y-64020000D01*
X94653162Y-63784683D01*
X94514090Y-63568559D01*
X94301890Y-63423569D01*
X94050000Y-63372560D01*
X93340000Y-63372560D01*
X93340000Y-63334802D01*
X93537401Y-63137401D01*
X93702148Y-62890839D01*
X93760000Y-62600000D01*
X93760000Y-62555771D01*
X93885910Y-62751441D01*
X94098110Y-62896431D01*
X94350000Y-62947440D01*
X95650000Y-62947440D01*
X95885317Y-62903162D01*
X95991244Y-62835000D01*
X96049995Y-62835000D01*
X96050000Y-62835001D01*
X96290000Y-62787261D01*
X96290000Y-98677848D01*
X85054868Y-98677848D01*
X85054868Y-100065000D01*
X85002487Y-100065000D01*
X85002487Y-103035000D01*
X85055475Y-103035000D01*
X85055475Y-104535000D01*
X90905299Y-104535000D01*
X90879868Y-104662848D01*
X90879868Y-109290000D01*
X82779206Y-109290000D01*
X83158909Y-108910959D01*
X83484628Y-108126541D01*
X83485370Y-107277185D01*
X83161020Y-106492200D01*
X82560959Y-105891091D01*
X81776541Y-105565372D01*
X80927185Y-105564630D01*
X80334818Y-105809392D01*
X80335370Y-105177185D01*
X80011020Y-104392200D01*
X79410959Y-103791091D01*
X78626541Y-103465372D01*
X77777185Y-103464630D01*
X76992200Y-103788980D01*
X76391091Y-104389041D01*
X76065372Y-105173459D01*
X76064798Y-105830400D01*
X75426541Y-105565372D01*
X74577185Y-105564630D01*
X73792200Y-105888980D01*
X73191091Y-106489041D01*
X73120671Y-106658631D01*
X72777363Y-106314722D01*
X72176648Y-106065284D01*
X71526205Y-106064716D01*
X70925057Y-106313106D01*
X70549914Y-106687594D01*
X70482739Y-106525418D01*
X70163970Y-106365635D01*
X68829605Y-107700000D01*
X70163970Y-109034365D01*
X70482739Y-108874582D01*
X70547470Y-108709454D01*
X70922637Y-109085278D01*
X71415664Y-109290000D01*
X69946255Y-109290000D01*
X69984365Y-109213970D01*
X68650000Y-107879605D01*
X67315635Y-109213970D01*
X67353745Y-109290000D01*
X64710000Y-109290000D01*
X64710000Y-107316187D01*
X66507277Y-107316187D01*
X66523503Y-108165387D01*
X66817261Y-108874582D01*
X67136030Y-109034365D01*
X68470395Y-107700000D01*
X67136030Y-106365635D01*
X66817261Y-106525418D01*
X66507277Y-107316187D01*
X64710000Y-107316187D01*
X64710000Y-106186030D01*
X67315635Y-106186030D01*
X68650000Y-107520395D01*
X69984365Y-106186030D01*
X69824582Y-105867261D01*
X69033813Y-105557277D01*
X68184613Y-105573503D01*
X67475418Y-105867261D01*
X67315635Y-106186030D01*
X64710000Y-106186030D01*
X64710000Y-97763970D01*
X67315635Y-97763970D01*
X67475418Y-98082739D01*
X68266187Y-98392723D01*
X69115387Y-98376497D01*
X69824582Y-98082739D01*
X69984365Y-97763970D01*
X68650000Y-96429605D01*
X67315635Y-97763970D01*
X64710000Y-97763970D01*
X64710000Y-95866187D01*
X66507277Y-95866187D01*
X66523503Y-96715387D01*
X66817261Y-97424582D01*
X67136030Y-97584365D01*
X68470395Y-96250000D01*
X68829605Y-96250000D01*
X70163970Y-97584365D01*
X70482739Y-97424582D01*
X70547470Y-97259454D01*
X70922637Y-97635278D01*
X71523352Y-97884716D01*
X72173795Y-97885284D01*
X72774943Y-97636894D01*
X73120463Y-97291977D01*
X73188980Y-97457800D01*
X73789041Y-98058909D01*
X74573459Y-98384628D01*
X75422815Y-98385370D01*
X76207800Y-98061020D01*
X76808909Y-97460959D01*
X77134628Y-96676541D01*
X77134631Y-96672815D01*
X79214630Y-96672815D01*
X79538980Y-97457800D01*
X80139041Y-98058909D01*
X80923459Y-98384628D01*
X81772815Y-98385370D01*
X82557800Y-98061020D01*
X83158909Y-97460959D01*
X83484628Y-96676541D01*
X83485370Y-95827185D01*
X83161020Y-95042200D01*
X82560959Y-94441091D01*
X81776541Y-94115372D01*
X80927185Y-94114630D01*
X80142200Y-94438980D01*
X79541091Y-95039041D01*
X79215372Y-95823459D01*
X79214630Y-96672815D01*
X77134631Y-96672815D01*
X77135370Y-95827185D01*
X76811020Y-95042200D01*
X76210959Y-94441091D01*
X75426541Y-94115372D01*
X74577185Y-94114630D01*
X73792200Y-94438980D01*
X73191091Y-95039041D01*
X73120671Y-95208631D01*
X72777363Y-94864722D01*
X72176648Y-94615284D01*
X71526205Y-94614716D01*
X70925057Y-94863106D01*
X70549914Y-95237594D01*
X70482739Y-95075418D01*
X70163970Y-94915635D01*
X68829605Y-96250000D01*
X68470395Y-96250000D01*
X67136030Y-94915635D01*
X66817261Y-95075418D01*
X66507277Y-95866187D01*
X64710000Y-95866187D01*
X64710000Y-94736030D01*
X67315635Y-94736030D01*
X68650000Y-96070395D01*
X69984365Y-94736030D01*
X69824582Y-94417261D01*
X69033813Y-94107277D01*
X68184613Y-94123503D01*
X67475418Y-94417261D01*
X67315635Y-94736030D01*
X64710000Y-94736030D01*
X64710000Y-91622815D01*
X77464630Y-91622815D01*
X77788980Y-92407800D01*
X78389041Y-93008909D01*
X79173459Y-93334628D01*
X80022815Y-93335370D01*
X80807800Y-93011020D01*
X81408909Y-92410959D01*
X81734628Y-91626541D01*
X81734631Y-91622815D01*
X83814630Y-91622815D01*
X84138980Y-92407800D01*
X84739041Y-93008909D01*
X85523459Y-93334628D01*
X86372815Y-93335370D01*
X87157800Y-93011020D01*
X87758909Y-92410959D01*
X87829329Y-92241369D01*
X88172637Y-92585278D01*
X88773352Y-92834716D01*
X89423795Y-92835284D01*
X90024943Y-92586894D01*
X90400086Y-92212406D01*
X90467261Y-92374582D01*
X90786030Y-92534365D01*
X92120395Y-91200000D01*
X90786030Y-89865635D01*
X90467261Y-90025418D01*
X90402530Y-90190546D01*
X90027363Y-89814722D01*
X89717438Y-89686030D01*
X90965635Y-89686030D01*
X92300000Y-91020395D01*
X93634365Y-89686030D01*
X93474582Y-89367261D01*
X92683813Y-89057277D01*
X91834613Y-89073503D01*
X91125418Y-89367261D01*
X90965635Y-89686030D01*
X89717438Y-89686030D01*
X89426648Y-89565284D01*
X88776205Y-89564716D01*
X88175057Y-89813106D01*
X87829537Y-90158023D01*
X87761020Y-89992200D01*
X87160959Y-89391091D01*
X86376541Y-89065372D01*
X85527185Y-89064630D01*
X84742200Y-89388980D01*
X84141091Y-89989041D01*
X83815372Y-90773459D01*
X83814630Y-91622815D01*
X81734631Y-91622815D01*
X81735370Y-90777185D01*
X81411020Y-89992200D01*
X80810959Y-89391091D01*
X80026541Y-89065372D01*
X79177185Y-89064630D01*
X78392200Y-89388980D01*
X77791091Y-89989041D01*
X77465372Y-90773459D01*
X77464630Y-91622815D01*
X64710000Y-91622815D01*
X64710000Y-90336890D01*
X67558524Y-90336890D01*
X67728355Y-90746924D01*
X68118642Y-91175183D01*
X68643108Y-91421486D01*
X68873000Y-91300819D01*
X68873000Y-90107000D01*
X69127000Y-90107000D01*
X69127000Y-91300819D01*
X69356892Y-91421486D01*
X69881358Y-91175183D01*
X70271645Y-90746924D01*
X70441476Y-90336890D01*
X70320155Y-90107000D01*
X69127000Y-90107000D01*
X68873000Y-90107000D01*
X67679845Y-90107000D01*
X67558524Y-90336890D01*
X64710000Y-90336890D01*
X64710000Y-66385750D01*
X67390000Y-66385750D01*
X67390000Y-66626309D01*
X67486673Y-66859698D01*
X67665301Y-67038327D01*
X67898690Y-67135000D01*
X68114250Y-67135000D01*
X68273000Y-66976250D01*
X68273000Y-66227000D01*
X68527000Y-66227000D01*
X68527000Y-66976250D01*
X68685750Y-67135000D01*
X68901310Y-67135000D01*
X69134699Y-67038327D01*
X69313327Y-66859698D01*
X69410000Y-66626309D01*
X69410000Y-66385750D01*
X69251250Y-66227000D01*
X68527000Y-66227000D01*
X68273000Y-66227000D01*
X67548750Y-66227000D01*
X67390000Y-66385750D01*
X64710000Y-66385750D01*
X64710000Y-64200000D01*
X67377560Y-64200000D01*
X67377560Y-65000000D01*
X67421838Y-65235317D01*
X67488329Y-65338646D01*
X67486673Y-65340302D01*
X67390000Y-65573691D01*
X67390000Y-65814250D01*
X67548750Y-65973000D01*
X68273000Y-65973000D01*
X68273000Y-65953000D01*
X68527000Y-65953000D01*
X68527000Y-65973000D01*
X69251250Y-65973000D01*
X69410000Y-65814250D01*
X69410000Y-65573691D01*
X69373263Y-65485000D01*
X70899995Y-65485000D01*
X70900000Y-65485001D01*
X70900005Y-65485000D01*
X74799995Y-65485000D01*
X74800000Y-65485001D01*
X75082484Y-65428810D01*
X75138675Y-65417633D01*
X75425790Y-65225790D01*
X76685787Y-63965792D01*
X76685790Y-63965790D01*
X76877633Y-63678675D01*
X76892573Y-63603569D01*
X76945001Y-63340000D01*
X76945000Y-63339995D01*
X76945000Y-63242412D01*
X77076000Y-63268940D01*
X77584000Y-63268940D01*
X77819317Y-63224662D01*
X77960371Y-63133896D01*
X77986302Y-63159827D01*
X78219691Y-63256500D01*
X78314250Y-63256500D01*
X78473000Y-63097750D01*
X78473000Y-62177000D01*
X78727000Y-62177000D01*
X78727000Y-63097750D01*
X78885750Y-63256500D01*
X78980309Y-63256500D01*
X79213698Y-63159827D01*
X79392327Y-62981199D01*
X79489000Y-62747810D01*
X79489000Y-62335750D01*
X79330250Y-62177000D01*
X78727000Y-62177000D01*
X78473000Y-62177000D01*
X78453000Y-62177000D01*
X78453000Y-61923000D01*
X78473000Y-61923000D01*
X78473000Y-61002250D01*
X78727000Y-61002250D01*
X78727000Y-61923000D01*
X79330250Y-61923000D01*
X79489000Y-61764250D01*
X79489000Y-61352190D01*
X79392327Y-61118801D01*
X79213698Y-60940173D01*
X78980309Y-60843500D01*
X78885750Y-60843500D01*
X78727000Y-61002250D01*
X78473000Y-61002250D01*
X78314250Y-60843500D01*
X78219691Y-60843500D01*
X77986302Y-60940173D01*
X77959765Y-60966709D01*
X77835890Y-60882069D01*
X77584000Y-60831060D01*
X77076000Y-60831060D01*
X76840683Y-60875338D01*
X76694093Y-60969666D01*
X76565890Y-60882069D01*
X76314000Y-60831060D01*
X75806000Y-60831060D01*
X75570683Y-60875338D01*
X75424093Y-60969666D01*
X75295890Y-60882069D01*
X75044000Y-60831060D01*
X74536000Y-60831060D01*
X74300683Y-60875338D01*
X74154093Y-60969666D01*
X74025890Y-60882069D01*
X73774000Y-60831060D01*
X73266000Y-60831060D01*
X73030683Y-60875338D01*
X72884093Y-60969666D01*
X72755890Y-60882069D01*
X72504000Y-60831060D01*
X71996000Y-60831060D01*
X71760683Y-60875338D01*
X71614093Y-60969666D01*
X71485890Y-60882069D01*
X71234000Y-60831060D01*
X70726000Y-60831060D01*
X70490683Y-60875338D01*
X70274559Y-61014410D01*
X70129569Y-61226610D01*
X70078560Y-61478500D01*
X70078560Y-62136774D01*
X70026702Y-62115241D01*
X69475715Y-62114760D01*
X69285000Y-62193562D01*
X69285000Y-61966580D01*
X71116580Y-60134999D01*
X75749996Y-60134999D01*
X75750001Y-60135000D01*
X76032485Y-60078809D01*
X76088676Y-60067632D01*
X76362185Y-59884880D01*
X76774285Y-59885240D01*
X77283515Y-59674831D01*
X77673461Y-59285564D01*
X77884759Y-58776702D01*
X77885240Y-58225715D01*
X77674831Y-57716485D01*
X77285564Y-57326539D01*
X76776702Y-57115241D01*
X76225715Y-57114760D01*
X75716485Y-57325169D01*
X75326539Y-57714436D01*
X75115241Y-58223298D01*
X75115117Y-58364999D01*
X70750006Y-58364999D01*
X70750001Y-58364998D01*
X70411326Y-58432366D01*
X70124211Y-58624209D01*
X70124209Y-58624212D01*
X67774210Y-60974210D01*
X67582367Y-61261325D01*
X67582367Y-61261326D01*
X67514999Y-61600000D01*
X67515000Y-61600005D01*
X67515000Y-63821614D01*
X67428569Y-63948110D01*
X67377560Y-64200000D01*
X64710000Y-64200000D01*
X64710000Y-53710000D01*
X71000000Y-53710000D01*
X71271705Y-53655954D01*
X71502046Y-53502046D01*
X71655954Y-53271705D01*
X71710000Y-53000000D01*
X71710000Y-48660000D01*
X72885907Y-48660000D01*
X72998946Y-49228285D01*
X73320853Y-49710054D01*
X73650026Y-49930000D01*
X73320853Y-50149946D01*
X72998946Y-50631715D01*
X72885907Y-51200000D01*
X72998946Y-51768285D01*
X73320853Y-52250054D01*
X73362452Y-52277850D01*
X73314683Y-52286838D01*
X73098559Y-52425910D01*
X72953569Y-52638110D01*
X72902560Y-52890000D01*
X72902560Y-54590000D01*
X72946838Y-54825317D01*
X73085910Y-55041441D01*
X73298110Y-55186431D01*
X73550000Y-55237440D01*
X75250000Y-55237440D01*
X75485317Y-55193162D01*
X75701441Y-55054090D01*
X75846431Y-54841890D01*
X75897440Y-54590000D01*
X75897440Y-52890000D01*
X75853162Y-52654683D01*
X75714090Y-52438559D01*
X75501890Y-52293569D01*
X75434459Y-52279914D01*
X75479147Y-52250054D01*
X75801054Y-51768285D01*
X75914093Y-51200000D01*
X75801054Y-50631715D01*
X75479147Y-50149946D01*
X75149974Y-49930000D01*
X75479147Y-49710054D01*
X75801054Y-49228285D01*
X75914093Y-48660000D01*
X75801054Y-48091715D01*
X75479147Y-47609946D01*
X74997378Y-47288039D01*
X74429093Y-47175000D01*
X74370907Y-47175000D01*
X73802622Y-47288039D01*
X73320853Y-47609946D01*
X72998946Y-48091715D01*
X72885907Y-48660000D01*
X71710000Y-48660000D01*
X71710000Y-46710000D01*
X89290000Y-46710000D01*
X89290000Y-53000000D01*
X89290000Y-53000000D01*
G37*
X89290000Y-53000000D02*
X89344046Y-53271705D01*
X89497954Y-53502046D01*
X89728295Y-53655954D01*
X90000000Y-53710000D01*
X90474572Y-53710000D01*
X90365241Y-53973298D01*
X90364760Y-54524285D01*
X90484809Y-54814827D01*
X90314683Y-54846838D01*
X90098559Y-54985910D01*
X90027437Y-55090000D01*
X88364802Y-55090000D01*
X87593805Y-54319003D01*
X87601441Y-54314090D01*
X87746431Y-54101890D01*
X87797440Y-53850000D01*
X87797440Y-50350000D01*
X87753162Y-50114683D01*
X87614090Y-49898559D01*
X87401890Y-49753569D01*
X87150000Y-49702560D01*
X83650000Y-49702560D01*
X83414683Y-49746838D01*
X83198559Y-49885910D01*
X83053569Y-50098110D01*
X83002560Y-50350000D01*
X83002560Y-53036045D01*
X82914090Y-52898559D01*
X82701890Y-52753569D01*
X82450000Y-52702560D01*
X78950000Y-52702560D01*
X78714683Y-52746838D01*
X78498559Y-52885910D01*
X78353569Y-53098110D01*
X78302560Y-53350000D01*
X78302560Y-56850000D01*
X78346838Y-57085317D01*
X78485910Y-57301441D01*
X78698110Y-57446431D01*
X78950000Y-57497440D01*
X82240000Y-57497440D01*
X82240000Y-60185198D01*
X76485198Y-65940000D01*
X71300000Y-65940000D01*
X71009160Y-65997852D01*
X70762599Y-66162599D01*
X70442599Y-66482599D01*
X70277852Y-66729161D01*
X70220000Y-67020000D01*
X70220000Y-67444260D01*
X70129569Y-67576610D01*
X70078560Y-67828500D01*
X70078560Y-68971500D01*
X70122838Y-69206817D01*
X70220000Y-69357811D01*
X70220000Y-69730000D01*
X70277852Y-70020839D01*
X70442599Y-70267401D01*
X71240000Y-71064802D01*
X71240000Y-72915198D01*
X70442599Y-73712599D01*
X70277852Y-73959161D01*
X70273534Y-73980868D01*
X70079147Y-73689946D01*
X70037548Y-73662150D01*
X70085317Y-73653162D01*
X70301441Y-73514090D01*
X70446431Y-73301890D01*
X70497440Y-73050000D01*
X70497440Y-71350000D01*
X70453162Y-71114683D01*
X70314090Y-70898559D01*
X70101890Y-70753569D01*
X69850000Y-70702560D01*
X68150000Y-70702560D01*
X67914683Y-70746838D01*
X67698559Y-70885910D01*
X67553569Y-71098110D01*
X67502560Y-71350000D01*
X67502560Y-73050000D01*
X67546838Y-73285317D01*
X67685910Y-73501441D01*
X67898110Y-73646431D01*
X67965541Y-73660086D01*
X67920853Y-73689946D01*
X67598946Y-74171715D01*
X67485907Y-74740000D01*
X67598946Y-75308285D01*
X67920853Y-75790054D01*
X68261553Y-76017702D01*
X68118642Y-76084817D01*
X67728355Y-76513076D01*
X67558524Y-76923110D01*
X67679845Y-77153000D01*
X68873000Y-77153000D01*
X68873000Y-77133000D01*
X69127000Y-77133000D01*
X69127000Y-77153000D01*
X69147000Y-77153000D01*
X69147000Y-77407000D01*
X69127000Y-77407000D01*
X69127000Y-77427000D01*
X68873000Y-77427000D01*
X68873000Y-77407000D01*
X67679845Y-77407000D01*
X67558524Y-77636890D01*
X67728355Y-78046924D01*
X68118642Y-78475183D01*
X68261553Y-78542298D01*
X67920853Y-78769946D01*
X67598946Y-79251715D01*
X67485907Y-79820000D01*
X67598946Y-80388285D01*
X67920853Y-80870054D01*
X68250026Y-81090000D01*
X67920853Y-81309946D01*
X67598946Y-81791715D01*
X67485907Y-82360000D01*
X67598946Y-82928285D01*
X67920853Y-83410054D01*
X68250026Y-83630000D01*
X67920853Y-83849946D01*
X67598946Y-84331715D01*
X67485907Y-84900000D01*
X67598946Y-85468285D01*
X67920853Y-85950054D01*
X68250026Y-86170000D01*
X67920853Y-86389946D01*
X67598946Y-86871715D01*
X67485907Y-87440000D01*
X67598946Y-88008285D01*
X67920853Y-88490054D01*
X68261553Y-88717702D01*
X68118642Y-88784817D01*
X67728355Y-89213076D01*
X67558524Y-89623110D01*
X67679845Y-89853000D01*
X68873000Y-89853000D01*
X68873000Y-89833000D01*
X69127000Y-89833000D01*
X69127000Y-89853000D01*
X70320155Y-89853000D01*
X70441476Y-89623110D01*
X70271645Y-89213076D01*
X69881358Y-88784817D01*
X69738447Y-88717702D01*
X70079147Y-88490054D01*
X70401054Y-88008285D01*
X70514093Y-87440000D01*
X70401054Y-86871715D01*
X70079147Y-86389946D01*
X69749974Y-86170000D01*
X70079147Y-85950054D01*
X70365199Y-85521947D01*
X70364760Y-86024285D01*
X70575169Y-86533515D01*
X70964436Y-86923461D01*
X71473298Y-87134759D01*
X72024285Y-87135240D01*
X72533515Y-86924831D01*
X72923461Y-86535564D01*
X73134759Y-86026702D01*
X73135240Y-85475715D01*
X73124670Y-85450132D01*
X73162402Y-85412400D01*
X73327149Y-85165839D01*
X73385001Y-84874999D01*
X73385001Y-84146921D01*
X77464722Y-80067200D01*
X77464630Y-80172815D01*
X77788980Y-80957800D01*
X78389041Y-81558909D01*
X79173459Y-81884628D01*
X80022815Y-81885370D01*
X80615182Y-81640608D01*
X80614630Y-82272815D01*
X80938980Y-83057800D01*
X81539041Y-83658909D01*
X82323459Y-83984628D01*
X83172815Y-83985370D01*
X83957800Y-83661020D01*
X84558909Y-83060959D01*
X84884628Y-82276541D01*
X84885202Y-81619600D01*
X85523459Y-81884628D01*
X86372815Y-81885370D01*
X87157800Y-81561020D01*
X87758909Y-80960959D01*
X87829329Y-80791369D01*
X88172637Y-81135278D01*
X88773352Y-81384716D01*
X89423795Y-81385284D01*
X89717396Y-81263970D01*
X90965635Y-81263970D01*
X91125418Y-81582739D01*
X91916187Y-81892723D01*
X92765387Y-81876497D01*
X93474582Y-81582739D01*
X93634365Y-81263970D01*
X92300000Y-79929605D01*
X90965635Y-81263970D01*
X89717396Y-81263970D01*
X90024943Y-81136894D01*
X90400086Y-80762406D01*
X90467261Y-80924582D01*
X90786030Y-81084365D01*
X92120395Y-79750000D01*
X90786030Y-78415635D01*
X90467261Y-78575418D01*
X90402530Y-78740546D01*
X90027363Y-78364722D01*
X89717438Y-78236030D01*
X90965635Y-78236030D01*
X92300000Y-79570395D01*
X93634365Y-78236030D01*
X93474582Y-77917261D01*
X92683813Y-77607277D01*
X91834613Y-77623503D01*
X91125418Y-77917261D01*
X90965635Y-78236030D01*
X89717438Y-78236030D01*
X89426648Y-78115284D01*
X88776205Y-78114716D01*
X88175057Y-78363106D01*
X87829537Y-78708023D01*
X87761020Y-78542200D01*
X87160959Y-77941091D01*
X86376541Y-77615372D01*
X85527185Y-77614630D01*
X84742200Y-77938980D01*
X84141091Y-78539041D01*
X83815372Y-79323459D01*
X83814798Y-79980400D01*
X83176541Y-79715372D01*
X82327185Y-79714630D01*
X81734818Y-79959392D01*
X81735370Y-79327185D01*
X81411020Y-78542200D01*
X80810959Y-77941091D01*
X80026541Y-77615372D01*
X79916646Y-77615276D01*
X80537411Y-76994511D01*
X80702158Y-76747949D01*
X80760010Y-76457110D01*
X80760010Y-74214792D01*
X80814802Y-74160000D01*
X80906610Y-74160000D01*
X80902560Y-74180000D01*
X80902560Y-75180000D01*
X80946838Y-75415317D01*
X81085910Y-75631441D01*
X81298110Y-75776431D01*
X81550000Y-75827440D01*
X84490000Y-75827440D01*
X84725317Y-75783162D01*
X84941441Y-75644090D01*
X85086431Y-75431890D01*
X85137440Y-75180000D01*
X85137440Y-74180000D01*
X85119223Y-74083183D01*
X85337401Y-73937401D01*
X86374802Y-72900000D01*
X90522721Y-72900000D01*
X90645910Y-73091441D01*
X90858110Y-73236431D01*
X91110000Y-73287440D01*
X94039989Y-73287440D01*
X94039989Y-73532560D01*
X91110000Y-73532560D01*
X90874683Y-73576838D01*
X90658559Y-73715910D01*
X90513569Y-73928110D01*
X90462560Y-74180000D01*
X90462560Y-75180000D01*
X90506838Y-75415317D01*
X90645910Y-75631441D01*
X90858110Y-75776431D01*
X91110000Y-75827440D01*
X94039989Y-75827440D01*
X94039989Y-78528927D01*
X93813970Y-78415635D01*
X92479605Y-79750000D01*
X93813970Y-81084365D01*
X94039989Y-80971073D01*
X94039989Y-89978927D01*
X93813970Y-89865635D01*
X92479605Y-91200000D01*
X92493748Y-91214143D01*
X92314143Y-91393748D01*
X92300000Y-91379605D01*
X90965635Y-92713970D01*
X91125418Y-93032739D01*
X91916187Y-93342723D01*
X92765387Y-93326497D01*
X93474582Y-93032739D01*
X93634364Y-92713972D01*
X93719234Y-92798842D01*
X92778076Y-93740000D01*
X89684547Y-93740000D01*
X89674831Y-93716485D01*
X89285564Y-93326539D01*
X88776702Y-93115241D01*
X88225715Y-93114760D01*
X87716485Y-93325169D01*
X87326539Y-93714436D01*
X87115241Y-94223298D01*
X87114760Y-94774285D01*
X87152207Y-94864914D01*
X86975715Y-94864760D01*
X86466485Y-95075169D01*
X86076539Y-95464436D01*
X85865241Y-95973298D01*
X85864760Y-96524285D01*
X86075169Y-97033515D01*
X86464436Y-97423461D01*
X86973298Y-97634759D01*
X87524285Y-97635240D01*
X88033515Y-97424831D01*
X88423461Y-97035564D01*
X88434076Y-97010000D01*
X92050000Y-97010000D01*
X92340839Y-96952148D01*
X92587401Y-96787401D01*
X95837401Y-93537401D01*
X96002148Y-93290839D01*
X96060000Y-93000000D01*
X96060000Y-70400000D01*
X96002148Y-70109161D01*
X95837401Y-69862599D01*
X95037401Y-69062599D01*
X94790839Y-68897852D01*
X94654292Y-68870691D01*
X94653162Y-68864683D01*
X94514090Y-68648559D01*
X94301890Y-68503569D01*
X94050000Y-68452560D01*
X91110000Y-68452560D01*
X90874683Y-68496838D01*
X90658559Y-68635910D01*
X90513569Y-68848110D01*
X90462560Y-69100000D01*
X90462560Y-70100000D01*
X90467405Y-70125752D01*
X90262599Y-70262599D01*
X89645208Y-70879990D01*
X86554792Y-70879990D01*
X86137401Y-70462599D01*
X85890839Y-70297852D01*
X85600000Y-70240000D01*
X85109089Y-70240000D01*
X85137440Y-70100000D01*
X85137440Y-69100000D01*
X85093162Y-68864683D01*
X84954090Y-68648559D01*
X84741890Y-68503569D01*
X84490000Y-68452560D01*
X81550000Y-68452560D01*
X81314683Y-68496838D01*
X81098559Y-68635910D01*
X80953569Y-68848110D01*
X80902560Y-69100000D01*
X80902560Y-70100000D01*
X80928903Y-70240000D01*
X80755105Y-70240000D01*
X80664090Y-70098559D01*
X80451890Y-69953569D01*
X80200000Y-69902560D01*
X79700000Y-69902560D01*
X79464683Y-69946838D01*
X79248559Y-70085910D01*
X79202031Y-70154006D01*
X79059698Y-70011673D01*
X78826309Y-69915000D01*
X78733750Y-69915000D01*
X78575000Y-70073750D01*
X78575000Y-70873000D01*
X78597000Y-70873000D01*
X78597000Y-71127000D01*
X78575000Y-71127000D01*
X78575000Y-71926250D01*
X78733750Y-72085000D01*
X78826309Y-72085000D01*
X79059698Y-71988327D01*
X79200936Y-71847090D01*
X79235910Y-71901441D01*
X79448110Y-72046431D01*
X79556764Y-72068434D01*
X78962599Y-72662599D01*
X78797852Y-72909161D01*
X78740000Y-73200000D01*
X78740000Y-75935198D01*
X72317084Y-82358114D01*
X72285564Y-82326539D01*
X71776702Y-82115241D01*
X71225715Y-82114760D01*
X70716485Y-82325169D01*
X70472593Y-82568637D01*
X70514093Y-82360000D01*
X70401054Y-81791715D01*
X70079147Y-81309946D01*
X69749974Y-81090000D01*
X70079147Y-80870054D01*
X70401054Y-80388285D01*
X70514093Y-79820000D01*
X70401054Y-79251715D01*
X70079147Y-78769946D01*
X69738447Y-78542298D01*
X69881358Y-78475183D01*
X70271645Y-78046924D01*
X70441476Y-77636890D01*
X70320156Y-77407002D01*
X70485000Y-77407002D01*
X70485000Y-77309802D01*
X71124998Y-77949800D01*
X71115241Y-77973298D01*
X71114760Y-78524285D01*
X71325169Y-79033515D01*
X71714436Y-79423461D01*
X72223298Y-79634759D01*
X72774285Y-79635240D01*
X73283515Y-79424831D01*
X73673461Y-79035564D01*
X73884759Y-78526702D01*
X73885240Y-77975715D01*
X73674831Y-77466485D01*
X73285564Y-77076539D01*
X72854246Y-76897440D01*
X73710000Y-76897440D01*
X73945317Y-76853162D01*
X74161441Y-76714090D01*
X74306431Y-76501890D01*
X74320086Y-76434459D01*
X74349946Y-76479147D01*
X74831715Y-76801054D01*
X75400000Y-76914093D01*
X75968285Y-76801054D01*
X76450054Y-76479147D01*
X76771961Y-75997378D01*
X76885000Y-75429093D01*
X76885000Y-75370907D01*
X76771961Y-74802622D01*
X76538141Y-74452685D01*
X76540839Y-74452148D01*
X76787401Y-74287401D01*
X76939636Y-74135166D01*
X77024285Y-74135240D01*
X77533515Y-73924831D01*
X77923461Y-73535564D01*
X78134759Y-73026702D01*
X78135240Y-72475715D01*
X77953174Y-72035080D01*
X78073691Y-72085000D01*
X78166250Y-72085000D01*
X78325000Y-71926250D01*
X78325000Y-71127000D01*
X77723750Y-71127000D01*
X77565000Y-71285750D01*
X77565000Y-71576310D01*
X77586039Y-71627102D01*
X77535564Y-71576539D01*
X77026702Y-71365241D01*
X76475715Y-71364760D01*
X75966485Y-71575169D01*
X75743108Y-71798157D01*
X75835000Y-71576310D01*
X75835000Y-71285750D01*
X75676250Y-71127000D01*
X75075000Y-71127000D01*
X75075000Y-71147000D01*
X74825000Y-71147000D01*
X74825000Y-71127000D01*
X74803000Y-71127000D01*
X74803000Y-70873000D01*
X74825000Y-70873000D01*
X74825000Y-70073750D01*
X75075000Y-70073750D01*
X75075000Y-70873000D01*
X75676250Y-70873000D01*
X75835000Y-70714250D01*
X75835000Y-70423690D01*
X77565000Y-70423690D01*
X77565000Y-70714250D01*
X77723750Y-70873000D01*
X78325000Y-70873000D01*
X78325000Y-70073750D01*
X78166250Y-69915000D01*
X78073691Y-69915000D01*
X77840302Y-70011673D01*
X77661673Y-70190301D01*
X77565000Y-70423690D01*
X75835000Y-70423690D01*
X75738327Y-70190301D01*
X75559698Y-70011673D01*
X75326309Y-69915000D01*
X75233750Y-69915000D01*
X75075000Y-70073750D01*
X74825000Y-70073750D01*
X74666250Y-69915000D01*
X74573691Y-69915000D01*
X74340302Y-70011673D01*
X74232332Y-70119643D01*
X74280000Y-69880000D01*
X74280000Y-69552780D01*
X74409691Y-69606500D01*
X74504250Y-69606500D01*
X74663000Y-69447750D01*
X74663000Y-68527000D01*
X74643000Y-68527000D01*
X74643000Y-68273000D01*
X74663000Y-68273000D01*
X74663000Y-68253000D01*
X74917000Y-68253000D01*
X74917000Y-68273000D01*
X74937000Y-68273000D01*
X74937000Y-68527000D01*
X74917000Y-68527000D01*
X74917000Y-69447750D01*
X75075750Y-69606500D01*
X75170309Y-69606500D01*
X75403698Y-69509827D01*
X75430235Y-69483291D01*
X75554110Y-69567931D01*
X75806000Y-69618940D01*
X76314000Y-69618940D01*
X76549317Y-69574662D01*
X76690371Y-69483896D01*
X76716302Y-69509827D01*
X76949691Y-69606500D01*
X77044250Y-69606500D01*
X77203000Y-69447750D01*
X77203000Y-68527000D01*
X77457000Y-68527000D01*
X77457000Y-69447750D01*
X77615750Y-69606500D01*
X77710309Y-69606500D01*
X77943698Y-69509827D01*
X77965000Y-69488525D01*
X77986302Y-69509827D01*
X78219691Y-69606500D01*
X78314250Y-69606500D01*
X78473000Y-69447750D01*
X78473000Y-68527000D01*
X78727000Y-68527000D01*
X78727000Y-69447750D01*
X78885750Y-69606500D01*
X78980309Y-69606500D01*
X79213698Y-69509827D01*
X79392327Y-69331199D01*
X79489000Y-69097810D01*
X79489000Y-68685750D01*
X79330250Y-68527000D01*
X78727000Y-68527000D01*
X78473000Y-68527000D01*
X77457000Y-68527000D01*
X77203000Y-68527000D01*
X77183000Y-68527000D01*
X77183000Y-68273000D01*
X77203000Y-68273000D01*
X77203000Y-68253000D01*
X77457000Y-68253000D01*
X77457000Y-68273000D01*
X78473000Y-68273000D01*
X78473000Y-67352250D01*
X78727000Y-67352250D01*
X78727000Y-68273000D01*
X79330250Y-68273000D01*
X79489000Y-68114250D01*
X79489000Y-67702190D01*
X79392327Y-67468801D01*
X79213698Y-67290173D01*
X78980309Y-67193500D01*
X78885750Y-67193500D01*
X78727000Y-67352250D01*
X78473000Y-67352250D01*
X78314250Y-67193500D01*
X78219691Y-67193500D01*
X77986302Y-67290173D01*
X77965000Y-67311475D01*
X77943698Y-67290173D01*
X77710309Y-67193500D01*
X77615750Y-67193500D01*
X77457002Y-67352248D01*
X77457002Y-67193500D01*
X77381302Y-67193500D01*
X78014802Y-66560000D01*
X80902560Y-66560000D01*
X80902560Y-67560000D01*
X80946838Y-67795317D01*
X81085910Y-68011441D01*
X81298110Y-68156431D01*
X81550000Y-68207440D01*
X84490000Y-68207440D01*
X84725317Y-68163162D01*
X84941441Y-68024090D01*
X85080890Y-67820000D01*
X90522721Y-67820000D01*
X90645910Y-68011441D01*
X90858110Y-68156431D01*
X91110000Y-68207440D01*
X94050000Y-68207440D01*
X94285317Y-68163162D01*
X94501441Y-68024090D01*
X94646431Y-67811890D01*
X94697440Y-67560000D01*
X94697440Y-66560000D01*
X94653162Y-66324683D01*
X94514090Y-66108559D01*
X94301890Y-65963569D01*
X94050000Y-65912560D01*
X91110000Y-65912560D01*
X90874683Y-65956838D01*
X90658559Y-66095910D01*
X90519110Y-66300000D01*
X85077279Y-66300000D01*
X84954090Y-66108559D01*
X84741890Y-65963569D01*
X84490000Y-65912560D01*
X81550000Y-65912560D01*
X81314683Y-65956838D01*
X81098559Y-66095910D01*
X80953569Y-66308110D01*
X80902560Y-66560000D01*
X78014802Y-66560000D01*
X83537401Y-61037401D01*
X83702148Y-60790839D01*
X83760000Y-60500000D01*
X83760000Y-60485000D01*
X85114250Y-60485000D01*
X85273000Y-60326250D01*
X85273000Y-58227000D01*
X85527000Y-58227000D01*
X85527000Y-60326250D01*
X85685750Y-60485000D01*
X87276310Y-60485000D01*
X87509699Y-60388327D01*
X87688327Y-60209698D01*
X87785000Y-59976309D01*
X87785000Y-58385750D01*
X87626250Y-58227000D01*
X85527000Y-58227000D01*
X85273000Y-58227000D01*
X85253000Y-58227000D01*
X85253000Y-57973000D01*
X85273000Y-57973000D01*
X85273000Y-55873750D01*
X85114250Y-55715000D01*
X84059802Y-55715000D01*
X84164802Y-55610000D01*
X86735198Y-55610000D01*
X86840198Y-55715000D01*
X85685750Y-55715000D01*
X85527000Y-55873750D01*
X85527000Y-57973000D01*
X87626250Y-57973000D01*
X87785000Y-57814250D01*
X87785000Y-56557288D01*
X88050000Y-56610000D01*
X90027069Y-56610000D01*
X90085910Y-56701441D01*
X90225750Y-56796990D01*
X90190302Y-56811673D01*
X90011673Y-56990301D01*
X89915000Y-57223690D01*
X89915000Y-57464250D01*
X90073750Y-57623000D01*
X90873000Y-57623000D01*
X90873000Y-57603000D01*
X91127000Y-57603000D01*
X91127000Y-57623000D01*
X91926250Y-57623000D01*
X92012262Y-57536988D01*
X92085910Y-57651441D01*
X92298110Y-57796431D01*
X92550000Y-57847440D01*
X93450000Y-57847440D01*
X93685317Y-57803162D01*
X93702560Y-57792066D01*
X93702560Y-58040000D01*
X92600000Y-58040000D01*
X92309161Y-58097852D01*
X92085000Y-58247631D01*
X92085000Y-58035750D01*
X91926250Y-57877000D01*
X91127000Y-57877000D01*
X91127000Y-57897000D01*
X90873000Y-57897000D01*
X90873000Y-57877000D01*
X90073750Y-57877000D01*
X89915000Y-58035750D01*
X89915000Y-58276310D01*
X90011673Y-58509699D01*
X90190302Y-58688327D01*
X90226747Y-58703423D01*
X90098559Y-58785910D01*
X90008160Y-58918214D01*
X89911701Y-58937401D01*
X89859160Y-58947852D01*
X89612599Y-59112599D01*
X89062599Y-59662599D01*
X88897852Y-59909161D01*
X88840000Y-60200000D01*
X88840000Y-62285198D01*
X87365198Y-63760000D01*
X85077279Y-63760000D01*
X84954090Y-63568559D01*
X84741890Y-63423569D01*
X84490000Y-63372560D01*
X81550000Y-63372560D01*
X81314683Y-63416838D01*
X81098559Y-63555910D01*
X80953569Y-63768110D01*
X80902560Y-64020000D01*
X80902560Y-65020000D01*
X80946838Y-65255317D01*
X81085910Y-65471441D01*
X81298110Y-65616431D01*
X81550000Y-65667440D01*
X84490000Y-65667440D01*
X84725317Y-65623162D01*
X84941441Y-65484090D01*
X85080890Y-65280000D01*
X87680000Y-65280000D01*
X87970839Y-65222148D01*
X88217401Y-65057401D01*
X90137401Y-63137401D01*
X90302148Y-62890839D01*
X90360000Y-62600000D01*
X90360000Y-62558964D01*
X90550000Y-62597440D01*
X91450000Y-62597440D01*
X91685317Y-62553162D01*
X91901441Y-62414090D01*
X92046431Y-62201890D01*
X92097440Y-61950000D01*
X92097440Y-61459319D01*
X92240000Y-61556726D01*
X92240000Y-62285198D01*
X92042599Y-62482599D01*
X91877852Y-62729161D01*
X91820000Y-63020000D01*
X91820000Y-63372560D01*
X91110000Y-63372560D01*
X90874683Y-63416838D01*
X90658559Y-63555910D01*
X90513569Y-63768110D01*
X90462560Y-64020000D01*
X90462560Y-65020000D01*
X90506838Y-65255317D01*
X90645910Y-65471441D01*
X90858110Y-65616431D01*
X91110000Y-65667440D01*
X94050000Y-65667440D01*
X94285317Y-65623162D01*
X94501441Y-65484090D01*
X94646431Y-65271890D01*
X94697440Y-65020000D01*
X94697440Y-64020000D01*
X94653162Y-63784683D01*
X94514090Y-63568559D01*
X94301890Y-63423569D01*
X94050000Y-63372560D01*
X93340000Y-63372560D01*
X93340000Y-63334802D01*
X93537401Y-63137401D01*
X93702148Y-62890839D01*
X93760000Y-62600000D01*
X93760000Y-62555771D01*
X93885910Y-62751441D01*
X94098110Y-62896431D01*
X94350000Y-62947440D01*
X95650000Y-62947440D01*
X95885317Y-62903162D01*
X95991244Y-62835000D01*
X96049995Y-62835000D01*
X96050000Y-62835001D01*
X96290000Y-62787261D01*
X96290000Y-98677848D01*
X85054868Y-98677848D01*
X85054868Y-100065000D01*
X85002487Y-100065000D01*
X85002487Y-103035000D01*
X85055475Y-103035000D01*
X85055475Y-104535000D01*
X90905299Y-104535000D01*
X90879868Y-104662848D01*
X90879868Y-109290000D01*
X82779206Y-109290000D01*
X83158909Y-108910959D01*
X83484628Y-108126541D01*
X83485370Y-107277185D01*
X83161020Y-106492200D01*
X82560959Y-105891091D01*
X81776541Y-105565372D01*
X80927185Y-105564630D01*
X80334818Y-105809392D01*
X80335370Y-105177185D01*
X80011020Y-104392200D01*
X79410959Y-103791091D01*
X78626541Y-103465372D01*
X77777185Y-103464630D01*
X76992200Y-103788980D01*
X76391091Y-104389041D01*
X76065372Y-105173459D01*
X76064798Y-105830400D01*
X75426541Y-105565372D01*
X74577185Y-105564630D01*
X73792200Y-105888980D01*
X73191091Y-106489041D01*
X73120671Y-106658631D01*
X72777363Y-106314722D01*
X72176648Y-106065284D01*
X71526205Y-106064716D01*
X70925057Y-106313106D01*
X70549914Y-106687594D01*
X70482739Y-106525418D01*
X70163970Y-106365635D01*
X68829605Y-107700000D01*
X70163970Y-109034365D01*
X70482739Y-108874582D01*
X70547470Y-108709454D01*
X70922637Y-109085278D01*
X71415664Y-109290000D01*
X69946255Y-109290000D01*
X69984365Y-109213970D01*
X68650000Y-107879605D01*
X67315635Y-109213970D01*
X67353745Y-109290000D01*
X64710000Y-109290000D01*
X64710000Y-107316187D01*
X66507277Y-107316187D01*
X66523503Y-108165387D01*
X66817261Y-108874582D01*
X67136030Y-109034365D01*
X68470395Y-107700000D01*
X67136030Y-106365635D01*
X66817261Y-106525418D01*
X66507277Y-107316187D01*
X64710000Y-107316187D01*
X64710000Y-106186030D01*
X67315635Y-106186030D01*
X68650000Y-107520395D01*
X69984365Y-106186030D01*
X69824582Y-105867261D01*
X69033813Y-105557277D01*
X68184613Y-105573503D01*
X67475418Y-105867261D01*
X67315635Y-106186030D01*
X64710000Y-106186030D01*
X64710000Y-97763970D01*
X67315635Y-97763970D01*
X67475418Y-98082739D01*
X68266187Y-98392723D01*
X69115387Y-98376497D01*
X69824582Y-98082739D01*
X69984365Y-97763970D01*
X68650000Y-96429605D01*
X67315635Y-97763970D01*
X64710000Y-97763970D01*
X64710000Y-95866187D01*
X66507277Y-95866187D01*
X66523503Y-96715387D01*
X66817261Y-97424582D01*
X67136030Y-97584365D01*
X68470395Y-96250000D01*
X68829605Y-96250000D01*
X70163970Y-97584365D01*
X70482739Y-97424582D01*
X70547470Y-97259454D01*
X70922637Y-97635278D01*
X71523352Y-97884716D01*
X72173795Y-97885284D01*
X72774943Y-97636894D01*
X73120463Y-97291977D01*
X73188980Y-97457800D01*
X73789041Y-98058909D01*
X74573459Y-98384628D01*
X75422815Y-98385370D01*
X76207800Y-98061020D01*
X76808909Y-97460959D01*
X77134628Y-96676541D01*
X77134631Y-96672815D01*
X79214630Y-96672815D01*
X79538980Y-97457800D01*
X80139041Y-98058909D01*
X80923459Y-98384628D01*
X81772815Y-98385370D01*
X82557800Y-98061020D01*
X83158909Y-97460959D01*
X83484628Y-96676541D01*
X83485370Y-95827185D01*
X83161020Y-95042200D01*
X82560959Y-94441091D01*
X81776541Y-94115372D01*
X80927185Y-94114630D01*
X80142200Y-94438980D01*
X79541091Y-95039041D01*
X79215372Y-95823459D01*
X79214630Y-96672815D01*
X77134631Y-96672815D01*
X77135370Y-95827185D01*
X76811020Y-95042200D01*
X76210959Y-94441091D01*
X75426541Y-94115372D01*
X74577185Y-94114630D01*
X73792200Y-94438980D01*
X73191091Y-95039041D01*
X73120671Y-95208631D01*
X72777363Y-94864722D01*
X72176648Y-94615284D01*
X71526205Y-94614716D01*
X70925057Y-94863106D01*
X70549914Y-95237594D01*
X70482739Y-95075418D01*
X70163970Y-94915635D01*
X68829605Y-96250000D01*
X68470395Y-96250000D01*
X67136030Y-94915635D01*
X66817261Y-95075418D01*
X66507277Y-95866187D01*
X64710000Y-95866187D01*
X64710000Y-94736030D01*
X67315635Y-94736030D01*
X68650000Y-96070395D01*
X69984365Y-94736030D01*
X69824582Y-94417261D01*
X69033813Y-94107277D01*
X68184613Y-94123503D01*
X67475418Y-94417261D01*
X67315635Y-94736030D01*
X64710000Y-94736030D01*
X64710000Y-91622815D01*
X77464630Y-91622815D01*
X77788980Y-92407800D01*
X78389041Y-93008909D01*
X79173459Y-93334628D01*
X80022815Y-93335370D01*
X80807800Y-93011020D01*
X81408909Y-92410959D01*
X81734628Y-91626541D01*
X81734631Y-91622815D01*
X83814630Y-91622815D01*
X84138980Y-92407800D01*
X84739041Y-93008909D01*
X85523459Y-93334628D01*
X86372815Y-93335370D01*
X87157800Y-93011020D01*
X87758909Y-92410959D01*
X87829329Y-92241369D01*
X88172637Y-92585278D01*
X88773352Y-92834716D01*
X89423795Y-92835284D01*
X90024943Y-92586894D01*
X90400086Y-92212406D01*
X90467261Y-92374582D01*
X90786030Y-92534365D01*
X92120395Y-91200000D01*
X90786030Y-89865635D01*
X90467261Y-90025418D01*
X90402530Y-90190546D01*
X90027363Y-89814722D01*
X89717438Y-89686030D01*
X90965635Y-89686030D01*
X92300000Y-91020395D01*
X93634365Y-89686030D01*
X93474582Y-89367261D01*
X92683813Y-89057277D01*
X91834613Y-89073503D01*
X91125418Y-89367261D01*
X90965635Y-89686030D01*
X89717438Y-89686030D01*
X89426648Y-89565284D01*
X88776205Y-89564716D01*
X88175057Y-89813106D01*
X87829537Y-90158023D01*
X87761020Y-89992200D01*
X87160959Y-89391091D01*
X86376541Y-89065372D01*
X85527185Y-89064630D01*
X84742200Y-89388980D01*
X84141091Y-89989041D01*
X83815372Y-90773459D01*
X83814630Y-91622815D01*
X81734631Y-91622815D01*
X81735370Y-90777185D01*
X81411020Y-89992200D01*
X80810959Y-89391091D01*
X80026541Y-89065372D01*
X79177185Y-89064630D01*
X78392200Y-89388980D01*
X77791091Y-89989041D01*
X77465372Y-90773459D01*
X77464630Y-91622815D01*
X64710000Y-91622815D01*
X64710000Y-90336890D01*
X67558524Y-90336890D01*
X67728355Y-90746924D01*
X68118642Y-91175183D01*
X68643108Y-91421486D01*
X68873000Y-91300819D01*
X68873000Y-90107000D01*
X69127000Y-90107000D01*
X69127000Y-91300819D01*
X69356892Y-91421486D01*
X69881358Y-91175183D01*
X70271645Y-90746924D01*
X70441476Y-90336890D01*
X70320155Y-90107000D01*
X69127000Y-90107000D01*
X68873000Y-90107000D01*
X67679845Y-90107000D01*
X67558524Y-90336890D01*
X64710000Y-90336890D01*
X64710000Y-66385750D01*
X67390000Y-66385750D01*
X67390000Y-66626309D01*
X67486673Y-66859698D01*
X67665301Y-67038327D01*
X67898690Y-67135000D01*
X68114250Y-67135000D01*
X68273000Y-66976250D01*
X68273000Y-66227000D01*
X68527000Y-66227000D01*
X68527000Y-66976250D01*
X68685750Y-67135000D01*
X68901310Y-67135000D01*
X69134699Y-67038327D01*
X69313327Y-66859698D01*
X69410000Y-66626309D01*
X69410000Y-66385750D01*
X69251250Y-66227000D01*
X68527000Y-66227000D01*
X68273000Y-66227000D01*
X67548750Y-66227000D01*
X67390000Y-66385750D01*
X64710000Y-66385750D01*
X64710000Y-64200000D01*
X67377560Y-64200000D01*
X67377560Y-65000000D01*
X67421838Y-65235317D01*
X67488329Y-65338646D01*
X67486673Y-65340302D01*
X67390000Y-65573691D01*
X67390000Y-65814250D01*
X67548750Y-65973000D01*
X68273000Y-65973000D01*
X68273000Y-65953000D01*
X68527000Y-65953000D01*
X68527000Y-65973000D01*
X69251250Y-65973000D01*
X69410000Y-65814250D01*
X69410000Y-65573691D01*
X69373263Y-65485000D01*
X70899995Y-65485000D01*
X70900000Y-65485001D01*
X70900005Y-65485000D01*
X74799995Y-65485000D01*
X74800000Y-65485001D01*
X75082484Y-65428810D01*
X75138675Y-65417633D01*
X75425790Y-65225790D01*
X76685787Y-63965792D01*
X76685790Y-63965790D01*
X76877633Y-63678675D01*
X76892573Y-63603569D01*
X76945001Y-63340000D01*
X76945000Y-63339995D01*
X76945000Y-63242412D01*
X77076000Y-63268940D01*
X77584000Y-63268940D01*
X77819317Y-63224662D01*
X77960371Y-63133896D01*
X77986302Y-63159827D01*
X78219691Y-63256500D01*
X78314250Y-63256500D01*
X78473000Y-63097750D01*
X78473000Y-62177000D01*
X78727000Y-62177000D01*
X78727000Y-63097750D01*
X78885750Y-63256500D01*
X78980309Y-63256500D01*
X79213698Y-63159827D01*
X79392327Y-62981199D01*
X79489000Y-62747810D01*
X79489000Y-62335750D01*
X79330250Y-62177000D01*
X78727000Y-62177000D01*
X78473000Y-62177000D01*
X78453000Y-62177000D01*
X78453000Y-61923000D01*
X78473000Y-61923000D01*
X78473000Y-61002250D01*
X78727000Y-61002250D01*
X78727000Y-61923000D01*
X79330250Y-61923000D01*
X79489000Y-61764250D01*
X79489000Y-61352190D01*
X79392327Y-61118801D01*
X79213698Y-60940173D01*
X78980309Y-60843500D01*
X78885750Y-60843500D01*
X78727000Y-61002250D01*
X78473000Y-61002250D01*
X78314250Y-60843500D01*
X78219691Y-60843500D01*
X77986302Y-60940173D01*
X77959765Y-60966709D01*
X77835890Y-60882069D01*
X77584000Y-60831060D01*
X77076000Y-60831060D01*
X76840683Y-60875338D01*
X76694093Y-60969666D01*
X76565890Y-60882069D01*
X76314000Y-60831060D01*
X75806000Y-60831060D01*
X75570683Y-60875338D01*
X75424093Y-60969666D01*
X75295890Y-60882069D01*
X75044000Y-60831060D01*
X74536000Y-60831060D01*
X74300683Y-60875338D01*
X74154093Y-60969666D01*
X74025890Y-60882069D01*
X73774000Y-60831060D01*
X73266000Y-60831060D01*
X73030683Y-60875338D01*
X72884093Y-60969666D01*
X72755890Y-60882069D01*
X72504000Y-60831060D01*
X71996000Y-60831060D01*
X71760683Y-60875338D01*
X71614093Y-60969666D01*
X71485890Y-60882069D01*
X71234000Y-60831060D01*
X70726000Y-60831060D01*
X70490683Y-60875338D01*
X70274559Y-61014410D01*
X70129569Y-61226610D01*
X70078560Y-61478500D01*
X70078560Y-62136774D01*
X70026702Y-62115241D01*
X69475715Y-62114760D01*
X69285000Y-62193562D01*
X69285000Y-61966580D01*
X71116580Y-60134999D01*
X75749996Y-60134999D01*
X75750001Y-60135000D01*
X76032485Y-60078809D01*
X76088676Y-60067632D01*
X76362185Y-59884880D01*
X76774285Y-59885240D01*
X77283515Y-59674831D01*
X77673461Y-59285564D01*
X77884759Y-58776702D01*
X77885240Y-58225715D01*
X77674831Y-57716485D01*
X77285564Y-57326539D01*
X76776702Y-57115241D01*
X76225715Y-57114760D01*
X75716485Y-57325169D01*
X75326539Y-57714436D01*
X75115241Y-58223298D01*
X75115117Y-58364999D01*
X70750006Y-58364999D01*
X70750001Y-58364998D01*
X70411326Y-58432366D01*
X70124211Y-58624209D01*
X70124209Y-58624212D01*
X67774210Y-60974210D01*
X67582367Y-61261325D01*
X67582367Y-61261326D01*
X67514999Y-61600000D01*
X67515000Y-61600005D01*
X67515000Y-63821614D01*
X67428569Y-63948110D01*
X67377560Y-64200000D01*
X64710000Y-64200000D01*
X64710000Y-53710000D01*
X71000000Y-53710000D01*
X71271705Y-53655954D01*
X71502046Y-53502046D01*
X71655954Y-53271705D01*
X71710000Y-53000000D01*
X71710000Y-48660000D01*
X72885907Y-48660000D01*
X72998946Y-49228285D01*
X73320853Y-49710054D01*
X73650026Y-49930000D01*
X73320853Y-50149946D01*
X72998946Y-50631715D01*
X72885907Y-51200000D01*
X72998946Y-51768285D01*
X73320853Y-52250054D01*
X73362452Y-52277850D01*
X73314683Y-52286838D01*
X73098559Y-52425910D01*
X72953569Y-52638110D01*
X72902560Y-52890000D01*
X72902560Y-54590000D01*
X72946838Y-54825317D01*
X73085910Y-55041441D01*
X73298110Y-55186431D01*
X73550000Y-55237440D01*
X75250000Y-55237440D01*
X75485317Y-55193162D01*
X75701441Y-55054090D01*
X75846431Y-54841890D01*
X75897440Y-54590000D01*
X75897440Y-52890000D01*
X75853162Y-52654683D01*
X75714090Y-52438559D01*
X75501890Y-52293569D01*
X75434459Y-52279914D01*
X75479147Y-52250054D01*
X75801054Y-51768285D01*
X75914093Y-51200000D01*
X75801054Y-50631715D01*
X75479147Y-50149946D01*
X75149974Y-49930000D01*
X75479147Y-49710054D01*
X75801054Y-49228285D01*
X75914093Y-48660000D01*
X75801054Y-48091715D01*
X75479147Y-47609946D01*
X74997378Y-47288039D01*
X74429093Y-47175000D01*
X74370907Y-47175000D01*
X73802622Y-47288039D01*
X73320853Y-47609946D01*
X72998946Y-48091715D01*
X72885907Y-48660000D01*
X71710000Y-48660000D01*
X71710000Y-46710000D01*
X89290000Y-46710000D01*
X89290000Y-53000000D01*
G36*
X147290000Y-53000000D02*
X147344046Y-53271705D01*
X147497954Y-53502046D01*
X147728295Y-53655954D01*
X148000000Y-53710000D01*
X154290000Y-53710000D01*
X154290000Y-58720881D01*
X153860959Y-58291091D01*
X153076541Y-57965372D01*
X152227185Y-57964630D01*
X151442200Y-58288980D01*
X150841091Y-58889041D01*
X150515372Y-59673459D01*
X150514630Y-60522815D01*
X150838980Y-61307800D01*
X151439041Y-61908909D01*
X152223459Y-62234628D01*
X153072815Y-62235370D01*
X153857800Y-61911020D01*
X154290000Y-61479574D01*
X154290000Y-109290000D01*
X153589762Y-109290000D01*
X153589762Y-103490000D01*
X141415000Y-103490000D01*
X141415000Y-103647405D01*
X141340839Y-103597852D01*
X141050000Y-103540000D01*
X136250000Y-103540000D01*
X135959161Y-103597852D01*
X135712599Y-103762599D01*
X135547852Y-104009161D01*
X135490000Y-104300000D01*
X135490000Y-109100000D01*
X135527794Y-109290000D01*
X122710000Y-109290000D01*
X122710000Y-92274285D01*
X130614760Y-92274285D01*
X130825169Y-92783515D01*
X131214436Y-93173461D01*
X131723298Y-93384759D01*
X132274285Y-93385240D01*
X132783515Y-93174831D01*
X133173461Y-92785564D01*
X133352631Y-92354075D01*
X133386631Y-92525006D01*
X133708538Y-93006775D01*
X134190307Y-93328682D01*
X134758592Y-93441721D01*
X135326877Y-93328682D01*
X135808646Y-93006775D01*
X135836442Y-92965176D01*
X135845430Y-93012945D01*
X135984502Y-93229069D01*
X136196702Y-93374059D01*
X136448592Y-93425068D01*
X138148592Y-93425068D01*
X138383909Y-93380790D01*
X138600033Y-93241718D01*
X138745023Y-93029518D01*
X138796032Y-92777628D01*
X138796032Y-91077628D01*
X138751754Y-90842311D01*
X138612682Y-90626187D01*
X138400482Y-90481197D01*
X138148592Y-90430188D01*
X138058592Y-90430188D01*
X138058592Y-89706994D01*
X138160033Y-89641718D01*
X138162827Y-89637629D01*
X139483310Y-90958112D01*
X139226539Y-91214436D01*
X139015241Y-91723298D01*
X139014760Y-92274285D01*
X139225169Y-92783515D01*
X139614436Y-93173461D01*
X140123298Y-93384759D01*
X140674285Y-93385240D01*
X141183515Y-93174831D01*
X141573461Y-92785564D01*
X141784759Y-92276702D01*
X141785240Y-91725715D01*
X141574831Y-91216485D01*
X141185564Y-90826539D01*
X141160000Y-90815924D01*
X141160000Y-90800000D01*
X141102148Y-90509161D01*
X140937401Y-90262599D01*
X138865029Y-88190227D01*
X138618467Y-88025480D01*
X138327628Y-87967628D01*
X138263697Y-87967628D01*
X138257389Y-87957826D01*
X138302148Y-87890839D01*
X138360000Y-87600000D01*
X138360000Y-83800000D01*
X138302148Y-83509161D01*
X138287760Y-83487628D01*
X139872727Y-83487628D01*
X139557538Y-83959343D01*
X139444499Y-84527628D01*
X139557538Y-85095913D01*
X139879445Y-85577682D01*
X139921044Y-85605478D01*
X139873275Y-85614466D01*
X139657151Y-85753538D01*
X139512161Y-85965738D01*
X139461152Y-86217628D01*
X139461152Y-87917628D01*
X139505430Y-88152945D01*
X139644502Y-88369069D01*
X139856702Y-88514059D01*
X140108592Y-88565068D01*
X141808592Y-88565068D01*
X142043909Y-88520790D01*
X142260033Y-88381718D01*
X142405023Y-88169518D01*
X142456032Y-87917628D01*
X142456032Y-87827628D01*
X143049064Y-87827628D01*
X143113583Y-87927892D01*
X142826539Y-88214436D01*
X142615241Y-88723298D01*
X142614760Y-89274285D01*
X142825169Y-89783515D01*
X143214436Y-90173461D01*
X143723298Y-90384759D01*
X144274285Y-90385240D01*
X144783515Y-90174831D01*
X145173461Y-89785564D01*
X145384759Y-89276702D01*
X145385240Y-88725715D01*
X145174831Y-88216485D01*
X144885908Y-87927058D01*
X144971431Y-87801890D01*
X145022440Y-87550000D01*
X145022440Y-86750000D01*
X144978162Y-86514683D01*
X144910800Y-86410000D01*
X146135198Y-86410000D01*
X146424998Y-86699800D01*
X146415241Y-86723298D01*
X146414760Y-87274285D01*
X146625169Y-87783515D01*
X147014436Y-88173461D01*
X147040000Y-88184076D01*
X147040000Y-88600000D01*
X147097852Y-88890839D01*
X147262599Y-89137401D01*
X148462599Y-90337401D01*
X148709160Y-90502148D01*
X149000000Y-90560000D01*
X151000000Y-90560000D01*
X151290839Y-90502148D01*
X151537401Y-90337401D01*
X152537401Y-89337401D01*
X152702148Y-89090839D01*
X152760000Y-88800000D01*
X152760000Y-80400000D01*
X152702148Y-80109161D01*
X152537401Y-79862599D01*
X152110000Y-79435198D01*
X152110000Y-79428386D01*
X152196431Y-79301890D01*
X152247440Y-79050000D01*
X152247440Y-78150000D01*
X152203162Y-77914683D01*
X152064090Y-77698559D01*
X151851890Y-77553569D01*
X151600000Y-77502560D01*
X151100000Y-77502560D01*
X150942631Y-77532171D01*
X152137401Y-76337401D01*
X152302148Y-76090839D01*
X152347033Y-75865187D01*
X152426441Y-75814090D01*
X152571431Y-75601890D01*
X152622440Y-75350000D01*
X152622440Y-74550000D01*
X152578162Y-74314683D01*
X152504380Y-74200022D01*
X152571431Y-74101890D01*
X152622440Y-73850000D01*
X152622440Y-73050000D01*
X152578162Y-72814683D01*
X152439090Y-72598559D01*
X152360000Y-72544519D01*
X152360000Y-72355105D01*
X152501441Y-72264090D01*
X152646431Y-72051890D01*
X152697440Y-71800000D01*
X152697440Y-71300000D01*
X152653162Y-71064683D01*
X152514090Y-70848559D01*
X152445994Y-70802031D01*
X152588327Y-70659698D01*
X152685000Y-70426309D01*
X152685000Y-70333750D01*
X152526250Y-70175000D01*
X151727000Y-70175000D01*
X151727000Y-70197000D01*
X151473000Y-70197000D01*
X151473000Y-70175000D01*
X150673750Y-70175000D01*
X150515000Y-70333750D01*
X150515000Y-70426309D01*
X150611673Y-70659698D01*
X150752910Y-70800936D01*
X150701327Y-70834129D01*
X150614090Y-70698559D01*
X150401890Y-70553569D01*
X150150000Y-70502560D01*
X149650000Y-70502560D01*
X149414683Y-70546838D01*
X149198559Y-70685910D01*
X149150866Y-70755711D01*
X149114090Y-70698559D01*
X148963406Y-70595601D01*
X148973461Y-70585564D01*
X149184759Y-70076702D01*
X149185110Y-69673691D01*
X150515000Y-69673691D01*
X150515000Y-69766250D01*
X150673750Y-69925000D01*
X151473000Y-69925000D01*
X151473000Y-69323750D01*
X151727000Y-69323750D01*
X151727000Y-69925000D01*
X152526250Y-69925000D01*
X152685000Y-69766250D01*
X152685000Y-69673691D01*
X152588327Y-69440302D01*
X152409699Y-69261673D01*
X152176310Y-69165000D01*
X151885750Y-69165000D01*
X151727000Y-69323750D01*
X151473000Y-69323750D01*
X151314250Y-69165000D01*
X151023690Y-69165000D01*
X150790301Y-69261673D01*
X150611673Y-69440302D01*
X150515000Y-69673691D01*
X149185110Y-69673691D01*
X149185240Y-69525715D01*
X148974831Y-69016485D01*
X148814573Y-68855947D01*
X149150288Y-68520818D01*
X149529357Y-68900551D01*
X150093330Y-69134733D01*
X150703991Y-69135265D01*
X151268371Y-68902068D01*
X151700551Y-68470643D01*
X151934733Y-67906670D01*
X151935265Y-67296009D01*
X151702068Y-66731629D01*
X151270643Y-66299449D01*
X150706670Y-66065267D01*
X150096009Y-66064735D01*
X149531629Y-66297932D01*
X149149712Y-66679182D01*
X148770643Y-66299449D01*
X148206670Y-66065267D01*
X147596009Y-66064735D01*
X147031629Y-66297932D01*
X146649712Y-66679182D01*
X146270643Y-66299449D01*
X145706670Y-66065267D01*
X145096009Y-66064735D01*
X144531629Y-66297932D01*
X144099449Y-66729357D01*
X143865267Y-67293330D01*
X143864735Y-67903991D01*
X144097932Y-68468371D01*
X144529357Y-68900551D01*
X145093330Y-69134733D01*
X145175277Y-69134804D01*
X145173559Y-69135910D01*
X145028569Y-69348110D01*
X144977560Y-69600000D01*
X144977560Y-70400000D01*
X145021838Y-70635317D01*
X145095620Y-70749978D01*
X145028569Y-70848110D01*
X144977560Y-71100000D01*
X144977560Y-71744464D01*
X144709160Y-71797852D01*
X144462599Y-71962599D01*
X144035197Y-72390001D01*
X143881239Y-72390001D01*
X143897440Y-72310000D01*
X143897440Y-70610000D01*
X143853162Y-70374683D01*
X143714090Y-70158559D01*
X143501890Y-70013569D01*
X143250000Y-69962560D01*
X142201674Y-69962560D01*
X142217633Y-69938675D01*
X142241710Y-69817633D01*
X142285001Y-69600000D01*
X142285000Y-69599995D01*
X142285000Y-68828310D01*
X142338675Y-68817633D01*
X142625790Y-68625790D01*
X143375787Y-67875792D01*
X143375790Y-67875790D01*
X143567633Y-67588675D01*
X143584643Y-67503162D01*
X143635001Y-67250000D01*
X143635000Y-67249995D01*
X143635000Y-66866580D01*
X147025787Y-63475792D01*
X147025790Y-63475790D01*
X147217633Y-63188675D01*
X147217634Y-63188674D01*
X147285001Y-62850000D01*
X147285000Y-62849995D01*
X147285000Y-56400005D01*
X147285001Y-56400000D01*
X147217633Y-56061326D01*
X147217633Y-56061325D01*
X147025790Y-55774210D01*
X147025787Y-55774208D01*
X146184884Y-54933305D01*
X146185240Y-54525715D01*
X145974831Y-54016485D01*
X145585564Y-53626539D01*
X145076702Y-53415241D01*
X144525715Y-53414760D01*
X144016485Y-53625169D01*
X143626539Y-54014436D01*
X143415241Y-54523298D01*
X143414760Y-55074285D01*
X143625169Y-55583515D01*
X144014436Y-55973461D01*
X144523298Y-56184759D01*
X144933538Y-56185117D01*
X145515000Y-56766579D01*
X145515000Y-62483421D01*
X142124210Y-65874210D01*
X141932367Y-66161325D01*
X141924674Y-66200000D01*
X141897440Y-66336912D01*
X141897440Y-66200000D01*
X141853162Y-65964683D01*
X141714090Y-65748559D01*
X141501890Y-65603569D01*
X141488803Y-65600919D01*
X141701441Y-65464090D01*
X141846431Y-65251890D01*
X141897440Y-65000000D01*
X141897440Y-64300000D01*
X141853162Y-64064683D01*
X141714090Y-63848559D01*
X141501890Y-63703569D01*
X141360000Y-63674836D01*
X141360000Y-63503579D01*
X141502148Y-63290839D01*
X141560000Y-63000000D01*
X141560000Y-61529206D01*
X141939041Y-61908909D01*
X142723459Y-62234628D01*
X143572815Y-62235370D01*
X144357800Y-61911020D01*
X144958909Y-61310959D01*
X145284628Y-60526541D01*
X145285370Y-59677185D01*
X144961020Y-58892200D01*
X144360959Y-58291091D01*
X143576541Y-57965372D01*
X142727185Y-57964630D01*
X141942200Y-58288980D01*
X141560000Y-58670514D01*
X141560000Y-56584547D01*
X141583515Y-56574831D01*
X141973461Y-56185564D01*
X142184759Y-55676702D01*
X142185240Y-55125715D01*
X141974831Y-54616485D01*
X141585564Y-54226539D01*
X141076702Y-54015241D01*
X140525715Y-54014760D01*
X140016485Y-54225169D01*
X139724921Y-54516226D01*
X139535564Y-54326539D01*
X139026702Y-54115241D01*
X138475715Y-54114760D01*
X137966485Y-54325169D01*
X137576539Y-54714436D01*
X137365241Y-55223298D01*
X137364760Y-55774285D01*
X137375330Y-55799868D01*
X136712599Y-56462599D01*
X136547852Y-56709161D01*
X136490000Y-57000000D01*
X136490000Y-61215078D01*
X136125715Y-61214760D01*
X135834907Y-61334919D01*
X135858909Y-61310959D01*
X136184628Y-60526541D01*
X136185370Y-59677185D01*
X135861020Y-58892200D01*
X135260959Y-58291091D01*
X134476541Y-57965372D01*
X133627185Y-57964630D01*
X132842200Y-58288980D01*
X132241091Y-58889041D01*
X131915372Y-59673459D01*
X131914630Y-60522815D01*
X132238980Y-61307800D01*
X132839041Y-61908909D01*
X133623459Y-62234628D01*
X134472815Y-62235370D01*
X135171653Y-61946615D01*
X135015241Y-62323298D01*
X135014760Y-62874285D01*
X135225169Y-63383515D01*
X135588300Y-63747279D01*
X135553569Y-63798110D01*
X135502560Y-64050000D01*
X135502560Y-64850000D01*
X135546838Y-65085317D01*
X135685910Y-65301441D01*
X135825750Y-65396990D01*
X135790302Y-65411673D01*
X135611673Y-65590301D01*
X135515000Y-65823690D01*
X135515000Y-66064250D01*
X135673750Y-66223000D01*
X136473000Y-66223000D01*
X136473000Y-66203000D01*
X136727000Y-66203000D01*
X136727000Y-66223000D01*
X137526250Y-66223000D01*
X137612262Y-66136988D01*
X137685910Y-66251441D01*
X137898110Y-66396431D01*
X138150000Y-66447440D01*
X139050000Y-66447440D01*
X139285317Y-66403162D01*
X139302560Y-66392066D01*
X139302560Y-66900000D01*
X139346838Y-67135317D01*
X139424792Y-67256461D01*
X139016485Y-67425169D01*
X138694804Y-67746290D01*
X138664090Y-67698559D01*
X138451890Y-67553569D01*
X138200000Y-67502560D01*
X137700000Y-67502560D01*
X137464683Y-67546838D01*
X137248559Y-67685910D01*
X137202031Y-67754006D01*
X137059698Y-67611673D01*
X136826309Y-67515000D01*
X136733750Y-67515000D01*
X136575000Y-67673750D01*
X136575000Y-68473000D01*
X136597000Y-68473000D01*
X136597000Y-68727000D01*
X136575000Y-68727000D01*
X136575000Y-69526250D01*
X136733750Y-69685000D01*
X136826309Y-69685000D01*
X137059698Y-69588327D01*
X137200936Y-69447090D01*
X137235910Y-69501441D01*
X137448110Y-69646431D01*
X137700000Y-69697440D01*
X138200000Y-69697440D01*
X138435317Y-69653162D01*
X138651441Y-69514090D01*
X138693731Y-69452197D01*
X139014436Y-69773461D01*
X139523298Y-69984759D01*
X139763452Y-69984969D01*
X139574210Y-70174210D01*
X139382367Y-70461325D01*
X139382367Y-70461326D01*
X139314999Y-70800000D01*
X139315000Y-70800005D01*
X139315000Y-71355598D01*
X139300000Y-71352560D01*
X136300000Y-71352560D01*
X136064683Y-71396838D01*
X135848559Y-71535910D01*
X135703569Y-71748110D01*
X135652560Y-72000000D01*
X135652560Y-73600000D01*
X135696838Y-73835317D01*
X135835910Y-74051441D01*
X136048110Y-74196431D01*
X136300000Y-74247440D01*
X137089219Y-74247440D01*
X137097852Y-74290839D01*
X137262599Y-74537401D01*
X137640000Y-74914802D01*
X137640000Y-75415453D01*
X137616485Y-75425169D01*
X137226539Y-75814436D01*
X137068893Y-76194091D01*
X136937401Y-76062599D01*
X136690839Y-75897852D01*
X136465187Y-75852967D01*
X136414090Y-75773559D01*
X136201890Y-75628569D01*
X135950000Y-75577560D01*
X135150000Y-75577560D01*
X134914683Y-75621838D01*
X134811354Y-75688329D01*
X134809698Y-75686673D01*
X134576309Y-75590000D01*
X134335750Y-75590000D01*
X134177000Y-75748750D01*
X134177000Y-76473000D01*
X134197000Y-76473000D01*
X134197000Y-76727000D01*
X134177000Y-76727000D01*
X134177000Y-77451250D01*
X134335750Y-77610000D01*
X134576309Y-77610000D01*
X134809698Y-77513327D01*
X134811068Y-77511957D01*
X134898110Y-77571431D01*
X135150000Y-77622440D01*
X135950000Y-77622440D01*
X136079403Y-77598091D01*
X136097852Y-77690839D01*
X136262599Y-77937401D01*
X136379648Y-78054450D01*
X136273275Y-78074466D01*
X136057151Y-78213538D01*
X135912161Y-78425738D01*
X135890291Y-78533735D01*
X135585516Y-78255983D01*
X135175482Y-78086152D01*
X134945592Y-78207473D01*
X134945592Y-79400628D01*
X134965592Y-79400628D01*
X134965592Y-79654628D01*
X134945592Y-79654628D01*
X134945592Y-80847783D01*
X135175482Y-80969104D01*
X135585516Y-80799273D01*
X135888529Y-80523127D01*
X135905430Y-80612945D01*
X136044502Y-80829069D01*
X136256702Y-80974059D01*
X136508592Y-81025068D01*
X138208592Y-81025068D01*
X138443909Y-80980790D01*
X138660033Y-80841718D01*
X138805023Y-80629518D01*
X138849777Y-80408515D01*
X139014436Y-80573461D01*
X139523298Y-80784759D01*
X140074285Y-80785240D01*
X140099868Y-80774670D01*
X140198592Y-80873394D01*
X140198592Y-81967628D01*
X138263697Y-81967628D01*
X138172682Y-81826187D01*
X137960482Y-81681197D01*
X137708592Y-81630188D01*
X136908592Y-81630188D01*
X136673275Y-81674466D01*
X136457151Y-81813538D01*
X136361602Y-81953378D01*
X136346919Y-81917930D01*
X136168291Y-81739301D01*
X135934902Y-81642628D01*
X135694342Y-81642628D01*
X135535592Y-81801378D01*
X135535592Y-82600628D01*
X135555592Y-82600628D01*
X135555592Y-82854628D01*
X135535592Y-82854628D01*
X135535592Y-83653878D01*
X135621604Y-83739890D01*
X135507151Y-83813538D01*
X135362161Y-84025738D01*
X135311152Y-84277628D01*
X135311152Y-85177628D01*
X135355430Y-85412945D01*
X135494502Y-85629069D01*
X135639675Y-85728261D01*
X135507151Y-85813538D01*
X135362161Y-86025738D01*
X135311152Y-86277628D01*
X135311152Y-87177628D01*
X135355430Y-87412945D01*
X135494502Y-87629069D01*
X135496140Y-87630188D01*
X135008592Y-87630188D01*
X134773275Y-87674466D01*
X134557151Y-87813538D01*
X134470743Y-87940000D01*
X134058026Y-87940000D01*
X134188327Y-87809698D01*
X134285000Y-87576309D01*
X134285000Y-87483750D01*
X134126250Y-87325000D01*
X133327000Y-87325000D01*
X133327000Y-87347000D01*
X133073000Y-87347000D01*
X133073000Y-87325000D01*
X132273750Y-87325000D01*
X132115000Y-87483750D01*
X132115000Y-87576309D01*
X132211673Y-87809698D01*
X132352910Y-87950936D01*
X132298559Y-87985910D01*
X132153569Y-88198110D01*
X132102560Y-88450000D01*
X132102560Y-88950000D01*
X132146838Y-89185317D01*
X132222421Y-89302777D01*
X131462599Y-90062599D01*
X131297852Y-90309161D01*
X131240000Y-90600000D01*
X131240000Y-90815453D01*
X131216485Y-90825169D01*
X130826539Y-91214436D01*
X130615241Y-91723298D01*
X130614760Y-92274285D01*
X122710000Y-92274285D01*
X122710000Y-90336890D01*
X125558524Y-90336890D01*
X125728355Y-90746924D01*
X126118642Y-91175183D01*
X126643108Y-91421486D01*
X126873000Y-91300819D01*
X126873000Y-90107000D01*
X127127000Y-90107000D01*
X127127000Y-91300819D01*
X127356892Y-91421486D01*
X127881358Y-91175183D01*
X128271645Y-90746924D01*
X128441476Y-90336890D01*
X128320155Y-90107000D01*
X127127000Y-90107000D01*
X126873000Y-90107000D01*
X125679845Y-90107000D01*
X125558524Y-90336890D01*
X122710000Y-90336890D01*
X122710000Y-66000000D01*
X124240000Y-66000000D01*
X124240000Y-86642081D01*
X124297852Y-86932920D01*
X124462599Y-87179482D01*
X125260518Y-87977401D01*
X125507080Y-88142148D01*
X125716182Y-88183741D01*
X125920853Y-88490054D01*
X126261553Y-88717702D01*
X126118642Y-88784817D01*
X125728355Y-89213076D01*
X125558524Y-89623110D01*
X125679845Y-89853000D01*
X126873000Y-89853000D01*
X126873000Y-89833000D01*
X127127000Y-89833000D01*
X127127000Y-89853000D01*
X128320155Y-89853000D01*
X128441476Y-89623110D01*
X128271645Y-89213076D01*
X127881358Y-88784817D01*
X127738447Y-88717702D01*
X128079147Y-88490054D01*
X128401054Y-88008285D01*
X128514093Y-87440000D01*
X128401054Y-86871715D01*
X128079147Y-86389946D01*
X127749974Y-86170000D01*
X128066012Y-85958830D01*
X128200169Y-86283515D01*
X128589436Y-86673461D01*
X129098298Y-86884759D01*
X129649285Y-86885240D01*
X129798245Y-86823691D01*
X132115000Y-86823691D01*
X132115000Y-86916250D01*
X132273750Y-87075000D01*
X133073000Y-87075000D01*
X133073000Y-86473750D01*
X133327000Y-86473750D01*
X133327000Y-87075000D01*
X134126250Y-87075000D01*
X134285000Y-86916250D01*
X134285000Y-86823691D01*
X134188327Y-86590302D01*
X134009699Y-86411673D01*
X133776310Y-86315000D01*
X133485750Y-86315000D01*
X133327000Y-86473750D01*
X133073000Y-86473750D01*
X132914250Y-86315000D01*
X132623690Y-86315000D01*
X132390301Y-86411673D01*
X132211673Y-86590302D01*
X132115000Y-86823691D01*
X129798245Y-86823691D01*
X130158515Y-86674831D01*
X130548461Y-86285564D01*
X130759759Y-85776702D01*
X130760240Y-85225715D01*
X130619503Y-84885105D01*
X130774285Y-84885240D01*
X131283515Y-84674831D01*
X131673461Y-84285564D01*
X131884759Y-83776702D01*
X131885240Y-83225715D01*
X131797505Y-83013378D01*
X134373592Y-83013378D01*
X134373592Y-83303937D01*
X134470265Y-83537326D01*
X134648893Y-83715955D01*
X134882282Y-83812628D01*
X135122842Y-83812628D01*
X135281592Y-83653878D01*
X135281592Y-82854628D01*
X134532342Y-82854628D01*
X134373592Y-83013378D01*
X131797505Y-83013378D01*
X131674831Y-82716485D01*
X131285564Y-82326539D01*
X130863588Y-82151319D01*
X134373592Y-82151319D01*
X134373592Y-82441878D01*
X134532342Y-82600628D01*
X135281592Y-82600628D01*
X135281592Y-81801378D01*
X135122842Y-81642628D01*
X134882282Y-81642628D01*
X134648893Y-81739301D01*
X134470265Y-81917930D01*
X134373592Y-82151319D01*
X130863588Y-82151319D01*
X130776702Y-82115241D01*
X130225715Y-82114760D01*
X130200132Y-82125330D01*
X129897401Y-81822599D01*
X129650839Y-81657852D01*
X129360000Y-81600000D01*
X128272954Y-81600000D01*
X128079147Y-81309946D01*
X127749974Y-81090000D01*
X128079147Y-80870054D01*
X128272954Y-80580000D01*
X128823717Y-80580000D01*
X128825169Y-80583515D01*
X129214436Y-80973461D01*
X129723298Y-81184759D01*
X130274285Y-81185240D01*
X130783515Y-80974831D01*
X131173461Y-80585564D01*
X131384759Y-80076702D01*
X131384926Y-79884520D01*
X133377106Y-79884520D01*
X133623409Y-80408986D01*
X134051668Y-80799273D01*
X134461702Y-80969104D01*
X134691592Y-80847783D01*
X134691592Y-79654628D01*
X133497773Y-79654628D01*
X133377106Y-79884520D01*
X131384926Y-79884520D01*
X131385240Y-79525715D01*
X131238567Y-79170736D01*
X133377106Y-79170736D01*
X133497773Y-79400628D01*
X134691592Y-79400628D01*
X134691592Y-78207473D01*
X134461702Y-78086152D01*
X134051668Y-78255983D01*
X133623409Y-78646270D01*
X133377106Y-79170736D01*
X131238567Y-79170736D01*
X131174831Y-79016485D01*
X130860000Y-78701105D01*
X130860000Y-76885750D01*
X133015000Y-76885750D01*
X133015000Y-77101310D01*
X133111673Y-77334699D01*
X133290302Y-77513327D01*
X133523691Y-77610000D01*
X133764250Y-77610000D01*
X133923000Y-77451250D01*
X133923000Y-76727000D01*
X133173750Y-76727000D01*
X133015000Y-76885750D01*
X130860000Y-76885750D01*
X130860000Y-76098690D01*
X133015000Y-76098690D01*
X133015000Y-76314250D01*
X133173750Y-76473000D01*
X133923000Y-76473000D01*
X133923000Y-75748750D01*
X133764250Y-75590000D01*
X133523691Y-75590000D01*
X133290302Y-75686673D01*
X133111673Y-75865301D01*
X133015000Y-76098690D01*
X130860000Y-76098690D01*
X130860000Y-73855105D01*
X131001441Y-73764090D01*
X131146431Y-73551890D01*
X131197440Y-73300000D01*
X131197440Y-73085750D01*
X131265000Y-73085750D01*
X131265000Y-73726310D01*
X131361673Y-73959699D01*
X131540302Y-74138327D01*
X131773691Y-74235000D01*
X133114250Y-74235000D01*
X133273000Y-74076250D01*
X133273000Y-72927000D01*
X133527000Y-72927000D01*
X133527000Y-74076250D01*
X133685750Y-74235000D01*
X135026309Y-74235000D01*
X135259698Y-74138327D01*
X135438327Y-73959699D01*
X135535000Y-73726310D01*
X135535000Y-73085750D01*
X135376250Y-72927000D01*
X133527000Y-72927000D01*
X133273000Y-72927000D01*
X131423750Y-72927000D01*
X131265000Y-73085750D01*
X131197440Y-73085750D01*
X131197440Y-72800000D01*
X131153162Y-72564683D01*
X131014090Y-72348559D01*
X130944289Y-72300866D01*
X131001441Y-72264090D01*
X131146431Y-72051890D01*
X131182517Y-71873690D01*
X131265000Y-71873690D01*
X131265000Y-72514250D01*
X131423750Y-72673000D01*
X133273000Y-72673000D01*
X133273000Y-71523750D01*
X133527000Y-71523750D01*
X133527000Y-72673000D01*
X135376250Y-72673000D01*
X135535000Y-72514250D01*
X135535000Y-71873690D01*
X135438327Y-71640301D01*
X135259698Y-71461673D01*
X135026309Y-71365000D01*
X133685750Y-71365000D01*
X133527000Y-71523750D01*
X133273000Y-71523750D01*
X133114250Y-71365000D01*
X131773691Y-71365000D01*
X131540302Y-71461673D01*
X131361673Y-71640301D01*
X131265000Y-71873690D01*
X131182517Y-71873690D01*
X131197440Y-71800000D01*
X131197440Y-71300000D01*
X131153162Y-71064683D01*
X131051605Y-70906859D01*
X131373461Y-70585564D01*
X131584759Y-70076702D01*
X131585240Y-69525715D01*
X131409267Y-69099827D01*
X131493330Y-69134733D01*
X132103991Y-69135265D01*
X132668371Y-68902068D01*
X132684717Y-68885750D01*
X135565000Y-68885750D01*
X135565000Y-69176310D01*
X135661673Y-69409699D01*
X135840302Y-69588327D01*
X136073691Y-69685000D01*
X136166250Y-69685000D01*
X136325000Y-69526250D01*
X136325000Y-68727000D01*
X135723750Y-68727000D01*
X135565000Y-68885750D01*
X132684717Y-68885750D01*
X133100551Y-68470643D01*
X133286142Y-68023690D01*
X135565000Y-68023690D01*
X135565000Y-68314250D01*
X135723750Y-68473000D01*
X136325000Y-68473000D01*
X136325000Y-67673750D01*
X136166250Y-67515000D01*
X136073691Y-67515000D01*
X135840302Y-67611673D01*
X135661673Y-67790301D01*
X135565000Y-68023690D01*
X133286142Y-68023690D01*
X133334733Y-67906670D01*
X133335265Y-67296009D01*
X133102068Y-66731629D01*
X133006357Y-66635750D01*
X135515000Y-66635750D01*
X135515000Y-66876310D01*
X135611673Y-67109699D01*
X135790302Y-67288327D01*
X136023691Y-67385000D01*
X136314250Y-67385000D01*
X136473000Y-67226250D01*
X136473000Y-66477000D01*
X136727000Y-66477000D01*
X136727000Y-67226250D01*
X136885750Y-67385000D01*
X137176309Y-67385000D01*
X137409698Y-67288327D01*
X137588327Y-67109699D01*
X137685000Y-66876310D01*
X137685000Y-66635750D01*
X137526250Y-66477000D01*
X136727000Y-66477000D01*
X136473000Y-66477000D01*
X135673750Y-66477000D01*
X135515000Y-66635750D01*
X133006357Y-66635750D01*
X132670643Y-66299449D01*
X132106670Y-66065267D01*
X131496009Y-66064735D01*
X130931629Y-66297932D01*
X130549712Y-66679182D01*
X130170643Y-66299449D01*
X129606670Y-66065267D01*
X129393456Y-66065081D01*
X129673461Y-65785564D01*
X129884759Y-65276702D01*
X129885240Y-64725715D01*
X129674831Y-64216485D01*
X129285564Y-63826539D01*
X128776702Y-63615241D01*
X128225715Y-63614760D01*
X127716485Y-63825169D01*
X127326539Y-64214436D01*
X127315924Y-64240000D01*
X126000000Y-64240000D01*
X125709161Y-64297852D01*
X125462599Y-64462599D01*
X124462599Y-65462599D01*
X124297852Y-65709161D01*
X124240000Y-66000000D01*
X122710000Y-66000000D01*
X122710000Y-61237663D01*
X122738980Y-61307800D01*
X123339041Y-61908909D01*
X124123459Y-62234628D01*
X124972815Y-62235370D01*
X125757800Y-61911020D01*
X126358909Y-61310959D01*
X126684628Y-60526541D01*
X126685370Y-59677185D01*
X126361020Y-58892200D01*
X125760959Y-58291091D01*
X124976541Y-57965372D01*
X124127185Y-57964630D01*
X123342200Y-58288980D01*
X122741091Y-58889041D01*
X122710000Y-58963916D01*
X122710000Y-53710000D01*
X129000000Y-53710000D01*
X129271705Y-53655954D01*
X129502046Y-53502046D01*
X129655954Y-53271705D01*
X129710000Y-53000000D01*
X129710000Y-46710000D01*
X147290000Y-46710000D01*
X147290000Y-53000000D01*
X147290000Y-53000000D01*
G37*
X147290000Y-53000000D02*
X147344046Y-53271705D01*
X147497954Y-53502046D01*
X147728295Y-53655954D01*
X148000000Y-53710000D01*
X154290000Y-53710000D01*
X154290000Y-58720881D01*
X153860959Y-58291091D01*
X153076541Y-57965372D01*
X152227185Y-57964630D01*
X151442200Y-58288980D01*
X150841091Y-58889041D01*
X150515372Y-59673459D01*
X150514630Y-60522815D01*
X150838980Y-61307800D01*
X151439041Y-61908909D01*
X152223459Y-62234628D01*
X153072815Y-62235370D01*
X153857800Y-61911020D01*
X154290000Y-61479574D01*
X154290000Y-109290000D01*
X153589762Y-109290000D01*
X153589762Y-103490000D01*
X141415000Y-103490000D01*
X141415000Y-103647405D01*
X141340839Y-103597852D01*
X141050000Y-103540000D01*
X136250000Y-103540000D01*
X135959161Y-103597852D01*
X135712599Y-103762599D01*
X135547852Y-104009161D01*
X135490000Y-104300000D01*
X135490000Y-109100000D01*
X135527794Y-109290000D01*
X122710000Y-109290000D01*
X122710000Y-92274285D01*
X130614760Y-92274285D01*
X130825169Y-92783515D01*
X131214436Y-93173461D01*
X131723298Y-93384759D01*
X132274285Y-93385240D01*
X132783515Y-93174831D01*
X133173461Y-92785564D01*
X133352631Y-92354075D01*
X133386631Y-92525006D01*
X133708538Y-93006775D01*
X134190307Y-93328682D01*
X134758592Y-93441721D01*
X135326877Y-93328682D01*
X135808646Y-93006775D01*
X135836442Y-92965176D01*
X135845430Y-93012945D01*
X135984502Y-93229069D01*
X136196702Y-93374059D01*
X136448592Y-93425068D01*
X138148592Y-93425068D01*
X138383909Y-93380790D01*
X138600033Y-93241718D01*
X138745023Y-93029518D01*
X138796032Y-92777628D01*
X138796032Y-91077628D01*
X138751754Y-90842311D01*
X138612682Y-90626187D01*
X138400482Y-90481197D01*
X138148592Y-90430188D01*
X138058592Y-90430188D01*
X138058592Y-89706994D01*
X138160033Y-89641718D01*
X138162827Y-89637629D01*
X139483310Y-90958112D01*
X139226539Y-91214436D01*
X139015241Y-91723298D01*
X139014760Y-92274285D01*
X139225169Y-92783515D01*
X139614436Y-93173461D01*
X140123298Y-93384759D01*
X140674285Y-93385240D01*
X141183515Y-93174831D01*
X141573461Y-92785564D01*
X141784759Y-92276702D01*
X141785240Y-91725715D01*
X141574831Y-91216485D01*
X141185564Y-90826539D01*
X141160000Y-90815924D01*
X141160000Y-90800000D01*
X141102148Y-90509161D01*
X140937401Y-90262599D01*
X138865029Y-88190227D01*
X138618467Y-88025480D01*
X138327628Y-87967628D01*
X138263697Y-87967628D01*
X138257389Y-87957826D01*
X138302148Y-87890839D01*
X138360000Y-87600000D01*
X138360000Y-83800000D01*
X138302148Y-83509161D01*
X138287760Y-83487628D01*
X139872727Y-83487628D01*
X139557538Y-83959343D01*
X139444499Y-84527628D01*
X139557538Y-85095913D01*
X139879445Y-85577682D01*
X139921044Y-85605478D01*
X139873275Y-85614466D01*
X139657151Y-85753538D01*
X139512161Y-85965738D01*
X139461152Y-86217628D01*
X139461152Y-87917628D01*
X139505430Y-88152945D01*
X139644502Y-88369069D01*
X139856702Y-88514059D01*
X140108592Y-88565068D01*
X141808592Y-88565068D01*
X142043909Y-88520790D01*
X142260033Y-88381718D01*
X142405023Y-88169518D01*
X142456032Y-87917628D01*
X142456032Y-87827628D01*
X143049064Y-87827628D01*
X143113583Y-87927892D01*
X142826539Y-88214436D01*
X142615241Y-88723298D01*
X142614760Y-89274285D01*
X142825169Y-89783515D01*
X143214436Y-90173461D01*
X143723298Y-90384759D01*
X144274285Y-90385240D01*
X144783515Y-90174831D01*
X145173461Y-89785564D01*
X145384759Y-89276702D01*
X145385240Y-88725715D01*
X145174831Y-88216485D01*
X144885908Y-87927058D01*
X144971431Y-87801890D01*
X145022440Y-87550000D01*
X145022440Y-86750000D01*
X144978162Y-86514683D01*
X144910800Y-86410000D01*
X146135198Y-86410000D01*
X146424998Y-86699800D01*
X146415241Y-86723298D01*
X146414760Y-87274285D01*
X146625169Y-87783515D01*
X147014436Y-88173461D01*
X147040000Y-88184076D01*
X147040000Y-88600000D01*
X147097852Y-88890839D01*
X147262599Y-89137401D01*
X148462599Y-90337401D01*
X148709160Y-90502148D01*
X149000000Y-90560000D01*
X151000000Y-90560000D01*
X151290839Y-90502148D01*
X151537401Y-90337401D01*
X152537401Y-89337401D01*
X152702148Y-89090839D01*
X152760000Y-88800000D01*
X152760000Y-80400000D01*
X152702148Y-80109161D01*
X152537401Y-79862599D01*
X152110000Y-79435198D01*
X152110000Y-79428386D01*
X152196431Y-79301890D01*
X152247440Y-79050000D01*
X152247440Y-78150000D01*
X152203162Y-77914683D01*
X152064090Y-77698559D01*
X151851890Y-77553569D01*
X151600000Y-77502560D01*
X151100000Y-77502560D01*
X150942631Y-77532171D01*
X152137401Y-76337401D01*
X152302148Y-76090839D01*
X152347033Y-75865187D01*
X152426441Y-75814090D01*
X152571431Y-75601890D01*
X152622440Y-75350000D01*
X152622440Y-74550000D01*
X152578162Y-74314683D01*
X152504380Y-74200022D01*
X152571431Y-74101890D01*
X152622440Y-73850000D01*
X152622440Y-73050000D01*
X152578162Y-72814683D01*
X152439090Y-72598559D01*
X152360000Y-72544519D01*
X152360000Y-72355105D01*
X152501441Y-72264090D01*
X152646431Y-72051890D01*
X152697440Y-71800000D01*
X152697440Y-71300000D01*
X152653162Y-71064683D01*
X152514090Y-70848559D01*
X152445994Y-70802031D01*
X152588327Y-70659698D01*
X152685000Y-70426309D01*
X152685000Y-70333750D01*
X152526250Y-70175000D01*
X151727000Y-70175000D01*
X151727000Y-70197000D01*
X151473000Y-70197000D01*
X151473000Y-70175000D01*
X150673750Y-70175000D01*
X150515000Y-70333750D01*
X150515000Y-70426309D01*
X150611673Y-70659698D01*
X150752910Y-70800936D01*
X150701327Y-70834129D01*
X150614090Y-70698559D01*
X150401890Y-70553569D01*
X150150000Y-70502560D01*
X149650000Y-70502560D01*
X149414683Y-70546838D01*
X149198559Y-70685910D01*
X149150866Y-70755711D01*
X149114090Y-70698559D01*
X148963406Y-70595601D01*
X148973461Y-70585564D01*
X149184759Y-70076702D01*
X149185110Y-69673691D01*
X150515000Y-69673691D01*
X150515000Y-69766250D01*
X150673750Y-69925000D01*
X151473000Y-69925000D01*
X151473000Y-69323750D01*
X151727000Y-69323750D01*
X151727000Y-69925000D01*
X152526250Y-69925000D01*
X152685000Y-69766250D01*
X152685000Y-69673691D01*
X152588327Y-69440302D01*
X152409699Y-69261673D01*
X152176310Y-69165000D01*
X151885750Y-69165000D01*
X151727000Y-69323750D01*
X151473000Y-69323750D01*
X151314250Y-69165000D01*
X151023690Y-69165000D01*
X150790301Y-69261673D01*
X150611673Y-69440302D01*
X150515000Y-69673691D01*
X149185110Y-69673691D01*
X149185240Y-69525715D01*
X148974831Y-69016485D01*
X148814573Y-68855947D01*
X149150288Y-68520818D01*
X149529357Y-68900551D01*
X150093330Y-69134733D01*
X150703991Y-69135265D01*
X151268371Y-68902068D01*
X151700551Y-68470643D01*
X151934733Y-67906670D01*
X151935265Y-67296009D01*
X151702068Y-66731629D01*
X151270643Y-66299449D01*
X150706670Y-66065267D01*
X150096009Y-66064735D01*
X149531629Y-66297932D01*
X149149712Y-66679182D01*
X148770643Y-66299449D01*
X148206670Y-66065267D01*
X147596009Y-66064735D01*
X147031629Y-66297932D01*
X146649712Y-66679182D01*
X146270643Y-66299449D01*
X145706670Y-66065267D01*
X145096009Y-66064735D01*
X144531629Y-66297932D01*
X144099449Y-66729357D01*
X143865267Y-67293330D01*
X143864735Y-67903991D01*
X144097932Y-68468371D01*
X144529357Y-68900551D01*
X145093330Y-69134733D01*
X145175277Y-69134804D01*
X145173559Y-69135910D01*
X145028569Y-69348110D01*
X144977560Y-69600000D01*
X144977560Y-70400000D01*
X145021838Y-70635317D01*
X145095620Y-70749978D01*
X145028569Y-70848110D01*
X144977560Y-71100000D01*
X144977560Y-71744464D01*
X144709160Y-71797852D01*
X144462599Y-71962599D01*
X144035197Y-72390001D01*
X143881239Y-72390001D01*
X143897440Y-72310000D01*
X143897440Y-70610000D01*
X143853162Y-70374683D01*
X143714090Y-70158559D01*
X143501890Y-70013569D01*
X143250000Y-69962560D01*
X142201674Y-69962560D01*
X142217633Y-69938675D01*
X142241710Y-69817633D01*
X142285001Y-69600000D01*
X142285000Y-69599995D01*
X142285000Y-68828310D01*
X142338675Y-68817633D01*
X142625790Y-68625790D01*
X143375787Y-67875792D01*
X143375790Y-67875790D01*
X143567633Y-67588675D01*
X143584643Y-67503162D01*
X143635001Y-67250000D01*
X143635000Y-67249995D01*
X143635000Y-66866580D01*
X147025787Y-63475792D01*
X147025790Y-63475790D01*
X147217633Y-63188675D01*
X147217634Y-63188674D01*
X147285001Y-62850000D01*
X147285000Y-62849995D01*
X147285000Y-56400005D01*
X147285001Y-56400000D01*
X147217633Y-56061326D01*
X147217633Y-56061325D01*
X147025790Y-55774210D01*
X147025787Y-55774208D01*
X146184884Y-54933305D01*
X146185240Y-54525715D01*
X145974831Y-54016485D01*
X145585564Y-53626539D01*
X145076702Y-53415241D01*
X144525715Y-53414760D01*
X144016485Y-53625169D01*
X143626539Y-54014436D01*
X143415241Y-54523298D01*
X143414760Y-55074285D01*
X143625169Y-55583515D01*
X144014436Y-55973461D01*
X144523298Y-56184759D01*
X144933538Y-56185117D01*
X145515000Y-56766579D01*
X145515000Y-62483421D01*
X142124210Y-65874210D01*
X141932367Y-66161325D01*
X141924674Y-66200000D01*
X141897440Y-66336912D01*
X141897440Y-66200000D01*
X141853162Y-65964683D01*
X141714090Y-65748559D01*
X141501890Y-65603569D01*
X141488803Y-65600919D01*
X141701441Y-65464090D01*
X141846431Y-65251890D01*
X141897440Y-65000000D01*
X141897440Y-64300000D01*
X141853162Y-64064683D01*
X141714090Y-63848559D01*
X141501890Y-63703569D01*
X141360000Y-63674836D01*
X141360000Y-63503579D01*
X141502148Y-63290839D01*
X141560000Y-63000000D01*
X141560000Y-61529206D01*
X141939041Y-61908909D01*
X142723459Y-62234628D01*
X143572815Y-62235370D01*
X144357800Y-61911020D01*
X144958909Y-61310959D01*
X145284628Y-60526541D01*
X145285370Y-59677185D01*
X144961020Y-58892200D01*
X144360959Y-58291091D01*
X143576541Y-57965372D01*
X142727185Y-57964630D01*
X141942200Y-58288980D01*
X141560000Y-58670514D01*
X141560000Y-56584547D01*
X141583515Y-56574831D01*
X141973461Y-56185564D01*
X142184759Y-55676702D01*
X142185240Y-55125715D01*
X141974831Y-54616485D01*
X141585564Y-54226539D01*
X141076702Y-54015241D01*
X140525715Y-54014760D01*
X140016485Y-54225169D01*
X139724921Y-54516226D01*
X139535564Y-54326539D01*
X139026702Y-54115241D01*
X138475715Y-54114760D01*
X137966485Y-54325169D01*
X137576539Y-54714436D01*
X137365241Y-55223298D01*
X137364760Y-55774285D01*
X137375330Y-55799868D01*
X136712599Y-56462599D01*
X136547852Y-56709161D01*
X136490000Y-57000000D01*
X136490000Y-61215078D01*
X136125715Y-61214760D01*
X135834907Y-61334919D01*
X135858909Y-61310959D01*
X136184628Y-60526541D01*
X136185370Y-59677185D01*
X135861020Y-58892200D01*
X135260959Y-58291091D01*
X134476541Y-57965372D01*
X133627185Y-57964630D01*
X132842200Y-58288980D01*
X132241091Y-58889041D01*
X131915372Y-59673459D01*
X131914630Y-60522815D01*
X132238980Y-61307800D01*
X132839041Y-61908909D01*
X133623459Y-62234628D01*
X134472815Y-62235370D01*
X135171653Y-61946615D01*
X135015241Y-62323298D01*
X135014760Y-62874285D01*
X135225169Y-63383515D01*
X135588300Y-63747279D01*
X135553569Y-63798110D01*
X135502560Y-64050000D01*
X135502560Y-64850000D01*
X135546838Y-65085317D01*
X135685910Y-65301441D01*
X135825750Y-65396990D01*
X135790302Y-65411673D01*
X135611673Y-65590301D01*
X135515000Y-65823690D01*
X135515000Y-66064250D01*
X135673750Y-66223000D01*
X136473000Y-66223000D01*
X136473000Y-66203000D01*
X136727000Y-66203000D01*
X136727000Y-66223000D01*
X137526250Y-66223000D01*
X137612262Y-66136988D01*
X137685910Y-66251441D01*
X137898110Y-66396431D01*
X138150000Y-66447440D01*
X139050000Y-66447440D01*
X139285317Y-66403162D01*
X139302560Y-66392066D01*
X139302560Y-66900000D01*
X139346838Y-67135317D01*
X139424792Y-67256461D01*
X139016485Y-67425169D01*
X138694804Y-67746290D01*
X138664090Y-67698559D01*
X138451890Y-67553569D01*
X138200000Y-67502560D01*
X137700000Y-67502560D01*
X137464683Y-67546838D01*
X137248559Y-67685910D01*
X137202031Y-67754006D01*
X137059698Y-67611673D01*
X136826309Y-67515000D01*
X136733750Y-67515000D01*
X136575000Y-67673750D01*
X136575000Y-68473000D01*
X136597000Y-68473000D01*
X136597000Y-68727000D01*
X136575000Y-68727000D01*
X136575000Y-69526250D01*
X136733750Y-69685000D01*
X136826309Y-69685000D01*
X137059698Y-69588327D01*
X137200936Y-69447090D01*
X137235910Y-69501441D01*
X137448110Y-69646431D01*
X137700000Y-69697440D01*
X138200000Y-69697440D01*
X138435317Y-69653162D01*
X138651441Y-69514090D01*
X138693731Y-69452197D01*
X139014436Y-69773461D01*
X139523298Y-69984759D01*
X139763452Y-69984969D01*
X139574210Y-70174210D01*
X139382367Y-70461325D01*
X139382367Y-70461326D01*
X139314999Y-70800000D01*
X139315000Y-70800005D01*
X139315000Y-71355598D01*
X139300000Y-71352560D01*
X136300000Y-71352560D01*
X136064683Y-71396838D01*
X135848559Y-71535910D01*
X135703569Y-71748110D01*
X135652560Y-72000000D01*
X135652560Y-73600000D01*
X135696838Y-73835317D01*
X135835910Y-74051441D01*
X136048110Y-74196431D01*
X136300000Y-74247440D01*
X137089219Y-74247440D01*
X137097852Y-74290839D01*
X137262599Y-74537401D01*
X137640000Y-74914802D01*
X137640000Y-75415453D01*
X137616485Y-75425169D01*
X137226539Y-75814436D01*
X137068893Y-76194091D01*
X136937401Y-76062599D01*
X136690839Y-75897852D01*
X136465187Y-75852967D01*
X136414090Y-75773559D01*
X136201890Y-75628569D01*
X135950000Y-75577560D01*
X135150000Y-75577560D01*
X134914683Y-75621838D01*
X134811354Y-75688329D01*
X134809698Y-75686673D01*
X134576309Y-75590000D01*
X134335750Y-75590000D01*
X134177000Y-75748750D01*
X134177000Y-76473000D01*
X134197000Y-76473000D01*
X134197000Y-76727000D01*
X134177000Y-76727000D01*
X134177000Y-77451250D01*
X134335750Y-77610000D01*
X134576309Y-77610000D01*
X134809698Y-77513327D01*
X134811068Y-77511957D01*
X134898110Y-77571431D01*
X135150000Y-77622440D01*
X135950000Y-77622440D01*
X136079403Y-77598091D01*
X136097852Y-77690839D01*
X136262599Y-77937401D01*
X136379648Y-78054450D01*
X136273275Y-78074466D01*
X136057151Y-78213538D01*
X135912161Y-78425738D01*
X135890291Y-78533735D01*
X135585516Y-78255983D01*
X135175482Y-78086152D01*
X134945592Y-78207473D01*
X134945592Y-79400628D01*
X134965592Y-79400628D01*
X134965592Y-79654628D01*
X134945592Y-79654628D01*
X134945592Y-80847783D01*
X135175482Y-80969104D01*
X135585516Y-80799273D01*
X135888529Y-80523127D01*
X135905430Y-80612945D01*
X136044502Y-80829069D01*
X136256702Y-80974059D01*
X136508592Y-81025068D01*
X138208592Y-81025068D01*
X138443909Y-80980790D01*
X138660033Y-80841718D01*
X138805023Y-80629518D01*
X138849777Y-80408515D01*
X139014436Y-80573461D01*
X139523298Y-80784759D01*
X140074285Y-80785240D01*
X140099868Y-80774670D01*
X140198592Y-80873394D01*
X140198592Y-81967628D01*
X138263697Y-81967628D01*
X138172682Y-81826187D01*
X137960482Y-81681197D01*
X137708592Y-81630188D01*
X136908592Y-81630188D01*
X136673275Y-81674466D01*
X136457151Y-81813538D01*
X136361602Y-81953378D01*
X136346919Y-81917930D01*
X136168291Y-81739301D01*
X135934902Y-81642628D01*
X135694342Y-81642628D01*
X135535592Y-81801378D01*
X135535592Y-82600628D01*
X135555592Y-82600628D01*
X135555592Y-82854628D01*
X135535592Y-82854628D01*
X135535592Y-83653878D01*
X135621604Y-83739890D01*
X135507151Y-83813538D01*
X135362161Y-84025738D01*
X135311152Y-84277628D01*
X135311152Y-85177628D01*
X135355430Y-85412945D01*
X135494502Y-85629069D01*
X135639675Y-85728261D01*
X135507151Y-85813538D01*
X135362161Y-86025738D01*
X135311152Y-86277628D01*
X135311152Y-87177628D01*
X135355430Y-87412945D01*
X135494502Y-87629069D01*
X135496140Y-87630188D01*
X135008592Y-87630188D01*
X134773275Y-87674466D01*
X134557151Y-87813538D01*
X134470743Y-87940000D01*
X134058026Y-87940000D01*
X134188327Y-87809698D01*
X134285000Y-87576309D01*
X134285000Y-87483750D01*
X134126250Y-87325000D01*
X133327000Y-87325000D01*
X133327000Y-87347000D01*
X133073000Y-87347000D01*
X133073000Y-87325000D01*
X132273750Y-87325000D01*
X132115000Y-87483750D01*
X132115000Y-87576309D01*
X132211673Y-87809698D01*
X132352910Y-87950936D01*
X132298559Y-87985910D01*
X132153569Y-88198110D01*
X132102560Y-88450000D01*
X132102560Y-88950000D01*
X132146838Y-89185317D01*
X132222421Y-89302777D01*
X131462599Y-90062599D01*
X131297852Y-90309161D01*
X131240000Y-90600000D01*
X131240000Y-90815453D01*
X131216485Y-90825169D01*
X130826539Y-91214436D01*
X130615241Y-91723298D01*
X130614760Y-92274285D01*
X122710000Y-92274285D01*
X122710000Y-90336890D01*
X125558524Y-90336890D01*
X125728355Y-90746924D01*
X126118642Y-91175183D01*
X126643108Y-91421486D01*
X126873000Y-91300819D01*
X126873000Y-90107000D01*
X127127000Y-90107000D01*
X127127000Y-91300819D01*
X127356892Y-91421486D01*
X127881358Y-91175183D01*
X128271645Y-90746924D01*
X128441476Y-90336890D01*
X128320155Y-90107000D01*
X127127000Y-90107000D01*
X126873000Y-90107000D01*
X125679845Y-90107000D01*
X125558524Y-90336890D01*
X122710000Y-90336890D01*
X122710000Y-66000000D01*
X124240000Y-66000000D01*
X124240000Y-86642081D01*
X124297852Y-86932920D01*
X124462599Y-87179482D01*
X125260518Y-87977401D01*
X125507080Y-88142148D01*
X125716182Y-88183741D01*
X125920853Y-88490054D01*
X126261553Y-88717702D01*
X126118642Y-88784817D01*
X125728355Y-89213076D01*
X125558524Y-89623110D01*
X125679845Y-89853000D01*
X126873000Y-89853000D01*
X126873000Y-89833000D01*
X127127000Y-89833000D01*
X127127000Y-89853000D01*
X128320155Y-89853000D01*
X128441476Y-89623110D01*
X128271645Y-89213076D01*
X127881358Y-88784817D01*
X127738447Y-88717702D01*
X128079147Y-88490054D01*
X128401054Y-88008285D01*
X128514093Y-87440000D01*
X128401054Y-86871715D01*
X128079147Y-86389946D01*
X127749974Y-86170000D01*
X128066012Y-85958830D01*
X128200169Y-86283515D01*
X128589436Y-86673461D01*
X129098298Y-86884759D01*
X129649285Y-86885240D01*
X129798245Y-86823691D01*
X132115000Y-86823691D01*
X132115000Y-86916250D01*
X132273750Y-87075000D01*
X133073000Y-87075000D01*
X133073000Y-86473750D01*
X133327000Y-86473750D01*
X133327000Y-87075000D01*
X134126250Y-87075000D01*
X134285000Y-86916250D01*
X134285000Y-86823691D01*
X134188327Y-86590302D01*
X134009699Y-86411673D01*
X133776310Y-86315000D01*
X133485750Y-86315000D01*
X133327000Y-86473750D01*
X133073000Y-86473750D01*
X132914250Y-86315000D01*
X132623690Y-86315000D01*
X132390301Y-86411673D01*
X132211673Y-86590302D01*
X132115000Y-86823691D01*
X129798245Y-86823691D01*
X130158515Y-86674831D01*
X130548461Y-86285564D01*
X130759759Y-85776702D01*
X130760240Y-85225715D01*
X130619503Y-84885105D01*
X130774285Y-84885240D01*
X131283515Y-84674831D01*
X131673461Y-84285564D01*
X131884759Y-83776702D01*
X131885240Y-83225715D01*
X131797505Y-83013378D01*
X134373592Y-83013378D01*
X134373592Y-83303937D01*
X134470265Y-83537326D01*
X134648893Y-83715955D01*
X134882282Y-83812628D01*
X135122842Y-83812628D01*
X135281592Y-83653878D01*
X135281592Y-82854628D01*
X134532342Y-82854628D01*
X134373592Y-83013378D01*
X131797505Y-83013378D01*
X131674831Y-82716485D01*
X131285564Y-82326539D01*
X130863588Y-82151319D01*
X134373592Y-82151319D01*
X134373592Y-82441878D01*
X134532342Y-82600628D01*
X135281592Y-82600628D01*
X135281592Y-81801378D01*
X135122842Y-81642628D01*
X134882282Y-81642628D01*
X134648893Y-81739301D01*
X134470265Y-81917930D01*
X134373592Y-82151319D01*
X130863588Y-82151319D01*
X130776702Y-82115241D01*
X130225715Y-82114760D01*
X130200132Y-82125330D01*
X129897401Y-81822599D01*
X129650839Y-81657852D01*
X129360000Y-81600000D01*
X128272954Y-81600000D01*
X128079147Y-81309946D01*
X127749974Y-81090000D01*
X128079147Y-80870054D01*
X128272954Y-80580000D01*
X128823717Y-80580000D01*
X128825169Y-80583515D01*
X129214436Y-80973461D01*
X129723298Y-81184759D01*
X130274285Y-81185240D01*
X130783515Y-80974831D01*
X131173461Y-80585564D01*
X131384759Y-80076702D01*
X131384926Y-79884520D01*
X133377106Y-79884520D01*
X133623409Y-80408986D01*
X134051668Y-80799273D01*
X134461702Y-80969104D01*
X134691592Y-80847783D01*
X134691592Y-79654628D01*
X133497773Y-79654628D01*
X133377106Y-79884520D01*
X131384926Y-79884520D01*
X131385240Y-79525715D01*
X131238567Y-79170736D01*
X133377106Y-79170736D01*
X133497773Y-79400628D01*
X134691592Y-79400628D01*
X134691592Y-78207473D01*
X134461702Y-78086152D01*
X134051668Y-78255983D01*
X133623409Y-78646270D01*
X133377106Y-79170736D01*
X131238567Y-79170736D01*
X131174831Y-79016485D01*
X130860000Y-78701105D01*
X130860000Y-76885750D01*
X133015000Y-76885750D01*
X133015000Y-77101310D01*
X133111673Y-77334699D01*
X133290302Y-77513327D01*
X133523691Y-77610000D01*
X133764250Y-77610000D01*
X133923000Y-77451250D01*
X133923000Y-76727000D01*
X133173750Y-76727000D01*
X133015000Y-76885750D01*
X130860000Y-76885750D01*
X130860000Y-76098690D01*
X133015000Y-76098690D01*
X133015000Y-76314250D01*
X133173750Y-76473000D01*
X133923000Y-76473000D01*
X133923000Y-75748750D01*
X133764250Y-75590000D01*
X133523691Y-75590000D01*
X133290302Y-75686673D01*
X133111673Y-75865301D01*
X133015000Y-76098690D01*
X130860000Y-76098690D01*
X130860000Y-73855105D01*
X131001441Y-73764090D01*
X131146431Y-73551890D01*
X131197440Y-73300000D01*
X131197440Y-73085750D01*
X131265000Y-73085750D01*
X131265000Y-73726310D01*
X131361673Y-73959699D01*
X131540302Y-74138327D01*
X131773691Y-74235000D01*
X133114250Y-74235000D01*
X133273000Y-74076250D01*
X133273000Y-72927000D01*
X133527000Y-72927000D01*
X133527000Y-74076250D01*
X133685750Y-74235000D01*
X135026309Y-74235000D01*
X135259698Y-74138327D01*
X135438327Y-73959699D01*
X135535000Y-73726310D01*
X135535000Y-73085750D01*
X135376250Y-72927000D01*
X133527000Y-72927000D01*
X133273000Y-72927000D01*
X131423750Y-72927000D01*
X131265000Y-73085750D01*
X131197440Y-73085750D01*
X131197440Y-72800000D01*
X131153162Y-72564683D01*
X131014090Y-72348559D01*
X130944289Y-72300866D01*
X131001441Y-72264090D01*
X131146431Y-72051890D01*
X131182517Y-71873690D01*
X131265000Y-71873690D01*
X131265000Y-72514250D01*
X131423750Y-72673000D01*
X133273000Y-72673000D01*
X133273000Y-71523750D01*
X133527000Y-71523750D01*
X133527000Y-72673000D01*
X135376250Y-72673000D01*
X135535000Y-72514250D01*
X135535000Y-71873690D01*
X135438327Y-71640301D01*
X135259698Y-71461673D01*
X135026309Y-71365000D01*
X133685750Y-71365000D01*
X133527000Y-71523750D01*
X133273000Y-71523750D01*
X133114250Y-71365000D01*
X131773691Y-71365000D01*
X131540302Y-71461673D01*
X131361673Y-71640301D01*
X131265000Y-71873690D01*
X131182517Y-71873690D01*
X131197440Y-71800000D01*
X131197440Y-71300000D01*
X131153162Y-71064683D01*
X131051605Y-70906859D01*
X131373461Y-70585564D01*
X131584759Y-70076702D01*
X131585240Y-69525715D01*
X131409267Y-69099827D01*
X131493330Y-69134733D01*
X132103991Y-69135265D01*
X132668371Y-68902068D01*
X132684717Y-68885750D01*
X135565000Y-68885750D01*
X135565000Y-69176310D01*
X135661673Y-69409699D01*
X135840302Y-69588327D01*
X136073691Y-69685000D01*
X136166250Y-69685000D01*
X136325000Y-69526250D01*
X136325000Y-68727000D01*
X135723750Y-68727000D01*
X135565000Y-68885750D01*
X132684717Y-68885750D01*
X133100551Y-68470643D01*
X133286142Y-68023690D01*
X135565000Y-68023690D01*
X135565000Y-68314250D01*
X135723750Y-68473000D01*
X136325000Y-68473000D01*
X136325000Y-67673750D01*
X136166250Y-67515000D01*
X136073691Y-67515000D01*
X135840302Y-67611673D01*
X135661673Y-67790301D01*
X135565000Y-68023690D01*
X133286142Y-68023690D01*
X133334733Y-67906670D01*
X133335265Y-67296009D01*
X133102068Y-66731629D01*
X133006357Y-66635750D01*
X135515000Y-66635750D01*
X135515000Y-66876310D01*
X135611673Y-67109699D01*
X135790302Y-67288327D01*
X136023691Y-67385000D01*
X136314250Y-67385000D01*
X136473000Y-67226250D01*
X136473000Y-66477000D01*
X136727000Y-66477000D01*
X136727000Y-67226250D01*
X136885750Y-67385000D01*
X137176309Y-67385000D01*
X137409698Y-67288327D01*
X137588327Y-67109699D01*
X137685000Y-66876310D01*
X137685000Y-66635750D01*
X137526250Y-66477000D01*
X136727000Y-66477000D01*
X136473000Y-66477000D01*
X135673750Y-66477000D01*
X135515000Y-66635750D01*
X133006357Y-66635750D01*
X132670643Y-66299449D01*
X132106670Y-66065267D01*
X131496009Y-66064735D01*
X130931629Y-66297932D01*
X130549712Y-66679182D01*
X130170643Y-66299449D01*
X129606670Y-66065267D01*
X129393456Y-66065081D01*
X129673461Y-65785564D01*
X129884759Y-65276702D01*
X129885240Y-64725715D01*
X129674831Y-64216485D01*
X129285564Y-63826539D01*
X128776702Y-63615241D01*
X128225715Y-63614760D01*
X127716485Y-63825169D01*
X127326539Y-64214436D01*
X127315924Y-64240000D01*
X126000000Y-64240000D01*
X125709161Y-64297852D01*
X125462599Y-64462599D01*
X124462599Y-65462599D01*
X124297852Y-65709161D01*
X124240000Y-66000000D01*
X122710000Y-66000000D01*
X122710000Y-61237663D01*
X122738980Y-61307800D01*
X123339041Y-61908909D01*
X124123459Y-62234628D01*
X124972815Y-62235370D01*
X125757800Y-61911020D01*
X126358909Y-61310959D01*
X126684628Y-60526541D01*
X126685370Y-59677185D01*
X126361020Y-58892200D01*
X125760959Y-58291091D01*
X124976541Y-57965372D01*
X124127185Y-57964630D01*
X123342200Y-58288980D01*
X122741091Y-58889041D01*
X122710000Y-58963916D01*
X122710000Y-53710000D01*
X129000000Y-53710000D01*
X129271705Y-53655954D01*
X129502046Y-53502046D01*
X129655954Y-53271705D01*
X129710000Y-53000000D01*
X129710000Y-46710000D01*
X147290000Y-46710000D01*
X147290000Y-53000000D01*
G36*
X147414436Y-79373461D02*
X147923298Y-79584759D01*
X148474285Y-79585240D01*
X148586200Y-79538998D01*
X148062599Y-80062599D01*
X147897852Y-80309161D01*
X147840000Y-80600000D01*
X147840000Y-82224538D01*
X147262599Y-82801939D01*
X147097852Y-83048501D01*
X147066850Y-83204359D01*
X147016485Y-83225169D01*
X147003745Y-83237887D01*
X146914090Y-83098559D01*
X146768917Y-82999367D01*
X146901441Y-82914090D01*
X147046431Y-82701890D01*
X147097440Y-82450000D01*
X147097440Y-81650000D01*
X147053162Y-81414683D01*
X146914090Y-81198559D01*
X146760000Y-81093274D01*
X146760000Y-79584547D01*
X146783515Y-79574831D01*
X147173461Y-79185564D01*
X147189150Y-79147782D01*
X147414436Y-79373461D01*
X147414436Y-79373461D01*
G37*
X147414436Y-79373461D02*
X147923298Y-79584759D01*
X148474285Y-79585240D01*
X148586200Y-79538998D01*
X148062599Y-80062599D01*
X147897852Y-80309161D01*
X147840000Y-80600000D01*
X147840000Y-82224538D01*
X147262599Y-82801939D01*
X147097852Y-83048501D01*
X147066850Y-83204359D01*
X147016485Y-83225169D01*
X147003745Y-83237887D01*
X146914090Y-83098559D01*
X146768917Y-82999367D01*
X146901441Y-82914090D01*
X147046431Y-82701890D01*
X147097440Y-82450000D01*
X147097440Y-81650000D01*
X147053162Y-81414683D01*
X146914090Y-81198559D01*
X146760000Y-81093274D01*
X146760000Y-79584547D01*
X146783515Y-79574831D01*
X147173461Y-79185564D01*
X147189150Y-79147782D01*
X147414436Y-79373461D01*
G36*
X128189436Y-75923461D02*
X128698298Y-76134759D01*
X129249285Y-76135240D01*
X129340000Y-76097757D01*
X129340000Y-78574134D01*
X129216485Y-78625169D01*
X128826539Y-79014436D01*
X128807619Y-79060000D01*
X128272954Y-79060000D01*
X128079147Y-78769946D01*
X127738447Y-78542298D01*
X127881358Y-78475183D01*
X128271645Y-78046924D01*
X128441476Y-77636890D01*
X128320155Y-77407000D01*
X127127000Y-77407000D01*
X127127000Y-77427000D01*
X126873000Y-77427000D01*
X126873000Y-77407000D01*
X126853000Y-77407000D01*
X126853000Y-77153000D01*
X126873000Y-77153000D01*
X126873000Y-77133000D01*
X127127000Y-77133000D01*
X127127000Y-77153000D01*
X128320155Y-77153000D01*
X128441476Y-76923110D01*
X128271645Y-76513076D01*
X127881358Y-76084817D01*
X127738447Y-76017702D01*
X128065418Y-75799227D01*
X128189436Y-75923461D01*
X128189436Y-75923461D01*
G37*
X128189436Y-75923461D02*
X128698298Y-76134759D01*
X129249285Y-76135240D01*
X129340000Y-76097757D01*
X129340000Y-78574134D01*
X129216485Y-78625169D01*
X128826539Y-79014436D01*
X128807619Y-79060000D01*
X128272954Y-79060000D01*
X128079147Y-78769946D01*
X127738447Y-78542298D01*
X127881358Y-78475183D01*
X128271645Y-78046924D01*
X128441476Y-77636890D01*
X128320155Y-77407000D01*
X127127000Y-77407000D01*
X127127000Y-77427000D01*
X126873000Y-77427000D01*
X126873000Y-77407000D01*
X126853000Y-77407000D01*
X126853000Y-77153000D01*
X126873000Y-77153000D01*
X126873000Y-77133000D01*
X127127000Y-77133000D01*
X127127000Y-77153000D01*
X128320155Y-77153000D01*
X128441476Y-76923110D01*
X128271645Y-76513076D01*
X127881358Y-76084817D01*
X127738447Y-76017702D01*
X128065418Y-75799227D01*
X128189436Y-75923461D01*
G36*
X127325169Y-65783515D02*
X127714436Y-66173461D01*
X128223298Y-66384759D01*
X128344544Y-66384865D01*
X127999449Y-66729357D01*
X127995706Y-66738372D01*
X127880159Y-66699446D01*
X126979605Y-67600000D01*
X127880159Y-68500554D01*
X127995214Y-68461793D01*
X127997932Y-68468371D01*
X128429357Y-68900551D01*
X128979050Y-69128803D01*
X128815241Y-69523298D01*
X128814760Y-70074285D01*
X129025169Y-70583515D01*
X129246396Y-70805128D01*
X129198559Y-70835910D01*
X129053569Y-71048110D01*
X129002560Y-71300000D01*
X129002560Y-71800000D01*
X129046838Y-72035317D01*
X129185910Y-72251441D01*
X129255711Y-72299134D01*
X129198559Y-72335910D01*
X129053569Y-72548110D01*
X129002560Y-72800000D01*
X129002560Y-73300000D01*
X129014797Y-73365034D01*
X128700715Y-73364760D01*
X128233500Y-73557809D01*
X128301441Y-73514090D01*
X128446431Y-73301890D01*
X128497440Y-73050000D01*
X128497440Y-71350000D01*
X128453162Y-71114683D01*
X128314090Y-70898559D01*
X128101890Y-70753569D01*
X127850000Y-70702560D01*
X126150000Y-70702560D01*
X125914683Y-70746838D01*
X125760000Y-70846374D01*
X125760000Y-68769828D01*
X125784890Y-68794718D01*
X125899447Y-68680161D01*
X125985852Y-68936643D01*
X126559336Y-69146458D01*
X127169460Y-69120839D01*
X127614148Y-68936643D01*
X127700554Y-68680159D01*
X126800000Y-67779605D01*
X126785858Y-67793748D01*
X126606253Y-67614143D01*
X126620395Y-67600000D01*
X126606253Y-67585858D01*
X126785858Y-67406253D01*
X126800000Y-67420395D01*
X127700554Y-66519841D01*
X127614148Y-66263357D01*
X127040664Y-66053542D01*
X126430540Y-66079161D01*
X125985852Y-66263357D01*
X125899447Y-66519839D01*
X125784890Y-66405282D01*
X125760000Y-66430172D01*
X125760000Y-66314802D01*
X126314802Y-65760000D01*
X127315453Y-65760000D01*
X127325169Y-65783515D01*
X127325169Y-65783515D01*
G37*
X127325169Y-65783515D02*
X127714436Y-66173461D01*
X128223298Y-66384759D01*
X128344544Y-66384865D01*
X127999449Y-66729357D01*
X127995706Y-66738372D01*
X127880159Y-66699446D01*
X126979605Y-67600000D01*
X127880159Y-68500554D01*
X127995214Y-68461793D01*
X127997932Y-68468371D01*
X128429357Y-68900551D01*
X128979050Y-69128803D01*
X128815241Y-69523298D01*
X128814760Y-70074285D01*
X129025169Y-70583515D01*
X129246396Y-70805128D01*
X129198559Y-70835910D01*
X129053569Y-71048110D01*
X129002560Y-71300000D01*
X129002560Y-71800000D01*
X129046838Y-72035317D01*
X129185910Y-72251441D01*
X129255711Y-72299134D01*
X129198559Y-72335910D01*
X129053569Y-72548110D01*
X129002560Y-72800000D01*
X129002560Y-73300000D01*
X129014797Y-73365034D01*
X128700715Y-73364760D01*
X128233500Y-73557809D01*
X128301441Y-73514090D01*
X128446431Y-73301890D01*
X128497440Y-73050000D01*
X128497440Y-71350000D01*
X128453162Y-71114683D01*
X128314090Y-70898559D01*
X128101890Y-70753569D01*
X127850000Y-70702560D01*
X126150000Y-70702560D01*
X125914683Y-70746838D01*
X125760000Y-70846374D01*
X125760000Y-68769828D01*
X125784890Y-68794718D01*
X125899447Y-68680161D01*
X125985852Y-68936643D01*
X126559336Y-69146458D01*
X127169460Y-69120839D01*
X127614148Y-68936643D01*
X127700554Y-68680159D01*
X126800000Y-67779605D01*
X126785858Y-67793748D01*
X126606253Y-67614143D01*
X126620395Y-67600000D01*
X126606253Y-67585858D01*
X126785858Y-67406253D01*
X126800000Y-67420395D01*
X127700554Y-66519841D01*
X127614148Y-66263357D01*
X127040664Y-66053542D01*
X126430540Y-66079161D01*
X125985852Y-66263357D01*
X125899447Y-66519839D01*
X125784890Y-66405282D01*
X125760000Y-66430172D01*
X125760000Y-66314802D01*
X126314802Y-65760000D01*
X127315453Y-65760000D01*
X127325169Y-65783515D01*
M02*
