<?xml version="1.0" standalone="no"?>
 <!DOCTYPE svg PUBLIC "-//W3C//DTD SVG 1.1//EN" 
 "http://www.w3.org/Graphics/SVG/1.1/DTD/svg11.dtd"> 
<svg xmlns="http://www.w3.org/2000/svg" version="1.1" 
    width="29.7002cm" height="21.0007cm" viewBox="0 0 116930 82680 ">
<title>SVG Picture created as harmonic_jerkulator-B.Cu.svg date 2018/07/15 22:00:46 </title>
  <desc>Picture generated by PCBNEW </desc>
<g style="fill:#000000; fill-opacity:1;stroke:#000000; stroke-opacity:1;
stroke-linecap:round; stroke-linejoin:round; "
 transform="translate(0 0) scale(1 1)">
</g>
<g style="fill:#000000; fill-opacity:0.0; 
stroke:#000000; stroke-width:-0.000393701; stroke-opacity:1; 
stroke-linecap:round; stroke-linejoin:round;">
</g>
<g style="fill:#000000; fill-opacity:0.0; 
stroke:#000000; stroke-width:78.7402; stroke-opacity:1; 
stroke-linecap:round; stroke-linejoin:round;">
<path d="M37823 40466
L37823 40804
L37842 40841
L37879 40860
L37898 40860
" />
<path d="M37823 40335
L37842 40354
L37823 40373
L37804 40354
L37823 40335
L37823 40373
" />
<path d="M37485 40710
L37523 40729
L37598 40729
L37635 40710
L37654 40673
L37654 40523
L37635 40485
L37598 40466
L37523 40466
L37485 40485
L37467 40523
L37467 40560
L37654 40598
" />
<path d="M37298 40729
L37298 40466
" />
<path d="M37298 40541
L37279 40504
L37260 40485
L37223 40466
L37185 40466
" />
<path d="M37054 40729
L37054 40335
" />
<path d="M37017 40579
L36904 40729
" />
<path d="M36904 40466
L37054 40616
" />
<path d="M36567 40466
L36567 40729
" />
<path d="M36736 40466
L36736 40673
L36717 40710
L36679 40729
L36623 40729
L36586 40710
L36567 40691
" />
<path d="M36323 40729
L36361 40710
L36379 40673
L36379 40335
" />
<path d="M36004 40729
L36004 40523
L36023 40485
L36061 40466
L36136 40466
L36173 40485
" />
<path d="M36004 40710
L36042 40729
L36136 40729
L36173 40710
L36192 40673
L36192 40635
L36173 40598
L36136 40579
L36042 40579
L36004 40560
" />
<path d="M35873 40466
L35723 40466
" />
<path d="M35817 40335
L35817 40673
L35798 40710
L35761 40729
L35723 40729
" />
<path d="M35536 40729
L35573 40710
L35592 40691
L35611 40654
L35611 40541
L35592 40504
L35573 40485
L35536 40466
L35479 40466
L35442 40485
L35423 40504
L35404 40541
L35404 40654
L35423 40691
L35442 40710
L35479 40729
L35536 40729
" />
<path d="M35236 40729
L35236 40466
" />
<path d="M35236 40541
L35217 40504
L35198 40485
L35161 40466
L35123 40466
" />
<path d="M34730 40466
L34636 40729
L34542 40466
" />
<path d="M34317 40335
L34280 40335
L34242 40354
L34223 40373
L34205 40410
L34186 40485
L34186 40579
L34205 40654
L34223 40691
L34242 40710
L34280 40729
L34317 40729
L34355 40710
L34373 40691
L34392 40654
L34411 40579
L34411 40485
L34392 40410
L34373 40373
L34355 40354
L34317 40335
" />
<path d="M34055 40335
L33811 40335
L33942 40485
L33886 40485
L33848 40504
L33830 40523
L33811 40560
L33811 40654
L33830 40691
L33848 40710
L33886 40729
L33998 40729
L34036 40710
L34055 40691
" />
<path d="M37879 40138
L37879 39745
" />
<path d="M37710 40138
L37710 39932
L37729 39895
L37767 39876
L37823 39876
L37860 39895
L37879 39913
" />
<path d="M37354 40138
L37354 39932
L37373 39895
L37410 39876
L37485 39876
L37523 39895
" />
<path d="M37354 40119
L37392 40138
L37485 40138
L37523 40119
L37542 40082
L37542 40044
L37523 40007
L37485 39988
L37392 39988
L37354 39970
" />
<path d="M37167 40138
L37167 39876
" />
<path d="M37167 39951
L37148 39913
L37129 39895
L37092 39876
L37054 39876
" />
<path d="M36923 40138
L36923 39876
" />
<path d="M36923 39913
L36904 39895
L36867 39876
L36811 39876
L36773 39895
L36754 39932
L36754 40138
" />
<path d="M36754 39932
L36736 39895
L36698 39876
L36642 39876
L36604 39895
L36586 39932
L36586 40138
" />
<path d="M36342 40138
L36379 40119
L36398 40101
L36417 40063
L36417 39951
L36398 39913
L36379 39895
L36342 39876
L36286 39876
L36248 39895
L36229 39913
L36211 39951
L36211 40063
L36229 40101
L36248 40119
L36286 40138
L36342 40138
" />
<path d="M36042 39876
L36042 40138
" />
<path d="M36042 39913
L36023 39895
L35986 39876
L35929 39876
L35892 39895
L35873 39932
L35873 40138
" />
<path d="M35686 40138
L35686 39876
" />
<path d="M35686 39745
L35704 39763
L35686 39782
L35667 39763
L35686 39745
L35686 39782
" />
<path d="M35329 40119
L35367 40138
L35442 40138
L35479 40119
L35498 40101
L35517 40063
L35517 39951
L35498 39913
L35479 39895
L35442 39876
L35367 39876
L35329 39895
" />
<path d="M37673 39592
L37804 39405
" />
<path d="M37898 39592
L37898 39198
L37748 39198
L37710 39217
L37692 39236
L37673 39273
L37673 39330
L37692 39367
L37710 39386
L37748 39405
L37898 39405
" />
<path d="M37523 39480
L37335 39480
" />
<path d="M37560 39592
L37429 39198
L37298 39592
" />
<path d="M37167 39592
L37167 39198
L36942 39592
L36942 39198
" />
<path d="M36754 39592
L36754 39198
L36661 39198
L36604 39217
L36567 39255
L36548 39292
L36529 39367
L36529 39423
L36548 39498
L36567 39536
L36604 39573
L36661 39592
L36754 39592
" />
<path d="M36379 39480
L36192 39480
" />
<path d="M36417 39592
L36286 39198
L36154 39592
" />
<path d="M35817 39217
L35854 39198
L35911 39198
L35967 39217
L36004 39255
L36023 39292
L36042 39367
L36042 39423
L36023 39498
L36004 39536
L35967 39573
L35911 39592
L35873 39592
L35817 39573
L35798 39555
L35798 39423
L35873 39423
" />
<path d="M35554 39198
L35479 39198
L35442 39217
L35404 39255
L35386 39330
L35386 39461
L35404 39536
L35442 39573
L35479 39592
L35554 39592
L35592 39573
L35629 39536
L35648 39461
L35648 39330
L35629 39255
L35592 39217
L35554 39198
" />
<path d="M35217 39592
L35217 39198
L35123 39198
L35067 39217
L35029 39255
L35011 39292
L34992 39367
L34992 39423
L35011 39498
L35029 39536
L35067 39573
L35123 39592
L35217 39592
" />
<path d="M34598 39592
L34730 39405
" />
<path d="M34823 39592
L34823 39198
L34673 39198
L34636 39217
L34617 39236
L34598 39273
L34598 39330
L34617 39367
L34636 39386
L34673 39405
L34823 39405
" />
<path d="M34355 39198
L34280 39198
L34242 39217
L34205 39255
L34186 39330
L34186 39461
L34205 39536
L34242 39573
L34280 39592
L34355 39592
L34392 39573
L34430 39536
L34448 39461
L34448 39330
L34430 39255
L34392 39217
L34355 39198
" />
<path d="M34017 39592
L34017 39198
L33792 39592
L33792 39198
" />
</g>
<g style="fill:#000000; fill-opacity:0.0; 
stroke:#000000; stroke-width:98.4252; stroke-opacity:1; 
stroke-linecap:round; stroke-linejoin:round;">
<path d="M59819 41516
L59950 41329
" />
<path d="M60044 41516
L60044 41122
L59894 41122
L59856 41141
L59837 41160
L59819 41197
L59819 41254
L59837 41291
L59856 41310
L59894 41329
L60044 41329
" />
<path d="M59669 41404
L59481 41404
" />
<path d="M59706 41516
L59575 41122
L59444 41516
" />
<path d="M59312 41516
L59312 41122
L59087 41516
L59087 41122
" />
<path d="M58900 41516
L58900 41122
L58806 41122
L58750 41141
L58712 41179
L58694 41216
L58675 41291
L58675 41347
L58694 41422
L58712 41460
L58750 41497
L58806 41516
L58900 41516
" />
<path d="M58525 41404
L58338 41404
" />
<path d="M58562 41516
L58431 41122
L58300 41516
" />
<path d="M57963 41141
L58000 41122
L58056 41122
L58113 41141
L58150 41179
L58169 41216
L58188 41291
L58188 41347
L58169 41422
L58150 41460
L58113 41497
L58056 41516
L58019 41516
L57963 41497
L57944 41479
L57944 41347
L58019 41347
" />
<path d="M57700 41122
L57625 41122
L57588 41141
L57550 41179
L57531 41254
L57531 41385
L57550 41460
L57588 41497
L57625 41516
L57700 41516
L57738 41497
L57775 41460
L57794 41385
L57794 41254
L57775 41179
L57738 41141
L57700 41122
" />
<path d="M57363 41516
L57363 41122
L57269 41122
L57213 41141
L57175 41179
L57156 41216
L57138 41291
L57138 41347
L57156 41422
L57175 41460
L57213 41497
L57269 41516
L57363 41516
" />
<path d="M56744 41516
L56875 41329
" />
<path d="M56969 41516
L56969 41122
L56819 41122
L56781 41141
L56763 41160
L56744 41197
L56744 41254
L56763 41291
L56781 41310
L56819 41329
L56969 41329
" />
<path d="M56500 41122
L56425 41122
L56388 41141
L56350 41179
L56332 41254
L56332 41385
L56350 41460
L56388 41497
L56425 41516
L56500 41516
L56538 41497
L56575 41460
L56594 41385
L56594 41254
L56575 41179
L56538 41141
L56500 41122
" />
<path d="M56163 41516
L56163 41122
L55938 41516
L55938 41122
" />
<path d="M60044 42205
L60044 41811
" />
<path d="M59875 42205
L59875 41999
L59894 41961
L59931 41943
L59987 41943
L60025 41961
L60044 41980
" />
<path d="M59519 42205
L59519 41999
L59537 41961
L59575 41943
L59650 41943
L59687 41961
" />
<path d="M59519 42186
L59556 42205
L59650 42205
L59687 42186
L59706 42149
L59706 42111
L59687 42074
L59650 42055
L59556 42055
L59519 42036
" />
<path d="M59331 42205
L59331 41943
" />
<path d="M59331 42018
L59312 41980
L59294 41961
L59256 41943
L59219 41943
" />
<path d="M59087 42205
L59087 41943
" />
<path d="M59087 41980
L59069 41961
L59031 41943
L58975 41943
L58937 41961
L58919 41999
L58919 42205
" />
<path d="M58919 41999
L58900 41961
L58862 41943
L58806 41943
L58769 41961
L58750 41999
L58750 42205
" />
<path d="M58506 42205
L58544 42186
L58562 42168
L58581 42130
L58581 42018
L58562 41980
L58544 41961
L58506 41943
L58450 41943
L58413 41961
L58394 41980
L58375 42018
L58375 42130
L58394 42168
L58413 42186
L58450 42205
L58506 42205
" />
<path d="M58206 41943
L58206 42205
" />
<path d="M58206 41980
L58188 41961
L58150 41943
L58094 41943
L58056 41961
L58038 41999
L58038 42205
" />
<path d="M57850 42205
L57850 41943
" />
<path d="M57850 41811
L57869 41830
L57850 41849
L57831 41830
L57850 41811
L57850 41849
" />
<path d="M57494 42186
L57531 42205
L57606 42205
L57644 42186
L57663 42168
L57681 42130
L57681 42018
L57663 41980
L57644 41961
L57606 41943
L57531 41943
L57494 41961
" />
<path d="M60044 42632
L60044 42969
L60062 43007
L60100 43025
L60119 43025
" />
<path d="M60044 42500
L60062 42519
L60044 42538
L60025 42519
L60044 42500
L60044 42538
" />
<path d="M59706 42875
L59744 42894
L59819 42894
L59856 42875
L59875 42838
L59875 42688
L59856 42650
L59819 42632
L59744 42632
L59706 42650
L59687 42688
L59687 42725
L59875 42763
" />
<path d="M59519 42894
L59519 42632
" />
<path d="M59519 42707
L59500 42669
L59481 42650
L59444 42632
L59406 42632
" />
<path d="M59275 42894
L59275 42500
" />
<path d="M59237 42744
L59125 42894
" />
<path d="M59125 42632
L59275 42782
" />
<path d="M58787 42632
L58787 42894
" />
<path d="M58956 42632
L58956 42838
L58937 42875
L58900 42894
L58844 42894
L58806 42875
L58787 42857
" />
<path d="M58544 42894
L58581 42875
L58600 42838
L58600 42500
" />
<path d="M58225 42894
L58225 42688
L58244 42650
L58281 42632
L58356 42632
L58394 42650
" />
<path d="M58225 42875
L58263 42894
L58356 42894
L58394 42875
L58413 42838
L58413 42800
L58394 42763
L58356 42744
L58263 42744
L58225 42725
" />
<path d="M58094 42632
L57944 42632
" />
<path d="M58038 42500
L58038 42838
L58019 42875
L57981 42894
L57944 42894
" />
<path d="M57756 42894
L57794 42875
L57813 42857
L57831 42819
L57831 42707
L57813 42669
L57794 42650
L57756 42632
L57700 42632
L57663 42650
L57644 42669
L57625 42707
L57625 42819
L57644 42857
L57663 42875
L57700 42894
L57756 42894
" />
<path d="M57456 42894
L57456 42632
" />
<path d="M57456 42707
L57438 42669
L57419 42650
L57381 42632
L57344 42632
" />
<path d="M56950 42632
L56856 42894
L56763 42632
" />
<path d="M56538 42500
L56500 42500
L56463 42519
L56444 42538
L56425 42575
L56407 42650
L56407 42744
L56425 42819
L56444 42857
L56463 42875
L56500 42894
L56538 42894
L56575 42875
L56594 42857
L56613 42819
L56631 42744
L56631 42650
L56613 42575
L56594 42538
L56575 42519
L56538 42500
" />
<path d="M56275 42500
L56032 42500
L56163 42650
L56107 42650
L56069 42669
L56050 42688
L56032 42725
L56032 42819
L56050 42857
L56069 42875
L56107 42894
L56219 42894
L56257 42875
L56275 42857
" />
</g>
<g style="fill:#000000; fill-opacity:0.0; 
stroke:#000000; stroke-width:59.0551; stroke-opacity:1; 
stroke-linecap:round; stroke-linejoin:round;">
<circle cx="49133.9" cy="51023.6" r="656.168" /> 
<path d="M48149 51023
L50118 51023
" />
<path d="M49133 50039
L49133 52007
" />
<circle cx="59842.5" cy="19370.1" r="656.168" /> 
<path d="M58858 19370
L60826 19370
" />
<path d="M59842 18385
L59842 20354
" />
<circle cx="26456.7" cy="51023.6" r="656.168" /> 
<path d="M25472 51023
L27440 51023
" />
<path d="M26456 50039
L26456 52007
" />
<circle cx="36850.4" cy="19370.1" r="656.168" /> 
<path d="M35866 19370
L37834 19370
" />
<path d="M36850 18385
L36850 20354
" />
<path d="M48031 43307
L61023 43307
" />
<path d="M25196 43307
L38188 43307
" />
<path d="M58267 20866
L61023 20866
" />
<path d="M61023 20866
L61023 49606
" />
<path d="M50787 18110
L58267 18110
" />
<path d="M50787 20866
L50787 18110
" />
<path d="M58267 18110
L58267 20866
" />
<path d="M48031 49606
L48031 20866
" />
<path d="M48031 20866
L50787 20866
" />
<path d="M58267 49606
L58267 52362
" />
<path d="M61023 49606
L58267 49606
" />
<path d="M58267 52362
L50787 52362
" />
<path d="M50787 52362
L50787 49606
" />
<path d="M50787 49606
L48031 49606
" />
<path d="M27952 20866
L27952 18110
" />
<path d="M25196 20866
L27952 20866
" />
<path d="M25196 49606
L25196 20866
" />
<path d="M27952 49606
L25196 49606
" />
<path d="M27952 52362
L27952 49606
" />
<path d="M35433 52362
L27952 52362
" />
<path d="M35433 49606
L35433 52362
" />
<path d="M38188 49606
L35433 49606
" />
<path d="M38188 20866
L38188 49606
" />
<path d="M35433 20866
L38188 20866
" />
<path d="M35433 18110
L35433 20866
" />
<path d="M27952 18110
L35433 18110
" />
</g>
<g style="fill:#000000; fill-opacity:1.0; 
stroke:#000000; stroke-width:0; stroke-opacity:1; 
stroke-linecap:round; stroke-linejoin:round;">
<circle cx="33622" cy="20511.8" r="944.882" /> 
</g>
<g style="fill:#000000; fill-opacity:1.0; 
stroke:#000000; stroke-width:39.3701; stroke-opacity:1; 
stroke-linecap:round; stroke-linejoin:round;">
</g>
<g style="fill:#000000; fill-opacity:1.0; 
stroke:#000000; stroke-width:0; stroke-opacity:1; 
stroke-linecap:round; stroke-linejoin:round;">
<polyline style="fill-rule:evenodd;"
points="32677,21968
34566,21968
34566,23858
32677,23858
32677,21968
" /> 
<circle cx="31622" cy="21413.4" r="944.882" /> 
</g>
<g style="fill:#000000; fill-opacity:1.0; 
stroke:#000000; stroke-width:39.3701; stroke-opacity:1; 
stroke-linecap:round; stroke-linejoin:round;">
</g>
<g style="fill:#000000; fill-opacity:1.0; 
stroke:#000000; stroke-width:0; stroke-opacity:1; 
stroke-linecap:round; stroke-linejoin:round;">
<polyline style="fill-rule:evenodd;"
points="50830,37263
50161,37263
50161,36594
50830,36594
50830,37263
" /> 
</g>
<g style="fill:#000000; fill-opacity:1.0; 
stroke:#000000; stroke-width:669.291; stroke-opacity:1; 
stroke-linecap:round; stroke-linejoin:round;">
</g>
<g style="fill:#000000; fill-opacity:0.0; 
stroke:#000000; stroke-width:669.291; stroke-opacity:1; 
stroke-linecap:round; stroke-linejoin:round;">
<path d="M51496 36929
L51496 36929
" />
</g>
<g style="fill:#000000; fill-opacity:1.0; 
stroke:#000000; stroke-width:0; stroke-opacity:1; 
stroke-linecap:round; stroke-linejoin:round;">
<circle cx="26279.5" cy="42480.3" r="590.551" /> 
</g>
<g style="fill:#000000; fill-opacity:1.0; 
stroke:#000000; stroke-width:39.3701; stroke-opacity:1; 
stroke-linecap:round; stroke-linejoin:round;">
</g>
<g style="fill:#000000; fill-opacity:1.0; 
stroke:#000000; stroke-width:0; stroke-opacity:1; 
stroke-linecap:round; stroke-linejoin:round;">
<circle cx="28779.5" cy="42480.3" r="590.551" /> 
</g>
<g style="fill:#000000; fill-opacity:1.0; 
stroke:#000000; stroke-width:39.3701; stroke-opacity:1; 
stroke-linecap:round; stroke-linejoin:round;">
</g>
<g style="fill:#000000; fill-opacity:1.0; 
stroke:#000000; stroke-width:0; stroke-opacity:1; 
stroke-linecap:round; stroke-linejoin:round;">
<circle cx="31279.5" cy="37972.4" r="590.551" /> 
</g>
<g style="fill:#000000; fill-opacity:1.0; 
stroke:#000000; stroke-width:39.3701; stroke-opacity:1; 
stroke-linecap:round; stroke-linejoin:round;">
</g>
<g style="fill:#000000; fill-opacity:1.0; 
stroke:#000000; stroke-width:0; stroke-opacity:1; 
stroke-linecap:round; stroke-linejoin:round;">
<circle cx="31279.5" cy="42480.3" r="590.551" /> 
</g>
<g style="fill:#000000; fill-opacity:1.0; 
stroke:#000000; stroke-width:39.3701; stroke-opacity:1; 
stroke-linecap:round; stroke-linejoin:round;">
</g>
<g style="fill:#000000; fill-opacity:1.0; 
stroke:#000000; stroke-width:0; stroke-opacity:1; 
stroke-linecap:round; stroke-linejoin:round;">
<circle cx="26279.5" cy="37972.4" r="590.551" /> 
</g>
<g style="fill:#000000; fill-opacity:1.0; 
stroke:#000000; stroke-width:39.3701; stroke-opacity:1; 
stroke-linecap:round; stroke-linejoin:round;">
</g>
<g style="fill:#000000; fill-opacity:1.0; 
stroke:#000000; stroke-width:0; stroke-opacity:1; 
stroke-linecap:round; stroke-linejoin:round;">
<circle cx="28779.5" cy="37972.4" r="590.551" /> 
</g>
<g style="fill:#000000; fill-opacity:1.0; 
stroke:#000000; stroke-width:39.3701; stroke-opacity:1; 
stroke-linecap:round; stroke-linejoin:round;">
</g>
<g style="fill:#000000; fill-opacity:1.0; 
stroke:#000000; stroke-width:0; stroke-opacity:1; 
stroke-linecap:round; stroke-linejoin:round;">
<circle cx="37106.3" cy="31614.2" r="590.551" /> 
</g>
<g style="fill:#000000; fill-opacity:1.0; 
stroke:#000000; stroke-width:39.3701; stroke-opacity:1; 
stroke-linecap:round; stroke-linejoin:round;">
</g>
<g style="fill:#000000; fill-opacity:1.0; 
stroke:#000000; stroke-width:0; stroke-opacity:1; 
stroke-linecap:round; stroke-linejoin:round;">
<circle cx="34606.3" cy="31614.2" r="590.551" /> 
</g>
<g style="fill:#000000; fill-opacity:1.0; 
stroke:#000000; stroke-width:39.3701; stroke-opacity:1; 
stroke-linecap:round; stroke-linejoin:round;">
</g>
<g style="fill:#000000; fill-opacity:1.0; 
stroke:#000000; stroke-width:0; stroke-opacity:1; 
stroke-linecap:round; stroke-linejoin:round;">
<circle cx="32106.3" cy="36122" r="590.551" /> 
</g>
<g style="fill:#000000; fill-opacity:1.0; 
stroke:#000000; stroke-width:39.3701; stroke-opacity:1; 
stroke-linecap:round; stroke-linejoin:round;">
</g>
<g style="fill:#000000; fill-opacity:1.0; 
stroke:#000000; stroke-width:0; stroke-opacity:1; 
stroke-linecap:round; stroke-linejoin:round;">
<circle cx="32106.3" cy="31614.2" r="590.551" /> 
</g>
<g style="fill:#000000; fill-opacity:1.0; 
stroke:#000000; stroke-width:39.3701; stroke-opacity:1; 
stroke-linecap:round; stroke-linejoin:round;">
</g>
<g style="fill:#000000; fill-opacity:1.0; 
stroke:#000000; stroke-width:0; stroke-opacity:1; 
stroke-linecap:round; stroke-linejoin:round;">
<circle cx="37106.3" cy="36122" r="590.551" /> 
</g>
<g style="fill:#000000; fill-opacity:1.0; 
stroke:#000000; stroke-width:39.3701; stroke-opacity:1; 
stroke-linecap:round; stroke-linejoin:round;">
</g>
<g style="fill:#000000; fill-opacity:1.0; 
stroke:#000000; stroke-width:0; stroke-opacity:1; 
stroke-linecap:round; stroke-linejoin:round;">
<circle cx="34606.3" cy="36122" r="590.551" /> 
</g>
<g style="fill:#000000; fill-opacity:1.0; 
stroke:#000000; stroke-width:39.3701; stroke-opacity:1; 
stroke-linecap:round; stroke-linejoin:round;">
</g>
<g style="fill:#000000; fill-opacity:1.0; 
stroke:#000000; stroke-width:0; stroke-opacity:1; 
stroke-linecap:round; stroke-linejoin:round;">
<polyline style="fill-rule:evenodd;"
points="49665,28759
49665,28090
50334,28090
50334,28759
49665,28759
" /> 
</g>
<g style="fill:#000000; fill-opacity:1.0; 
stroke:#000000; stroke-width:669.291; stroke-opacity:1; 
stroke-linecap:round; stroke-linejoin:round;">
</g>
<g style="fill:#000000; fill-opacity:0.0; 
stroke:#000000; stroke-width:669.291; stroke-opacity:1; 
stroke-linecap:round; stroke-linejoin:round;">
<path d="M50000 29425
L50000 29425
" />
<path d="M50000 30425
L50000 30425
" />
<path d="M50000 31425
L50000 31425
" />
<path d="M50000 32425
L50000 32425
" />
<path d="M50000 33425
L50000 33425
" />
</g>
<g style="fill:#000000; fill-opacity:0.0; 
stroke:#000000; stroke-width:0; stroke-opacity:1; 
stroke-linecap:round; stroke-linejoin:round;">
</g>
<g style="fill:#000000; fill-opacity:1.0; 
stroke:#000000; stroke-width:0; stroke-opacity:1; 
stroke-linecap:round; stroke-linejoin:round;">
<polyline style="fill-rule:evenodd;"
points="26830,28759
26830,28090
27500,28090
27500,28759
26830,28759
" /> 
</g>
<g style="fill:#000000; fill-opacity:1.0; 
stroke:#000000; stroke-width:669.291; stroke-opacity:1; 
stroke-linecap:round; stroke-linejoin:round;">
</g>
<g style="fill:#000000; fill-opacity:0.0; 
stroke:#000000; stroke-width:669.291; stroke-opacity:1; 
stroke-linecap:round; stroke-linejoin:round;">
<path d="M27165 29425
L27165 29425
" />
<path d="M27165 30425
L27165 30425
" />
<path d="M27165 31425
L27165 31425
" />
<path d="M27165 32425
L27165 32425
" />
<path d="M27165 33425
L27165 33425
" />
</g>
<g style="fill:#000000; fill-opacity:0.0; 
stroke:#000000; stroke-width:0; stroke-opacity:1; 
stroke-linecap:round; stroke-linejoin:round;">
</g>
<g style="fill:#000000; fill-opacity:1.0; 
stroke:#000000; stroke-width:0; stroke-opacity:1; 
stroke-linecap:round; stroke-linejoin:round;">
<polyline style="fill-rule:evenodd;"
points="54114,19901
53444,19901
53444,19232
54114,19232
54114,19901
" /> 
</g>
<g style="fill:#000000; fill-opacity:1.0; 
stroke:#000000; stroke-width:669.291; stroke-opacity:1; 
stroke-linecap:round; stroke-linejoin:round;">
</g>
<g style="fill:#000000; fill-opacity:0.0; 
stroke:#000000; stroke-width:669.291; stroke-opacity:1; 
stroke-linecap:round; stroke-linejoin:round;">
<path d="M54779 19566
L54779 19566
" />
<path d="M55779 19566
L55779 19566
" />
</g>
<g style="fill:#000000; fill-opacity:1.0; 
stroke:#000000; stroke-width:0; stroke-opacity:1; 
stroke-linecap:round; stroke-linejoin:round;">
<circle cx="49921.3" cy="26614.2" r="354.331" /> 
</g>
<g style="fill:#000000; fill-opacity:1.0; 
stroke:#000000; stroke-width:39.3701; stroke-opacity:1; 
stroke-linecap:round; stroke-linejoin:round;">
</g>
<g style="fill:#000000; fill-opacity:1.0; 
stroke:#000000; stroke-width:0; stroke-opacity:1; 
stroke-linecap:round; stroke-linejoin:round;">
<circle cx="50905.5" cy="26614.2" r="354.331" /> 
</g>
<g style="fill:#000000; fill-opacity:1.0; 
stroke:#000000; stroke-width:39.3701; stroke-opacity:1; 
stroke-linecap:round; stroke-linejoin:round;">
</g>
<g style="fill:#000000; fill-opacity:1.0; 
stroke:#000000; stroke-width:0; stroke-opacity:1; 
stroke-linecap:round; stroke-linejoin:round;">
<circle cx="51889.8" cy="26614.2" r="354.331" /> 
</g>
<g style="fill:#000000; fill-opacity:1.0; 
stroke:#000000; stroke-width:39.3701; stroke-opacity:1; 
stroke-linecap:round; stroke-linejoin:round;">
</g>
<g style="fill:#000000; fill-opacity:1.0; 
stroke:#000000; stroke-width:0; stroke-opacity:1; 
stroke-linecap:round; stroke-linejoin:round;">
<circle cx="49035.4" cy="23661.4" r="590.551" /> 
</g>
<g style="fill:#000000; fill-opacity:1.0; 
stroke:#000000; stroke-width:39.3701; stroke-opacity:1; 
stroke-linecap:round; stroke-linejoin:round;">
</g>
<g style="fill:#000000; fill-opacity:1.0; 
stroke:#000000; stroke-width:0; stroke-opacity:1; 
stroke-linecap:round; stroke-linejoin:round;">
<circle cx="52775.6" cy="23661.4" r="590.551" /> 
</g>
<g style="fill:#000000; fill-opacity:1.0; 
stroke:#000000; stroke-width:39.3701; stroke-opacity:1; 
stroke-linecap:round; stroke-linejoin:round;">
</g>
<g style="fill:#000000; fill-opacity:1.0; 
stroke:#000000; stroke-width:0; stroke-opacity:1; 
stroke-linecap:round; stroke-linejoin:round;">
<circle cx="57244.1" cy="26614.2" r="354.331" /> 
</g>
<g style="fill:#000000; fill-opacity:1.0; 
stroke:#000000; stroke-width:39.3701; stroke-opacity:1; 
stroke-linecap:round; stroke-linejoin:round;">
</g>
<g style="fill:#000000; fill-opacity:1.0; 
stroke:#000000; stroke-width:0; stroke-opacity:1; 
stroke-linecap:round; stroke-linejoin:round;">
<circle cx="58228.3" cy="26614.2" r="354.331" /> 
</g>
<g style="fill:#000000; fill-opacity:1.0; 
stroke:#000000; stroke-width:39.3701; stroke-opacity:1; 
stroke-linecap:round; stroke-linejoin:round;">
</g>
<g style="fill:#000000; fill-opacity:1.0; 
stroke:#000000; stroke-width:0; stroke-opacity:1; 
stroke-linecap:round; stroke-linejoin:round;">
<circle cx="59212.6" cy="26614.2" r="354.331" /> 
</g>
<g style="fill:#000000; fill-opacity:1.0; 
stroke:#000000; stroke-width:39.3701; stroke-opacity:1; 
stroke-linecap:round; stroke-linejoin:round;">
</g>
<g style="fill:#000000; fill-opacity:1.0; 
stroke:#000000; stroke-width:0; stroke-opacity:1; 
stroke-linecap:round; stroke-linejoin:round;">
<circle cx="56358.3" cy="23661.4" r="590.551" /> 
</g>
<g style="fill:#000000; fill-opacity:1.0; 
stroke:#000000; stroke-width:39.3701; stroke-opacity:1; 
stroke-linecap:round; stroke-linejoin:round;">
</g>
<g style="fill:#000000; fill-opacity:1.0; 
stroke:#000000; stroke-width:0; stroke-opacity:1; 
stroke-linecap:round; stroke-linejoin:round;">
<circle cx="60098.4" cy="23661.4" r="590.551" /> 
</g>
<g style="fill:#000000; fill-opacity:1.0; 
stroke:#000000; stroke-width:39.3701; stroke-opacity:1; 
stroke-linecap:round; stroke-linejoin:round;">
</g>
<g style="fill:#000000; fill-opacity:1.0; 
stroke:#000000; stroke-width:0; stroke-opacity:1; 
stroke-linecap:round; stroke-linejoin:round;">
<polyline style="fill-rule:evenodd;"
points="50791,35728
50122,35728
50122,35059
50791,35059
50791,35728
" /> 
</g>
<g style="fill:#000000; fill-opacity:1.0; 
stroke:#000000; stroke-width:669.291; stroke-opacity:1; 
stroke-linecap:round; stroke-linejoin:round;">
</g>
<g style="fill:#000000; fill-opacity:0.0; 
stroke:#000000; stroke-width:669.291; stroke-opacity:1; 
stroke-linecap:round; stroke-linejoin:round;">
<path d="M51456 35393
L51456 35393
" />
</g>
<g style="fill:#000000; fill-opacity:0.0; 
stroke:#000000; stroke-width:0; stroke-opacity:1; 
stroke-linecap:round; stroke-linejoin:round;">
</g>
<g style="fill:#000000; fill-opacity:1.0; 
stroke:#000000; stroke-width:0; stroke-opacity:1; 
stroke-linecap:round; stroke-linejoin:round;">
<polyline style="fill-rule:evenodd;"
points="29413,30255
28744,30255
28744,29586
29413,29586
29413,30255
" /> 
</g>
<g style="fill:#000000; fill-opacity:1.0; 
stroke:#000000; stroke-width:669.291; stroke-opacity:1; 
stroke-linecap:round; stroke-linejoin:round;">
</g>
<g style="fill:#000000; fill-opacity:0.0; 
stroke:#000000; stroke-width:669.291; stroke-opacity:1; 
stroke-linecap:round; stroke-linejoin:round;">
<path d="M30078 29921
L30078 29921
" />
</g>
<g style="fill:#000000; fill-opacity:0.0; 
stroke:#000000; stroke-width:0; stroke-opacity:1; 
stroke-linecap:round; stroke-linejoin:round;">
</g>
<g style="fill:#000000; fill-opacity:1.0; 
stroke:#000000; stroke-width:0; stroke-opacity:1; 
stroke-linecap:round; stroke-linejoin:round;">
<polyline style="fill-rule:evenodd;"
points="57767,29665
58437,29665
58437,30334
57767,30334
57767,29665
" /> 
</g>
<g style="fill:#000000; fill-opacity:1.0; 
stroke:#000000; stroke-width:669.291; stroke-opacity:1; 
stroke-linecap:round; stroke-linejoin:round;">
</g>
<g style="fill:#000000; fill-opacity:0.0; 
stroke:#000000; stroke-width:669.291; stroke-opacity:1; 
stroke-linecap:round; stroke-linejoin:round;">
<path d="M57102 30000
L57102 30000
" />
<path d="M56102 30000
L56102 30000
" />
</g>
<g style="fill:#000000; fill-opacity:0.0; 
stroke:#000000; stroke-width:0; stroke-opacity:1; 
stroke-linecap:round; stroke-linejoin:round;">
</g>
<g style="fill:#000000; fill-opacity:1.0; 
stroke:#000000; stroke-width:0; stroke-opacity:1; 
stroke-linecap:round; stroke-linejoin:round;">
<polyline style="fill-rule:evenodd;"
points="53665,28641
52996,28641
52996,27972
53665,27972
53665,28641
" /> 
</g>
<g style="fill:#000000; fill-opacity:1.0; 
stroke:#000000; stroke-width:669.291; stroke-opacity:1; 
stroke-linecap:round; stroke-linejoin:round;">
</g>
<g style="fill:#000000; fill-opacity:0.0; 
stroke:#000000; stroke-width:669.291; stroke-opacity:1; 
stroke-linecap:round; stroke-linejoin:round;">
<path d="M54330 28307
L54330 28307
" />
<path d="M55330 28307
L55330 28307
" />
</g>
<g style="fill:#000000; fill-opacity:0.0; 
stroke:#000000; stroke-width:0; stroke-opacity:1; 
stroke-linecap:round; stroke-linejoin:round;">
</g>
<g style="fill:#000000; fill-opacity:1.0; 
stroke:#000000; stroke-width:0; stroke-opacity:1; 
stroke-linecap:round; stroke-linejoin:round;">
<polyline style="fill-rule:evenodd;"
points="54311,23429
54311,22759
54980,22759
54980,23429
54311,23429
" /> 
</g>
<g style="fill:#000000; fill-opacity:1.0; 
stroke:#000000; stroke-width:669.291; stroke-opacity:1; 
stroke-linecap:round; stroke-linejoin:round;">
</g>
<g style="fill:#000000; fill-opacity:0.0; 
stroke:#000000; stroke-width:669.291; stroke-opacity:1; 
stroke-linecap:round; stroke-linejoin:round;">
<path d="M54645 24094
L54645 24094
" />
</g>
<g style="fill:#000000; fill-opacity:1.0; 
stroke:#000000; stroke-width:0; stroke-opacity:1; 
stroke-linecap:round; stroke-linejoin:round;">
<circle cx="57716.5" cy="27982.3" r="295.276" /> 
</g>
<g style="fill:#000000; fill-opacity:1.0; 
stroke:#000000; stroke-width:39.3701; stroke-opacity:1; 
stroke-linecap:round; stroke-linejoin:round;">
</g>
<g style="fill:#000000; fill-opacity:1.0; 
stroke:#000000; stroke-width:0; stroke-opacity:1; 
stroke-linecap:round; stroke-linejoin:round;">
<circle cx="55204.3" cy="29164.5" r="295.276" /> 
</g>
<g style="fill:#000000; fill-opacity:1.0; 
stroke:#000000; stroke-width:39.3701; stroke-opacity:1; 
stroke-linecap:round; stroke-linejoin:round;">
</g>
<g style="fill:#000000; fill-opacity:1.0; 
stroke:#000000; stroke-width:0; stroke-opacity:1; 
stroke-linecap:round; stroke-linejoin:round;">
<circle cx="58662.3" cy="31033.2" r="295.276" /> 
</g>
<g style="fill:#000000; fill-opacity:1.0; 
stroke:#000000; stroke-width:39.3701; stroke-opacity:1; 
stroke-linecap:round; stroke-linejoin:round;">
</g>
<g style="fill:#000000; fill-opacity:1.0; 
stroke:#000000; stroke-width:0; stroke-opacity:1; 
stroke-linecap:round; stroke-linejoin:round;">
<circle cx="56310.2" cy="27501.5" r="295.276" /> 
</g>
<g style="fill:#000000; fill-opacity:1.0; 
stroke:#000000; stroke-width:39.3701; stroke-opacity:1; 
stroke-linecap:round; stroke-linejoin:round;">
</g>
<g style="fill:#000000; fill-opacity:1.0; 
stroke:#000000; stroke-width:0; stroke-opacity:1; 
stroke-linecap:round; stroke-linejoin:round;">
<circle cx="59330.7" cy="30866.1" r="295.276" /> 
</g>
<g style="fill:#000000; fill-opacity:1.0; 
stroke:#000000; stroke-width:39.3701; stroke-opacity:1; 
stroke-linecap:round; stroke-linejoin:round;">
</g>
<g style="fill:#000000; fill-opacity:1.0; 
stroke:#000000; stroke-width:0; stroke-opacity:1; 
stroke-linecap:round; stroke-linejoin:round;">
<circle cx="52047.2" cy="27637.8" r="295.276" /> 
</g>
<g style="fill:#000000; fill-opacity:1.0; 
stroke:#000000; stroke-width:39.3701; stroke-opacity:1; 
stroke-linecap:round; stroke-linejoin:round;">
</g>
<g style="fill:#000000; fill-opacity:1.0; 
stroke:#000000; stroke-width:0; stroke-opacity:1; 
stroke-linecap:round; stroke-linejoin:round;">
<circle cx="53385.8" cy="29094.5" r="295.276" /> 
</g>
<g style="fill:#000000; fill-opacity:1.0; 
stroke:#000000; stroke-width:39.3701; stroke-opacity:1; 
stroke-linecap:round; stroke-linejoin:round;">
</g>
<g style="fill:#000000; fill-opacity:1.0; 
stroke:#000000; stroke-width:0; stroke-opacity:1; 
stroke-linecap:round; stroke-linejoin:round;">
<circle cx="55039.4" cy="30187" r="295.276" /> 
</g>
<g style="fill:#000000; fill-opacity:1.0; 
stroke:#000000; stroke-width:39.3701; stroke-opacity:1; 
stroke-linecap:round; stroke-linejoin:round;">
</g>
<g style="fill:#000000; fill-opacity:1.0; 
stroke:#000000; stroke-width:0; stroke-opacity:1; 
stroke-linecap:round; stroke-linejoin:round;">
<circle cx="53159.5" cy="27362.2" r="295.276" /> 
</g>
<g style="fill:#000000; fill-opacity:1.0; 
stroke:#000000; stroke-width:39.3701; stroke-opacity:1; 
stroke-linecap:round; stroke-linejoin:round;">
</g>
<g style="fill:#000000; fill-opacity:1.0; 
stroke:#000000; stroke-width:0; stroke-opacity:1; 
stroke-linecap:round; stroke-linejoin:round;">
<circle cx="51926.3" cy="31615.5" r="295.276" /> 
</g>
<g style="fill:#000000; fill-opacity:1.0; 
stroke:#000000; stroke-width:39.3701; stroke-opacity:1; 
stroke-linecap:round; stroke-linejoin:round;">
</g>
<g style="fill:#000000; fill-opacity:1.0; 
stroke:#000000; stroke-width:0; stroke-opacity:1; 
stroke-linecap:round; stroke-linejoin:round;">
<circle cx="49094.5" cy="30433.1" r="295.276" /> 
</g>
<g style="fill:#000000; fill-opacity:1.0; 
stroke:#000000; stroke-width:39.3701; stroke-opacity:1; 
stroke-linecap:round; stroke-linejoin:round;">
</g>
<g style="fill:#000000; fill-opacity:1.0; 
stroke:#000000; stroke-width:0; stroke-opacity:1; 
stroke-linecap:round; stroke-linejoin:round;">
<circle cx="51811" cy="32401.6" r="295.276" /> 
</g>
<g style="fill:#000000; fill-opacity:1.0; 
stroke:#000000; stroke-width:39.3701; stroke-opacity:1; 
stroke-linecap:round; stroke-linejoin:round;">
</g>
<g style="fill:#000000; fill-opacity:1.0; 
stroke:#000000; stroke-width:0; stroke-opacity:1; 
stroke-linecap:round; stroke-linejoin:round;">
<circle cx="50354.3" cy="34409.4" r="295.276" /> 
</g>
<g style="fill:#000000; fill-opacity:1.0; 
stroke:#000000; stroke-width:39.3701; stroke-opacity:1; 
stroke-linecap:round; stroke-linejoin:round;">
</g>
<g style="fill:#000000; fill-opacity:1.0; 
stroke:#000000; stroke-width:0; stroke-opacity:1; 
stroke-linecap:round; stroke-linejoin:round;">
<circle cx="51466.5" cy="31102.4" r="295.276" /> 
</g>
<g style="fill:#000000; fill-opacity:1.0; 
stroke:#000000; stroke-width:39.3701; stroke-opacity:1; 
stroke-linecap:round; stroke-linejoin:round;">
</g>
<g style="fill:#000000; fill-opacity:1.0; 
stroke:#000000; stroke-width:0; stroke-opacity:1; 
stroke-linecap:round; stroke-linejoin:round;">
<circle cx="32165.4" cy="24055.1" r="295.276" /> 
</g>
<g style="fill:#000000; fill-opacity:1.0; 
stroke:#000000; stroke-width:39.3701; stroke-opacity:1; 
stroke-linecap:round; stroke-linejoin:round;">
</g>
<g style="fill:#000000; fill-opacity:1.0; 
stroke:#000000; stroke-width:0; stroke-opacity:1; 
stroke-linecap:round; stroke-linejoin:round;">
<circle cx="26929.1" cy="24173.2" r="295.276" /> 
</g>
<g style="fill:#000000; fill-opacity:1.0; 
stroke:#000000; stroke-width:39.3701; stroke-opacity:1; 
stroke-linecap:round; stroke-linejoin:round;">
</g>
<g style="fill:#000000; fill-opacity:1.0; 
stroke:#000000; stroke-width:0; stroke-opacity:1; 
stroke-linecap:round; stroke-linejoin:round;">
<circle cx="28387.8" cy="28779.5" r="295.276" /> 
</g>
<g style="fill:#000000; fill-opacity:1.0; 
stroke:#000000; stroke-width:39.3701; stroke-opacity:1; 
stroke-linecap:round; stroke-linejoin:round;">
</g>
<g style="fill:#000000; fill-opacity:1.0; 
stroke:#000000; stroke-width:0; stroke-opacity:1; 
stroke-linecap:round; stroke-linejoin:round;">
<circle cx="52007.9" cy="33346.5" r="295.276" /> 
</g>
<g style="fill:#000000; fill-opacity:1.0; 
stroke:#000000; stroke-width:39.3701; stroke-opacity:1; 
stroke-linecap:round; stroke-linejoin:round;">
</g>
<g style="fill:#000000; fill-opacity:1.0; 
stroke:#000000; stroke-width:0; stroke-opacity:1; 
stroke-linecap:round; stroke-linejoin:round;">
<circle cx="54626" cy="21850.4" r="295.276" /> 
</g>
<g style="fill:#000000; fill-opacity:1.0; 
stroke:#000000; stroke-width:39.3701; stroke-opacity:1; 
stroke-linecap:round; stroke-linejoin:round;">
</g>
<g style="fill:#000000; fill-opacity:1.0; 
stroke:#000000; stroke-width:0; stroke-opacity:1; 
stroke-linecap:round; stroke-linejoin:round;">
<circle cx="55433.1" cy="21811" r="295.276" /> 
</g>
<g style="fill:#000000; fill-opacity:1.0; 
stroke:#000000; stroke-width:39.3701; stroke-opacity:1; 
stroke-linecap:round; stroke-linejoin:round;">
</g>
<g style="fill:#000000; fill-opacity:1.0; 
stroke:#000000; stroke-width:0; stroke-opacity:1; 
stroke-linecap:round; stroke-linejoin:round;">
<circle cx="32322.8" cy="27165.4" r="295.276" /> 
</g>
<g style="fill:#000000; fill-opacity:1.0; 
stroke:#000000; stroke-width:39.3701; stroke-opacity:1; 
stroke-linecap:round; stroke-linejoin:round;">
</g>
<g style="fill:#000000; fill-opacity:1.0; 
stroke:#000000; stroke-width:0; stroke-opacity:1; 
stroke-linecap:round; stroke-linejoin:round;">
<circle cx="30118.1" cy="31732.3" r="295.276" /> 
</g>
<g style="fill:#000000; fill-opacity:1.0; 
stroke:#000000; stroke-width:39.3701; stroke-opacity:1; 
stroke-linecap:round; stroke-linejoin:round;">
</g>
<g style="fill:#000000; fill-opacity:1.0; 
stroke:#000000; stroke-width:0; stroke-opacity:1; 
stroke-linecap:round; stroke-linejoin:round;">
<circle cx="34133.9" cy="24448.8" r="295.276" /> 
</g>
<g style="fill:#000000; fill-opacity:1.0; 
stroke:#000000; stroke-width:39.3701; stroke-opacity:1; 
stroke-linecap:round; stroke-linejoin:round;">
</g>
<g style="fill:#000000; fill-opacity:1.0; 
stroke:#000000; stroke-width:0; stroke-opacity:1; 
stroke-linecap:round; stroke-linejoin:round;">
<circle cx="30944.9" cy="23563" r="295.276" /> 
</g>
<g style="fill:#000000; fill-opacity:1.0; 
stroke:#000000; stroke-width:39.3701; stroke-opacity:1; 
stroke-linecap:round; stroke-linejoin:round;">
</g>
<g style="fill:#000000; fill-opacity:1.0; 
stroke:#000000; stroke-width:0; stroke-opacity:1; 
stroke-linecap:round; stroke-linejoin:round;">
<circle cx="31594.5" cy="26870.1" r="295.276" /> 
</g>
<g style="fill:#000000; fill-opacity:1.0; 
stroke:#000000; stroke-width:39.3701; stroke-opacity:1; 
stroke-linecap:round; stroke-linejoin:round;">
</g>
<g style="fill:#000000; fill-opacity:1.0; 
stroke:#000000; stroke-width:0; stroke-opacity:1; 
stroke-linecap:round; stroke-linejoin:round;">
<circle cx="28346.5" cy="31594.5" r="295.276" /> 
</g>
<g style="fill:#000000; fill-opacity:1.0; 
stroke:#000000; stroke-width:39.3701; stroke-opacity:1; 
stroke-linecap:round; stroke-linejoin:round;">
</g>
<g style="fill:#000000; fill-opacity:1.0; 
stroke:#000000; stroke-width:0; stroke-opacity:1; 
stroke-linecap:round; stroke-linejoin:round;">
<circle cx="31801.2" cy="29409.4" r="295.276" /> 
</g>
<g style="fill:#000000; fill-opacity:1.0; 
stroke:#000000; stroke-width:39.3701; stroke-opacity:1; 
stroke-linecap:round; stroke-linejoin:round;">
</g>
<g style="fill:#000000; fill-opacity:1.0; 
stroke:#000000; stroke-width:0; stroke-opacity:1; 
stroke-linecap:round; stroke-linejoin:round;">
<circle cx="32244.1" cy="30078.7" r="295.276" /> 
</g>
<g style="fill:#000000; fill-opacity:1.0; 
stroke:#000000; stroke-width:39.3701; stroke-opacity:1; 
stroke-linecap:round; stroke-linejoin:round;">
</g>
<g style="fill:#000000; fill-opacity:1.0; 
stroke:#000000; stroke-width:0; stroke-opacity:1; 
stroke-linecap:round; stroke-linejoin:round;">
<circle cx="28543.3" cy="30807.1" r="295.276" /> 
</g>
<g style="fill:#000000; fill-opacity:1.0; 
stroke:#000000; stroke-width:39.3701; stroke-opacity:1; 
stroke-linecap:round; stroke-linejoin:round;">
</g>
<g style="fill:#000000; fill-opacity:1.0; 
stroke:#000000; stroke-width:0; stroke-opacity:1; 
stroke-linecap:round; stroke-linejoin:round;">
<circle cx="49094.5" cy="31417.3" r="295.276" /> 
</g>
<g style="fill:#000000; fill-opacity:1.0; 
stroke:#000000; stroke-width:39.3701; stroke-opacity:1; 
stroke-linecap:round; stroke-linejoin:round;">
</g>
<g style="fill:#000000; fill-opacity:1.0; 
stroke:#000000; stroke-width:0; stroke-opacity:1; 
stroke-linecap:round; stroke-linejoin:round;">
<circle cx="51023.6" cy="32440.9" r="295.276" /> 
</g>
<g style="fill:#000000; fill-opacity:1.0; 
stroke:#000000; stroke-width:39.3701; stroke-opacity:1; 
stroke-linecap:round; stroke-linejoin:round;">
</g>
<g style="fill:#000000; fill-opacity:1.0; 
stroke:#000000; stroke-width:0; stroke-opacity:1; 
stroke-linecap:round; stroke-linejoin:round;">
<circle cx="49724.4" cy="27480.3" r="295.276" /> 
</g>
<g style="fill:#000000; fill-opacity:1.0; 
stroke:#000000; stroke-width:39.3701; stroke-opacity:1; 
stroke-linecap:round; stroke-linejoin:round;">
</g>
<g style="fill:#000000; fill-opacity:1.0; 
stroke:#000000; stroke-width:0; stroke-opacity:1; 
stroke-linecap:round; stroke-linejoin:round;">
<circle cx="49094.5" cy="29409.4" r="295.276" /> 
</g>
<g style="fill:#000000; fill-opacity:1.0; 
stroke:#000000; stroke-width:39.3701; stroke-opacity:1; 
stroke-linecap:round; stroke-linejoin:round;">
</g>
<g style="fill:#000000; fill-opacity:1.0; 
stroke:#000000; stroke-width:0; stroke-opacity:1; 
stroke-linecap:round; stroke-linejoin:round;">
<circle cx="54918" cy="26907.7" r="295.276" /> 
</g>
<g style="fill:#000000; fill-opacity:1.0; 
stroke:#000000; stroke-width:39.3701; stroke-opacity:1; 
stroke-linecap:round; stroke-linejoin:round;">
</g>
<g style="fill:#000000; fill-opacity:1.0; 
stroke:#000000; stroke-width:0; stroke-opacity:1; 
stroke-linecap:round; stroke-linejoin:round;">
<circle cx="51348.4" cy="27637.8" r="295.276" /> 
</g>
<g style="fill:#000000; fill-opacity:1.0; 
stroke:#000000; stroke-width:39.3701; stroke-opacity:1; 
stroke-linecap:round; stroke-linejoin:round;">
</g>
<g style="fill:#000000; fill-opacity:1.0; 
stroke:#000000; stroke-width:0; stroke-opacity:1; 
stroke-linecap:round; stroke-linejoin:round;">
<circle cx="30275.6" cy="28779.5" r="295.276" /> 
</g>
<g style="fill:#000000; fill-opacity:1.0; 
stroke:#000000; stroke-width:39.3701; stroke-opacity:1; 
stroke-linecap:round; stroke-linejoin:round;">
</g>
<g style="fill:#000000; fill-opacity:1.0; 
stroke:#000000; stroke-width:0; stroke-opacity:1; 
stroke-linecap:round; stroke-linejoin:round;">
<circle cx="31141.7" cy="19763.8" r="295.276" /> 
</g>
<g style="fill:#000000; fill-opacity:1.0; 
stroke:#000000; stroke-width:39.3701; stroke-opacity:1; 
stroke-linecap:round; stroke-linejoin:round;">
</g>
<g style="fill:#000000; fill-opacity:1.0; 
stroke:#000000; stroke-width:98.4252; stroke-opacity:1; 
stroke-linecap:round; stroke-linejoin:round;">
</g>
<g style="fill:#000000; fill-opacity:0.0; 
stroke:#000000; stroke-width:98.4252; stroke-opacity:1; 
stroke-linecap:round; stroke-linejoin:round;">
<path d="M37228 42938
L36913 42623
" />
<path d="M37779 42465
L37779 42938
" />
<path d="M37779 42938
L37228 42938
" />
<path d="M37779 41520
L37622 41363
" />
<path d="M37779 41993
L37149 41363
" />
<path d="M37779 42229
L36913 41363
" />
<path d="M37779 41757
L37385 41363
" />
<path d="M36677 41363
L37779 42465
" />
<path d="M36204 42938
L36204 42544
" />
<path d="M36519 42229
L36204 41914
" />
<path d="M36598 42938
L36204 42938
" />
<path d="M36913 42623
L36598 42938
" />
<path d="M36204 41914
L36204 41363
" />
<path d="M36204 42544
L36519 42229
" />
<path d="M36204 41363
L36677 41363
" />
<path d="M36047 41205
L37937 41205
" />
<path d="M36047 43095
L36047 41205
" />
<path d="M37937 43095
L36047 43095
" />
<path d="M37937 41205
L37937 43095
" />
<path d="M54251 42795
L53779 42795
" />
<path d="M54566 42480
L54251 42795
" />
<path d="M53779 42795
L53779 42322
" />
<path d="M53779 42322
L54094 42007
" />
<path d="M54094 42007
L53779 41692
" />
<path d="M53779 41692
L53779 41220
" />
<path d="M53779 41220
L54330 41220
" />
<path d="M55354 42244
L55354 42795
" />
<path d="M54881 42795
L54566 42480
" />
<path d="M55354 42795
L54881 42795
" />
<path d="M54330 41220
L55354 42244
" />
<path d="M55354 41771
L54803 41220
" />
<path d="M55354 41535
L55039 41220
" />
<path d="M55354 41299
L55275 41220
" />
<path d="M55354 42007
L54566 41220
" />
<path d="M53622 42952
L53622 41062
" />
<path d="M53622 41062
L55511 41062
" />
<path d="M55511 41062
L55511 42952
" />
<path d="M55511 42952
L53622 42952
" />
<path d="M58011 27687
L57716 27982
" />
<path d="M58228 27470
L58011 27687
" />
<path d="M58228 26614
L58228 27470
" />
<path d="M58228 27322
L58228 26614
" />
<path d="M54330 28307
L55188 29164
" />
<path d="M55188 29164
L55204 29164
" />
<path d="M58662 31033
L57529 31033
" />
<path d="M57529 31033
L57102 30606
" />
<path d="M57102 30606
L57102 30000
" />
<path d="M56310 27501
L55504 28307
" />
<path d="M55504 28307
L55330 28307
" />
<path d="M59330 30866
L59330 30448
" />
<path d="M58882 30000
L58535 30000
" />
<path d="M59330 30448
L58882 30000
" />
<path d="M58535 30000
L58102 30000
" />
<path d="M53779 19566
L53779 20236
" />
<path d="M53779 20236
L53425 20590
" />
<path d="M53425 20590
L53070 20590
" />
<path d="M53070 20590
L51456 22204
" />
<path d="M51456 22204
L51456 24195
" />
<path d="M51456 24195
L52519 25258
" />
<path d="M52519 25258
L52519 27165
" />
<path d="M52519 27165
L52047 27637
" />
<path d="M53897 29606
L53385 29094
" />
<path d="M56102 30000
L55767 29665
" />
<path d="M55767 29665
L53956 29665
" />
<path d="M53956 29665
L53897 29606
" />
<path d="M53330 28307
L53330 29039
" />
<path d="M53330 29039
L53385 29094
" />
<path d="M51955 30187
L54621 30187
" />
<path d="M51926 30157
L51955 30187
" />
<path d="M54621 30187
L55039 30187
" />
<path d="M51926 31615
L51926 30157
" />
<path d="M51926 30157
L51926 28776
" />
<path d="M53159 27543
L53159 27362
" />
<path d="M51926 28776
L53159 27543
" />
<path d="M51496 36929
L51969 36929
" />
<path d="M51969 36929
L52834 36063
" />
<path d="M52834 36063
L52834 33188
" />
<path d="M48582 27451
L48582 29921
" />
<path d="M48582 29921
L49094 30433
" />
<path d="M49921 26614
L49420 26614
" />
<path d="M49420 26614
L48582 27451
" />
<path d="M50000 30425
L49102 30425
" />
<path d="M49102 30425
L49094 30433
" />
<path d="M52834 33188
L52047 32401
" />
<path d="M52047 32401
L51811 32401
" />
<path d="M52716 25177
L52716 27624
" />
<path d="M54779 20141
L54488 20433
" />
<path d="M51653 24114
L52716 25177
" />
<path d="M53506 20787
L53188 20787
" />
<path d="M53188 20787
L51653 22322
" />
<path d="M54779 19566
L54779 20141
" />
<path d="M54488 20433
L53861 20433
" />
<path d="M53861 20433
L53506 20787
" />
<path d="M52716 27624
L51466 28874
" />
<path d="M51653 22322
L51653 24114
" />
<path d="M51466 28874
L51466 31102
" />
<path d="M50456 35393
L50456 36889
" />
<path d="M50456 36889
L50496 36929
" />
<path d="M50456 35393
L50456 34511
" />
<path d="M50456 34511
L50354 34409
" />
</g>
<g style="fill:#000000; fill-opacity:0.0; 
stroke:#000000; stroke-width:196.85; stroke-opacity:1; 
stroke-linecap:round; stroke-linejoin:round;">
<path d="M32165 24055
L27047 24055
" />
<path d="M27047 24055
L26929 24173
" />
<path d="M26870 27559
L26870 24232
" />
<path d="M26870 24232
L26929 24173
" />
<path d="M27952 28641
L27952 28779
" />
<path d="M27952 28779
L27952 29484
" />
<path d="M28387 28779
L27952 28779
" />
<path d="M27165 28425
L27736 28425
" />
<path d="M27736 28425
L27952 28641
" />
<path d="M27952 29484
L28389 29921
" />
<path d="M28389 29921
L29078 29921
" />
<path d="M27165 27854
L26870 27559
" />
<path d="M27165 28425
L27165 27854
" />
</g>
<g style="fill:#000000; fill-opacity:0.0; 
stroke:#000000; stroke-width:98.4252; stroke-opacity:1; 
stroke-linecap:round; stroke-linejoin:round;">
<path d="M52007 33346
L52007 34291
" />
<path d="M52007 34291
L51456 34842
" />
<path d="M51456 34842
L51456 35393
" />
<path d="M54645 21870
L54625 21850
" />
<path d="M54645 23094
L54645 21870
" />
<path d="M54645 24094
L55039 24094
" />
<path d="M55433 23700
L55433 21811
" />
<path d="M55039 24094
L55433 23700
" />
<path d="M32106 31614
L33110 30610
" />
<path d="M33110 30610
L33110 28149
" />
<path d="M32322 27362
L32322 27165
" />
<path d="M33110 28149
L32322 27362
" />
<path d="M31279 39901
L30118 38740
" />
<path d="M31279 42480
L31279 39901
" />
<path d="M30118 32149
L30118 31732
" />
<path d="M30118 38740
L30118 32149
" />
<path d="M26279 35255
L27165 34370
" />
<path d="M27165 34370
L27165 33425
" />
<path d="M26279 37972
L26279 35255
" />
<path d="M26279 42480
L26279 37972
" />
<path d="M37106 31614
L36515 31023
" />
<path d="M36515 31023
L36515 26413
" />
<path d="M36515 26413
L34551 24448
" />
<path d="M34551 24448
L34133 24448
" />
<path d="M37106 36122
L37106 31614
" />
<path d="M33622 23937
L33444 24114
" />
<path d="M33444 24114
L33444 24468
" />
<path d="M33444 24468
L31889 26023
" />
<path d="M31889 26023
L31889 26574
" />
<path d="M31889 26574
L31594 26870
" />
<path d="M30944 23562
L31692 23562
" />
<path d="M33622 22913
L32578 22913
" />
<path d="M32578 22913
L31929 23562
" />
<path d="M31929 23562
L31692 23562
" />
<path d="M34133 24448
L33622 23937
" />
<path d="M33622 23937
L33622 22913
" />
<path d="M33622 22874
L33622 23661
" />
<path d="M26535 33268
L26535 31055
" />
<path d="M26535 31055
L27165 30425
" />
<path d="M27165 33425
L26692 33425
" />
<path d="M26692 33425
L26535 33268
" />
<path d="M27165 30425
L28334 31594
" />
<path d="M28334 31594
L28346 31594
" />
<path d="M31338 30078
L31801 29616
" />
<path d="M31801 29616
L31801 29409
" />
<path d="M30784 30078
L31338 30078
" />
<path d="M27165 31425
L27777 32037
" />
<path d="M27777 32037
L28825 32037
" />
<path d="M28825 32037
L30784 30078
" />
<path d="M32244 30078
L31826 30078
" />
<path d="M31826 30078
L31550 30354
" />
<path d="M31550 30354
L30787 30354
" />
<path d="M30787 30354
L28897 32244
" />
<path d="M28897 32244
L27346 32244
" />
<path d="M27346 32244
L27165 32425
" />
<path d="M27165 29425
L28543 30803
" />
<path d="M28543 30803
L28543 30807
" />
<path d="M59212 26614
L58543 27283
" />
<path d="M59212 29566
L59881 30236
" />
<path d="M58543 27283
L58543 28149
" />
<path d="M58543 28149
L59212 28818
" />
<path d="M59212 28818
L59212 29566
" />
<path d="M59881 30236
L59881 31141
" />
<path d="M49094 31417
L49094 37716
" />
<path d="M49094 37716
L49803 38425
" />
<path d="M49803 38425
L52598 38425
" />
<path d="M52598 38425
L59881 31141
" />
<path d="M59881 31141
L59212 31811
" />
<path d="M51269 30551
L51269 28858
" />
<path d="M50905 26614
L50905 28494
" />
<path d="M50905 28494
L51269 28858
" />
<path d="M51023 32440
L51023 30797
" />
<path d="M51023 30797
L51269 30551
" />
<path d="M49094 29409
L49094 28110
" />
<path d="M49094 28110
L49724 27480
" />
<path d="M49094 29409
L49094 28991
" />
<path d="M57244 26614
L55211 26614
" />
<path d="M55211 26614
L54918 26907
" />
<path d="M51889 26614
L51348 27155
" />
<path d="M51348 27155
L51348 27637
" />
<path d="M30078 29447
L30078 28976
" />
<path d="M30078 28976
L30275 28779
" />
<path d="M30078 29921
L30078 29447
" />
</g>
<g style="fill:#000000; fill-opacity:0.0; 
stroke:#000000; stroke-width:196.85; stroke-opacity:1; 
stroke-linecap:round; stroke-linejoin:round;">
<path d="M31622 21374
L32566 20429
" />
<path d="M32566 20429
L33578 20429
" />
<path d="M33578 20429
L33622 20472
" />
<path d="M31141 19763
L31141 20893
" />
<path d="M31141 20893
L31622 21374
" />
<path d="M31771 21692
L31771 20807
" />
</g>
<g style="fill:#000000; fill-opacity:1.0; 
stroke:#000000; stroke-width:100; stroke-opacity:1; 
stroke-linecap:round; stroke-linejoin:round;">
<polyline style="fill-rule:evenodd;"
points="57988,20866
58009,20973
58070,21063
58160,21124
58267,21145
60744,21145
60744,23118
60575,22949
60266,22821
59931,22820
59622,22948
59386,23184
59258,23493
59257,23827
59385,24136
59621,24373
59930,24501
60264,24502
60573,24374
60744,24204
60744,43027
60387,43027
60387,40763
55594,40763
55594,40780
55511,40763
53622,40763
53507,40786
53410,40851
53345,40948
53322,41062
53322,42952
53337,43027
48311,43027
48311,31525
48549,31525
48631,31725
48785,31879
48795,31883
48795,37716
48818,37831
48882,37928
49591,38636
49688,38701
49707,38705
49803,38724
52598,38724
52712,38701
52810,38636
60093,31353
60158,31256
60181,31141
60181,30236
60158,30121
60093,30024
59511,29442
59511,28818
59489,28704
59424,28607
58842,28025
58842,27407
59049,27200
59091,27218
59332,27218
59554,27126
59724,26956
59816,26734
59817,26494
59725,26272
59555,26102
59333,26009
59092,26009
58870,26101
58720,26251
58571,26102
58349,26009
58108,26009
57886,26101
57736,26251
57586,26102
57364,26009
57124,26009
56902,26101
56732,26271
56713,26314
55211,26314
55097,26337
55047,26370
55026,26362
54810,26362
54609,26445
54456,26598
54372,26798
54372,27015
54455,27216
54608,27369
54809,27452
55026,27453
55226,27370
55380,27216
55463,27016
55463,26913
56713,26913
56731,26956
56901,27126
57123,27218
57363,27218
57585,27126
57736,26976
57885,27126
57929,27144
57929,27346
57834,27440
57825,27437
57608,27436
57408,27519
57254,27673
57171,27873
57171,28090
57254,28290
57407,28444
57607,28527
57824,28527
58025,28444
58178,28291
58244,28133
58244,28149
58266,28264
58331,28361
58913,28942
58913,29566
58936,29681
58959,29716
58882,29700
58691,29700
58691,29665
58674,29572
58619,29487
58536,29430
58437,29410
57767,29410
57675,29427
57589,29482
57532,29566
57527,29592
57515,29575
57326,29448
57102,29403
56878,29448
56688,29575
56602,29704
56515,29575
56326,29448
56102,29403
55950,29434
55882,29388
55767,29366
55710,29366
55749,29273
55749,29056
55666,28856
55623,28812
55744,28731
55870,28542
55915,28319
56192,28042
56201,28046
56418,28046
56618,27964
56772,27810
56855,27610
56855,27393
56772,27193
56619,27039
56419,26956
56202,26956
56001,27039
55848,27192
55765,27392
55764,27609
55768,27619
55601,27786
55554,27755
55330,27710
55106,27755
54917,27882
54830,28011
54744,27882
54554,27755
54330,27710
54106,27755
53917,27882
53906,27898
53902,27879
53848,27794
53764,27737
53665,27717
52997,27717
53015,27624
53015,25177
52992,25062
52928,24965
52362,24400
52607,24501
52942,24502
53251,24374
53487,24138
53505,24094
54049,24094
54094,24318
54220,24507
54410,24634
54634,24679
54657,24679
54880,24634
55070,24507
55168,24361
55250,24306
55579,23977
55645,24136
55881,24373
56190,24501
56524,24502
56833,24374
57070,24138
57198,23829
57198,23494
57071,23185
56835,22949
56526,22821
56191,22820
55882,22948
55732,23098
55732,22277
55741,22273
55895,22120
55978,21919
55978,21703
55895,21502
55742,21349
55542,21265
55325,21265
55124,21348
55009,21463
54935,21388
54734,21305
54517,21305
54317,21387
54163,21541
54080,21741
54080,21958
54163,22158
54316,22312
54346,22324
54346,22504
54311,22504
54218,22522
54133,22577
54076,22660
54056,22759
54056,23429
54073,23521
54128,23606
54211,23663
54238,23669
54220,23681
54094,23870
54049,24094
53505,24094
53615,23829
53616,23494
53488,23185
53252,22949
52943,22821
52609,22820
52300,22948
52063,23184
51952,23451
51952,22446
53312,21086
53506,21086
53621,21063
53718,20998
53985,20732
54488,20732
54602,20709
54699,20644
54991,20353
55055,20256
55078,20141
55078,20068
55192,19991
55279,19862
55366,19991
55555,20118
55779,20163
56003,20118
56192,19991
56319,19802
56364,19578
56364,19555
56319,19331
56192,19142
56003,19015
55779,18970
55555,19015
55366,19142
55279,19271
55192,19142
55003,19015
54779,18970
54555,19015
54366,19142
54355,19158
54351,19139
54296,19054
54213,18997
54114,18977
53444,18977
53352,18994
53267,19049
53210,19133
53189,19232
53189,19901
53207,19994
53262,20079
53345,20136
53437,20154
53301,20291
53070,20291
52956,20314
52859,20378
51245,21993
51180,22090
51157,22204
51157,24195
51180,24310
51245,24407
52220,25382
52220,26097
52010,26009
51770,26009
51547,26101
51397,26251
51248,26102
51026,26009
50785,26009
50563,26101
50393,26271
50392,26274
50346,26259
49991,26614
50346,26968
50391,26953
50392,26956
50562,27126
50606,27144
50606,28494
50629,28608
50693,28705
50970,28982
50970,30427
50812,30585
50747,30682
50724,30797
50724,31974
50715,31978
50561,32131
50539,32183
50424,32011
50295,31925
50424,31838
50551,31648
50596,31425
50551,31201
50424,31011
50290,30922
50346,30895
50500,30727
50567,30565
50519,30475
50050,30475
50050,30483
49950,30483
49950,30475
49480,30475
49432,30565
49499,30727
49653,30895
49709,30922
49575,31011
49529,31080
49403,30955
49203,30872
48986,30871
48786,30954
48632,31108
48549,31308
48549,31525
48311,31525
48311,29517
48549,29517
48631,29717
48785,29871
48985,29954
49202,29954
49402,29871
49519,29755
49575,29838
49709,29928
49653,29954
49499,30123
49432,30284
49480,30375
49950,30375
49950,30367
50050,30367
50050,30375
50519,30375
50567,30284
50500,30123
50346,29954
50290,29928
50424,29838
50551,29648
50596,29425
50551,29201
50424,29011
50408,29000
50427,28997
50512,28942
50569,28859
50589,28759
50589,28090
50572,27997
50517,27912
50433,27855
50334,27835
50140,27835
50186,27789
50269,27589
50269,27372
50186,27171
50180,27165
50241,27140
50275,27039
49921,26684
49915,26690
49844,26619
49850,26614
49496,26259
49395,26293
49312,26519
49322,26759
49395,26934
49495,26968
49468,26995
49415,27017
49262,27171
49179,27371
49179,27588
49183,27598
48882,27898
48818,27995
48795,28110
48795,28943
48786,28946
48632,29100
48549,29300
48549,29517
48311,29517
48311,26188
49566,26188
49921,26543
50275,26188
50241,26087
50016,26005
49775,26015
49600,26087
49566,26188
48311,26188
48311,24109
48322,24136
48558,24373
48867,24501
49201,24502
49510,24374
49747,24138
49875,23829
49876,23494
49748,23185
49512,22949
49203,22821
48868,22820
48559,22948
48323,23184
48311,23214
48311,21145
50787,21145
50894,21124
50985,21063
51045,20973
51066,20866
51066,18389
57988,18389
57988,20866
" /> 
<polyline style="fill-rule:evenodd;"
points="52741,28641
52758,28734
52813,28819
52888,28870
52840,28985
52840,29202
52923,29402
53076,29556
53276,29639
53493,29639
53503,29635
53745,29876
53842,29941
53861,29945
53956,29964
55522,29964
55517,29988
55517,30011
55562,30235
55688,30424
55878,30551
56102,30596
56326,30551
56515,30424
56602,30295
56688,30424
56803,30501
56803,30606
56825,30720
56890,30817
57317,31244
57414,31309
57529,31332
58195,31332
58199,31341
58353,31495
58553,31578
58770,31578
58970,31495
59104,31362
59198,31401
52474,38125
49927,38125
49393,37592
49393,33565
49432,33565
49499,33727
49653,33895
49859,33992
49949,33945
49949,34009
49982,34009
49892,34100
49809,34300
49808,34517
49891,34717
50008,34834
49944,34876
49887,34959
49867,35059
49867,35728
49884,35820
49939,35906
50022,35963
50122,35983
50157,35983
50157,36340
50068,36357
49983,36411
49926,36495
49906,36594
49906,37263
49923,37356
49978,37441
50062,37498
50161,37518
50830,37518
50923,37501
51008,37446
51065,37362
51074,37320
51194,37429
51355,37496
51446,37448
51446,36979
51546,36979
51546,37448
51636,37496
51798,37429
51966,37276
52063,37069
52016,36979
51546,36979
51446,36979
51438,36979
51438,36879
51446,36879
51446,36409
51546,36409
51546,36879
52016,36879
52063,36788
51966,36582
51798,36428
51636,36361
51546,36409
51446,36409
51355,36361
51194,36428
51074,36537
51068,36501
51013,36416
50929,36359
50830,36339
50755,36339
50755,35983
50791,35983
50883,35965
50969,35911
51026,35827
51031,35800
51043,35818
51232,35945
51456,35989
51680,35945
51870,35818
51996,35628
52041,35405
52041,35382
51996,35158
51870,34968
51800,34922
52219,34502
52284,34405
52307,34291
52307,33812
52316,33808
52469,33655
52553,33455
52553,33238
52470,33037
52317,32884
52116,32801
51899,32801
51699,32883
51545,33037
51462,33237
51462,33454
51545,33654
51698,33808
51708,33812
51708,34167
51245,34630
51180,34728
51157,34842
51157,34892
51043,34968
51032,34985
51028,34966
50974,34881
50890,34824
50791,34804
50755,34804
50755,34779
50816,34718
50899,34518
50899,34301
50816,34100
50663,33947
50463,33864
50375,33864
50500,33727
50567,33565
50519,33475
50050,33475
50050,33483
49950,33483
49950,33475
49480,33475
49432,33565
49393,33565
49393,31883
49402,31879
49522,31760
49575,31838
49704,31925
49575,32011
49448,32201
49403,32425
49448,32648
49575,32838
49709,32928
49653,32954
49499,33123
49432,33284
49480,33375
49950,33375
49950,33367
50050,33367
50050,33375
50519,33375
50567,33284
50500,33123
50346,32954
50290,32928
50424,32838
50531,32678
50561,32749
50714,32902
50914,32986
51131,32986
51332,32903
51485,32750
51568,32549
51568,32332
51486,32132
51332,31978
51322,31974
51322,31633
51357,31647
51574,31647
51775,31564
51928,31411
52011,31211
52011,30994
51929,30793
51775,30640
51765,30636
51765,28997
52741,28022
52741,28641
" /> 
<polyline style="fill-rule:evenodd;"
points="35153,20866
35174,20973
35235,21063
35326,21124
35433,21145
37909,21145
37909,31348
37827,31151
37702,31088
37177,31614
37702,32139
37827,32076
37909,31868
37909,35856
37827,35659
37702,35596
37177,36122
37702,36647
37827,36584
37909,36376
37909,38849
33448,38849
33448,40018
33486,40018
33486,41155
35758,41155
35748,41205
35748,43027
31921,43027
31991,42957
32119,42648
32120,42313
31992,42004
31756,41768
31578,41694
31578,39901
31555,39787
31491,39689
30417,38616
30417,38138
30438,38138
30566,38447
30802,38684
31111,38812
31445,38813
31755,38685
31991,38449
32119,38140
32120,37805
31992,37496
31756,37260
31447,37132
31113,37131
30804,37259
30567,37495
30439,37804
30438,38138
30417,38138
30417,36288
31265,36288
31393,36597
31629,36834
31938,36962
32272,36962
32581,36835
32818,36598
32946,36289
32946,36288
33765,36288
33893,36597
34129,36834
34438,36962
34772,36962
35081,36835
35318,36598
35346,36532
35481,36667
35717,36765
35973,36765
36089,36718
36580,36718
36643,36843
36955,36965
37289,36959
37568,36843
37631,36718
37106,36192
36580,36718
36089,36718
36210,36668
36358,36520
36384,36584
36510,36647
37035,36122
36510,35596
36384,35659
36359,35724
36211,35576
36089,35525
36580,35525
37106,36051
37631,35525
37568,35400
37257,35278
36923,35284
36643,35400
36580,35525
36089,35525
35975,35478
35718,35478
35482,35576
35346,35711
35319,35646
35083,35409
34774,35281
34439,35281
34130,35409
33894,35645
33765,35954
33765,36288
32946,36288
32946,35955
32819,35646
32583,35409
32274,35281
31939,35281
31630,35409
31394,35645
31265,35954
31265,36288
30417,36288
30417,32198
30426,32194
30580,32041
30663,31841
30663,31780
31265,31780
31393,32089
31629,32326
31938,32454
32272,32454
32505,32358
32505,32607
32633,32916
32869,33153
33178,33281
33512,33281
33821,33153
34058,32917
34186,32608
34187,32350
34438,32454
34772,32454
35081,32327
35318,32090
35346,32024
35481,32159
35717,32257
35973,32257
36089,32210
36580,32210
36643,32335
36955,32457
37289,32451
37568,32335
37631,32210
37106,31684
36580,32210
36089,32210
36210,32160
36358,32012
36384,32076
36510,32139
37035,31614
36510,31088
36384,31151
36359,31216
36211,31068
36089,31018
36580,31018
37106,31543
37631,31018
37568,30892
37257,30770
36923,30776
36643,30892
36580,31018
36089,31018
35975,30970
35718,30970
35482,31068
35346,31203
35319,31138
35083,30902
34774,30773
34439,30773
34130,30901
33894,31137
33765,31446
33765,31704
33514,31600
33179,31600
32946,31696
32946,31447
32873,31270
33321,30821
33386,30724
33409,30610
33409,28149
33386,28035
33321,27938
32806,27422
32868,27274
32868,27057
32785,26856
32632,26703
32431,26620
32214,26619
32014,26702
31860,26856
31777,27056
31777,27273
31860,27473
32013,27627
32213,27710
32248,27710
32811,28273
32811,30486
32450,30846
32274,30773
31939,30773
31630,30901
31394,31137
31265,31446
31265,31780
30663,31780
30663,31624
30580,31423
30427,31270
30333,31231
30911,30653
31550,30653
31665,30630
31762,30565
31861,30467
31934,30540
32135,30623
32352,30624
32552,30541
32706,30388
32789,30187
32789,29970
32706,29770
32553,29616
32353,29533
32340,29533
32346,29518
32346,29301
32263,29100
32110,28947
31910,28864
31693,28864
31492,28946
31339,29100
31256,29300
31255,29517
31320,29673
31214,29779
30784,29779
30670,29802
30645,29818
30618,29686
30492,29496
30377,29420
30377,29324
30383,29324
30584,29242
30737,29088
30820,28888
30820,28671
30738,28471
30584,28317
30384,28234
30167,28234
29967,28316
29813,28470
29730,28670
29730,28887
29779,29006
29779,29420
29665,29496
29654,29512
29650,29493
29596,29408
29512,29351
29413,29331
28744,29331
28651,29349
28566,29403
28509,29487
28499,29537
28301,29339
28301,29324
28495,29324
28696,29242
28849,29088
28932,28888
28933,28671
28850,28471
28697,28317
28496,28234
28279,28234
28108,28304
27982,28178
27938,28149
27869,28103
27847,28098
27752,28080
27737,27997
27682,27912
27599,27855
27510,27837
27487,27720
27447,27661
27411,27607
27411,27607
27218,27414
27218,24643
27237,24635
27391,24482
27423,24403
31742,24403
31856,24517
32056,24600
32273,24600
32473,24517
32627,24364
32710,24164
32710,24108
33509,24108
33572,24045
33572,22963
33672,22963
33672,24045
33734,24108
34616,24108
34708,24070
34778,23999
34816,23907
34816,23025
34754,22963
33672,22963
33572,22963
32489,22963
32427,23025
32427,23573
32274,23509
32057,23509
31856,23592
31742,23706
27227,23706
27038,23628
26821,23627
26620,23710
26467,23863
26383,24064
26383,24281
26466,24481
26521,24536
26521,27559
26521,27559
26535,27627
26548,27692
26560,27710
26623,27805
26697,27879
26652,27907
26595,27991
26575,28090
26575,28759
26593,28852
26647,28937
26731,28994
26758,29000
26740,29011
26613,29201
26569,29425
26613,29648
26740,29838
26874,29928
26818,29954
26664,30123
26597,30284
26645,30375
27115,30375
27115,30367
27215,30367
27215,30375
27223,30375
27223,30475
27215,30475
27215,30483
27115,30483
27115,30475
26645,30475
26597,30565
26664,30727
26818,30895
26874,30922
26740,31011
26613,31201
26569,31425
26613,31648
26740,31838
26870,31925
26740,32011
26613,32201
26569,32425
26613,32648
26740,32838
26874,32928
26818,32954
26664,33123
26597,33284
26645,33375
27115,33375
27115,33367
27215,33367
27215,33375
27685,33375
27732,33284
27666,33123
27512,32954
27456,32928
27590,32838
27716,32648
27737,32543
28897,32543
29012,32520
29109,32455
29617,31947
29655,32040
29808,32194
29818,32198
29818,38740
29841,38854
29906,38951
30980,40025
30980,41694
30879,41735
30880,41487
30752,41178
30516,40941
30207,40813
29872,40812
29563,40940
29327,41176
29198,41485
29198,41744
28947,41639
28613,41639
28304,41767
28067,42003
28039,42070
27904,41934
27667,41836
27411,41836
27175,41934
27027,42081
27001,42017
26875,41954
26350,42480
26355,42485
26285,42556
26279,42551
26273,42556
26203,42485
26208,42480
25683,41954
25557,42017
25476,42226
25476,41884
25754,41884
26279,42409
26804,41884
26741,41758
26430,41636
26096,41643
25817,41758
25754,41884
25476,41884
25476,38568
25754,38568
25817,38693
26128,38816
26462,38809
26741,38693
26804,38568
26279,38043
25754,38568
25476,38568
25476,38237
25557,38434
25683,38497
26208,37972
26350,37972
26875,38497
27001,38434
27026,38369
27174,38517
27410,38616
27666,38616
27903,38518
28039,38382
28066,38447
28302,38684
28611,38812
28945,38813
29255,38685
29491,38449
29619,38140
29620,37805
29492,37496
29256,37260
28947,37132
28613,37131
28304,37259
28067,37495
28039,37562
27904,37427
27667,37328
27411,37328
27175,37426
27027,37573
27001,37510
26875,37447
26350,37972
26208,37972
25683,37447
25557,37510
25476,37718
25476,37376
25754,37376
26279,37901
26804,37376
26741,37250
26430,37128
26096,37135
25817,37250
25754,37376
25476,37376
25476,33565
26597,33565
26664,33727
26818,33895
27024,33992
27115,33945
27115,33475
27215,33475
27215,33945
27305,33992
27512,33895
27666,33727
27732,33565
27685,33475
27215,33475
27115,33475
26645,33475
26597,33565
25476,33565
25476,21650
30426,21650
30608,22089
30944,22425
31383,22608
31858,22608
32298,22426
32427,22298
32427,22800
32489,22863
33572,22863
33572,21781
33672,21781
33672,22863
34754,22863
34816,22800
34816,21918
34778,21826
34708,21756
34616,21718
33734,21718
33672,21781
33572,21781
33509,21718
32789,21718
32816,21652
32816,21396
32944,21524
33383,21706
33858,21706
34298,21525
34634,21189
34816,20750
34817,20275
34635,19835
34299,19499
33860,19317
33385,19316
32946,19498
32609,19834
32501,20093
32433,20107
32320,20182
32320,20182
32160,20343
31860,20218
31490,20218
31490,20186
31603,20073
31686,19872
31687,19655
31604,19455
31451,19301
31250,19218
31033,19218
30833,19301
30679,19454
30596,19654
30596,19871
30679,20072
30793,20186
30793,20552
30609,20735
30427,21174
30426,21650
25476,21650
25476,21145
27952,21145
28059,21124
28150,21063
28211,20973
28232,20866
28232,18389
35153,18389
35153,20866
" /> 
<polyline style="fill-rule:evenodd;"
points="29665,30346
29855,30472
29948,30491
28701,31738
27901,31738
27732,31569
27761,31425
27716,31201
27590,31011
27456,30922
27512,30895
27666,30727
27732,30565
27685,30475
27750,30475
27750,30432
28003,30686
27998,30698
27997,30915
28080,31115
28234,31269
28434,31352
28651,31352
28851,31269
29005,31116
29088,30916
29088,30699
29010,30510
29413,30510
29506,30493
29591,30438
29648,30355
29653,30328
29665,30346
" /> 
</g> 
</svg>
